%TF.GenerationSoftware,KiCad,Pcbnew,9.0.3*%
%TF.CreationDate,2025-08-10T03:43:02+02:00*%
%TF.ProjectId,Spikeling_v3.0,5370696b-656c-4696-9e67-5f76332e302e,rev?*%
%TF.SameCoordinates,Original*%
%TF.FileFunction,Other,User*%
%FSLAX46Y46*%
G04 Gerber Fmt 4.6, Leading zero omitted, Abs format (unit mm)*
G04 Created by KiCad (PCBNEW 9.0.3) date 2025-08-10 03:43:02*
%MOMM*%
%LPD*%
G01*
G04 APERTURE LIST*
%ADD10C,0.050000*%
G04 APERTURE END LIST*
D10*
%TO.C,TP3*%
X118000000Y-51500000D02*
G75*
G02*
X115000000Y-51500000I-1500000J0D01*
G01*
X115000000Y-51500000D02*
G75*
G02*
X118000000Y-51500000I1500000J0D01*
G01*
%TO.C,C17*%
X122375000Y-58725000D02*
X123575000Y-58725000D01*
X122375000Y-61525000D02*
X122375000Y-58725000D01*
X123575000Y-58725000D02*
X123575000Y-61525000D01*
X123575000Y-61525000D02*
X122375000Y-61525000D01*
%TO.C,Q1*%
X123350000Y-71362500D02*
X124350000Y-71362500D01*
X123350000Y-74362500D02*
X123350000Y-71362500D01*
X124350000Y-71162500D02*
X126450000Y-71162500D01*
X124350000Y-71362500D02*
X124350000Y-71162500D01*
X124350000Y-74362500D02*
X123350000Y-74362500D01*
X124350000Y-74562500D02*
X124350000Y-74362500D01*
X126450000Y-71162500D02*
X126450000Y-71362500D01*
X126450000Y-71362500D02*
X127450000Y-71362500D01*
X126450000Y-74362500D02*
X126450000Y-74562500D01*
X126450000Y-74562500D02*
X124350000Y-74562500D01*
X127450000Y-71362500D02*
X127450000Y-74362500D01*
X127450000Y-74362500D02*
X126450000Y-74362500D01*
%TO.C,R13*%
X138400000Y-67700000D02*
X139600000Y-67700000D01*
X138400000Y-70300000D02*
X138400000Y-67700000D01*
X139600000Y-67700000D02*
X139600000Y-70300000D01*
X139600000Y-70300000D02*
X138400000Y-70300000D01*
%TO.C,R18*%
X148400000Y-53700000D02*
X149600000Y-53700000D01*
X148400000Y-56300000D02*
X148400000Y-53700000D01*
X149600000Y-53700000D02*
X149600000Y-56300000D01*
X149600000Y-56300000D02*
X148400000Y-56300000D01*
%TO.C,C2*%
X137325000Y-57375000D02*
X140125000Y-57375000D01*
X137325000Y-58575000D02*
X137325000Y-57375000D01*
X140125000Y-57375000D02*
X140125000Y-58575000D01*
X140125000Y-58575000D02*
X137325000Y-58575000D01*
%TO.C,R19*%
X136400000Y-67700000D02*
X137600000Y-67700000D01*
X136400000Y-70300000D02*
X136400000Y-67700000D01*
X137600000Y-67700000D02*
X137600000Y-70300000D01*
X137600000Y-70300000D02*
X136400000Y-70300000D01*
%TO.C,R9*%
X209425000Y-67525000D02*
X210625000Y-67525000D01*
X209425000Y-70125000D02*
X209425000Y-67525000D01*
X210625000Y-67525000D02*
X210625000Y-70125000D01*
X210625000Y-70125000D02*
X209425000Y-70125000D01*
%TO.C,C15*%
X119750000Y-65700000D02*
X116950000Y-65700000D01*
X119750000Y-64500000D02*
X119750000Y-65700000D01*
X116950000Y-65700000D02*
X116950000Y-64500000D01*
X116950000Y-64500000D02*
X119750000Y-64500000D01*
%TO.C,TP2*%
X111500000Y-51500000D02*
G75*
G02*
X108500000Y-51500000I-1500000J0D01*
G01*
X108500000Y-51500000D02*
G75*
G02*
X111500000Y-51500000I1500000J0D01*
G01*
%TO.C,R7*%
X132675000Y-119725000D02*
X135275000Y-119725000D01*
X132675000Y-120925000D02*
X132675000Y-119725000D01*
X135275000Y-119725000D02*
X135275000Y-120925000D01*
X135275000Y-120925000D02*
X132675000Y-120925000D01*
%TO.C,R8*%
X217400000Y-116925000D02*
X218600000Y-116925000D01*
X217400000Y-119525000D02*
X217400000Y-116925000D01*
X218600000Y-116925000D02*
X218600000Y-119525000D01*
X218600000Y-119525000D02*
X217400000Y-119525000D01*
%TO.C,U2*%
X133225000Y-58750000D02*
X136725000Y-58750000D01*
X133225000Y-65750000D02*
X133225000Y-58750000D01*
X136725000Y-58750000D02*
X136725000Y-65750000D01*
X136725000Y-65750000D02*
X133225000Y-65750000D01*
%TO.C,C5*%
X170125000Y-82320000D02*
X170125000Y-83120000D01*
X170125000Y-82320000D02*
X171925000Y-82320000D01*
X171925000Y-82320000D02*
X171925000Y-83120000D01*
X171925000Y-83120000D02*
X170125000Y-83120000D01*
%TO.C,C14*%
X149025000Y-63100000D02*
X150225000Y-63100000D01*
X149025000Y-65900000D02*
X149025000Y-63100000D01*
X150225000Y-63100000D02*
X150225000Y-65900000D01*
X150225000Y-65900000D02*
X149025000Y-65900000D01*
%TO.C,R15*%
X116950000Y-65875000D02*
X119550000Y-65875000D01*
X116950000Y-67075000D02*
X116950000Y-65875000D01*
X119550000Y-65875000D02*
X119550000Y-67075000D01*
X119550000Y-67075000D02*
X116950000Y-67075000D01*
%TO.C,JP1*%
X153250000Y-61025000D02*
X153250000Y-63525000D01*
X153250000Y-61025000D02*
X156550000Y-61025000D01*
X156550000Y-63525000D02*
X153250000Y-63525000D01*
X156550000Y-63525000D02*
X156550000Y-61025000D01*
%TO.C,H2*%
X207250000Y-55000000D02*
G75*
G02*
X200750000Y-55000000I-3250000J0D01*
G01*
X200750000Y-55000000D02*
G75*
G02*
X207250000Y-55000000I3250000J0D01*
G01*
%TO.C,R12*%
X196775000Y-57900000D02*
X199375000Y-57900000D01*
X196775000Y-59100000D02*
X196775000Y-57900000D01*
X199375000Y-57900000D02*
X199375000Y-59100000D01*
X199375000Y-59100000D02*
X196775000Y-59100000D01*
%TO.C,R5*%
X147600000Y-68275000D02*
X148800000Y-68275000D01*
X147600000Y-70875000D02*
X147600000Y-68275000D01*
X148800000Y-68275000D02*
X148800000Y-70875000D01*
X148800000Y-70875000D02*
X147600000Y-70875000D01*
%TO.C,D9*%
X134300000Y-67750000D02*
X135700000Y-67750000D01*
X134300000Y-70250000D02*
X134300000Y-67750000D01*
X135700000Y-67750000D02*
X135700000Y-70250000D01*
X135700000Y-70250000D02*
X134300000Y-70250000D01*
%TO.C,SW1*%
X142525000Y-68225000D02*
X142525000Y-74225000D01*
X142525000Y-74225000D02*
X145925000Y-74225000D01*
X145925000Y-68225000D02*
X142525000Y-68225000D01*
X145925000Y-74225000D02*
X145925000Y-68225000D01*
%TO.C,C1*%
X125575000Y-64575000D02*
X130175000Y-64575000D01*
X125575000Y-66875000D02*
X125575000Y-64575000D01*
X130175000Y-64575000D02*
X130175000Y-66875000D01*
X130175000Y-66875000D02*
X125575000Y-66875000D01*
%TO.C,R14*%
X132400000Y-67700000D02*
X133600000Y-67700000D01*
X132400000Y-70300000D02*
X132400000Y-67700000D01*
X133600000Y-67700000D02*
X133600000Y-70300000D01*
X133600000Y-70300000D02*
X132400000Y-70300000D01*
%TO.C,R16*%
X119550000Y-62375000D02*
X116950000Y-62375000D01*
X119550000Y-61175000D02*
X119550000Y-62375000D01*
X116950000Y-62375000D02*
X116950000Y-61175000D01*
X116950000Y-61175000D02*
X119550000Y-61175000D01*
%TO.C,C7*%
X139100000Y-75150000D02*
X139100000Y-75950000D01*
X139100000Y-75150000D02*
X140900000Y-75150000D01*
X140900000Y-75150000D02*
X140900000Y-75950000D01*
X140900000Y-75950000D02*
X139100000Y-75950000D01*
%TO.C,C16*%
X120575000Y-63175000D02*
X120575000Y-60375000D01*
X121775000Y-63175000D02*
X120575000Y-63175000D01*
X120575000Y-60375000D02*
X121775000Y-60375000D01*
X121775000Y-60375000D02*
X121775000Y-63175000D01*
%TO.C,C18*%
X126400000Y-70400000D02*
X126400000Y-67600000D01*
X127600000Y-70400000D02*
X126400000Y-70400000D01*
X126400000Y-67600000D02*
X127600000Y-67600000D01*
X127600000Y-67600000D02*
X127600000Y-70400000D01*
%TO.C,C8*%
X189150000Y-75150000D02*
X190950000Y-75150000D01*
X189150000Y-75950000D02*
X189150000Y-75150000D01*
X190950000Y-75950000D02*
X189150000Y-75950000D01*
X190950000Y-75950000D02*
X190950000Y-75150000D01*
%TO.C,H1*%
X123250000Y-55000000D02*
G75*
G02*
X116750000Y-55000000I-3250000J0D01*
G01*
X116750000Y-55000000D02*
G75*
G02*
X123250000Y-55000000I3250000J0D01*
G01*
%TO.C,R3*%
X145400000Y-53700000D02*
X146600000Y-53700000D01*
X145400000Y-56300000D02*
X145400000Y-53700000D01*
X146600000Y-53700000D02*
X146600000Y-56300000D01*
X146600000Y-56300000D02*
X145400000Y-56300000D01*
%TO.C,C11*%
X211900000Y-67380000D02*
X213100000Y-67380000D01*
X211900000Y-70180000D02*
X211900000Y-67380000D01*
X213100000Y-67380000D02*
X213100000Y-70180000D01*
X213100000Y-70180000D02*
X211900000Y-70180000D01*
%TO.C,J1*%
X155250000Y-48500000D02*
X164750000Y-48500000D01*
X155250000Y-56750000D02*
X155250000Y-48500000D01*
X164750000Y-48500000D02*
X164750000Y-56750000D01*
X164750000Y-56750000D02*
X155250000Y-56750000D01*
%TO.C,TP1*%
X114750000Y-51500000D02*
G75*
G02*
X111750000Y-51500000I-1500000J0D01*
G01*
X111750000Y-51500000D02*
G75*
G02*
X114750000Y-51500000I1500000J0D01*
G01*
%TO.C,C10*%
X133075000Y-118325000D02*
X133075000Y-119125000D01*
X133075000Y-118325000D02*
X134875000Y-118325000D01*
X134875000Y-118325000D02*
X134875000Y-119125000D01*
X134875000Y-119125000D02*
X133075000Y-119125000D01*
%TO.C,C9*%
X137900000Y-122850000D02*
X137900000Y-121050000D01*
X138700000Y-121050000D02*
X137900000Y-121050000D01*
X138700000Y-121050000D02*
X138700000Y-122850000D01*
X138700000Y-122850000D02*
X137900000Y-122850000D01*
%TO.C,R21*%
X141875000Y-66450000D02*
X139275000Y-66450000D01*
X141875000Y-65250000D02*
X141875000Y-66450000D01*
X139275000Y-66450000D02*
X139275000Y-65250000D01*
X139275000Y-65250000D02*
X141875000Y-65250000D01*
%TO.C,R14*%
X140400000Y-67700000D02*
X141600000Y-67700000D01*
X140400000Y-70300000D02*
X140400000Y-67700000D01*
X141600000Y-67700000D02*
X141600000Y-70300000D01*
X141600000Y-70300000D02*
X140400000Y-70300000D01*
%TO.C,D10*%
X148270000Y-50270000D02*
X149730000Y-50270000D01*
X148270000Y-53230000D02*
X148270000Y-50270000D01*
X149730000Y-50270000D02*
X149730000Y-53230000D01*
X149730000Y-53230000D02*
X148270000Y-53230000D01*
%TO.C,R15*%
X124400000Y-70300000D02*
X124400000Y-67700000D01*
X125600000Y-70300000D02*
X124400000Y-70300000D01*
X124400000Y-67700000D02*
X125600000Y-67700000D01*
X125600000Y-67700000D02*
X125600000Y-70300000D01*
%TO.C,R11*%
X181775000Y-57900000D02*
X184375000Y-57900000D01*
X181775000Y-59100000D02*
X181775000Y-57900000D01*
X184375000Y-57900000D02*
X184375000Y-59100000D01*
X184375000Y-59100000D02*
X181775000Y-59100000D01*
%TO.C,R20*%
X130400000Y-67700000D02*
X131600000Y-67700000D01*
X130400000Y-70300000D02*
X130400000Y-67700000D01*
X131600000Y-67700000D02*
X131600000Y-70300000D01*
X131600000Y-70300000D02*
X130400000Y-70300000D01*
%TO.C,R4*%
X171200000Y-52150000D02*
X173800000Y-52150000D01*
X171200000Y-53350000D02*
X171200000Y-52150000D01*
X173800000Y-52150000D02*
X173800000Y-53350000D01*
X173800000Y-53350000D02*
X171200000Y-53350000D01*
%TO.C,C12*%
X181600000Y-65100000D02*
X182400000Y-65100000D01*
X181600000Y-66900000D02*
X181600000Y-65100000D01*
X181600000Y-66900000D02*
X182400000Y-66900000D01*
X182400000Y-65100000D02*
X182400000Y-66900000D01*
%TO.C,L2*%
X115910000Y-62600000D02*
X119410000Y-62600000D01*
X115910000Y-64300000D02*
X115910000Y-62600000D01*
X119410000Y-62600000D02*
X119410000Y-64300000D01*
X119410000Y-64300000D02*
X115910000Y-64300000D01*
%TO.C,H3*%
X207250000Y-110000000D02*
G75*
G02*
X200750000Y-110000000I-3250000J0D01*
G01*
X200750000Y-110000000D02*
G75*
G02*
X207250000Y-110000000I3250000J0D01*
G01*
%TO.C,R17*%
X115850000Y-61300000D02*
X115850000Y-63900000D01*
X114650000Y-61300000D02*
X115850000Y-61300000D01*
X115850000Y-63900000D02*
X114650000Y-63900000D01*
X114650000Y-63900000D02*
X114650000Y-61300000D01*
%TO.C,C3*%
X125575000Y-61775000D02*
X130175000Y-61775000D01*
X125575000Y-64075000D02*
X125575000Y-61775000D01*
X130175000Y-61775000D02*
X130175000Y-64075000D01*
X130175000Y-64075000D02*
X125575000Y-64075000D01*
%TO.C,R10*%
X174775000Y-60825000D02*
X177375000Y-60825000D01*
X174775000Y-62025000D02*
X174775000Y-60825000D01*
X177375000Y-60825000D02*
X177375000Y-62025000D01*
X177375000Y-62025000D02*
X174775000Y-62025000D01*
%TO.C,R6*%
X128400000Y-67700000D02*
X129600000Y-67700000D01*
X128400000Y-70300000D02*
X128400000Y-67700000D01*
X129600000Y-67700000D02*
X129600000Y-70300000D01*
X129600000Y-70300000D02*
X128400000Y-70300000D01*
%TO.C,C6*%
X146450000Y-68675000D02*
X147250000Y-68675000D01*
X146450000Y-70475000D02*
X146450000Y-68675000D01*
X146450000Y-70475000D02*
X147250000Y-70475000D01*
X147250000Y-68675000D02*
X147250000Y-70475000D01*
%TO.C,H4*%
X123250000Y-110000000D02*
G75*
G02*
X116750000Y-110000000I-3250000J0D01*
G01*
X116750000Y-110000000D02*
G75*
G02*
X123250000Y-110000000I3250000J0D01*
G01*
%TO.C,R2*%
X158400000Y-57700000D02*
X159600000Y-57700000D01*
X158400000Y-60300000D02*
X158400000Y-57700000D01*
X159600000Y-57700000D02*
X159600000Y-60300000D01*
X159600000Y-60300000D02*
X158400000Y-60300000D01*
%TO.C,C4*%
X127600000Y-60325000D02*
X129400000Y-60325000D01*
X127600000Y-61125000D02*
X127600000Y-60325000D01*
X129400000Y-61125000D02*
X127600000Y-61125000D01*
X129400000Y-61125000D02*
X129400000Y-60325000D01*
%TO.C,C13*%
X151625000Y-63100000D02*
X152825000Y-63100000D01*
X151625000Y-65900000D02*
X151625000Y-63100000D01*
X152825000Y-63100000D02*
X152825000Y-65900000D01*
X152825000Y-65900000D02*
X151625000Y-65900000D01*
%TO.C,R1*%
X161400000Y-57700000D02*
X162600000Y-57700000D01*
X161400000Y-60300000D02*
X161400000Y-57700000D01*
X162600000Y-57700000D02*
X162600000Y-60300000D01*
X162600000Y-60300000D02*
X161400000Y-60300000D01*
%TO.C,D5*%
X145270000Y-50270000D02*
X146730000Y-50270000D01*
X145270000Y-53230000D02*
X145270000Y-50270000D01*
X146730000Y-50270000D02*
X146730000Y-53230000D01*
X146730000Y-53230000D02*
X145270000Y-53230000D01*
%TD*%
M02*
