%TF.GenerationSoftware,KiCad,Pcbnew,9.0.3*%
%TF.CreationDate,2025-08-10T03:43:02+02:00*%
%TF.ProjectId,Spikeling_v3.0,5370696b-656c-4696-9e67-5f76332e302e,rev?*%
%TF.SameCoordinates,Original*%
%TF.FileFunction,Other,User*%
%FSLAX46Y46*%
G04 Gerber Fmt 4.6, Leading zero omitted, Abs format (unit mm)*
G04 Created by KiCad (PCBNEW 9.0.3) date 2025-08-10 03:43:02*
%MOMM*%
%LPD*%
G01*
G04 APERTURE LIST*
%ADD10C,0.000000*%
G04 APERTURE END LIST*
D10*
%TO.C,U7*%
G36*
X128919433Y-72427039D02*
G01*
X128919433Y-72472961D01*
X128886961Y-72505433D01*
X128841039Y-72505433D01*
X128808567Y-72472961D01*
X128808567Y-72427039D01*
X128841039Y-72394567D01*
X128886961Y-72394567D01*
X128919433Y-72427039D01*
G37*
%TO.C,SW5*%
G36*
X123178433Y-53889073D02*
G01*
X123178433Y-53934995D01*
X123145961Y-53967467D01*
X123100039Y-53967467D01*
X123067567Y-53934995D01*
X123067567Y-53889073D01*
X123100039Y-53856601D01*
X123145961Y-53856601D01*
X123178433Y-53889073D01*
G37*
%TO.C,VR2*%
G36*
X159825433Y-116127039D02*
G01*
X159825433Y-116172961D01*
X159792961Y-116205433D01*
X159747039Y-116205433D01*
X159714567Y-116172961D01*
X159714567Y-116127039D01*
X159747039Y-116094567D01*
X159792961Y-116094567D01*
X159825433Y-116127039D01*
G37*
%TO.C,U3*%
G36*
X132055433Y-75027039D02*
G01*
X132055433Y-75072961D01*
X132022961Y-75105433D01*
X131977039Y-75105433D01*
X131944567Y-75072961D01*
X131944567Y-75027039D01*
X131977039Y-74994567D01*
X132022961Y-74994567D01*
X132055433Y-75027039D01*
G37*
%TO.C,J4*%
G36*
X96955433Y-88477039D02*
G01*
X96955433Y-88522961D01*
X96922961Y-88555433D01*
X96877039Y-88555433D01*
X96844567Y-88522961D01*
X96844567Y-88477039D01*
X96877039Y-88444567D01*
X96922961Y-88444567D01*
X96955433Y-88477039D01*
G37*
%TO.C,J5*%
G36*
X218555433Y-133077039D02*
G01*
X218555433Y-133122961D01*
X218522961Y-133155433D01*
X218477039Y-133155433D01*
X218444567Y-133122961D01*
X218444567Y-133077039D01*
X218477039Y-133044567D01*
X218522961Y-133044567D01*
X218555433Y-133077039D01*
G37*
%TO.C,U6*%
G36*
X149580433Y-59852039D02*
G01*
X149580433Y-59897961D01*
X149547961Y-59930433D01*
X149502039Y-59930433D01*
X149469567Y-59897961D01*
X149469567Y-59852039D01*
X149502039Y-59819567D01*
X149547961Y-59819567D01*
X149580433Y-59852039D01*
G37*
%TO.C,U1*%
G36*
X169005433Y-92778039D02*
G01*
X169005433Y-92823961D01*
X168972961Y-92856433D01*
X168927039Y-92856433D01*
X168894567Y-92823961D01*
X168894567Y-92778039D01*
X168927039Y-92745567D01*
X168972961Y-92745567D01*
X169005433Y-92778039D01*
G37*
%TO.C,VR1*%
G36*
X124255433Y-116127039D02*
G01*
X124255433Y-116172961D01*
X124222961Y-116205433D01*
X124177039Y-116205433D01*
X124144567Y-116172961D01*
X124144567Y-116127039D01*
X124177039Y-116094567D01*
X124222961Y-116094567D01*
X124255433Y-116127039D01*
G37*
%TO.C,D7*%
G36*
X169105433Y-62052039D02*
G01*
X169105433Y-62097961D01*
X169072961Y-62130433D01*
X169027039Y-62130433D01*
X168994567Y-62097961D01*
X168994567Y-62052039D01*
X169027039Y-62019567D01*
X169072961Y-62019567D01*
X169105433Y-62052039D01*
G37*
%TO.C,VR5*%
G36*
X218705433Y-100727039D02*
G01*
X218705433Y-100772961D01*
X218672961Y-100805433D01*
X218627039Y-100805433D01*
X218594567Y-100772961D01*
X218594567Y-100727039D01*
X218627039Y-100694567D01*
X218672961Y-100694567D01*
X218705433Y-100727039D01*
G37*
%TO.C,Q2*%
G36*
X141115433Y-60214039D02*
G01*
X141115433Y-60259961D01*
X141082961Y-60292433D01*
X141037039Y-60292433D01*
X141004567Y-60259961D01*
X141004567Y-60214039D01*
X141037039Y-60181567D01*
X141082961Y-60181567D01*
X141115433Y-60214039D01*
G37*
%TO.C,U5*%
G36*
X131555433Y-122502039D02*
G01*
X131555433Y-122547961D01*
X131522961Y-122580433D01*
X131477039Y-122580433D01*
X131444567Y-122547961D01*
X131444567Y-122502039D01*
X131477039Y-122469567D01*
X131522961Y-122469567D01*
X131555433Y-122502039D01*
G37*
%TO.C,J6*%
G36*
X223155433Y-59477039D02*
G01*
X223155433Y-59522961D01*
X223122961Y-59555433D01*
X223077039Y-59555433D01*
X223044567Y-59522961D01*
X223044567Y-59477039D01*
X223077039Y-59444567D01*
X223122961Y-59444567D01*
X223155433Y-59477039D01*
G37*
%TO.C,J3*%
G36*
X96955433Y-60577039D02*
G01*
X96955433Y-60622961D01*
X96922961Y-60655433D01*
X96877039Y-60655433D01*
X96844567Y-60622961D01*
X96844567Y-60577039D01*
X96877039Y-60544567D01*
X96922961Y-60544567D01*
X96955433Y-60577039D01*
G37*
%TO.C,SW3*%
G36*
X183705433Y-50227039D02*
G01*
X183705433Y-50272961D01*
X183672961Y-50305433D01*
X183627039Y-50305433D01*
X183594567Y-50272961D01*
X183594567Y-50227039D01*
X183627039Y-50194567D01*
X183672961Y-50194567D01*
X183705433Y-50227039D01*
G37*
%TO.C,SW2*%
G36*
X143705433Y-50227039D02*
G01*
X143705433Y-50272961D01*
X143672961Y-50305433D01*
X143627039Y-50305433D01*
X143594567Y-50272961D01*
X143594567Y-50227039D01*
X143627039Y-50194567D01*
X143672961Y-50194567D01*
X143705433Y-50227039D01*
G37*
%TO.C,D2*%
G36*
X158655433Y-62652039D02*
G01*
X158655433Y-62697961D01*
X158622961Y-62730433D01*
X158577039Y-62730433D01*
X158544567Y-62697961D01*
X158544567Y-62652039D01*
X158577039Y-62619567D01*
X158622961Y-62619567D01*
X158655433Y-62652039D01*
G37*
%TO.C,D6*%
G36*
X138205433Y-125927039D02*
G01*
X138205433Y-125972961D01*
X138172961Y-126005433D01*
X138127039Y-126005433D01*
X138094567Y-125972961D01*
X138094567Y-125927039D01*
X138127039Y-125894567D01*
X138172961Y-125894567D01*
X138205433Y-125927039D01*
G37*
%TO.C,D4*%
G36*
X155505433Y-60777039D02*
G01*
X155505433Y-60822961D01*
X155472961Y-60855433D01*
X155427039Y-60855433D01*
X155394567Y-60822961D01*
X155394567Y-60777039D01*
X155427039Y-60744567D01*
X155472961Y-60744567D01*
X155505433Y-60777039D01*
G37*
%TO.C,VR6*%
G36*
X112705433Y-62527039D02*
G01*
X112705433Y-62572961D01*
X112672961Y-62605433D01*
X112627039Y-62605433D01*
X112594567Y-62572961D01*
X112594567Y-62527039D01*
X112627039Y-62494567D01*
X112672961Y-62494567D01*
X112705433Y-62527039D01*
G37*
%TO.C,VR4*%
G36*
X218705433Y-75099039D02*
G01*
X218705433Y-75144961D01*
X218672961Y-75177433D01*
X218627039Y-75177433D01*
X218594567Y-75144961D01*
X218594567Y-75099039D01*
X218627039Y-75066567D01*
X218672961Y-75066567D01*
X218705433Y-75099039D01*
G37*
%TO.C,L1*%
G36*
X153039433Y-56489539D02*
G01*
X153039433Y-56535461D01*
X153006961Y-56567933D01*
X152961039Y-56567933D01*
X152928567Y-56535461D01*
X152928567Y-56489539D01*
X152961039Y-56457067D01*
X153006961Y-56457067D01*
X153039433Y-56489539D01*
G37*
%TO.C,U4*%
G36*
X182055433Y-75027039D02*
G01*
X182055433Y-75072961D01*
X182022961Y-75105433D01*
X181977039Y-75105433D01*
X181944567Y-75072961D01*
X181944567Y-75027039D01*
X181977039Y-74994567D01*
X182022961Y-74994567D01*
X182055433Y-75027039D01*
G37*
%TO.C,VR3*%
G36*
X182205433Y-116127039D02*
G01*
X182205433Y-116172961D01*
X182172961Y-116205433D01*
X182127039Y-116205433D01*
X182094567Y-116172961D01*
X182094567Y-116127039D01*
X182127039Y-116094567D01*
X182172961Y-116094567D01*
X182205433Y-116127039D01*
G37*
%TO.C,SW4*%
G36*
X198705433Y-50227039D02*
G01*
X198705433Y-50272961D01*
X198672961Y-50305433D01*
X198627039Y-50305433D01*
X198594567Y-50272961D01*
X198594567Y-50227039D01*
X198627039Y-50194567D01*
X198672961Y-50194567D01*
X198705433Y-50227039D01*
G37*
%TO.C,U8*%
G36*
X121280557Y-63471853D02*
G01*
X121308147Y-63499443D01*
X121323079Y-63535491D01*
X121323079Y-63574509D01*
X121308147Y-63610557D01*
X121280557Y-63638147D01*
X121244509Y-63653079D01*
X121205491Y-63653079D01*
X121169443Y-63638147D01*
X121141853Y-63610557D01*
X121126921Y-63574509D01*
X121126921Y-63535491D01*
X121141853Y-63499443D01*
X121169443Y-63471853D01*
X121205491Y-63456921D01*
X121244509Y-63456921D01*
X121280557Y-63471853D01*
G37*
%TO.C,VR7*%
G36*
X112705433Y-90527039D02*
G01*
X112705433Y-90572961D01*
X112672961Y-90605433D01*
X112627039Y-90605433D01*
X112594567Y-90572961D01*
X112594567Y-90527039D01*
X112627039Y-90494567D01*
X112672961Y-90494567D01*
X112705433Y-90527039D01*
G37*
%TO.C,D1*%
G36*
X154805433Y-59602039D02*
G01*
X154805433Y-59647961D01*
X154772961Y-59680433D01*
X154727039Y-59680433D01*
X154694567Y-59647961D01*
X154694567Y-59602039D01*
X154727039Y-59569567D01*
X154772961Y-59569567D01*
X154805433Y-59602039D01*
G37*
%TO.C,D3*%
G36*
X161680433Y-62627039D02*
G01*
X161680433Y-62672961D01*
X161647961Y-62705433D01*
X161602039Y-62705433D01*
X161569567Y-62672961D01*
X161569567Y-62627039D01*
X161602039Y-62594567D01*
X161647961Y-62594567D01*
X161680433Y-62627039D01*
G37*
%TO.C,J2*%
G36*
X110555433Y-133077039D02*
G01*
X110555433Y-133122961D01*
X110522961Y-133155433D01*
X110477039Y-133155433D01*
X110444567Y-133122961D01*
X110444567Y-133077039D01*
X110477039Y-133044567D01*
X110522961Y-133044567D01*
X110555433Y-133077039D01*
G37*
%TD*%
M02*
