%TF.GenerationSoftware,KiCad,Pcbnew,9.0.3*%
%TF.CreationDate,2025-08-10T03:43:02+02:00*%
%TF.ProjectId,Spikeling_v3.0,5370696b-656c-4696-9e67-5f76332e302e,rev?*%
%TF.SameCoordinates,Original*%
%TF.FileFunction,Soldermask,Bot*%
%TF.FilePolarity,Negative*%
%FSLAX46Y46*%
G04 Gerber Fmt 4.6, Leading zero omitted, Abs format (unit mm)*
G04 Created by KiCad (PCBNEW 9.0.3) date 2025-08-10 03:43:02*
%MOMM*%
%LPD*%
G01*
G04 APERTURE LIST*
G04 Aperture macros list*
%AMRoundRect*
0 Rectangle with rounded corners*
0 $1 Rounding radius*
0 $2 $3 $4 $5 $6 $7 $8 $9 X,Y pos of 4 corners*
0 Add a 4 corners polygon primitive as box body*
4,1,4,$2,$3,$4,$5,$6,$7,$8,$9,$2,$3,0*
0 Add four circle primitives for the rounded corners*
1,1,$1+$1,$2,$3*
1,1,$1+$1,$4,$5*
1,1,$1+$1,$6,$7*
1,1,$1+$1,$8,$9*
0 Add four rect primitives between the rounded corners*
20,1,$1+$1,$2,$3,$4,$5,0*
20,1,$1+$1,$4,$5,$6,$7,0*
20,1,$1+$1,$6,$7,$8,$9,0*
20,1,$1+$1,$8,$9,$2,$3,0*%
G04 Aperture macros list end*
%ADD10C,1.524000*%
%ADD11C,1.700000*%
%ADD12O,2.500000X3.000000*%
%ADD13C,3.000000*%
%ADD14C,0.600000*%
%ADD15O,1.300000X2.300000*%
%ADD16O,1.300000X2.100000*%
%ADD17C,0.500000*%
%ADD18C,2.000000*%
%ADD19RoundRect,0.250000X0.600000X0.750000X-0.600000X0.750000X-0.600000X-0.750000X0.600000X-0.750000X0*%
%ADD20O,1.700000X2.000000*%
%ADD21R,1.800000X1.800000*%
%ADD22C,1.800000*%
G04 APERTURE END LIST*
D10*
%TO.C,SW5*%
X125000000Y-52885034D03*
X127500000Y-52885034D03*
X130000000Y-52885034D03*
%TD*%
D11*
%TO.C,VR2*%
X156620000Y-117000000D03*
X154120000Y-117000000D03*
X151620000Y-117000000D03*
D12*
X149720000Y-124000000D03*
X158520000Y-124000000D03*
%TD*%
D11*
%TO.C,VR1*%
X121050000Y-117000000D03*
X118550000Y-117000000D03*
X116050000Y-117000000D03*
D12*
X114150000Y-124000000D03*
X122950000Y-124000000D03*
%TD*%
D11*
%TO.C,VR5*%
X215500000Y-101600000D03*
X213000000Y-101600000D03*
X210500000Y-101600000D03*
D12*
X208600000Y-108600000D03*
X217400000Y-108600000D03*
%TD*%
D13*
%TO.C,H2*%
X204000000Y-55000000D03*
%TD*%
%TO.C,H1*%
X120000000Y-55000000D03*
%TD*%
D14*
%TO.C,J1*%
X162890000Y-55050000D03*
X157110000Y-55050000D03*
D15*
X164330000Y-55570000D03*
D16*
X164330000Y-51370000D03*
D17*
X162000000Y-52750000D03*
X162000000Y-50750000D03*
X158000000Y-52750000D03*
X158000000Y-50750000D03*
D15*
X155670000Y-55570000D03*
D16*
X155670000Y-51370000D03*
%TD*%
D11*
%TO.C,SW3*%
X182250000Y-52750000D03*
X177750000Y-52750000D03*
D18*
X176400000Y-55250000D03*
X183600000Y-55250000D03*
%TD*%
D11*
%TO.C,SW2*%
X142250000Y-52750000D03*
X137750000Y-52750000D03*
D18*
X136400000Y-55250000D03*
X143600000Y-55250000D03*
%TD*%
D13*
%TO.C,H3*%
X204000000Y-110000000D03*
%TD*%
D11*
%TO.C,VR6*%
X109500000Y-63400000D03*
X107000000Y-63400000D03*
X104500000Y-63400000D03*
D12*
X102600000Y-70400000D03*
X111400000Y-70400000D03*
%TD*%
D11*
%TO.C,VR4*%
X215500000Y-75972000D03*
X213000000Y-75972000D03*
X210500000Y-75972000D03*
D12*
X208600000Y-82972000D03*
X217400000Y-82972000D03*
%TD*%
D11*
%TO.C,VR3*%
X179000000Y-117000000D03*
X176500000Y-117000000D03*
X174000000Y-117000000D03*
D12*
X172100000Y-124000000D03*
X180900000Y-124000000D03*
%TD*%
D11*
%TO.C,SW4*%
X197250000Y-52750000D03*
X192750000Y-52750000D03*
D18*
X191400000Y-55250000D03*
X198600000Y-55250000D03*
%TD*%
D11*
%TO.C,VR7*%
X109500000Y-91400000D03*
X107000000Y-91400000D03*
X104500000Y-91400000D03*
D12*
X102600000Y-98400000D03*
X111400000Y-98400000D03*
%TD*%
D13*
%TO.C,H4*%
X120000000Y-110000000D03*
%TD*%
D19*
%TO.C,BT1*%
X128675000Y-56300000D03*
D20*
X126175000Y-56300000D03*
%TD*%
D21*
%TO.C,D8*%
X217234000Y-115350000D03*
D22*
X215075000Y-115350000D03*
X212916000Y-115350000D03*
X210757000Y-115350000D03*
%TD*%
M02*
