M48
; DRILL file {KiCad 9.0.3} date 2025-07-22T15:04:16+0200
; FORMAT={-:-/ absolute / metric / decimal}
; #@! TF.CreationDate,2025-07-22T15:04:16+02:00
; #@! TF.GenerationSoftware,Kicad,Pcbnew,9.0.3
; #@! TF.FileFunction,Plated,1,2,PTH
FMAT,2
METRIC
; #@! TA.AperFunction,Plated,PTH,ViaDrill
T1C0.400
; #@! TA.AperFunction,Plated,PTH,ComponentDrill
T2C0.500
; #@! TA.AperFunction,Plated,PTH,ComponentDrill
T3C0.600
; #@! TA.AperFunction,Plated,PTH,ComponentDrill
T4C0.800
; #@! TA.AperFunction,Plated,PTH,ComponentDrill
T5C0.900
; #@! TA.AperFunction,Plated,PTH,ComponentDrill
T6C0.990
; #@! TA.AperFunction,Plated,PTH,ComponentDrill
T7C1.000
; #@! TA.AperFunction,Plated,PTH,ComponentDrill
T8C1.040
; #@! TA.AperFunction,Plated,PTH,ComponentDrill
T9C1.100
; #@! TA.AperFunction,Plated,PTH,ComponentDrill
T10C1.250
; #@! TA.AperFunction,Plated,PTH,ComponentDrill
T11C1.300
; #@! TA.AperFunction,Plated,PTH,ComponentDrill
T12C1.800
; #@! TA.AperFunction,Plated,PTH,ComponentDrill
T13C3.200
%
G90
G05
T1
X112.8Y-75.7
X113.2Y-64.6
X115.8Y-72.7
X116.4Y-60.975
X119.425Y-92.6
X122.675Y-103.975
X123.1Y-69.2
X123.125Y-59.325
X126.6Y-127.7
X130.775Y-113.1
X132.5Y-124.75
X133.25Y-66.225
X135.0Y-108.225
X135.0Y-109.75
X135.0Y-111.225
X135.0Y-112.5
X144.3Y-94.375
X157.5Y-76.625
X157.5Y-79.175
X157.5Y-81.7
X157.5Y-84.25
X161.1Y-96.425
X162.575Y-94.375
X166.0Y-63.95
T3
X132.2Y-118.0
X134.2Y-118.0
X138.727Y-118.0
X140.727Y-118.0
X141.473Y-67.5
X141.473Y-91.75
X143.473Y-67.5
X143.473Y-91.75
X200.35Y-61.35
X202.35Y-61.35
T4
X117.5Y-74.5
X117.5Y-77.04
X117.5Y-79.58
X117.5Y-82.12
X117.5Y-84.66
X117.5Y-87.2
X117.5Y-89.74
X117.5Y-92.28
X117.5Y-94.82
X117.5Y-97.36
X125.12Y-74.5
X125.12Y-77.04
X125.12Y-79.58
X125.12Y-82.12
X125.12Y-84.66
X125.12Y-87.2
X125.12Y-89.74
X125.12Y-92.28
X125.12Y-94.82
X125.12Y-97.36
X130.5Y-65.0
X130.5Y-67.54
X130.5Y-70.08
X130.5Y-72.62
X130.5Y-75.16
X130.5Y-77.7
X130.5Y-80.24
X130.5Y-82.78
X130.5Y-89.125
X130.5Y-91.665
X130.5Y-94.205
X130.5Y-96.745
X130.5Y-99.285
X130.5Y-101.825
X130.5Y-104.365
X130.5Y-106.905
X138.12Y-65.0
X138.12Y-67.54
X138.12Y-70.08
X138.12Y-72.62
X138.12Y-75.16
X138.12Y-77.7
X138.12Y-80.24
X138.12Y-82.78
X138.12Y-89.125
X138.12Y-91.665
X138.12Y-94.205
X138.12Y-96.745
X138.12Y-99.285
X138.12Y-101.825
X138.12Y-104.365
X138.12Y-106.905
X176.5Y-75.6
X176.5Y-80.1
X176.5Y-84.6
X176.5Y-89.1
X176.5Y-93.6
X176.52Y-71.1
X176.57Y-107.1
X176.571Y-111.6
X176.6Y-98.1
X176.6Y-102.6
X186.66Y-75.6
X186.66Y-80.1
X186.66Y-84.6
X186.66Y-89.1
X186.66Y-93.6
X186.68Y-71.1
X186.73Y-107.1
X186.731Y-111.6
X186.76Y-98.1
X186.76Y-102.6
X194.72Y-67.3
X204.88Y-67.3
T5
X138.725Y-124.35
X141.265Y-124.35
X177.0Y-57.69
X177.0Y-58.96
X177.0Y-60.23
X177.0Y-61.5
X190.0Y-76.779
X190.0Y-84.324
X190.0Y-91.869
X190.0Y-99.414
X190.0Y-106.959
X190.0Y-114.504
X192.54Y-76.779
X192.54Y-84.324
X192.54Y-91.869
X192.54Y-99.414
X192.54Y-106.959
X192.54Y-114.504
X196.0Y-76.779
X196.0Y-84.324
X196.0Y-91.869
X196.0Y-99.414
X196.0Y-106.959
X196.0Y-114.504
X198.54Y-76.779
X198.54Y-84.324
X198.54Y-91.869
X198.54Y-99.414
X198.54Y-106.959
X198.54Y-114.504
X212.06Y-124.425
X213.33Y-124.425
X214.6Y-124.425
X215.87Y-124.425
T6
X127.75Y-52.79
X132.25Y-52.79
X192.75Y-52.79
X197.25Y-52.79
T7
X104.5Y-63.3
X104.5Y-91.3
X107.0Y-63.3
X107.0Y-91.3
X109.5Y-63.3
X109.5Y-91.3
X116.1Y-116.9
X118.6Y-116.9
X121.1Y-116.9
X151.619Y-116.9
X154.119Y-116.9
X156.619Y-116.9
X174.0Y-116.9
X176.5Y-116.9
X179.0Y-116.9
X186.5Y-58.0
X186.5Y-65.0
X210.5Y-75.872
X210.5Y-101.5
X213.0Y-75.872
X213.0Y-101.5
X215.5Y-75.872
X215.5Y-101.5
T8
X147.05Y-55.04
X147.05Y-57.58
X147.05Y-60.12
X147.05Y-62.66
X147.05Y-65.2
X147.05Y-67.74
X147.05Y-70.28
X147.05Y-72.82
X147.05Y-75.36
X147.05Y-77.9
X147.05Y-80.44
X147.05Y-82.98
X147.05Y-85.52
X147.05Y-88.06
X147.05Y-90.6
X147.05Y-93.14
X147.05Y-95.68
X147.05Y-98.22
X147.05Y-100.76
X172.45Y-55.04
X172.45Y-57.58
X172.45Y-60.12
X172.45Y-62.66
X172.45Y-65.2
X172.45Y-67.74
X172.45Y-70.28
X172.45Y-72.82
X172.45Y-75.36
X172.45Y-77.9
X172.45Y-80.44
X172.45Y-82.98
X172.45Y-85.52
X172.45Y-88.06
X172.45Y-90.6
X172.45Y-93.14
X172.45Y-95.68
X172.45Y-98.22
X172.45Y-100.76
T9
X190.86Y-119.25
X190.86Y-123.75
X197.36Y-119.25
X197.36Y-123.75
T10
X101.0Y-51.1
X101.0Y-61.1
X101.0Y-79.0
X101.0Y-89.0
X101.0Y-126.5
X101.0Y-129.0
X103.5Y-51.1
X103.5Y-61.1
X103.5Y-79.0
X103.5Y-89.0
X106.0Y-121.5
X108.5Y-56.1
X108.5Y-84.0
X111.0Y-126.5
X111.0Y-129.0
X209.0Y-126.5
X209.0Y-129.0
X211.5Y-64.0
X214.0Y-121.5
X216.5Y-59.0
X216.5Y-69.0
X219.0Y-59.0
X219.0Y-69.0
X219.0Y-126.5
X219.0Y-129.0
T11
X126.5Y-55.28
X133.51Y-55.28
X191.5Y-55.28
X198.51Y-55.28
T13
X120.0Y-55.0
X120.0Y-112.0
X204.0Y-55.0
X204.0Y-112.0
T2
G00X101.0Y-121.15
M15
G01X101.0Y-121.85
M16
G05
G00X103.5Y-55.75
M15
G01X103.5Y-56.45
M16
G05
G00X103.5Y-83.65
M15
G01X103.5Y-84.35
M16
G05
G00X105.65Y-126.5
M15
G01X106.35Y-126.5
M16
G05
G00X108.85Y-51.1
M15
G01X108.15Y-51.1
M16
G05
G00X108.85Y-61.1
M15
G01X108.15Y-61.1
M16
G05
G00X108.85Y-79.0
M15
G01X108.15Y-79.0
M16
G05
G00X108.85Y-89.0
M15
G01X108.15Y-89.0
M16
G05
G00X111.0Y-121.15
M15
G01X111.0Y-121.85
M16
G05
G00X209.0Y-121.15
M15
G01X209.0Y-121.85
M16
G05
G00X211.15Y-59.0
M15
G01X211.85Y-59.0
M16
G05
G00X211.15Y-69.0
M15
G01X211.85Y-69.0
M16
G05
G00X213.65Y-126.5
M15
G01X214.35Y-126.5
M16
G05
G00X216.5Y-64.35
M15
G01X216.5Y-63.65
M16
G05
G00X219.0Y-121.15
M15
G01X219.0Y-121.85
M16
G05
T12
G00X102.6Y-70.15
M15
G01X102.6Y-70.45
M16
G05
G00X102.6Y-98.15
M15
G01X102.6Y-98.45
M16
G05
G00X111.4Y-70.15
M15
G01X111.4Y-70.45
M16
G05
G00X111.4Y-98.15
M15
G01X111.4Y-98.45
M16
G05
G00X114.2Y-123.75
M15
G01X114.2Y-124.05
M16
G05
G00X123.0Y-123.75
M15
G01X123.0Y-124.05
M16
G05
G00X149.719Y-123.75
M15
G01X149.719Y-124.05
M16
G05
G00X158.519Y-123.75
M15
G01X158.519Y-124.05
M16
G05
G00X172.1Y-123.75
M15
G01X172.1Y-124.05
M16
G05
G00X180.9Y-123.75
M15
G01X180.9Y-124.05
M16
G05
G00X208.6Y-82.722
M15
G01X208.6Y-83.022
M16
G05
G00X208.6Y-108.35
M15
G01X208.6Y-108.65
M16
G05
G00X217.4Y-82.722
M15
G01X217.4Y-83.022
M16
G05
G00X217.4Y-108.35
M15
G01X217.4Y-108.65
M16
G05
M30
