%TF.GenerationSoftware,KiCad,Pcbnew,9.0.3*%
%TF.CreationDate,2025-07-22T15:18:12+02:00*%
%TF.ProjectId,Spikeling_v2.4,5370696b-656c-4696-9e67-5f76322e342e,rev?*%
%TF.SameCoordinates,Original*%
%TF.FileFunction,Soldermask,Top*%
%TF.FilePolarity,Negative*%
%FSLAX46Y46*%
G04 Gerber Fmt 4.6, Leading zero omitted, Abs format (unit mm)*
G04 Created by KiCad (PCBNEW 9.0.3) date 2025-07-22 15:18:12*
%MOMM*%
%LPD*%
G01*
G04 APERTURE LIST*
G04 Aperture macros list*
%AMRoundRect*
0 Rectangle with rounded corners*
0 $1 Rounding radius*
0 $2 $3 $4 $5 $6 $7 $8 $9 X,Y pos of 4 corners*
0 Add a 4 corners polygon primitive as box body*
4,1,4,$2,$3,$4,$5,$6,$7,$8,$9,$2,$3,0*
0 Add four circle primitives for the rounded corners*
1,1,$1+$1,$2,$3*
1,1,$1+$1,$4,$5*
1,1,$1+$1,$6,$7*
1,1,$1+$1,$8,$9*
0 Add four rect primitives between the rounded corners*
20,1,$1+$1,$2,$3,$4,$5,0*
20,1,$1+$1,$4,$5,$6,$7,0*
20,1,$1+$1,$6,$7,$8,$9,0*
20,1,$1+$1,$8,$9,$2,$3,0*%
G04 Aperture macros list end*
%ADD10C,2.100000*%
%ADD11C,1.750000*%
%ADD12C,5.600000*%
%ADD13R,1.800000X1.800000*%
%ADD14C,1.800000*%
%ADD15R,1.600000X1.600000*%
%ADD16O,1.600000X1.600000*%
%ADD17RoundRect,0.750000X-0.750000X1.250000X-0.750000X-1.250000X0.750000X-1.250000X0.750000X1.250000X0*%
%ADD18R,1.800000X1.070000*%
%ADD19O,1.800000X1.070000*%
%ADD20C,1.300000*%
%ADD21RoundRect,0.200000X0.550000X0.200000X-0.550000X0.200000X-0.550000X-0.200000X0.550000X-0.200000X0*%
%ADD22RoundRect,0.200000X-0.200000X0.550000X-0.200000X-0.550000X0.200000X-0.550000X0.200000X0.550000X0*%
%ADD23RoundRect,0.200000X-0.550000X-0.200000X0.550000X-0.200000X0.550000X0.200000X-0.550000X0.200000X0*%
%ADD24RoundRect,0.200000X0.200000X-0.550000X0.200000X0.550000X-0.200000X0.550000X-0.200000X-0.550000X0*%
%ADD25C,1.600000*%
%ADD26R,1.200000X1.200000*%
%ADD27C,1.200000*%
%ADD28RoundRect,0.150000X-0.825000X-0.150000X0.825000X-0.150000X0.825000X0.150000X-0.825000X0.150000X0*%
%ADD29RoundRect,0.250000X-0.350000X-0.350000X0.350000X-0.350000X0.350000X0.350000X-0.350000X0.350000X0*%
%ADD30R,2.000000X2.000000*%
%ADD31C,2.000000*%
%ADD32R,1.560000X1.560000*%
%ADD33C,1.560000*%
%ADD34O,1.070000X1.800000*%
%ADD35R,1.070000X1.800000*%
G04 APERTURE END LIST*
D10*
%TO.C,SW2*%
X191500000Y-55280000D03*
X198510000Y-55280000D03*
D11*
X192750000Y-52790000D03*
X197250000Y-52790000D03*
%TD*%
D12*
%TO.C, *%
X120000000Y-55000000D03*
%TD*%
D13*
%TO.C,D7*%
X190000000Y-76779000D03*
D14*
X192540000Y-76779000D03*
%TD*%
D13*
%TO.C,D2*%
X190000000Y-114504000D03*
D14*
X192540000Y-114504000D03*
%TD*%
D13*
%TO.C,D0*%
X138725000Y-124350000D03*
D14*
X141265000Y-124350000D03*
%TD*%
D15*
%TO.C,U3*%
X130500000Y-89125000D03*
D16*
X130500000Y-91665000D03*
X130500000Y-94205000D03*
X130500000Y-96745000D03*
X130500000Y-99285000D03*
X130500000Y-101825000D03*
X130500000Y-104365000D03*
X130500000Y-106905000D03*
X138120000Y-106905000D03*
X138120000Y-104365000D03*
X138120000Y-101825000D03*
X138120000Y-99285000D03*
X138120000Y-96745000D03*
X138120000Y-94205000D03*
X138120000Y-91665000D03*
X138120000Y-89125000D03*
%TD*%
D17*
%TO.C,RV6*%
X217400000Y-108500000D03*
X208600000Y-108500000D03*
D13*
X215500000Y-101500000D03*
D14*
X213000000Y-101500000D03*
X210500000Y-101500000D03*
%TD*%
D17*
%TO.C,RV4*%
X180900000Y-123900000D03*
X172100000Y-123900000D03*
D13*
X179000000Y-116900000D03*
D14*
X176500000Y-116900000D03*
X174000000Y-116900000D03*
%TD*%
D18*
%TO.C,D1*%
X177000000Y-61500000D03*
D19*
X177000000Y-60230000D03*
X177000000Y-58960000D03*
X177000000Y-57690000D03*
%TD*%
D20*
%TO.C,J2*%
X101000000Y-61100000D03*
X103500000Y-61100000D03*
X108500000Y-56100000D03*
X101000000Y-51100000D03*
X103500000Y-51100000D03*
D21*
X108500000Y-61100000D03*
D22*
X103500000Y-56100000D03*
D21*
X108500000Y-51100000D03*
%TD*%
D20*
%TO.C,J1*%
X219000000Y-59000000D03*
X216500000Y-59000000D03*
X211500000Y-64000000D03*
X219000000Y-69000000D03*
X216500000Y-69000000D03*
D23*
X211500000Y-59000000D03*
D24*
X216500000Y-64000000D03*
D23*
X211500000Y-69000000D03*
%TD*%
D15*
%TO.C,U4*%
X117500000Y-74500000D03*
D16*
X117500000Y-77040000D03*
X117500000Y-79580000D03*
X117500000Y-82120000D03*
X117500000Y-84660000D03*
X117500000Y-87200000D03*
X117500000Y-89740000D03*
X117500000Y-92280000D03*
X117500000Y-94820000D03*
X117500000Y-97360000D03*
X125120000Y-97360000D03*
X125120000Y-94820000D03*
X125120000Y-92280000D03*
X125120000Y-89740000D03*
X125120000Y-87200000D03*
X125120000Y-84660000D03*
X125120000Y-82120000D03*
X125120000Y-79580000D03*
X125120000Y-77040000D03*
X125120000Y-74500000D03*
%TD*%
D17*
%TO.C,RV1*%
X111400000Y-70300000D03*
X102600000Y-70300000D03*
D13*
X109500000Y-63300000D03*
D14*
X107000000Y-63300000D03*
X104500000Y-63300000D03*
%TD*%
D13*
%TO.C,D4*%
X190000000Y-99414000D03*
D14*
X192540000Y-99414000D03*
%TD*%
D17*
%TO.C,RV3*%
X123000000Y-123900000D03*
X114200000Y-123900000D03*
D13*
X121100000Y-116900000D03*
D14*
X118600000Y-116900000D03*
X116100000Y-116900000D03*
%TD*%
D25*
%TO.C,R3*%
X176600000Y-98100000D03*
D16*
X186760000Y-98100000D03*
%TD*%
D12*
%TO.C, *%
X204000000Y-55000000D03*
%TD*%
D15*
%TO.C,U2*%
X130500000Y-65000000D03*
D16*
X130500000Y-67540000D03*
X130500000Y-70080000D03*
X130500000Y-72620000D03*
X130500000Y-75160000D03*
X130500000Y-77700000D03*
X130500000Y-80240000D03*
X130500000Y-82780000D03*
X138120000Y-82780000D03*
X138120000Y-80240000D03*
X138120000Y-77700000D03*
X138120000Y-75160000D03*
X138120000Y-72620000D03*
X138120000Y-70080000D03*
X138120000Y-67540000D03*
X138120000Y-65000000D03*
%TD*%
D26*
%TO.C,C2*%
X143472600Y-91750000D03*
D27*
X141472600Y-91750000D03*
%TD*%
D10*
%TO.C,SW3*%
X126500000Y-55280000D03*
X133510000Y-55280000D03*
D11*
X127750000Y-52790000D03*
X132250000Y-52790000D03*
%TD*%
D13*
%TO.C,D11*%
X196000000Y-91869000D03*
D14*
X198540000Y-91869000D03*
%TD*%
D13*
%TO.C,D9*%
X196000000Y-106959000D03*
D14*
X198540000Y-106959000D03*
%TD*%
D26*
%TO.C,C1*%
X143472600Y-67500000D03*
D27*
X141472600Y-67500000D03*
%TD*%
D28*
%TO.C,U5*%
X129525000Y-122595000D03*
X129525000Y-123865000D03*
X129525000Y-125135000D03*
X129525000Y-126405000D03*
X134475000Y-126405000D03*
X134475000Y-125135000D03*
X134475000Y-123865000D03*
X134475000Y-122595000D03*
%TD*%
D25*
%TO.C,R9*%
X176500000Y-89100000D03*
D16*
X186660000Y-89100000D03*
%TD*%
D13*
%TO.C,D13*%
X196000000Y-76779000D03*
D14*
X198540000Y-76779000D03*
%TD*%
D25*
%TO.C,R12*%
X176571000Y-111600000D03*
D16*
X186731000Y-111600000D03*
%TD*%
D13*
%TO.C,D12*%
X196000000Y-84324000D03*
D14*
X198540000Y-84324000D03*
%TD*%
D29*
%TO.C,C5*%
X132200000Y-118000000D03*
D27*
X134200000Y-118000000D03*
%TD*%
D13*
%TO.C,D10*%
X196000000Y-99414000D03*
D14*
X198540000Y-99414000D03*
%TD*%
D25*
%TO.C,R1*%
X194720000Y-67300000D03*
D16*
X204880000Y-67300000D03*
%TD*%
D17*
%TO.C,RV7*%
X217400000Y-82872000D03*
X208600000Y-82872000D03*
D13*
X215500000Y-75872000D03*
D14*
X213000000Y-75872000D03*
X210500000Y-75872000D03*
%TD*%
D17*
%TO.C,RV2*%
X111400000Y-98300000D03*
X102600000Y-98300000D03*
D13*
X109500000Y-91300000D03*
D14*
X107000000Y-91300000D03*
X104500000Y-91300000D03*
%TD*%
D20*
%TO.C,J3*%
X101000000Y-89000000D03*
X103500000Y-89000000D03*
X108500000Y-84000000D03*
X101000000Y-79000000D03*
X103500000Y-79000000D03*
D21*
X108500000Y-89000000D03*
D22*
X103500000Y-84000000D03*
D21*
X108500000Y-79000000D03*
%TD*%
D13*
%TO.C,D3*%
X190000000Y-106959000D03*
D14*
X192540000Y-106959000D03*
%TD*%
D12*
%TO.C, *%
X204000000Y-112000000D03*
%TD*%
D29*
%TO.C,C4*%
X138727401Y-118000000D03*
D27*
X140727401Y-118000000D03*
%TD*%
D13*
%TO.C,D5*%
X190000000Y-91869000D03*
D14*
X192540000Y-91869000D03*
%TD*%
D25*
%TO.C,R8*%
X176500000Y-84600000D03*
D16*
X186660000Y-84600000D03*
%TD*%
D25*
%TO.C,R2*%
X176600000Y-102600000D03*
D16*
X186760000Y-102600000D03*
%TD*%
D17*
%TO.C,RV5*%
X158519000Y-123900000D03*
X149719000Y-123900000D03*
D13*
X156619000Y-116900000D03*
D14*
X154119000Y-116900000D03*
X151619000Y-116900000D03*
%TD*%
D26*
%TO.C,C3*%
X202350000Y-61350000D03*
D27*
X200350000Y-61350000D03*
%TD*%
D25*
%TO.C,R7*%
X176500000Y-80100000D03*
D16*
X186660000Y-80100000D03*
%TD*%
D25*
%TO.C,R4*%
X186680000Y-71100000D03*
D16*
X176520000Y-71100000D03*
%TD*%
D30*
%TO.C,BZ1*%
X186500000Y-58000000D03*
D31*
X186500000Y-65000000D03*
%TD*%
D12*
%TO.C, *%
X120000000Y-112000000D03*
%TD*%
D25*
%TO.C,R11*%
X176570000Y-107100000D03*
D16*
X186730000Y-107100000D03*
%TD*%
D25*
%TO.C,R6*%
X176500000Y-75600000D03*
D16*
X186660000Y-75600000D03*
%TD*%
D31*
%TO.C,SW1*%
X190860000Y-119250000D03*
X197360000Y-119250000D03*
X190860000Y-123750000D03*
X197360000Y-123750000D03*
%TD*%
D13*
%TO.C,D8*%
X196000000Y-114504000D03*
D14*
X198540000Y-114504000D03*
%TD*%
D13*
%TO.C,D6*%
X190000000Y-84324000D03*
D14*
X192540000Y-84324000D03*
%TD*%
D20*
%TO.C,J5*%
X219000000Y-129000000D03*
X219000000Y-126500000D03*
X214000000Y-121500000D03*
X209000000Y-129000000D03*
X209000000Y-126500000D03*
D22*
X219000000Y-121500000D03*
D23*
X214000000Y-126500000D03*
D22*
X209000000Y-121500000D03*
%TD*%
D32*
%TO.C,U1*%
X172450000Y-100760000D03*
D33*
X172450000Y-98220000D03*
X172450000Y-95680000D03*
X172450000Y-93140000D03*
X172450000Y-90600000D03*
X172450000Y-88060000D03*
X172450000Y-85520000D03*
X172450000Y-82980000D03*
X172450000Y-80440000D03*
X172450000Y-77900000D03*
X172450000Y-75360000D03*
X172450000Y-72820000D03*
X172450000Y-70280000D03*
X172450000Y-67740000D03*
X172450000Y-65200000D03*
X172450000Y-62660000D03*
X172450000Y-60120000D03*
X172450000Y-57580000D03*
X172450000Y-55040000D03*
X147050000Y-100760000D03*
X147050000Y-98220000D03*
X147050000Y-95680000D03*
X147050000Y-93140000D03*
X147050000Y-90600000D03*
X147050000Y-88060000D03*
X147050000Y-85520000D03*
X147050000Y-82980000D03*
X147050000Y-80440000D03*
X147050000Y-77900000D03*
X147050000Y-75360000D03*
X147050000Y-72820000D03*
X147050000Y-70280000D03*
X147050000Y-67740000D03*
X147050000Y-65200000D03*
X147050000Y-62660000D03*
X147050000Y-60120000D03*
X147050000Y-57580000D03*
X147050000Y-55040000D03*
%TD*%
D25*
%TO.C,R5*%
X186660000Y-93600000D03*
D16*
X176500000Y-93600000D03*
%TD*%
D34*
%TO.C,D14*%
X212060000Y-124425000D03*
X213330000Y-124425000D03*
X214600000Y-124425000D03*
D35*
X215870000Y-124425000D03*
%TD*%
D20*
%TO.C,J4*%
X111000000Y-129000000D03*
X111000000Y-126500000D03*
X106000000Y-121500000D03*
X101000000Y-129000000D03*
X101000000Y-126500000D03*
D22*
X111000000Y-121500000D03*
D23*
X106000000Y-126500000D03*
D22*
X101000000Y-121500000D03*
%TD*%
M02*
