%TF.GenerationSoftware,KiCad,Pcbnew,9.0.3*%
%TF.CreationDate,2025-07-22T15:18:12+02:00*%
%TF.ProjectId,Spikeling_v2.4,5370696b-656c-4696-9e67-5f76322e342e,rev?*%
%TF.SameCoordinates,Original*%
%TF.FileFunction,Copper,L1,Top*%
%TF.FilePolarity,Positive*%
%FSLAX46Y46*%
G04 Gerber Fmt 4.6, Leading zero omitted, Abs format (unit mm)*
G04 Created by KiCad (PCBNEW 9.0.3) date 2025-07-22 15:18:12*
%MOMM*%
%LPD*%
G01*
G04 APERTURE LIST*
G04 Aperture macros list*
%AMRoundRect*
0 Rectangle with rounded corners*
0 $1 Rounding radius*
0 $2 $3 $4 $5 $6 $7 $8 $9 X,Y pos of 4 corners*
0 Add a 4 corners polygon primitive as box body*
4,1,4,$2,$3,$4,$5,$6,$7,$8,$9,$2,$3,0*
0 Add four circle primitives for the rounded corners*
1,1,$1+$1,$2,$3*
1,1,$1+$1,$4,$5*
1,1,$1+$1,$6,$7*
1,1,$1+$1,$8,$9*
0 Add four rect primitives between the rounded corners*
20,1,$1+$1,$2,$3,$4,$5,0*
20,1,$1+$1,$4,$5,$6,$7,0*
20,1,$1+$1,$6,$7,$8,$9,0*
20,1,$1+$1,$8,$9,$2,$3,0*%
G04 Aperture macros list end*
%TA.AperFunction,ComponentPad*%
%ADD10C,2.100000*%
%TD*%
%TA.AperFunction,ComponentPad*%
%ADD11C,1.750000*%
%TD*%
%TA.AperFunction,ComponentPad*%
%ADD12C,5.600000*%
%TD*%
%TA.AperFunction,ComponentPad*%
%ADD13R,1.800000X1.800000*%
%TD*%
%TA.AperFunction,ComponentPad*%
%ADD14C,1.800000*%
%TD*%
%TA.AperFunction,ComponentPad*%
%ADD15R,1.600000X1.600000*%
%TD*%
%TA.AperFunction,ComponentPad*%
%ADD16O,1.600000X1.600000*%
%TD*%
%TA.AperFunction,ComponentPad*%
%ADD17RoundRect,0.750000X-0.750000X1.250000X-0.750000X-1.250000X0.750000X-1.250000X0.750000X1.250000X0*%
%TD*%
%TA.AperFunction,ComponentPad*%
%ADD18R,1.800000X1.070000*%
%TD*%
%TA.AperFunction,ComponentPad*%
%ADD19O,1.800000X1.070000*%
%TD*%
%TA.AperFunction,ComponentPad*%
%ADD20C,1.300000*%
%TD*%
%TA.AperFunction,ComponentPad*%
%ADD21RoundRect,0.200000X0.550000X0.200000X-0.550000X0.200000X-0.550000X-0.200000X0.550000X-0.200000X0*%
%TD*%
%TA.AperFunction,ComponentPad*%
%ADD22RoundRect,0.200000X-0.200000X0.550000X-0.200000X-0.550000X0.200000X-0.550000X0.200000X0.550000X0*%
%TD*%
%TA.AperFunction,ComponentPad*%
%ADD23RoundRect,0.200000X-0.550000X-0.200000X0.550000X-0.200000X0.550000X0.200000X-0.550000X0.200000X0*%
%TD*%
%TA.AperFunction,ComponentPad*%
%ADD24RoundRect,0.200000X0.200000X-0.550000X0.200000X0.550000X-0.200000X0.550000X-0.200000X-0.550000X0*%
%TD*%
%TA.AperFunction,ComponentPad*%
%ADD25C,1.600000*%
%TD*%
%TA.AperFunction,ComponentPad*%
%ADD26R,1.200000X1.200000*%
%TD*%
%TA.AperFunction,ComponentPad*%
%ADD27C,1.200000*%
%TD*%
%TA.AperFunction,SMDPad,CuDef*%
%ADD28RoundRect,0.150000X-0.825000X-0.150000X0.825000X-0.150000X0.825000X0.150000X-0.825000X0.150000X0*%
%TD*%
%TA.AperFunction,ComponentPad*%
%ADD29RoundRect,0.250000X-0.350000X-0.350000X0.350000X-0.350000X0.350000X0.350000X-0.350000X0.350000X0*%
%TD*%
%TA.AperFunction,ComponentPad*%
%ADD30R,2.000000X2.000000*%
%TD*%
%TA.AperFunction,ComponentPad*%
%ADD31C,2.000000*%
%TD*%
%TA.AperFunction,ComponentPad*%
%ADD32R,1.560000X1.560000*%
%TD*%
%TA.AperFunction,ComponentPad*%
%ADD33C,1.560000*%
%TD*%
%TA.AperFunction,ComponentPad*%
%ADD34O,1.070000X1.800000*%
%TD*%
%TA.AperFunction,ComponentPad*%
%ADD35R,1.070000X1.800000*%
%TD*%
%TA.AperFunction,ViaPad*%
%ADD36C,0.800000*%
%TD*%
%TA.AperFunction,Conductor*%
%ADD37C,0.250000*%
%TD*%
G04 APERTURE END LIST*
D10*
%TO.P,SW2,*%
%TO.N,*%
X191500000Y-55280000D03*
X198510000Y-55280000D03*
D11*
%TO.P,SW2,1,1*%
%TO.N,Button_Buzzer*%
X192750000Y-52790000D03*
%TO.P,SW2,2,2*%
%TO.N,VCC*%
X197250000Y-52790000D03*
%TD*%
D12*
%TO.P, ,1*%
%TO.N,N/C*%
X120000000Y-55000000D03*
%TD*%
D13*
%TO.P,D7,1,K*%
%TO.N,Net-(D4-K)*%
X190000000Y-76779000D03*
D14*
%TO.P,D7,2,A*%
%TO.N,Net-(D10-K)*%
X192540000Y-76779000D03*
%TD*%
D13*
%TO.P,D2,1,K*%
%TO.N,Net-(D10-A)*%
X190000000Y-114504000D03*
D14*
%TO.P,D2,2,A*%
%TO.N,Net-(D12-A)*%
X192540000Y-114504000D03*
%TD*%
D13*
%TO.P,D0,1,K*%
%TO.N,Net-(D0-K)*%
X138725000Y-124350000D03*
D14*
%TO.P,D0,2,A*%
%TO.N,GNDREF*%
X141265000Y-124350000D03*
%TD*%
D15*
%TO.P,U3,1,CH0*%
%TO.N,A_Synapse1*%
X130500000Y-89125000D03*
D16*
%TO.P,U3,2,CH1*%
%TO.N,A_Synapse2*%
X130500000Y-91665000D03*
%TO.P,U3,3,CH2*%
%TO.N,A_PhotoDiode*%
X130500000Y-94205000D03*
%TO.P,U3,4,CH3*%
%TO.N,A_Current*%
X130500000Y-96745000D03*
%TO.P,U3,5,CH4*%
%TO.N,unconnected-(U3-CH4-Pad5)*%
X130500000Y-99285000D03*
%TO.P,U3,6,CH5*%
%TO.N,unconnected-(U3-CH5-Pad6)*%
X130500000Y-101825000D03*
%TO.P,U3,7,CH6*%
%TO.N,unconnected-(U3-CH6-Pad7)*%
X130500000Y-104365000D03*
%TO.P,U3,8,CH7*%
%TO.N,unconnected-(U3-CH7-Pad8)*%
X130500000Y-106905000D03*
%TO.P,U3,9,DGND*%
%TO.N,GNDREF*%
X138120000Y-106905000D03*
%TO.P,U3,10,~{CS}/SHDN*%
%TO.N,CS_ADC2*%
X138120000Y-104365000D03*
%TO.P,U3,11,Din*%
%TO.N,MOSI*%
X138120000Y-101825000D03*
%TO.P,U3,12,Dout*%
%TO.N,MISO*%
X138120000Y-99285000D03*
%TO.P,U3,13,CLK*%
%TO.N,CLK*%
X138120000Y-96745000D03*
%TO.P,U3,14,AGND*%
%TO.N,GNDREF*%
X138120000Y-94205000D03*
%TO.P,U3,15,Vref*%
%TO.N,VCC*%
X138120000Y-91665000D03*
%TO.P,U3,16,Vdd*%
X138120000Y-89125000D03*
%TD*%
D17*
%TO.P,RV6,*%
%TO.N,*%
X217400000Y-108500000D03*
X208600000Y-108500000D03*
D13*
%TO.P,RV6,1,1*%
%TO.N,GNDREF*%
X215500000Y-101500000D03*
D14*
%TO.P,RV6,2,2*%
%TO.N,A_StimStre*%
X213000000Y-101500000D03*
%TO.P,RV6,3,3*%
%TO.N,VCC*%
X210500000Y-101500000D03*
%TD*%
D17*
%TO.P,RV4,*%
%TO.N,*%
X180900000Y-123900000D03*
X172100000Y-123900000D03*
D13*
%TO.P,RV4,1,1*%
%TO.N,GNDREF*%
X179000000Y-116900000D03*
D14*
%TO.P,RV4,2,2*%
%TO.N,A_Noise*%
X176500000Y-116900000D03*
%TO.P,RV4,3,3*%
%TO.N,VCC*%
X174000000Y-116900000D03*
%TD*%
D18*
%TO.P,D1,1,RA*%
%TO.N,Spike_R*%
X177000000Y-61500000D03*
D19*
%TO.P,D1,2,K*%
%TO.N,Net-(D1-K)*%
X177000000Y-60230000D03*
%TO.P,D1,3,GA*%
%TO.N,Spike_G*%
X177000000Y-58960000D03*
%TO.P,D1,4,BA*%
%TO.N,Spike_B*%
X177000000Y-57690000D03*
%TD*%
D20*
%TO.P,J2,*%
%TO.N,*%
X101000000Y-61100000D03*
X103500000Y-61100000D03*
X108500000Y-56100000D03*
X101000000Y-51100000D03*
X103500000Y-51100000D03*
D21*
%TO.P,J2,R*%
%TO.N,A_Synapse1*%
X108500000Y-61100000D03*
D22*
%TO.P,J2,S*%
%TO.N,GNDREF*%
X103500000Y-56100000D03*
D21*
%TO.P,J2,T*%
%TO.N,D_Synapse1*%
X108500000Y-51100000D03*
%TD*%
D20*
%TO.P,J1,*%
%TO.N,*%
X219000000Y-59000000D03*
X216500000Y-59000000D03*
X211500000Y-64000000D03*
X219000000Y-69000000D03*
X216500000Y-69000000D03*
D23*
%TO.P,J1,R*%
%TO.N,Net-(C3-Pad1)*%
X211500000Y-59000000D03*
D24*
%TO.P,J1,S*%
%TO.N,GNDREF*%
X216500000Y-64000000D03*
D23*
%TO.P,J1,T*%
%TO.N,D_Axon*%
X211500000Y-69000000D03*
%TD*%
D15*
%TO.P,U4,1,SCL*%
%TO.N,CLK*%
X117500000Y-74500000D03*
D16*
%TO.P,U4,2,SI*%
%TO.N,MOSI*%
X117500000Y-77040000D03*
%TO.P,U4,3,SO*%
%TO.N,MISO*%
X117500000Y-79580000D03*
%TO.P,U4,4,A1*%
%TO.N,GNDREF*%
X117500000Y-82120000D03*
%TO.P,U4,5,A0*%
X117500000Y-84660000D03*
%TO.P,U4,6,~{RESET}*%
%TO.N,unconnected-(U4-~{RESET}-Pad6)*%
X117500000Y-87200000D03*
%TO.P,U4,7,CS*%
%TO.N,CS_D1*%
X117500000Y-89740000D03*
%TO.P,U4,8,INT*%
%TO.N,unconnected-(U4-INT-Pad8)*%
X117500000Y-92280000D03*
%TO.P,U4,9,VSS*%
%TO.N,GNDREF*%
X117500000Y-94820000D03*
%TO.P,U4,10,NC*%
%TO.N,unconnected-(U4-NC-Pad10)*%
X117500000Y-97360000D03*
%TO.P,U4,11,NC*%
%TO.N,unconnected-(U4-NC-Pad11)*%
X125120000Y-97360000D03*
%TO.P,U4,12,GP0*%
%TO.N,Button_Buzzer*%
X125120000Y-94820000D03*
%TO.P,U4,13,GP1*%
%TO.N,Button_Mode*%
X125120000Y-92280000D03*
%TO.P,U4,14,GP2*%
%TO.N,D_Stim*%
X125120000Y-89740000D03*
%TO.P,U4,15,GP3*%
%TO.N,D_Axon*%
X125120000Y-87200000D03*
%TO.P,U4,16,GP4*%
%TO.N,CharliePlex4*%
X125120000Y-84660000D03*
%TO.P,U4,17,GP5*%
%TO.N,CharliePlex3*%
X125120000Y-82120000D03*
%TO.P,U4,18,GP6*%
%TO.N,CharliePlex2*%
X125120000Y-79580000D03*
%TO.P,U4,19,GP7*%
%TO.N,CharliePlex1*%
X125120000Y-77040000D03*
%TO.P,U4,20,VDD*%
%TO.N,VCC*%
X125120000Y-74500000D03*
%TD*%
D17*
%TO.P,RV1,*%
%TO.N,*%
X111400000Y-70300000D03*
X102600000Y-70300000D03*
D13*
%TO.P,RV1,1,1*%
%TO.N,GNDREF*%
X109500000Y-63300000D03*
D14*
%TO.P,RV1,2,2*%
%TO.N,A_Syn1*%
X107000000Y-63300000D03*
%TO.P,RV1,3,3*%
%TO.N,VCC*%
X104500000Y-63300000D03*
%TD*%
D13*
%TO.P,D4,1,K*%
%TO.N,Net-(D4-K)*%
X190000000Y-99414000D03*
D14*
%TO.P,D4,2,A*%
%TO.N,Net-(D10-A)*%
X192540000Y-99414000D03*
%TD*%
D17*
%TO.P,RV3,*%
%TO.N,*%
X123000000Y-123900000D03*
X114200000Y-123900000D03*
D13*
%TO.P,RV3,1,1*%
%TO.N,GNDREF*%
X121100000Y-116900000D03*
D14*
%TO.P,RV3,2,2*%
%TO.N,A_Vm*%
X118600000Y-116900000D03*
%TO.P,RV3,3,3*%
%TO.N,VCC*%
X116100000Y-116900000D03*
%TD*%
D25*
%TO.P,R3,1*%
%TO.N,D_Stim*%
X176600000Y-98100000D03*
D16*
%TO.P,R3,2*%
%TO.N,Net-(J5-PadT)*%
X186760000Y-98100000D03*
%TD*%
D12*
%TO.P, ,1*%
%TO.N,N/C*%
X204000000Y-55000000D03*
%TD*%
D15*
%TO.P,U2,1,CH0*%
%TO.N,A_Vm*%
X130500000Y-65000000D03*
D16*
%TO.P,U2,2,CH1*%
%TO.N,A_Syn1*%
X130500000Y-67540000D03*
%TO.P,U2,3,CH2*%
%TO.N,A_Syn2*%
X130500000Y-70080000D03*
%TO.P,U2,4,CH3*%
%TO.N,A_PD*%
X130500000Y-72620000D03*
%TO.P,U2,5,CH4*%
%TO.N,A_StimStre*%
X130500000Y-75160000D03*
%TO.P,U2,6,CH5*%
%TO.N,A_StimFre*%
X130500000Y-77700000D03*
%TO.P,U2,7,CH6*%
%TO.N,A_Noise*%
X130500000Y-80240000D03*
%TO.P,U2,8,CH7*%
%TO.N,unconnected-(U2-CH7-Pad8)*%
X130500000Y-82780000D03*
%TO.P,U2,9,DGND*%
%TO.N,GNDREF*%
X138120000Y-82780000D03*
%TO.P,U2,10,~{CS}/SHDN*%
%TO.N,CS_ADC1*%
X138120000Y-80240000D03*
%TO.P,U2,11,Din*%
%TO.N,MOSI*%
X138120000Y-77700000D03*
%TO.P,U2,12,Dout*%
%TO.N,MISO*%
X138120000Y-75160000D03*
%TO.P,U2,13,CLK*%
%TO.N,CLK*%
X138120000Y-72620000D03*
%TO.P,U2,14,AGND*%
%TO.N,GNDREF*%
X138120000Y-70080000D03*
%TO.P,U2,15,Vref*%
%TO.N,VCC*%
X138120000Y-67540000D03*
%TO.P,U2,16,Vdd*%
X138120000Y-65000000D03*
%TD*%
D26*
%TO.P,C2,1*%
%TO.N,GNDREF*%
X143472600Y-91750000D03*
D27*
%TO.P,C2,2*%
%TO.N,VCC*%
X141472600Y-91750000D03*
%TD*%
D10*
%TO.P,SW3,*%
%TO.N,*%
X126500000Y-55280000D03*
X133510000Y-55280000D03*
D11*
%TO.P,SW3,1,1*%
%TO.N,GNDREF*%
X127750000Y-52790000D03*
%TO.P,SW3,2,2*%
%TO.N,Net-(U1-EN)*%
X132250000Y-52790000D03*
%TD*%
D13*
%TO.P,D11,1,K*%
%TO.N,Net-(D10-A)*%
X196000000Y-91869000D03*
D14*
%TO.P,D11,2,A*%
%TO.N,Net-(D10-K)*%
X198540000Y-91869000D03*
%TD*%
D13*
%TO.P,D9,1,K*%
%TO.N,Net-(D12-A)*%
X196000000Y-106959000D03*
D14*
%TO.P,D9,2,A*%
%TO.N,Net-(D4-K)*%
X198540000Y-106959000D03*
%TD*%
D26*
%TO.P,C1,1*%
%TO.N,GNDREF*%
X143472600Y-67500000D03*
D27*
%TO.P,C1,2*%
%TO.N,VCC*%
X141472600Y-67500000D03*
%TD*%
D28*
%TO.P,U5,1,NC*%
%TO.N,unconnected-(U5-NC-Pad1)*%
X129525000Y-122595000D03*
%TO.P,U5,2,-*%
%TO.N,Net-(D0-K)*%
X129525000Y-123865000D03*
%TO.P,U5,3,+*%
%TO.N,GNDREF*%
X129525000Y-125135000D03*
%TO.P,U5,4,V-*%
X129525000Y-126405000D03*
%TO.P,U5,5,NC*%
%TO.N,unconnected-(U5-NC-Pad5)*%
X134475000Y-126405000D03*
%TO.P,U5,6*%
%TO.N,A_PhotoDiode*%
X134475000Y-125135000D03*
%TO.P,U5,7,V+*%
%TO.N,VCC*%
X134475000Y-123865000D03*
%TO.P,U5,8,NC*%
%TO.N,unconnected-(U5-NC-Pad8)*%
X134475000Y-122595000D03*
%TD*%
D25*
%TO.P,R9,1*%
%TO.N,CharliePlex4*%
X176500000Y-89100000D03*
D16*
%TO.P,R9,2*%
%TO.N,Net-(D10-K)*%
X186660000Y-89100000D03*
%TD*%
D13*
%TO.P,D13,1,K*%
%TO.N,Net-(D12-A)*%
X196000000Y-76779000D03*
D14*
%TO.P,D13,2,A*%
%TO.N,Net-(D10-K)*%
X198540000Y-76779000D03*
%TD*%
D25*
%TO.P,R12,1*%
%TO.N,Net-(D14-K)*%
X176571000Y-111600000D03*
D16*
%TO.P,R12,2*%
%TO.N,GNDREF*%
X186731000Y-111600000D03*
%TD*%
D13*
%TO.P,D12,1,K*%
%TO.N,Net-(D10-K)*%
X196000000Y-84324000D03*
D14*
%TO.P,D12,2,A*%
%TO.N,Net-(D12-A)*%
X198540000Y-84324000D03*
%TD*%
D29*
%TO.P,C5,1*%
%TO.N,VCC*%
X132200000Y-118000000D03*
D27*
%TO.P,C5,2*%
%TO.N,GNDREF*%
X134200000Y-118000000D03*
%TD*%
D13*
%TO.P,D10,1,K*%
%TO.N,Net-(D10-K)*%
X196000000Y-99414000D03*
D14*
%TO.P,D10,2,A*%
%TO.N,Net-(D10-A)*%
X198540000Y-99414000D03*
%TD*%
D25*
%TO.P,R1,1*%
%TO.N,A_Axon*%
X194720000Y-67300000D03*
D16*
%TO.P,R1,2*%
%TO.N,Net-(C3-Pad1)*%
X204880000Y-67300000D03*
%TD*%
D17*
%TO.P,RV7,*%
%TO.N,*%
X217400000Y-82872000D03*
X208600000Y-82872000D03*
D13*
%TO.P,RV7,1,1*%
%TO.N,GNDREF*%
X215500000Y-75872000D03*
D14*
%TO.P,RV7,2,2*%
%TO.N,A_StimFre*%
X213000000Y-75872000D03*
%TO.P,RV7,3,3*%
%TO.N,VCC*%
X210500000Y-75872000D03*
%TD*%
D17*
%TO.P,RV2,*%
%TO.N,*%
X111400000Y-98300000D03*
X102600000Y-98300000D03*
D13*
%TO.P,RV2,1,1*%
%TO.N,GNDREF*%
X109500000Y-91300000D03*
D14*
%TO.P,RV2,2,2*%
%TO.N,A_Syn2*%
X107000000Y-91300000D03*
%TO.P,RV2,3,3*%
%TO.N,VCC*%
X104500000Y-91300000D03*
%TD*%
D20*
%TO.P,J3,*%
%TO.N,*%
X101000000Y-89000000D03*
X103500000Y-89000000D03*
X108500000Y-84000000D03*
X101000000Y-79000000D03*
X103500000Y-79000000D03*
D21*
%TO.P,J3,R*%
%TO.N,A_Synapse2*%
X108500000Y-89000000D03*
D22*
%TO.P,J3,S*%
%TO.N,GNDREF*%
X103500000Y-84000000D03*
D21*
%TO.P,J3,T*%
%TO.N,D_Synapse2*%
X108500000Y-79000000D03*
%TD*%
D13*
%TO.P,D3,1,K*%
%TO.N,Net-(D12-A)*%
X190000000Y-106959000D03*
D14*
%TO.P,D3,2,A*%
%TO.N,Net-(D10-A)*%
X192540000Y-106959000D03*
%TD*%
D12*
%TO.P, ,1*%
%TO.N,N/C*%
X204000000Y-112000000D03*
%TD*%
D29*
%TO.P,C4,1*%
%TO.N,Net-(D0-K)*%
X138727401Y-118000000D03*
D27*
%TO.P,C4,2*%
%TO.N,GNDREF*%
X140727401Y-118000000D03*
%TD*%
D13*
%TO.P,D5,1,K*%
%TO.N,Net-(D10-A)*%
X190000000Y-91869000D03*
D14*
%TO.P,D5,2,A*%
%TO.N,Net-(D4-K)*%
X192540000Y-91869000D03*
%TD*%
D25*
%TO.P,R8,1*%
%TO.N,CharliePlex3*%
X176500000Y-84600000D03*
D16*
%TO.P,R8,2*%
%TO.N,Net-(D4-K)*%
X186660000Y-84600000D03*
%TD*%
D25*
%TO.P,R2,1*%
%TO.N,GNDREF*%
X176600000Y-102600000D03*
D16*
%TO.P,R2,2*%
%TO.N,Net-(D0-K)*%
X186760000Y-102600000D03*
%TD*%
D17*
%TO.P,RV5,*%
%TO.N,*%
X158519000Y-123900000D03*
X149719000Y-123900000D03*
D13*
%TO.P,RV5,1,1*%
%TO.N,GNDREF*%
X156619000Y-116900000D03*
D14*
%TO.P,RV5,2,2*%
%TO.N,A_PD*%
X154119000Y-116900000D03*
%TO.P,RV5,3,3*%
%TO.N,VCC*%
X151619000Y-116900000D03*
%TD*%
D26*
%TO.P,C3,1*%
%TO.N,Net-(C3-Pad1)*%
X202350000Y-61350000D03*
D27*
%TO.P,C3,2*%
%TO.N,GNDREF*%
X200350000Y-61350000D03*
%TD*%
D25*
%TO.P,R7,1*%
%TO.N,CharliePlex2*%
X176500000Y-80100000D03*
D16*
%TO.P,R7,2*%
%TO.N,Net-(D10-A)*%
X186660000Y-80100000D03*
%TD*%
D25*
%TO.P,R4,1*%
%TO.N,Net-(D1-K)*%
X186680000Y-71100000D03*
D16*
%TO.P,R4,2*%
%TO.N,GNDREF*%
X176520000Y-71100000D03*
%TD*%
D30*
%TO.P,BZ1,1,-*%
%TO.N,Spike*%
X186500000Y-58000000D03*
D31*
%TO.P,BZ1,2,+*%
%TO.N,GNDREF*%
X186500000Y-65000000D03*
%TD*%
D12*
%TO.P, ,1*%
%TO.N,N/C*%
X120000000Y-112000000D03*
%TD*%
D25*
%TO.P,R11,1*%
%TO.N,Button_Buzzer*%
X176570000Y-107100000D03*
D16*
%TO.P,R11,2*%
%TO.N,GNDREF*%
X186730000Y-107100000D03*
%TD*%
D25*
%TO.P,R6,1*%
%TO.N,CharliePlex1*%
X176500000Y-75600000D03*
D16*
%TO.P,R6,2*%
%TO.N,Net-(D12-A)*%
X186660000Y-75600000D03*
%TD*%
D31*
%TO.P,SW1,1,1*%
%TO.N,Button_Mode*%
X190860000Y-119250000D03*
X197360000Y-119250000D03*
%TO.P,SW1,2,2*%
%TO.N,VCC*%
X190860000Y-123750000D03*
X197360000Y-123750000D03*
%TD*%
D13*
%TO.P,D8,1,K*%
%TO.N,Net-(D4-K)*%
X196000000Y-114504000D03*
D14*
%TO.P,D8,2,A*%
%TO.N,Net-(D12-A)*%
X198540000Y-114504000D03*
%TD*%
D13*
%TO.P,D6,1,K*%
%TO.N,Net-(D10-K)*%
X190000000Y-84324000D03*
D14*
%TO.P,D6,2,A*%
%TO.N,Net-(D4-K)*%
X192540000Y-84324000D03*
%TD*%
D20*
%TO.P,J5,*%
%TO.N,*%
X219000000Y-129000000D03*
X219000000Y-126500000D03*
X214000000Y-121500000D03*
X209000000Y-129000000D03*
X209000000Y-126500000D03*
D22*
%TO.P,J5,R*%
%TO.N,A_Stim*%
X219000000Y-121500000D03*
D23*
%TO.P,J5,S*%
%TO.N,GNDREF*%
X214000000Y-126500000D03*
D22*
%TO.P,J5,T*%
%TO.N,Net-(J5-PadT)*%
X209000000Y-121500000D03*
%TD*%
D32*
%TO.P,U1,1,3V3*%
%TO.N,VCC*%
X172450000Y-100760000D03*
D33*
%TO.P,U1,2,EN*%
%TO.N,Net-(U1-EN)*%
X172450000Y-98220000D03*
%TO.P,U1,3,SENSOR_VP*%
%TO.N,unconnected-(U1-SENSOR_VP-Pad3)*%
X172450000Y-95680000D03*
%TO.P,U1,4,SENSOR_VN*%
%TO.N,unconnected-(U1-SENSOR_VN-Pad4)*%
X172450000Y-93140000D03*
%TO.P,U1,5,IO34*%
%TO.N,Stim_B*%
X172450000Y-90600000D03*
%TO.P,U1,6,IO35*%
%TO.N,Stim_R*%
X172450000Y-88060000D03*
%TO.P,U1,7,IO32*%
%TO.N,Stim_G*%
X172450000Y-85520000D03*
%TO.P,U1,8,IO33*%
%TO.N,Spike*%
X172450000Y-82980000D03*
%TO.P,U1,9,IO25*%
%TO.N,A_Stim*%
X172450000Y-80440000D03*
%TO.P,U1,10,IO26*%
%TO.N,A_Axon*%
X172450000Y-77900000D03*
%TO.P,U1,11,IO27*%
%TO.N,Spike_R*%
X172450000Y-75360000D03*
%TO.P,U1,12,IO14*%
%TO.N,Spike_G*%
X172450000Y-72820000D03*
%TO.P,U1,13,IO12*%
%TO.N,Spike_B*%
X172450000Y-70280000D03*
%TO.P,U1,14,GND1*%
%TO.N,GNDREF*%
X172450000Y-67740000D03*
%TO.P,U1,15,IO13*%
%TO.N,unconnected-(U1-IO13-Pad15)*%
X172450000Y-65200000D03*
%TO.P,U1,16,SD2*%
%TO.N,unconnected-(U1-SD2-Pad16)*%
X172450000Y-62660000D03*
%TO.P,U1,17,SD3*%
%TO.N,unconnected-(U1-SD3-Pad17)*%
X172450000Y-60120000D03*
%TO.P,U1,18,CMD*%
%TO.N,unconnected-(U1-CMD-Pad18)*%
X172450000Y-57580000D03*
%TO.P,U1,19,EXT_5V*%
%TO.N,unconnected-(U1-EXT_5V-Pad19)*%
X172450000Y-55040000D03*
%TO.P,U1,20,GND3*%
%TO.N,GNDREF*%
X147050000Y-100760000D03*
%TO.P,U1,21,IO23*%
%TO.N,MOSI*%
X147050000Y-98220000D03*
%TO.P,U1,22,IO22*%
%TO.N,unconnected-(U1-IO22-Pad22)*%
X147050000Y-95680000D03*
%TO.P,U1,23,TXD0*%
%TO.N,unconnected-(U1-TXD0-Pad23)*%
X147050000Y-93140000D03*
%TO.P,U1,24,RXD0*%
%TO.N,unconnected-(U1-RXD0-Pad24)*%
X147050000Y-90600000D03*
%TO.P,U1,25,IO21*%
%TO.N,unconnected-(U1-IO21-Pad25)*%
X147050000Y-88060000D03*
%TO.P,U1,26,GND2*%
%TO.N,GNDREF*%
X147050000Y-85520000D03*
%TO.P,U1,27,IO19*%
%TO.N,MISO*%
X147050000Y-82980000D03*
%TO.P,U1,28,IO18*%
%TO.N,CLK*%
X147050000Y-80440000D03*
%TO.P,U1,29,IO5*%
%TO.N,CS_D1*%
X147050000Y-77900000D03*
%TO.P,U1,30,IO17*%
%TO.N,unconnected-(U1-IO17-Pad30)*%
X147050000Y-75360000D03*
%TO.P,U1,31,IO16*%
%TO.N,unconnected-(U1-IO16-Pad31)*%
X147050000Y-72820000D03*
%TO.P,U1,32,IO4*%
%TO.N,CS_ADC2*%
X147050000Y-70280000D03*
%TO.P,U1,33,IO0*%
%TO.N,CS_ADC1*%
X147050000Y-67740000D03*
%TO.P,U1,34,IO2*%
%TO.N,D_Synapse1*%
X147050000Y-65200000D03*
%TO.P,U1,35,IO15*%
%TO.N,D_Synapse2*%
X147050000Y-62660000D03*
%TO.P,U1,36,SD1*%
%TO.N,unconnected-(U1-SD1-Pad36)*%
X147050000Y-60120000D03*
%TO.P,U1,37,SD0*%
%TO.N,unconnected-(U1-SD0-Pad37)*%
X147050000Y-57580000D03*
%TO.P,U1,38,CLK*%
%TO.N,unconnected-(U1-CLK-Pad38)*%
X147050000Y-55040000D03*
%TD*%
D25*
%TO.P,R5,1*%
%TO.N,Button_Mode*%
X186660000Y-93600000D03*
D16*
%TO.P,R5,2*%
%TO.N,GNDREF*%
X176500000Y-93600000D03*
%TD*%
D34*
%TO.P,D14,4,BA*%
%TO.N,Stim_B*%
X212060000Y-124425000D03*
%TO.P,D14,3,GA*%
%TO.N,Stim_G*%
X213330000Y-124425000D03*
%TO.P,D14,2,K*%
%TO.N,Net-(D14-K)*%
X214600000Y-124425000D03*
D35*
%TO.P,D14,1,RA*%
%TO.N,Stim_R*%
X215870000Y-124425000D03*
%TD*%
D20*
%TO.P,J4,*%
%TO.N,*%
X111000000Y-129000000D03*
X111000000Y-126500000D03*
X106000000Y-121500000D03*
X101000000Y-129000000D03*
X101000000Y-126500000D03*
D22*
%TO.P,J4,R*%
%TO.N,A_Current*%
X111000000Y-121500000D03*
D23*
%TO.P,J4,S*%
%TO.N,GNDREF*%
X106000000Y-126500000D03*
D22*
%TO.P,J4,T*%
%TO.N,unconnected-(J4-PadT)*%
X101000000Y-121500000D03*
%TD*%
D36*
%TO.N,Net-(D0-K)*%
X130775000Y-113100000D03*
%TO.N,Net-(U1-EN)*%
X161100000Y-96425000D03*
%TO.N,D_Axon*%
X123100000Y-69200000D03*
X123124511Y-59325489D03*
%TO.N,A_Synapse2*%
X115800000Y-72700000D03*
X112800000Y-75700000D03*
%TO.N,D_Stim*%
X119425000Y-92600000D03*
%TO.N,Button_Mode*%
X122675000Y-103975000D03*
%TO.N,CharliePlex1*%
X157500000Y-76625000D03*
X135000000Y-108225000D03*
%TO.N,CharliePlex2*%
X157500000Y-79175000D03*
X135000000Y-109750000D03*
%TO.N,CharliePlex3*%
X157500000Y-81700000D03*
X135000000Y-111225000D03*
%TO.N,CharliePlex4*%
X157500000Y-84250000D03*
X135000000Y-112500000D03*
%TO.N,Button_Buzzer*%
X144300000Y-94375000D03*
X162575000Y-94375000D03*
%TO.N,A_Vm*%
X113200000Y-64600000D03*
%TO.N,D_Synapse2*%
X116400000Y-60975000D03*
%TO.N,A_PhotoDiode*%
X132500000Y-124750000D03*
%TD*%
D37*
%TO.N,VCC*%
X127825000Y-88702000D02*
X127825000Y-85150000D01*
X129523000Y-90400000D02*
X127825000Y-88702000D01*
X136855000Y-90400000D02*
X129523000Y-90400000D01*
X138120000Y-91665000D02*
X136855000Y-90400000D01*
%TO.N,A_Synapse2*%
X118475551Y-72700000D02*
X115800000Y-72700000D01*
X122649000Y-76873448D02*
X118475551Y-72700000D01*
X126775000Y-89200000D02*
X126050000Y-88475000D01*
X126775000Y-90000000D02*
X126775000Y-89200000D01*
X123800000Y-88475000D02*
X122649000Y-87324000D01*
X128450000Y-91675000D02*
X126775000Y-90000000D01*
X126050000Y-88475000D02*
X123800000Y-88475000D01*
X122649000Y-87324000D02*
X122649000Y-76873448D01*
X128460000Y-91665000D02*
X128450000Y-91675000D01*
X130500000Y-91665000D02*
X128460000Y-91665000D01*
%TO.N,A_StimFre*%
X189261109Y-120875489D02*
X191025000Y-120875489D01*
X182525000Y-114677480D02*
X183063100Y-114677480D01*
X183063100Y-114677480D02*
X189261109Y-120875489D01*
X182525000Y-114677480D02*
X129626008Y-114677480D01*
X192813299Y-120875489D02*
X191025000Y-120875489D01*
%TO.N,A_StimStre*%
X213000000Y-103675000D02*
X213000000Y-101500000D01*
X211724040Y-104950960D02*
X213000000Y-103675000D01*
X211724040Y-122411678D02*
X211724040Y-104950960D01*
X209936197Y-124199520D02*
X211724040Y-122411678D01*
X199062500Y-125312500D02*
X200175480Y-124199520D01*
X196612500Y-125312500D02*
X199062500Y-125312500D01*
X192626489Y-121326489D02*
X196612500Y-125312500D01*
X189098511Y-121326489D02*
X192626489Y-121326489D01*
X189086405Y-121338595D02*
X189098511Y-121326489D01*
X182876290Y-115128480D02*
X189086405Y-121338595D01*
X114424040Y-100113322D02*
X129439198Y-115128480D01*
X114424040Y-69646436D02*
X114424040Y-100113322D01*
X117272396Y-66798080D02*
X114424040Y-69646436D01*
X129439198Y-115128480D02*
X182876290Y-115128480D01*
X128425000Y-71180718D02*
X124042362Y-66798080D01*
X124042362Y-66798080D02*
X117272396Y-66798080D01*
X130500000Y-75160000D02*
X128425000Y-73085000D01*
X128425000Y-73085000D02*
X128425000Y-71180718D01*
X200175480Y-124199520D02*
X209936197Y-124199520D01*
%TO.N,A_Stim*%
X174990000Y-77900000D02*
X172450000Y-80440000D01*
X180300000Y-77900000D02*
X174990000Y-77900000D01*
X184026000Y-74174000D02*
X180300000Y-77900000D01*
X216799000Y-74174000D02*
X184026000Y-74174000D01*
X217225000Y-74600000D02*
X216799000Y-74174000D01*
X217225000Y-77150000D02*
X217225000Y-74600000D01*
X206702000Y-77850000D02*
X216525000Y-77850000D01*
X206027000Y-99201380D02*
X206027000Y-78525000D01*
X206800620Y-99975000D02*
X206027000Y-99201380D01*
X216550000Y-99975000D02*
X206800620Y-99975000D01*
X216900000Y-102600000D02*
X216900000Y-100325000D01*
X216900000Y-100325000D02*
X216550000Y-99975000D01*
X216500000Y-103000000D02*
X216900000Y-102600000D01*
X214500040Y-103000000D02*
X216500000Y-103000000D01*
X212175040Y-105325000D02*
X214500040Y-103000000D01*
X206027000Y-78525000D02*
X206702000Y-77850000D01*
X212175040Y-118550040D02*
X212175040Y-105325000D01*
X213400000Y-119775000D02*
X212175040Y-118550040D01*
X217275000Y-119775000D02*
X213400000Y-119775000D01*
X216525000Y-77850000D02*
X217225000Y-77150000D01*
X219000000Y-121500000D02*
X217275000Y-119775000D01*
%TO.N,Net-(D10-A)*%
X195575000Y-90150000D02*
X196000000Y-90575000D01*
X190500000Y-90150000D02*
X195575000Y-90150000D01*
X196000000Y-90575000D02*
X196000000Y-91869000D01*
X190000000Y-90650000D02*
X190500000Y-90150000D01*
X190000000Y-91869000D02*
X190000000Y-90650000D01*
X185192500Y-87550000D02*
X185192500Y-89842500D01*
X185575000Y-90225000D02*
X187219000Y-91869000D01*
X185192500Y-87550000D02*
X185192500Y-88567500D01*
X185192500Y-89842500D02*
X185575000Y-90225000D01*
X185192500Y-81567500D02*
X185192500Y-87550000D01*
%TO.N,Net-(D12-A)*%
X196000000Y-76779000D02*
X193846000Y-74625000D01*
X193846000Y-74625000D02*
X193725000Y-74625000D01*
X193725000Y-74625000D02*
X199650000Y-74625000D01*
X199650000Y-74625000D02*
X200150000Y-75125000D01*
X187635000Y-74625000D02*
X193725000Y-74625000D01*
X186660000Y-75600000D02*
X187635000Y-74625000D01*
X200150000Y-75125000D02*
X200400000Y-75375000D01*
X199825001Y-74800001D02*
X200150000Y-75125000D01*
X186660000Y-75600000D02*
X187459999Y-74800001D01*
%TO.N,GNDREF*%
X128185000Y-125135000D02*
X129525000Y-125135000D01*
X125487500Y-122437500D02*
X128185000Y-125135000D01*
X125487500Y-119187500D02*
X125487500Y-122437500D01*
X123200000Y-116900000D02*
X125487500Y-119187500D01*
X121100000Y-116900000D02*
X123200000Y-116900000D01*
%TO.N,Net-(J5-PadT)*%
X209000000Y-118700000D02*
X209000000Y-121500000D01*
X207850000Y-117550000D02*
X209000000Y-118700000D01*
X190113236Y-117550000D02*
X207850000Y-117550000D01*
X184900000Y-112336764D02*
X190113236Y-117550000D01*
X184900000Y-99960000D02*
X184900000Y-112336764D01*
X186760000Y-98100000D02*
X184900000Y-99960000D01*
%TO.N,VCC*%
X205576000Y-77636810D02*
X206643905Y-76568905D01*
X205576000Y-99388190D02*
X205576000Y-77636810D01*
X210488770Y-104300960D02*
X205576000Y-99388190D01*
X210500000Y-104300960D02*
X210488770Y-104300960D01*
X206643905Y-76568905D02*
X207340810Y-75872000D01*
%TO.N,A_StimFre*%
X211753000Y-74625000D02*
X213000000Y-75872000D01*
X207950000Y-74625000D02*
X211753000Y-74625000D01*
X210825000Y-121975000D02*
X210825000Y-105275000D01*
X209501000Y-123299000D02*
X210825000Y-121975000D01*
X210825000Y-105275000D02*
X205125000Y-99575000D01*
X205125000Y-99575000D02*
X205125000Y-77450000D01*
X205125000Y-77450000D02*
X207950000Y-74625000D01*
X208700000Y-123299000D02*
X209501000Y-123299000D01*
%TO.N,VCC*%
X207340810Y-75872000D02*
X210500000Y-75872000D01*
X206101000Y-77111810D02*
X206643905Y-76568905D01*
%TO.N,CLK*%
X118650000Y-74500000D02*
X117500000Y-74500000D01*
X127487500Y-99012500D02*
X123312500Y-99012500D01*
X123312500Y-99012500D02*
X122198000Y-97898000D01*
X122198000Y-97898000D02*
X122198000Y-78048000D01*
X128475000Y-98025000D02*
X127487500Y-99012500D01*
X136840000Y-98025000D02*
X128475000Y-98025000D01*
X138120000Y-96745000D02*
X136840000Y-98025000D01*
X122198000Y-78048000D02*
X118650000Y-74500000D01*
%TO.N,VCC*%
X104500000Y-91300000D02*
X104500000Y-105300000D01*
X112900000Y-94475000D02*
X113523520Y-95098520D01*
X113523520Y-100573520D02*
X130950000Y-118000000D01*
X130950000Y-118000000D02*
X132200000Y-118000000D01*
X104500000Y-91300000D02*
X107675000Y-94475000D01*
X107675000Y-94475000D02*
X112900000Y-94475000D01*
X113523520Y-95098520D02*
X113523520Y-100573520D01*
%TO.N,D_Stim*%
X183523000Y-105023000D02*
X176600000Y-98100000D01*
X183523000Y-112189190D02*
X183523000Y-105023000D01*
X133719724Y-113226000D02*
X182486190Y-113226000D01*
X182486190Y-113226000D02*
X183523000Y-112189190D01*
X119425000Y-92600000D02*
X119425000Y-98931276D01*
X119425000Y-98931276D02*
X133719724Y-113226000D01*
%TO.N,CS_D1*%
X149524000Y-80374000D02*
X147050000Y-77900000D01*
X149524000Y-100301000D02*
X149524000Y-80374000D01*
X146725000Y-103100000D02*
X149524000Y-100301000D01*
X129519034Y-108387500D02*
X131387500Y-108387500D01*
X120845000Y-99713466D02*
X129519034Y-108387500D01*
X136675000Y-103100000D02*
X146725000Y-103100000D01*
X120845000Y-91070000D02*
X120845000Y-99713466D01*
X117500000Y-89740000D02*
X119515000Y-89740000D01*
X119515000Y-89740000D02*
X120845000Y-91070000D01*
X131387500Y-108387500D02*
X136675000Y-103100000D01*
%TO.N,MOSI*%
X127394344Y-105625000D02*
X132415718Y-105625000D01*
X121296000Y-99526656D02*
X127394344Y-105625000D01*
X132415718Y-105625000D02*
X136215718Y-101825000D01*
X136215718Y-101825000D02*
X138120000Y-101825000D01*
X121296000Y-85896000D02*
X121296000Y-99526656D01*
X120162500Y-84762500D02*
X121296000Y-85896000D01*
X120162500Y-84762500D02*
X118800000Y-83400000D01*
%TO.N,MISO*%
X121747000Y-83827000D02*
X121747000Y-99337754D01*
X120472500Y-82552500D02*
X121747000Y-83827000D01*
X121747000Y-99337754D02*
X125508200Y-103098954D01*
X120472500Y-82552500D02*
X117500000Y-79580000D01*
%TO.N,Button_Buzzer*%
X143200000Y-95475000D02*
X144300000Y-94375000D01*
X125775000Y-95475000D02*
X143200000Y-95475000D01*
X125120000Y-94820000D02*
X125775000Y-95475000D01*
%TO.N,GNDREF*%
X215500000Y-101812810D02*
X215500000Y-101500000D01*
%TO.N,Net-(D0-K)*%
X130765000Y-123865000D02*
X131500000Y-124600000D01*
X131862500Y-127162500D02*
X137937500Y-127162500D01*
X185730000Y-92320000D02*
X183974000Y-94076000D01*
X129525000Y-123865000D02*
X130765000Y-123865000D01*
X131352000Y-113677000D02*
X130775000Y-113100000D01*
X138727401Y-124347599D02*
X138725000Y-124350000D01*
X131500000Y-126800000D02*
X131862500Y-127162500D01*
X131500000Y-124600000D02*
X131500000Y-126800000D01*
X183974000Y-112376000D02*
X182673000Y-113677000D01*
X138727401Y-118000000D02*
X138727401Y-124347599D01*
X188450000Y-100910000D02*
X188450000Y-93525000D01*
X183974000Y-94076000D02*
X183974000Y-112376000D01*
X138725000Y-126375000D02*
X138725000Y-124350000D01*
X188450000Y-93525000D02*
X187245000Y-92320000D01*
X182673000Y-113677000D02*
X131352000Y-113677000D01*
X186760000Y-102600000D02*
X188450000Y-100910000D01*
X187245000Y-92320000D02*
X185730000Y-92320000D01*
X137937500Y-127162500D02*
X138725000Y-126375000D01*
%TO.N,Net-(D10-A)*%
X186660000Y-80100000D02*
X185192500Y-81567500D01*
X192540000Y-106959000D02*
X192540000Y-111964000D01*
X196000000Y-96874000D02*
X198540000Y-99414000D01*
X187219000Y-91869000D02*
X190000000Y-91869000D01*
X192540000Y-111964000D02*
X190000000Y-114504000D01*
X192540000Y-99414000D02*
X196000000Y-95954000D01*
X196000000Y-95954000D02*
X196000000Y-91869000D01*
X192540000Y-99414000D02*
X192540000Y-106959000D01*
X196000000Y-91869000D02*
X196000000Y-96874000D01*
%TO.N,Net-(D12-A)*%
X198540000Y-113584000D02*
X198540000Y-114504000D01*
X196000000Y-111044000D02*
X198540000Y-113584000D01*
X196000000Y-110850000D02*
X196000000Y-106959000D01*
X196000000Y-106959000D02*
X196000000Y-104750000D01*
X200400000Y-86184000D02*
X200400000Y-75375000D01*
X196000000Y-104750000D02*
X200400000Y-100350000D01*
X200400000Y-100350000D02*
X200400000Y-86184000D01*
X200400000Y-86184000D02*
X198540000Y-84324000D01*
X196000000Y-111044000D02*
X196000000Y-110850000D01*
X192540000Y-114504000D02*
X196000000Y-111044000D01*
%TO.N,Net-(D4-K)*%
X199200000Y-115900000D02*
X199790500Y-115309500D01*
X199790500Y-115309500D02*
X199790500Y-108209500D01*
X196300000Y-115900000D02*
X199200000Y-115900000D01*
X196000000Y-115600000D02*
X196300000Y-115900000D01*
X199790500Y-108209500D02*
X198540000Y-106959000D01*
X196000000Y-114504000D02*
X196000000Y-115600000D01*
%TO.N,Net-(D10-K)*%
X193575000Y-78950000D02*
X196000000Y-81375000D01*
X198540000Y-78235000D02*
X198540000Y-76779000D01*
X196000000Y-89329000D02*
X198540000Y-91869000D01*
X196000000Y-84324000D02*
X196000000Y-89329000D01*
X190000000Y-85760000D02*
X186660000Y-89100000D01*
X192540000Y-77915000D02*
X193575000Y-78950000D01*
X196000000Y-81375000D02*
X196025000Y-81375000D01*
X190000000Y-80455000D02*
X192540000Y-77915000D01*
X190000000Y-84324000D02*
X190000000Y-85760000D01*
X192540000Y-76779000D02*
X192540000Y-77915000D01*
X190000000Y-84324000D02*
X190000000Y-80455000D01*
X198540000Y-78860000D02*
X196025000Y-81375000D01*
X196000000Y-81375000D02*
X196000000Y-83300000D01*
X198540000Y-76779000D02*
X198540000Y-78860000D01*
X196000000Y-84324000D02*
X196000000Y-83300000D01*
%TO.N,GNDREF*%
X177679480Y-115579480D02*
X157939520Y-115579480D01*
X129525000Y-125135000D02*
X129525000Y-126405000D01*
X179000000Y-116900000D02*
X177679480Y-115579480D01*
X138120000Y-86397400D02*
X143472600Y-91750000D01*
X138120000Y-94205000D02*
X141017600Y-94205000D01*
X138120000Y-82780000D02*
X138120000Y-86397400D01*
X157939520Y-115579480D02*
X156619000Y-116900000D01*
X141017600Y-94205000D02*
X143472600Y-91750000D01*
%TO.N,Net-(C3-Pad1)*%
X211500000Y-59000000D02*
X204700000Y-59000000D01*
X202350000Y-61350000D02*
X202350000Y-64770000D01*
X204700000Y-59000000D02*
X202350000Y-61350000D01*
X202350000Y-64770000D02*
X204880000Y-67300000D01*
%TO.N,Net-(U1-EN)*%
X133938000Y-51102000D02*
X132250000Y-52790000D01*
X161100000Y-96425000D02*
X161100000Y-53850000D01*
X161100000Y-53850000D02*
X158352000Y-51102000D01*
X158352000Y-51102000D02*
X133938000Y-51102000D01*
%TO.N,VCC*%
X197360000Y-123750000D02*
X209750000Y-123750000D01*
X136000000Y-69660000D02*
X136000000Y-87025000D01*
X211274520Y-105075480D02*
X210500000Y-104300960D01*
X133500001Y-123865000D02*
X134475000Y-123865000D01*
X136020000Y-87025000D02*
X138120000Y-89125000D01*
X138120000Y-89125000D02*
X138120000Y-91665000D01*
X104500000Y-105300000D02*
X116100000Y-116900000D01*
X190860000Y-123750000D02*
X185410000Y-118300000D01*
X209750000Y-123750000D02*
X211274520Y-122225480D01*
X138120000Y-67540000D02*
X141432600Y-67540000D01*
X127825000Y-85150000D02*
X127825000Y-77205000D01*
X133300000Y-116900000D02*
X132200000Y-118000000D01*
X196200000Y-50200000D02*
X197250000Y-51250000D01*
X136000000Y-87025000D02*
X136020000Y-87025000D01*
X151619000Y-116900000D02*
X133300000Y-116900000D01*
X151619000Y-116900000D02*
X153169000Y-118450000D01*
X107650000Y-60150000D02*
X112885718Y-60150000D01*
X127825000Y-77205000D02*
X125120000Y-74500000D01*
X197250000Y-51250000D02*
X197250000Y-52790000D01*
X175400000Y-118300000D02*
X174000000Y-116900000D01*
X135945480Y-62825480D02*
X138120000Y-65000000D01*
X138120000Y-67540000D02*
X136000000Y-69660000D01*
X112885718Y-60150000D02*
X113649520Y-60913803D01*
X115561197Y-62825480D02*
X135945480Y-62825480D01*
X104500000Y-63300000D02*
X107650000Y-60150000D01*
X113649520Y-60913803D02*
X115561197Y-62825480D01*
X107050000Y-50200000D02*
X196200000Y-50200000D01*
X104500000Y-63300000D02*
X104500000Y-91300000D01*
X138120000Y-91665000D02*
X141387600Y-91665000D01*
X141432600Y-67540000D02*
X141472600Y-67500000D01*
X132200000Y-118000000D02*
X132200000Y-122564999D01*
X132200000Y-122564999D02*
X133500001Y-123865000D01*
X185410000Y-118300000D02*
X175400000Y-118300000D01*
X104500000Y-52750000D02*
X107050000Y-50200000D01*
X141387600Y-91665000D02*
X141472600Y-91750000D01*
X138120000Y-65000000D02*
X138120000Y-67540000D01*
X172450000Y-118450000D02*
X174000000Y-116900000D01*
X153169000Y-118450000D02*
X172450000Y-118450000D01*
X104500000Y-63300000D02*
X104500000Y-52750000D01*
%TO.N,Spike*%
X172597000Y-51553000D02*
X184153000Y-51553000D01*
X170325000Y-82150000D02*
X170325000Y-53825000D01*
X171155000Y-82980000D02*
X170325000Y-82150000D01*
X172450000Y-82980000D02*
X171155000Y-82980000D01*
X184153000Y-51553000D02*
X186500000Y-53900000D01*
X186500000Y-53900000D02*
X186500000Y-58000000D01*
X170325000Y-53825000D02*
X172597000Y-51553000D01*
%TO.N,Spike_R*%
X176375000Y-61500000D02*
X177000000Y-61500000D01*
X175074040Y-62800960D02*
X176375000Y-61500000D01*
X172450000Y-75360000D02*
X175074040Y-72735960D01*
X175074040Y-72735960D02*
X175074040Y-62800960D01*
%TO.N,Spike_G*%
X172450000Y-72820000D02*
X174624520Y-70645480D01*
X174624520Y-61024936D02*
X176689456Y-58960000D01*
X176689456Y-58960000D02*
X177000000Y-58960000D01*
X174624520Y-70645480D02*
X174624520Y-61024936D01*
%TO.N,Spike_B*%
X174175000Y-68555000D02*
X174175000Y-60150000D01*
X176635000Y-57690000D02*
X177000000Y-57690000D01*
X172450000Y-70280000D02*
X174175000Y-68555000D01*
X174175000Y-60150000D02*
X176635000Y-57690000D01*
%TO.N,D_Axon*%
X125849000Y-50651000D02*
X123124511Y-53375489D01*
X123597500Y-85677500D02*
X123100000Y-85180000D01*
X125120000Y-87200000D02*
X123597500Y-85677500D01*
X193751000Y-50651000D02*
X125849000Y-50651000D01*
X211500000Y-69000000D02*
X202850000Y-69000000D01*
X195100000Y-52000000D02*
X193751000Y-50651000D01*
X202850000Y-69000000D02*
X195100000Y-61250000D01*
X195100000Y-61250000D02*
X195100000Y-52000000D01*
X123124511Y-53375489D02*
X123124511Y-59325489D01*
X123100000Y-85180000D02*
X123100000Y-69200000D01*
%TO.N,A_Synapse1*%
X115375000Y-63275000D02*
X114412500Y-62312500D01*
X113200000Y-61100000D02*
X114412500Y-62312500D01*
X113197907Y-61100000D02*
X113773954Y-61676047D01*
X134675000Y-65000000D02*
X132950000Y-63275000D01*
X114412500Y-62312500D02*
X114600000Y-62500000D01*
X132950000Y-63275000D02*
X115375000Y-63275000D01*
X108500000Y-61100000D02*
X113197907Y-61100000D01*
X134675000Y-84950000D02*
X130500000Y-89125000D01*
X134675000Y-65600000D02*
X134675000Y-65000000D01*
X134675000Y-65600000D02*
X134675000Y-84950000D01*
%TO.N,D_Synapse1*%
X144225960Y-62375960D02*
X115747395Y-62375960D01*
X112960718Y-59589282D02*
X112960718Y-56550000D01*
X108500000Y-51100000D02*
X112960718Y-55560718D01*
X147050000Y-65200000D02*
X144225960Y-62375960D01*
X112960718Y-55560718D02*
X112960718Y-56550000D01*
X115747395Y-62375960D02*
X112960718Y-59589282D01*
%TO.N,A_Synapse2*%
X112800000Y-75700000D02*
X112800000Y-82950000D01*
X112800000Y-84700000D02*
X112800000Y-82950000D01*
X108500000Y-89000000D02*
X112800000Y-84700000D01*
%TO.N,A_Axon*%
X172450000Y-77900000D02*
X183050000Y-67300000D01*
X183050000Y-67300000D02*
X194720000Y-67300000D01*
%TO.N,Button_Mode*%
X190860000Y-119250000D02*
X190860000Y-118934574D01*
X184425000Y-108100000D02*
X184425000Y-95835000D01*
X122675000Y-107090754D02*
X122675000Y-103975000D01*
X184425000Y-112499574D02*
X184425000Y-112562810D01*
X184425000Y-95835000D02*
X186660000Y-93600000D01*
X190860000Y-119250000D02*
X197360000Y-119250000D01*
X186262713Y-114337287D02*
X188727426Y-116802000D01*
X182859810Y-114128000D02*
X129712246Y-114128000D01*
X184425000Y-112499574D02*
X186262713Y-114337287D01*
X184425000Y-112562810D02*
X182859810Y-114128000D01*
X129712246Y-114128000D02*
X122675000Y-107090754D01*
X190860000Y-118934574D02*
X186262713Y-114337287D01*
X184425000Y-108100000D02*
X184425000Y-112499574D01*
X184425000Y-112025000D02*
X184425000Y-108100000D01*
%TO.N,CharliePlex1*%
X150426000Y-78724000D02*
X152525000Y-76625000D01*
X150426000Y-78999000D02*
X150426000Y-79900000D01*
X150426000Y-79900000D02*
X150426000Y-100674620D01*
X152525000Y-76625000D02*
X151412500Y-77737500D01*
X142875000Y-108225620D02*
X142200620Y-108225620D01*
X142200620Y-108225620D02*
X142200000Y-108225000D01*
X147412810Y-103687810D02*
X142875000Y-108225620D01*
X135000000Y-108225000D02*
X141550000Y-108225000D01*
X150426000Y-79900000D02*
X150426000Y-78724000D01*
X157500000Y-76625000D02*
X152525000Y-76625000D01*
X150426000Y-100674620D02*
X147412810Y-103687810D01*
X151412500Y-77737500D02*
X150424520Y-78725480D01*
X147412810Y-103687810D02*
X146284620Y-104816000D01*
X141550000Y-108225000D02*
X142200000Y-108225000D01*
%TO.N,CharliePlex2*%
X142038430Y-109700000D02*
X135050000Y-109700000D01*
X157500000Y-79175000D02*
X152525000Y-79175000D01*
X152525000Y-79175000D02*
X150877000Y-80823000D01*
X135050000Y-109700000D02*
X135000000Y-109750000D01*
X150877000Y-80823000D02*
X150877000Y-100861430D01*
X150877000Y-100861430D02*
X142038430Y-109700000D01*
%TO.N,CharliePlex3*%
X135000000Y-111225000D02*
X140825000Y-111225000D01*
X151328000Y-101048240D02*
X141151240Y-111225000D01*
X152525000Y-81700000D02*
X151328000Y-82897000D01*
X141151240Y-111225000D02*
X140825000Y-111225000D01*
X157500000Y-81700000D02*
X152525000Y-81700000D01*
X151328000Y-82897000D02*
X151328000Y-101048240D01*
%TO.N,CharliePlex4*%
X151779000Y-84996000D02*
X151779000Y-101235050D01*
X152525000Y-84250000D02*
X151779000Y-84996000D01*
X140514050Y-112500000D02*
X139900000Y-112500000D01*
X157500000Y-84250000D02*
X152525000Y-84250000D01*
X151779000Y-101235050D02*
X140514050Y-112500000D01*
X135000000Y-112500000D02*
X139900000Y-112500000D01*
%TO.N,Button_Buzzer*%
X162575000Y-57400000D02*
X162575000Y-53900000D01*
X169025000Y-51102000D02*
X191062000Y-51102000D01*
X166097500Y-101127500D02*
X165635000Y-100665000D01*
X162575000Y-53900000D02*
X165373000Y-51102000D01*
X162575000Y-97605000D02*
X166097500Y-101127500D01*
X162575000Y-94375000D02*
X162575000Y-57400000D01*
X176570000Y-107100000D02*
X172070000Y-107100000D01*
X165275000Y-100305000D02*
X165635000Y-100665000D01*
X162575000Y-57400000D02*
X162575000Y-56575000D01*
X172070000Y-107100000D02*
X166097500Y-101127500D01*
X191062000Y-51102000D02*
X192750000Y-52790000D01*
X162575000Y-94375000D02*
X162575000Y-97605000D01*
X165373000Y-51102000D02*
X169025000Y-51102000D01*
X168048000Y-51102000D02*
X169025000Y-51102000D01*
%TO.N,A_Syn1*%
X109149520Y-65449520D02*
X107000000Y-63300000D01*
X128409520Y-65449520D02*
X109149520Y-65449520D01*
X130500000Y-67540000D02*
X128409520Y-65449520D01*
%TO.N,A_Syn2*%
X113525000Y-69274040D02*
X113525000Y-72225000D01*
X107000000Y-78750000D02*
X107000000Y-91300000D01*
X113525000Y-72225000D02*
X107000000Y-78750000D01*
X130500000Y-70080000D02*
X126319040Y-65899040D01*
X116900000Y-65899040D02*
X113525000Y-69274040D01*
X126319040Y-65899040D02*
X116900000Y-65899040D01*
%TO.N,A_Vm*%
X130500000Y-65000000D02*
X130100000Y-64600000D01*
X130100000Y-64600000D02*
X113200000Y-64600000D01*
%TO.N,A_PD*%
X152795520Y-115579480D02*
X129252388Y-115579480D01*
X152797000Y-115578000D02*
X152795520Y-115579480D01*
X124228560Y-66348560D02*
X130500000Y-72620000D01*
X129252388Y-115579480D02*
X128987500Y-115314592D01*
X129253000Y-115578000D02*
X113974520Y-100299520D01*
X113974520Y-69460238D02*
X117086198Y-66348560D01*
X113974520Y-100299520D02*
X113974520Y-69460238D01*
X154119000Y-116900000D02*
X152797000Y-115578000D01*
X117086198Y-66348560D02*
X124228560Y-66348560D01*
%TO.N,A_StimFre*%
X128210718Y-113264282D02*
X129625396Y-114678960D01*
X128210718Y-113264282D02*
X128721436Y-113775000D01*
X200123511Y-123299000D02*
X199074510Y-122250000D01*
X114873560Y-99927124D02*
X128210718Y-113264282D01*
X127975480Y-71366916D02*
X123856164Y-67247600D01*
X191025000Y-120875489D02*
X189886207Y-120875489D01*
X130500000Y-77700000D02*
X127975480Y-75175480D01*
X123856164Y-67247600D02*
X117458594Y-67247600D01*
X127975480Y-75175480D02*
X127975480Y-71366916D01*
X117458594Y-67247600D02*
X114873560Y-69832634D01*
X114873560Y-69832634D02*
X114873560Y-99927124D01*
X194187810Y-122250000D02*
X192813299Y-120875489D01*
X199074510Y-122250000D02*
X194187810Y-122250000D01*
%TO.N,D_Synapse2*%
X145365000Y-60975000D02*
X116400000Y-60975000D01*
X147050000Y-62660000D02*
X145365000Y-60975000D01*
%TO.N,MOSI*%
X116100000Y-82200000D02*
X116100000Y-82600000D01*
X116675000Y-83400000D02*
X116100000Y-82825000D01*
X145300000Y-84880000D02*
X145300000Y-94100000D01*
X145300000Y-94645000D02*
X145300000Y-94100000D01*
X145300000Y-96470000D02*
X147050000Y-98220000D01*
X116100000Y-78440000D02*
X116100000Y-82200000D01*
X145300000Y-94100000D02*
X145300000Y-96470000D01*
X116100000Y-82825000D02*
X116100000Y-82200000D01*
X138120000Y-101825000D02*
X145300000Y-94645000D01*
X117500000Y-77040000D02*
X116100000Y-78440000D01*
X120599031Y-85199031D02*
X120162500Y-84762500D01*
X118800000Y-83400000D02*
X116675000Y-83400000D01*
X138120000Y-77700000D02*
X145300000Y-84880000D01*
%TO.N,MISO*%
X134305000Y-103100000D02*
X125507154Y-103100000D01*
X145940000Y-82980000D02*
X147050000Y-82980000D01*
X138120000Y-99285000D02*
X134305000Y-103100000D01*
X121048551Y-83128551D02*
X120472500Y-82552500D01*
X138120000Y-75160000D02*
X145940000Y-82980000D01*
%TO.N,CLK*%
X138120000Y-72620000D02*
X145940000Y-80440000D01*
X145940000Y-80440000D02*
X147050000Y-80440000D01*
%TO.N,CS_D1*%
X149525480Y-80375480D02*
X147050000Y-77900000D01*
%TO.N,CS_ADC2*%
X147050000Y-70280000D02*
X149975000Y-73205000D01*
X149975000Y-83775000D02*
X149975000Y-84750000D01*
X149975000Y-100487810D02*
X149975000Y-83775000D01*
X143725000Y-104365000D02*
X146097810Y-104365000D01*
X138120000Y-104365000D02*
X143725000Y-104365000D01*
X146097810Y-104365000D02*
X149106405Y-101356405D01*
X149106405Y-101356405D02*
X149975000Y-100487810D01*
X149975000Y-73205000D02*
X149975000Y-83775000D01*
%TO.N,CS_ADC1*%
X137000000Y-71375000D02*
X136449520Y-71925480D01*
X147050000Y-67740000D02*
X143415000Y-71375000D01*
X136449520Y-71925480D02*
X136449520Y-78569520D01*
X136449520Y-78569520D02*
X138120000Y-80240000D01*
X143415000Y-71375000D02*
X137000000Y-71375000D01*
%TO.N,A_PhotoDiode*%
X134440000Y-125100000D02*
X134475000Y-125135000D01*
X135265000Y-125135000D02*
X134475000Y-125135000D01*
X134475000Y-125135000D02*
X132885000Y-125135000D01*
X132850000Y-125100000D02*
X132500000Y-124750000D01*
X132885000Y-125135000D02*
X132850000Y-125100000D01*
%TO.N,VCC*%
X211274520Y-122225480D02*
X211274520Y-105075480D01*
X210500000Y-104300960D02*
X210500000Y-101500000D01*
%TO.N,A_StimFre*%
X209000000Y-123299000D02*
X200123511Y-123299000D01*
%TD*%
M02*
