%TF.GenerationSoftware,KiCad,Pcbnew,9.0.3*%
%TF.CreationDate,2025-07-22T15:18:12+02:00*%
%TF.ProjectId,Spikeling_v2.4,5370696b-656c-4696-9e67-5f76322e342e,rev?*%
%TF.SameCoordinates,Original*%
%TF.FileFunction,Other,User*%
%FSLAX46Y46*%
G04 Gerber Fmt 4.6, Leading zero omitted, Abs format (unit mm)*
G04 Created by KiCad (PCBNEW 9.0.3) date 2025-07-22 15:18:12*
%MOMM*%
%LPD*%
G01*
G04 APERTURE LIST*
%ADD10C,0.050000*%
%ADD11C,0.120000*%
G04 APERTURE END LIST*
D10*
%TO.C,SW2*%
X190250000Y-49990000D02*
X199800000Y-49990000D01*
X190250000Y-57240000D02*
X190250000Y-49990000D01*
X199800000Y-49990000D02*
X199800000Y-57240000D01*
X199800000Y-57240000D02*
X190250000Y-57240000D01*
%TO.C, *%
X123050000Y-55000000D02*
G75*
G02*
X116950000Y-55000000I-3050000J0D01*
G01*
X116950000Y-55000000D02*
G75*
G02*
X123050000Y-55000000I3050000J0D01*
G01*
%TO.C,D7*%
X188850000Y-74529000D02*
X188850000Y-79029000D01*
X188850000Y-79029000D02*
X193700000Y-79029000D01*
X193700000Y-74529000D02*
X188850000Y-74529000D01*
X193700000Y-79029000D02*
X193700000Y-74529000D01*
%TO.C,D2*%
X188850000Y-112254000D02*
X188850000Y-116754000D01*
X188850000Y-116754000D02*
X193700000Y-116754000D01*
X193700000Y-112254000D02*
X188850000Y-112254000D01*
X193700000Y-116754000D02*
X193700000Y-112254000D01*
%TO.C,D0*%
X136775000Y-121100000D02*
X136775000Y-127600000D01*
X136775000Y-127600000D02*
X143225000Y-127600000D01*
X143225000Y-121100000D02*
X136775000Y-121100000D01*
X143225000Y-127600000D02*
X143225000Y-121100000D01*
%TO.C,U3*%
X129400000Y-87575000D02*
X129400000Y-108425000D01*
X129400000Y-108425000D02*
X139200000Y-108425000D01*
X139200000Y-87575000D02*
X129400000Y-87575000D01*
X139200000Y-108425000D02*
X139200000Y-87575000D01*
%TO.C,RV6*%
X206350000Y-100350000D02*
X206350000Y-114750000D01*
X206350000Y-114750000D02*
X219650000Y-114750000D01*
X219650000Y-100350000D02*
X206350000Y-100350000D01*
X219650000Y-114750000D02*
X219650000Y-100350000D01*
%TO.C,RV4*%
X169850000Y-115750000D02*
X169850000Y-130150000D01*
X169850000Y-130150000D02*
X183150000Y-130150000D01*
X183150000Y-115750000D02*
X169850000Y-115750000D01*
X183150000Y-130150000D02*
X183150000Y-115750000D01*
%TO.C,D1*%
X173750000Y-56350000D02*
X173750000Y-62850000D01*
X173750000Y-62850000D02*
X180250000Y-62850000D01*
X180250000Y-56350000D02*
X173750000Y-56350000D01*
X180250000Y-62850000D02*
X180250000Y-56350000D01*
%TO.C,J2*%
X96000000Y-57900000D02*
X99000000Y-57900000D01*
X99000000Y-54300000D01*
X96000000Y-54300000D01*
X96000000Y-57900000D01*
D11*
X99000000Y-62100000D02*
X111200000Y-62100000D01*
X111200000Y-50100000D01*
X99000000Y-50100000D01*
X99000000Y-62100000D01*
%TO.C,J1*%
X221000000Y-58000000D02*
X208800000Y-58000000D01*
X208800000Y-70000000D01*
X221000000Y-70000000D01*
X221000000Y-58000000D01*
D10*
X224000000Y-62200000D02*
X221000000Y-62200000D01*
X221000000Y-65800000D01*
X224000000Y-65800000D01*
X224000000Y-62200000D01*
%TO.C,U4*%
X116400000Y-72950000D02*
X116400000Y-98900000D01*
X116400000Y-98900000D02*
X126200000Y-98900000D01*
X126200000Y-72950000D02*
X116400000Y-72950000D01*
X126200000Y-98900000D02*
X126200000Y-72950000D01*
%TO.C,RV1*%
X100350000Y-62150000D02*
X100350000Y-76550000D01*
X100350000Y-76550000D02*
X113650000Y-76550000D01*
X113650000Y-62150000D02*
X100350000Y-62150000D01*
X113650000Y-76550000D02*
X113650000Y-62150000D01*
%TO.C,D4*%
X188850000Y-97164000D02*
X188850000Y-101664000D01*
X188850000Y-101664000D02*
X193700000Y-101664000D01*
X193700000Y-97164000D02*
X188850000Y-97164000D01*
X193700000Y-101664000D02*
X193700000Y-97164000D01*
%TO.C,RV3*%
X111950000Y-115750000D02*
X111950000Y-130150000D01*
X111950000Y-130150000D02*
X125250000Y-130150000D01*
X125250000Y-115750000D02*
X111950000Y-115750000D01*
X125250000Y-130150000D02*
X125250000Y-115750000D01*
%TO.C,R3*%
X175550000Y-96600000D02*
X175550000Y-99600000D01*
X175550000Y-99600000D02*
X187810000Y-99600000D01*
X187810000Y-96600000D02*
X175550000Y-96600000D01*
X187810000Y-99600000D02*
X187810000Y-96600000D01*
%TO.C, *%
X207050000Y-55000000D02*
G75*
G02*
X200950000Y-55000000I-3050000J0D01*
G01*
X200950000Y-55000000D02*
G75*
G02*
X207050000Y-55000000I3050000J0D01*
G01*
%TO.C,U2*%
X129400000Y-63450000D02*
X129400000Y-84300000D01*
X129400000Y-84300000D02*
X139200000Y-84300000D01*
X139200000Y-63450000D02*
X129400000Y-63450000D01*
X139200000Y-84300000D02*
X139200000Y-63450000D01*
%TO.C,C2*%
X144722600Y-91750000D02*
G75*
G02*
X140222600Y-91750000I-2250000J0D01*
G01*
X140222600Y-91750000D02*
G75*
G02*
X144722600Y-91750000I2250000J0D01*
G01*
%TO.C,SW3*%
X125250000Y-49990000D02*
X134800000Y-49990000D01*
X125250000Y-57240000D02*
X125250000Y-49990000D01*
X134800000Y-49990000D02*
X134800000Y-57240000D01*
X134800000Y-57240000D02*
X125250000Y-57240000D01*
%TO.C,D11*%
X194850000Y-89619000D02*
X194850000Y-94119000D01*
X194850000Y-94119000D02*
X199700000Y-94119000D01*
X199700000Y-89619000D02*
X194850000Y-89619000D01*
X199700000Y-94119000D02*
X199700000Y-89619000D01*
%TO.C,D9*%
X194850000Y-104709000D02*
X194850000Y-109209000D01*
X194850000Y-109209000D02*
X199700000Y-109209000D01*
X199700000Y-104709000D02*
X194850000Y-104709000D01*
X199700000Y-109209000D02*
X199700000Y-104709000D01*
%TO.C,C1*%
X144722600Y-67500000D02*
G75*
G02*
X140222600Y-67500000I-2250000J0D01*
G01*
X140222600Y-67500000D02*
G75*
G02*
X144722600Y-67500000I2250000J0D01*
G01*
%TO.C,U5*%
X128300000Y-122040000D02*
X129800000Y-122040000D01*
X128300000Y-126960000D02*
X128300000Y-122040000D01*
X129800000Y-121800000D02*
X134200000Y-121800000D01*
X129800000Y-122040000D02*
X129800000Y-121800000D01*
X129800000Y-126960000D02*
X128300000Y-126960000D01*
X129800000Y-127200000D02*
X129800000Y-126960000D01*
X134200000Y-121800000D02*
X134200000Y-122040000D01*
X134200000Y-122040000D02*
X135700000Y-122040000D01*
X134200000Y-126960000D02*
X134200000Y-127200000D01*
X134200000Y-127200000D02*
X129800000Y-127200000D01*
X135700000Y-122040000D02*
X135700000Y-126960000D01*
X135700000Y-126960000D02*
X134200000Y-126960000D01*
%TO.C,R9*%
X175450000Y-87600000D02*
X175450000Y-90600000D01*
X175450000Y-90600000D02*
X187710000Y-90600000D01*
X187710000Y-87600000D02*
X175450000Y-87600000D01*
X187710000Y-90600000D02*
X187710000Y-87600000D01*
%TO.C,D13*%
X194850000Y-74529000D02*
X194850000Y-79029000D01*
X194850000Y-79029000D02*
X199700000Y-79029000D01*
X199700000Y-74529000D02*
X194850000Y-74529000D01*
X199700000Y-79029000D02*
X199700000Y-74529000D01*
%TO.C,R12*%
X175521000Y-110100000D02*
X175521000Y-113100000D01*
X175521000Y-113100000D02*
X187781000Y-113100000D01*
X187781000Y-110100000D02*
X175521000Y-110100000D01*
X187781000Y-113100000D02*
X187781000Y-110100000D01*
%TO.C,D12*%
X194850000Y-82074000D02*
X194850000Y-86574000D01*
X194850000Y-86574000D02*
X199700000Y-86574000D01*
X199700000Y-82074000D02*
X194850000Y-82074000D01*
X199700000Y-86574000D02*
X199700000Y-82074000D01*
%TO.C,C5*%
X135450000Y-118000000D02*
G75*
G02*
X130950000Y-118000000I-2250000J0D01*
G01*
X130950000Y-118000000D02*
G75*
G02*
X135450000Y-118000000I2250000J0D01*
G01*
%TO.C,D10*%
X194850000Y-97164000D02*
X194850000Y-101664000D01*
X194850000Y-101664000D02*
X199700000Y-101664000D01*
X199700000Y-97164000D02*
X194850000Y-97164000D01*
X199700000Y-101664000D02*
X199700000Y-97164000D01*
%TO.C,R1*%
X193670000Y-65800000D02*
X193670000Y-68800000D01*
X193670000Y-68800000D02*
X205930000Y-68800000D01*
X205930000Y-65800000D02*
X193670000Y-65800000D01*
X205930000Y-68800000D02*
X205930000Y-65800000D01*
%TO.C,RV7*%
X206350000Y-74722000D02*
X206350000Y-89122000D01*
X206350000Y-89122000D02*
X219650000Y-89122000D01*
X219650000Y-74722000D02*
X206350000Y-74722000D01*
X219650000Y-89122000D02*
X219650000Y-74722000D01*
%TO.C,RV2*%
X100350000Y-90150000D02*
X100350000Y-104550000D01*
X100350000Y-104550000D02*
X113650000Y-104550000D01*
X113650000Y-90150000D02*
X100350000Y-90150000D01*
X113650000Y-104550000D02*
X113650000Y-90150000D01*
%TO.C,J3*%
X96000000Y-85800000D02*
X99000000Y-85800000D01*
X99000000Y-82200000D01*
X96000000Y-82200000D01*
X96000000Y-85800000D01*
D11*
X99000000Y-90000000D02*
X111200000Y-90000000D01*
X111200000Y-78000000D01*
X99000000Y-78000000D01*
X99000000Y-90000000D01*
D10*
%TO.C,D3*%
X188850000Y-104709000D02*
X188850000Y-109209000D01*
X188850000Y-109209000D02*
X193700000Y-109209000D01*
X193700000Y-104709000D02*
X188850000Y-104709000D01*
X193700000Y-109209000D02*
X193700000Y-104709000D01*
%TO.C, *%
X207050000Y-112000000D02*
G75*
G02*
X200950000Y-112000000I-3050000J0D01*
G01*
X200950000Y-112000000D02*
G75*
G02*
X207050000Y-112000000I3050000J0D01*
G01*
%TO.C,C4*%
X141977401Y-118000000D02*
G75*
G02*
X137477401Y-118000000I-2250000J0D01*
G01*
X137477401Y-118000000D02*
G75*
G02*
X141977401Y-118000000I2250000J0D01*
G01*
%TO.C,D5*%
X188850000Y-89619000D02*
X188850000Y-94119000D01*
X188850000Y-94119000D02*
X193700000Y-94119000D01*
X193700000Y-89619000D02*
X188850000Y-89619000D01*
X193700000Y-94119000D02*
X193700000Y-89619000D01*
%TO.C,R8*%
X175450000Y-83100000D02*
X175450000Y-86100000D01*
X175450000Y-86100000D02*
X187710000Y-86100000D01*
X187710000Y-83100000D02*
X175450000Y-83100000D01*
X187710000Y-86100000D02*
X187710000Y-83100000D01*
%TO.C,R2*%
X175550000Y-101100000D02*
X175550000Y-104100000D01*
X175550000Y-104100000D02*
X187810000Y-104100000D01*
X187810000Y-101100000D02*
X175550000Y-101100000D01*
X187810000Y-104100000D02*
X187810000Y-101100000D01*
%TO.C,RV5*%
X147469000Y-115750000D02*
X147469000Y-130150000D01*
X147469000Y-130150000D02*
X160769000Y-130150000D01*
X160769000Y-115750000D02*
X147469000Y-115750000D01*
X160769000Y-130150000D02*
X160769000Y-115750000D01*
%TO.C,C3*%
X203600000Y-61350000D02*
G75*
G02*
X199100000Y-61350000I-2250000J0D01*
G01*
X199100000Y-61350000D02*
G75*
G02*
X203600000Y-61350000I2250000J0D01*
G01*
%TO.C,R7*%
X175450000Y-78600000D02*
X175450000Y-81600000D01*
X175450000Y-81600000D02*
X187710000Y-81600000D01*
X187710000Y-78600000D02*
X175450000Y-78600000D01*
X187710000Y-81600000D02*
X187710000Y-78600000D01*
%TO.C,R4*%
X175470000Y-69600000D02*
X175470000Y-72600000D01*
X175470000Y-72600000D02*
X187730000Y-72600000D01*
X187730000Y-69600000D02*
X175470000Y-69600000D01*
X187730000Y-72600000D02*
X187730000Y-69600000D01*
%TO.C,BZ1*%
X192350000Y-61500000D02*
G75*
G02*
X180650000Y-61500000I-5850000J0D01*
G01*
X180650000Y-61500000D02*
G75*
G02*
X192350000Y-61500000I5850000J0D01*
G01*
%TO.C, *%
X123050000Y-112000000D02*
G75*
G02*
X116950000Y-112000000I-3050000J0D01*
G01*
X116950000Y-112000000D02*
G75*
G02*
X123050000Y-112000000I3050000J0D01*
G01*
%TO.C,R11*%
X175520000Y-105600000D02*
X175520000Y-108600000D01*
X175520000Y-108600000D02*
X187780000Y-108600000D01*
X187780000Y-105600000D02*
X175520000Y-105600000D01*
X187780000Y-108600000D02*
X187780000Y-105600000D01*
%TO.C,R6*%
X175450000Y-74100000D02*
X175450000Y-77100000D01*
X175450000Y-77100000D02*
X187710000Y-77100000D01*
X187710000Y-74100000D02*
X175450000Y-74100000D01*
X187710000Y-77100000D02*
X187710000Y-74100000D01*
%TO.C,SW1*%
X189360000Y-117750000D02*
X189610000Y-117750000D01*
X189360000Y-118000000D02*
X189360000Y-117750000D01*
X189360000Y-125000000D02*
X189360000Y-118000000D01*
X189360000Y-125000000D02*
X189360000Y-125250000D01*
X189360000Y-125250000D02*
X189610000Y-125250000D01*
X189610000Y-117750000D02*
X198610000Y-117750000D01*
X198610000Y-117750000D02*
X198860000Y-117750000D01*
X198610000Y-125250000D02*
X189610000Y-125250000D01*
X198610000Y-125250000D02*
X198860000Y-125250000D01*
X198860000Y-117750000D02*
X198860000Y-118000000D01*
X198860000Y-118000000D02*
X198860000Y-125000000D01*
X198860000Y-125250000D02*
X198860000Y-125000000D01*
%TO.C,D8*%
X194850000Y-112254000D02*
X194850000Y-116754000D01*
X194850000Y-116754000D02*
X199700000Y-116754000D01*
X199700000Y-112254000D02*
X194850000Y-112254000D01*
X199700000Y-116754000D02*
X199700000Y-112254000D01*
%TO.C,D6*%
X188850000Y-82074000D02*
X188850000Y-86574000D01*
X188850000Y-86574000D02*
X193700000Y-86574000D01*
X193700000Y-82074000D02*
X188850000Y-82074000D01*
X193700000Y-86574000D02*
X193700000Y-82074000D01*
%TO.C,J5*%
X215800000Y-134000000D02*
X212200000Y-134000000D01*
X212200000Y-131000000D01*
X215800000Y-131000000D01*
X215800000Y-134000000D01*
D11*
X220000000Y-131000000D02*
X208000000Y-131000000D01*
X208000000Y-118800000D01*
X220000000Y-118800000D01*
X220000000Y-131000000D01*
D10*
%TO.C,U1*%
X145550000Y-53500000D02*
X173950000Y-53500000D01*
X145550000Y-108400000D02*
X145550000Y-53500000D01*
X173950000Y-53500000D02*
X173950000Y-108400000D01*
X173950000Y-108400000D02*
X145550000Y-108400000D01*
%TO.C,R5*%
X175450000Y-92100000D02*
X175450000Y-95100000D01*
X175450000Y-95100000D02*
X187710000Y-95100000D01*
X187710000Y-92100000D02*
X175450000Y-92100000D01*
X187710000Y-95100000D02*
X187710000Y-92100000D01*
%TO.C,D14*%
X210750000Y-121215000D02*
X210750000Y-127635000D01*
X210750000Y-127635000D02*
X217180000Y-127635000D01*
X217180000Y-121215000D02*
X210750000Y-121215000D01*
X217180000Y-127635000D02*
X217180000Y-121215000D01*
%TO.C,J4*%
X107800000Y-134000000D02*
X104200000Y-134000000D01*
X104200000Y-131000000D01*
X107800000Y-131000000D01*
X107800000Y-134000000D01*
D11*
X112000000Y-131000000D02*
X100000000Y-131000000D01*
X100000000Y-118800000D01*
X112000000Y-118800000D01*
X112000000Y-131000000D01*
%TD*%
M02*
