M48
; DRILL file {KiCad (6.0.4)} date Fri Oct 21 11:56:46 2022
; FORMAT={-:-/ absolute / inch / decimal}
; #@! TF.CreationDate,2022-10-21T11:56:46+02:00
; #@! TF.GenerationSoftware,Kicad,Pcbnew,(6.0.4)
; #@! TF.FileFunction,Plated,1,2,PTH
FMAT,2
INCH
; #@! TA.AperFunction,Plated,PTH,ViaDrill
T1C0.0157
; #@! TA.AperFunction,Plated,PTH,ComponentDrill
T2C0.0197
; #@! TA.AperFunction,Plated,PTH,ComponentDrill
T3C0.0236
; #@! TA.AperFunction,Plated,PTH,ComponentDrill
T4C0.0315
; #@! TA.AperFunction,Plated,PTH,ComponentDrill
T5C0.0354
; #@! TA.AperFunction,Plated,PTH,ComponentDrill
T6C0.0390
; #@! TA.AperFunction,Plated,PTH,ComponentDrill
T7C0.0394
; #@! TA.AperFunction,Plated,PTH,ComponentDrill
T8C0.0409
; #@! TA.AperFunction,Plated,PTH,ComponentDrill
T9C0.0433
; #@! TA.AperFunction,Plated,PTH,ComponentDrill
T10C0.0492
; #@! TA.AperFunction,Plated,PTH,ComponentDrill
T11C0.0512
; #@! TA.AperFunction,Plated,PTH,ComponentDrill
T12C0.0709
; #@! TA.AperFunction,Plated,PTH,ComponentDrill
T13C0.1260
%
G90
G05
T1
X4.5236Y-4.3661
X4.5262Y-3.6089
X4.561Y-2.8406
X5.2047Y-4.5433
X5.2047Y-4.748
X5.2343Y-3.1555
X5.2343Y-4.6063
X5.2343Y-4.8248
X5.2638Y-3.0846
X5.2638Y-4.6594
X5.2638Y-4.748
X5.2945Y-3.0157
X5.376Y-4.3287
X5.376Y-4.3681
X5.5195Y-2.8033
X5.622Y-2.8602
X5.7087Y-3.0217
X6.3179Y-2.0581
X6.6065Y-3.6104
X6.6102Y-2.0866
X6.624Y-4.0394
X6.6752Y-4.7854
X6.6829Y-2.9234
X6.9055Y-2.8583
T3
X5.5698Y-2.6575
X5.5698Y-3.6122
X5.6485Y-2.6575
X5.6485Y-3.6122
T4
X5.1378Y-2.5591
X5.1378Y-2.6591
X5.1378Y-2.7591
X5.1378Y-2.8591
X5.1378Y-2.9591
X5.1378Y-3.0591
X5.1378Y-3.1591
X5.1378Y-3.2591
X5.1378Y-3.5089
X5.1378Y-3.6089
X5.1378Y-3.7089
X5.1378Y-3.8089
X5.1378Y-3.9089
X5.1378Y-4.0089
X5.1378Y-4.1089
X5.1378Y-4.2089
X5.4378Y-2.5591
X5.4378Y-2.6591
X5.4378Y-2.7591
X5.4378Y-2.8591
X5.4378Y-2.9591
X5.4378Y-3.0591
X5.4378Y-3.1591
X5.4378Y-3.2591
X5.4378Y-3.5089
X5.4378Y-3.6089
X5.4378Y-3.7089
X5.4378Y-3.8089
X5.4378Y-3.9089
X5.4378Y-4.0089
X5.4378Y-4.1089
X5.4378Y-4.2089
X6.9488Y-3.1535
X6.9488Y-3.3307
X6.9488Y-3.5079
X6.9488Y-3.685
X6.9488Y-3.8622
X6.9496Y-2.9764
X6.9528Y-4.0394
X6.9528Y-4.2165
X7.3488Y-3.1535
X7.3488Y-3.3307
X7.3488Y-3.5079
X7.3488Y-3.685
X7.3488Y-3.8622
X7.3496Y-2.9764
X7.3528Y-4.0394
X7.3528Y-4.2165
X7.6661Y-2.6496
X7.6705Y-2.4154
X8.0654Y-2.4154
X8.0661Y-2.6496
T5
X5.4602Y-4.8976
X5.5602Y-4.8976
X6.9685Y-2.35
X6.9685Y-2.4
X6.9685Y-2.45
X6.9685Y-2.5
X7.4803Y-3.0228
X7.4803Y-3.3198
X7.4803Y-3.6169
X7.4803Y-3.9139
X7.4803Y-4.211
X7.4803Y-4.508
X7.5803Y-3.0228
X7.5803Y-3.3198
X7.5803Y-3.6169
X7.5803Y-3.9139
X7.5803Y-4.211
X7.5803Y-4.508
X7.7165Y-3.0228
X7.7165Y-3.3198
X7.7165Y-3.6169
X7.7165Y-3.9139
X7.7165Y-4.211
X7.7165Y-4.508
X7.8165Y-3.0228
X7.8165Y-3.3198
X7.8165Y-3.6169
X7.8165Y-3.9139
X7.8165Y-4.211
X7.8165Y-4.508
T6
X5.1969Y-2.1433
X5.374Y-2.1433
T7
X4.1142Y-2.4921
X4.1142Y-3.5945
X4.2126Y-2.4921
X4.2126Y-3.5945
X4.311Y-2.4921
X4.311Y-3.5945
X4.5709Y-4.6024
X4.6693Y-4.6024
X4.7677Y-4.6024
X5.9693Y-4.6024
X6.0677Y-4.6024
X6.1661Y-4.6024
X6.8504Y-4.6024
X6.9488Y-4.6024
X7.0472Y-4.6024
X7.3425Y-2.2835
X7.3425Y-2.5591
X8.2874Y-2.9871
X8.2874Y-3.9961
X8.3858Y-2.9871
X8.3858Y-3.9961
X8.4843Y-2.9871
X8.4843Y-3.9961
T8
X5.7894Y-2.1669
X5.7894Y-2.2669
X5.7894Y-2.3669
X5.7894Y-2.4669
X5.7894Y-2.5669
X5.7894Y-2.6669
X5.7894Y-2.7669
X5.7894Y-2.8669
X5.7894Y-2.9669
X5.7894Y-3.0669
X5.7894Y-3.1669
X5.7894Y-3.2669
X5.7894Y-3.3669
X5.7894Y-3.4669
X5.7894Y-3.5669
X5.7894Y-3.6669
X5.7894Y-3.7669
X5.7894Y-3.8669
X5.7894Y-3.9669
X6.7894Y-2.1669
X6.7894Y-2.2669
X6.7894Y-2.3669
X6.7894Y-2.4669
X6.7894Y-2.5669
X6.7894Y-2.6669
X6.7894Y-2.7669
X6.7894Y-2.8669
X6.7894Y-2.9669
X6.7894Y-3.0669
X6.7894Y-3.1669
X6.7894Y-3.2669
X6.7894Y-3.3669
X6.7894Y-3.4669
X6.7894Y-3.5669
X6.7894Y-3.6669
X6.7894Y-3.7669
X6.7894Y-3.8669
X6.7894Y-3.9669
T9
X7.5142Y-4.6949
X7.5142Y-4.872
X7.7701Y-4.6949
X7.7701Y-4.872
T10
X3.9764Y-4.9456
X3.9764Y-5.044
X4.0111Y-2.0118
X4.0111Y-2.4055
X4.0111Y-3.1102
X4.0111Y-3.5039
X4.1095Y-2.0118
X4.1095Y-2.4055
X4.1095Y-3.1102
X4.1095Y-3.5039
X4.1732Y-4.7487
X4.3064Y-2.2087
X4.3064Y-3.3071
X4.3701Y-4.9456
X4.3701Y-5.044
X8.2283Y-4.9456
X8.2283Y-5.044
X8.2913Y-2.5197
X8.4252Y-4.7487
X8.4882Y-2.3228
X8.4882Y-2.7165
X8.5866Y-2.3228
X8.5866Y-2.7165
X8.622Y-4.9456
X8.622Y-5.044
T11
X5.1476Y-2.2413
X5.4236Y-2.2413
T13
X4.7244Y-2.1654
X4.7244Y-4.4094
X8.0315Y-2.1654
X8.0315Y-4.4094
T2
G00X3.9764Y-4.7349
M15
G01X3.9764Y-4.7625
M16
G05
G00X4.1095Y-2.1949
M15
G01X4.1095Y-2.2224
M16
G05
G00X4.1095Y-3.2933
M15
G01X4.1095Y-3.3209
M16
G05
G00X4.1594Y-4.9456
M15
G01X4.187Y-4.9456
M16
G05
G00X4.3202Y-2.0118
M15
G01X4.2926Y-2.0118
M16
G05
G00X4.3202Y-2.4055
M15
G01X4.2926Y-2.4055
M16
G05
G00X4.3202Y-3.1102
M15
G01X4.2926Y-3.1102
M16
G05
G00X4.3202Y-3.5039
M15
G01X4.2926Y-3.5039
M16
G05
G00X4.3701Y-4.7349
M15
G01X4.3701Y-4.7625
M16
G05
G00X8.2283Y-4.7349
M15
G01X8.2283Y-4.7625
M16
G05
G00X8.2776Y-2.3228
M15
G01X8.3051Y-2.3228
M16
G05
G00X8.2776Y-2.7165
M15
G01X8.3051Y-2.7165
M16
G05
G00X8.4114Y-4.9456
M15
G01X8.439Y-4.9456
M16
G05
G00X8.4882Y-2.5335
M15
G01X8.4882Y-2.5059
M16
G05
G00X8.622Y-4.7349
M15
G01X8.622Y-4.7625
M16
G05
T12
G00X4.0394Y-2.7618
M15
G01X4.0394Y-2.7736
M16
G05
G00X4.0394Y-3.8642
M15
G01X4.0394Y-3.876
M16
G05
G00X4.3858Y-2.7618
M15
G01X4.3858Y-2.7736
M16
G05
G00X4.3858Y-3.8642
M15
G01X4.3858Y-3.876
M16
G05
G00X4.4961Y-4.872
M15
G01X4.4961Y-4.8839
M16
G05
G00X4.8425Y-4.872
M15
G01X4.8425Y-4.8839
M16
G05
G00X5.8944Y-4.872
M15
G01X5.8944Y-4.8839
M16
G05
G00X6.2409Y-4.872
M15
G01X6.2409Y-4.8839
M16
G05
G00X6.7756Y-4.872
M15
G01X6.7756Y-4.8839
M16
G05
G00X7.122Y-4.872
M15
G01X7.122Y-4.8839
M16
G05
G00X8.2126Y-3.2568
M15
G01X8.2126Y-3.2686
M16
G05
G00X8.2126Y-4.2657
M15
G01X8.2126Y-4.2776
M16
G05
G00X8.5591Y-3.2568
M15
G01X8.5591Y-3.2686
M16
G05
G00X8.5591Y-4.2657
M15
G01X8.5591Y-4.2776
M16
G05
T0
M30
