%TF.GenerationSoftware,KiCad,Pcbnew,(6.0.4)*%
%TF.CreationDate,2022-10-21T11:56:49+02:00*%
%TF.ProjectId,Spikeling_V2.2c,5370696b-656c-4696-9e67-5f56322e3263,rev?*%
%TF.SameCoordinates,Original*%
%TF.FileFunction,Legend,Bot*%
%TF.FilePolarity,Positive*%
%FSLAX46Y46*%
G04 Gerber Fmt 4.6, Leading zero omitted, Abs format (unit mm)*
G04 Created by KiCad (PCBNEW (6.0.4)) date 2022-10-21 11:56:49*
%MOMM*%
%LPD*%
G01*
G04 APERTURE LIST*
%ADD10C,0.300000*%
%ADD11C,0.200000*%
%ADD12C,0.150000*%
G04 APERTURE END LIST*
D10*
X170133333Y-66109523D02*
X169847619Y-66204761D01*
X169371428Y-66204761D01*
X169180952Y-66109523D01*
X169085714Y-66014285D01*
X168990476Y-65823809D01*
X168990476Y-65633333D01*
X169085714Y-65442857D01*
X169180952Y-65347619D01*
X169371428Y-65252380D01*
X169752380Y-65157142D01*
X169942857Y-65061904D01*
X170038095Y-64966666D01*
X170133333Y-64776190D01*
X170133333Y-64585714D01*
X170038095Y-64395238D01*
X169942857Y-64300000D01*
X169752380Y-64204761D01*
X169276190Y-64204761D01*
X168990476Y-64300000D01*
X168133333Y-64871428D02*
X168133333Y-66871428D01*
X168133333Y-64966666D02*
X167942857Y-64871428D01*
X167561904Y-64871428D01*
X167371428Y-64966666D01*
X167276190Y-65061904D01*
X167180952Y-65252380D01*
X167180952Y-65823809D01*
X167276190Y-66014285D01*
X167371428Y-66109523D01*
X167561904Y-66204761D01*
X167942857Y-66204761D01*
X168133333Y-66109523D01*
X166323809Y-66204761D02*
X166323809Y-64871428D01*
X166323809Y-64204761D02*
X166419047Y-64300000D01*
X166323809Y-64395238D01*
X166228571Y-64300000D01*
X166323809Y-64204761D01*
X166323809Y-64395238D01*
X165371428Y-66204761D02*
X165371428Y-64204761D01*
X165180952Y-65442857D02*
X164609523Y-66204761D01*
X164609523Y-64871428D02*
X165371428Y-65633333D01*
X162990476Y-66109523D02*
X163180952Y-66204761D01*
X163561904Y-66204761D01*
X163752380Y-66109523D01*
X163847619Y-65919047D01*
X163847619Y-65157142D01*
X163752380Y-64966666D01*
X163561904Y-64871428D01*
X163180952Y-64871428D01*
X162990476Y-64966666D01*
X162895238Y-65157142D01*
X162895238Y-65347619D01*
X163847619Y-65538095D01*
X161752380Y-66204761D02*
X161942857Y-66109523D01*
X162038095Y-65919047D01*
X162038095Y-64204761D01*
X160990476Y-66204761D02*
X160990476Y-64871428D01*
X160990476Y-64204761D02*
X161085714Y-64300000D01*
X160990476Y-64395238D01*
X160895238Y-64300000D01*
X160990476Y-64204761D01*
X160990476Y-64395238D01*
X160038095Y-64871428D02*
X160038095Y-66204761D01*
X160038095Y-65061904D02*
X159942857Y-64966666D01*
X159752380Y-64871428D01*
X159466666Y-64871428D01*
X159276190Y-64966666D01*
X159180952Y-65157142D01*
X159180952Y-66204761D01*
X157371428Y-64871428D02*
X157371428Y-66490476D01*
X157466666Y-66680952D01*
X157561904Y-66776190D01*
X157752380Y-66871428D01*
X158038095Y-66871428D01*
X158228571Y-66776190D01*
X157371428Y-66109523D02*
X157561904Y-66204761D01*
X157942857Y-66204761D01*
X158133333Y-66109523D01*
X158228571Y-66014285D01*
X158323809Y-65823809D01*
X158323809Y-65252380D01*
X158228571Y-65061904D01*
X158133333Y-64966666D01*
X157942857Y-64871428D01*
X157561904Y-64871428D01*
X157371428Y-64966666D01*
X155085714Y-64871428D02*
X154609523Y-66204761D01*
X154133333Y-64871428D01*
X153466666Y-64395238D02*
X153371428Y-64300000D01*
X153180952Y-64204761D01*
X152704761Y-64204761D01*
X152514285Y-64300000D01*
X152419047Y-64395238D01*
X152323809Y-64585714D01*
X152323809Y-64776190D01*
X152419047Y-65061904D01*
X153561904Y-66204761D01*
X152323809Y-66204761D01*
X151466666Y-66014285D02*
X151371428Y-66109523D01*
X151466666Y-66204761D01*
X151561904Y-66109523D01*
X151466666Y-66014285D01*
X151466666Y-66204761D01*
X150609523Y-64395238D02*
X150514285Y-64300000D01*
X150323809Y-64204761D01*
X149847619Y-64204761D01*
X149657142Y-64300000D01*
X149561904Y-64395238D01*
X149466666Y-64585714D01*
X149466666Y-64776190D01*
X149561904Y-65061904D01*
X150704761Y-66204761D01*
X149466666Y-66204761D01*
D11*
X219357142Y-77100000D02*
X218642857Y-77100000D01*
X219499999Y-77528571D02*
X218999999Y-76028571D01*
X218499999Y-77528571D01*
X217999999Y-76528571D02*
X217999999Y-77528571D01*
X217999999Y-76671428D02*
X217928571Y-76600000D01*
X217785714Y-76528571D01*
X217571428Y-76528571D01*
X217428571Y-76600000D01*
X217357142Y-76742857D01*
X217357142Y-77528571D01*
X215214285Y-76028571D02*
X214928571Y-76028571D01*
X214785714Y-76100000D01*
X214642857Y-76242857D01*
X214571428Y-76528571D01*
X214571428Y-77028571D01*
X214642857Y-77314285D01*
X214785714Y-77457142D01*
X214928571Y-77528571D01*
X215214285Y-77528571D01*
X215357142Y-77457142D01*
X215499999Y-77314285D01*
X215571428Y-77028571D01*
X215571428Y-76528571D01*
X215499999Y-76242857D01*
X215357142Y-76100000D01*
X215214285Y-76028571D01*
X213928571Y-76528571D02*
X213928571Y-78028571D01*
X213928571Y-76600000D02*
X213785714Y-76528571D01*
X213499999Y-76528571D01*
X213357142Y-76600000D01*
X213285714Y-76671428D01*
X213214285Y-76814285D01*
X213214285Y-77242857D01*
X213285714Y-77385714D01*
X213357142Y-77457142D01*
X213499999Y-77528571D01*
X213785714Y-77528571D01*
X213928571Y-77457142D01*
X211999999Y-77457142D02*
X212142857Y-77528571D01*
X212428571Y-77528571D01*
X212571428Y-77457142D01*
X212642857Y-77314285D01*
X212642857Y-76742857D01*
X212571428Y-76600000D01*
X212428571Y-76528571D01*
X212142857Y-76528571D01*
X211999999Y-76600000D01*
X211928571Y-76742857D01*
X211928571Y-76885714D01*
X212642857Y-77028571D01*
X211285714Y-76528571D02*
X211285714Y-77528571D01*
X211285714Y-76671428D02*
X211214285Y-76600000D01*
X211071428Y-76528571D01*
X210857142Y-76528571D01*
X210714285Y-76600000D01*
X210642857Y-76742857D01*
X210642857Y-77528571D01*
X208857142Y-77457142D02*
X208642857Y-77528571D01*
X208285714Y-77528571D01*
X208142857Y-77457142D01*
X208071428Y-77385714D01*
X207999999Y-77242857D01*
X207999999Y-77100000D01*
X208071428Y-76957142D01*
X208142857Y-76885714D01*
X208285714Y-76814285D01*
X208571428Y-76742857D01*
X208714285Y-76671428D01*
X208785714Y-76600000D01*
X208857142Y-76457142D01*
X208857142Y-76314285D01*
X208785714Y-76171428D01*
X208714285Y-76100000D01*
X208571428Y-76028571D01*
X208214285Y-76028571D01*
X207999999Y-76100000D01*
X207142857Y-77528571D02*
X207285714Y-77457142D01*
X207357142Y-77385714D01*
X207428571Y-77242857D01*
X207428571Y-76814285D01*
X207357142Y-76671428D01*
X207285714Y-76600000D01*
X207142857Y-76528571D01*
X206928571Y-76528571D01*
X206785714Y-76600000D01*
X206714285Y-76671428D01*
X206642857Y-76814285D01*
X206642857Y-77242857D01*
X206714285Y-77385714D01*
X206785714Y-77457142D01*
X206928571Y-77528571D01*
X207142857Y-77528571D01*
X205357142Y-76528571D02*
X205357142Y-77528571D01*
X205999999Y-76528571D02*
X205999999Y-77314285D01*
X205928571Y-77457142D01*
X205785714Y-77528571D01*
X205571428Y-77528571D01*
X205428571Y-77457142D01*
X205357142Y-77385714D01*
X204642857Y-77528571D02*
X204642857Y-76528571D01*
X204642857Y-76814285D02*
X204571428Y-76671428D01*
X204499999Y-76600000D01*
X204357142Y-76528571D01*
X204214285Y-76528571D01*
X203071428Y-77457142D02*
X203214285Y-77528571D01*
X203499999Y-77528571D01*
X203642857Y-77457142D01*
X203714285Y-77385714D01*
X203785714Y-77242857D01*
X203785714Y-76814285D01*
X203714285Y-76671428D01*
X203642857Y-76600000D01*
X203499999Y-76528571D01*
X203214285Y-76528571D01*
X203071428Y-76600000D01*
X201857142Y-77457142D02*
X201999999Y-77528571D01*
X202285714Y-77528571D01*
X202428571Y-77457142D01*
X202499999Y-77314285D01*
X202499999Y-76742857D01*
X202428571Y-76600000D01*
X202285714Y-76528571D01*
X201999999Y-76528571D01*
X201857142Y-76600000D01*
X201785714Y-76742857D01*
X201785714Y-76885714D01*
X202499999Y-77028571D01*
X199999999Y-77528571D02*
X199999999Y-76028571D01*
X199999999Y-76742857D02*
X199142857Y-76742857D01*
X199142857Y-77528571D02*
X199142857Y-76028571D01*
X197785714Y-77528571D02*
X197785714Y-76742857D01*
X197857142Y-76600000D01*
X197999999Y-76528571D01*
X198285714Y-76528571D01*
X198428571Y-76600000D01*
X197785714Y-77457142D02*
X197928571Y-77528571D01*
X198285714Y-77528571D01*
X198428571Y-77457142D01*
X198499999Y-77314285D01*
X198499999Y-77171428D01*
X198428571Y-77028571D01*
X198285714Y-76957142D01*
X197928571Y-76957142D01*
X197785714Y-76885714D01*
X197071428Y-77528571D02*
X197071428Y-76528571D01*
X197071428Y-76814285D02*
X196999999Y-76671428D01*
X196928571Y-76600000D01*
X196785714Y-76528571D01*
X196642857Y-76528571D01*
X195499999Y-77528571D02*
X195499999Y-76028571D01*
X195499999Y-77457142D02*
X195642857Y-77528571D01*
X195928571Y-77528571D01*
X196071428Y-77457142D01*
X196142857Y-77385714D01*
X196214285Y-77242857D01*
X196214285Y-76814285D01*
X196142857Y-76671428D01*
X196071428Y-76600000D01*
X195928571Y-76528571D01*
X195642857Y-76528571D01*
X195499999Y-76600000D01*
X194928571Y-76528571D02*
X194642857Y-77528571D01*
X194357142Y-76814285D01*
X194071428Y-77528571D01*
X193785714Y-76528571D01*
X192571428Y-77528571D02*
X192571428Y-76742857D01*
X192642857Y-76600000D01*
X192785714Y-76528571D01*
X193071428Y-76528571D01*
X193214285Y-76600000D01*
X192571428Y-77457142D02*
X192714285Y-77528571D01*
X193071428Y-77528571D01*
X193214285Y-77457142D01*
X193285714Y-77314285D01*
X193285714Y-77171428D01*
X193214285Y-77028571D01*
X193071428Y-76957142D01*
X192714285Y-76957142D01*
X192571428Y-76885714D01*
X191857142Y-77528571D02*
X191857142Y-76528571D01*
X191857142Y-76814285D02*
X191785714Y-76671428D01*
X191714285Y-76600000D01*
X191571428Y-76528571D01*
X191428571Y-76528571D01*
X190357142Y-77457142D02*
X190499999Y-77528571D01*
X190785714Y-77528571D01*
X190928571Y-77457142D01*
X190999999Y-77314285D01*
X190999999Y-76742857D01*
X190928571Y-76600000D01*
X190785714Y-76528571D01*
X190499999Y-76528571D01*
X190357142Y-76600000D01*
X190285714Y-76742857D01*
X190285714Y-76885714D01*
X190999999Y-77028571D01*
X188499999Y-77528571D02*
X188499999Y-76528571D01*
X188499999Y-76028571D02*
X188571428Y-76100000D01*
X188499999Y-76171428D01*
X188428571Y-76100000D01*
X188499999Y-76028571D01*
X188499999Y-76171428D01*
X187785714Y-77528571D02*
X187785714Y-76528571D01*
X187785714Y-76671428D02*
X187714285Y-76600000D01*
X187571428Y-76528571D01*
X187357142Y-76528571D01*
X187214285Y-76600000D01*
X187142857Y-76742857D01*
X187142857Y-77528571D01*
X187142857Y-76742857D02*
X187071428Y-76600000D01*
X186928571Y-76528571D01*
X186714285Y-76528571D01*
X186571428Y-76600000D01*
X186499999Y-76742857D01*
X186499999Y-77528571D01*
X185785714Y-76528571D02*
X185785714Y-78028571D01*
X185785714Y-76600000D02*
X185642857Y-76528571D01*
X185357142Y-76528571D01*
X185214285Y-76600000D01*
X185142857Y-76671428D01*
X185071428Y-76814285D01*
X185071428Y-77242857D01*
X185142857Y-77385714D01*
X185214285Y-77457142D01*
X185357142Y-77528571D01*
X185642857Y-77528571D01*
X185785714Y-77457142D01*
X184214285Y-77528571D02*
X184357142Y-77457142D01*
X184428571Y-77314285D01*
X184428571Y-76028571D01*
X183071428Y-77457142D02*
X183214285Y-77528571D01*
X183499999Y-77528571D01*
X183642857Y-77457142D01*
X183714285Y-77314285D01*
X183714285Y-76742857D01*
X183642857Y-76600000D01*
X183499999Y-76528571D01*
X183214285Y-76528571D01*
X183071428Y-76600000D01*
X182999999Y-76742857D01*
X182999999Y-76885714D01*
X183714285Y-77028571D01*
X182357142Y-77528571D02*
X182357142Y-76528571D01*
X182357142Y-76671428D02*
X182285714Y-76600000D01*
X182142857Y-76528571D01*
X181928571Y-76528571D01*
X181785714Y-76600000D01*
X181714285Y-76742857D01*
X181714285Y-77528571D01*
X181714285Y-76742857D02*
X181642857Y-76600000D01*
X181499999Y-76528571D01*
X181285714Y-76528571D01*
X181142857Y-76600000D01*
X181071428Y-76742857D01*
X181071428Y-77528571D01*
X179785714Y-77457142D02*
X179928571Y-77528571D01*
X180214285Y-77528571D01*
X180357142Y-77457142D01*
X180428571Y-77314285D01*
X180428571Y-76742857D01*
X180357142Y-76600000D01*
X180214285Y-76528571D01*
X179928571Y-76528571D01*
X179785714Y-76600000D01*
X179714285Y-76742857D01*
X179714285Y-76885714D01*
X180428571Y-77028571D01*
X179071428Y-76528571D02*
X179071428Y-77528571D01*
X179071428Y-76671428D02*
X178999999Y-76600000D01*
X178857142Y-76528571D01*
X178642857Y-76528571D01*
X178499999Y-76600000D01*
X178428571Y-76742857D01*
X178428571Y-77528571D01*
X177928571Y-76528571D02*
X177357142Y-76528571D01*
X177714285Y-76028571D02*
X177714285Y-77314285D01*
X177642857Y-77457142D01*
X177499999Y-77528571D01*
X177357142Y-77528571D01*
X176214285Y-77528571D02*
X176214285Y-76742857D01*
X176285714Y-76600000D01*
X176428571Y-76528571D01*
X176714285Y-76528571D01*
X176857142Y-76600000D01*
X176214285Y-77457142D02*
X176357142Y-77528571D01*
X176714285Y-77528571D01*
X176857142Y-77457142D01*
X176928571Y-77314285D01*
X176928571Y-77171428D01*
X176857142Y-77028571D01*
X176714285Y-76957142D01*
X176357142Y-76957142D01*
X176214285Y-76885714D01*
X175714285Y-76528571D02*
X175142857Y-76528571D01*
X175500000Y-76028571D02*
X175500000Y-77314285D01*
X175428571Y-77457142D01*
X175285714Y-77528571D01*
X175142857Y-77528571D01*
X174642857Y-77528571D02*
X174642857Y-76528571D01*
X174642857Y-76028571D02*
X174714285Y-76100000D01*
X174642857Y-76171428D01*
X174571428Y-76100000D01*
X174642857Y-76028571D01*
X174642857Y-76171428D01*
X173714285Y-77528571D02*
X173857142Y-77457142D01*
X173928571Y-77385714D01*
X174000000Y-77242857D01*
X174000000Y-76814285D01*
X173928571Y-76671428D01*
X173857142Y-76600000D01*
X173714285Y-76528571D01*
X173500000Y-76528571D01*
X173357142Y-76600000D01*
X173285714Y-76671428D01*
X173214285Y-76814285D01*
X173214285Y-77242857D01*
X173285714Y-77385714D01*
X173357142Y-77457142D01*
X173500000Y-77528571D01*
X173714285Y-77528571D01*
X172571428Y-76528571D02*
X172571428Y-77528571D01*
X172571428Y-76671428D02*
X172500000Y-76600000D01*
X172357142Y-76528571D01*
X172142857Y-76528571D01*
X172000000Y-76600000D01*
X171928571Y-76742857D01*
X171928571Y-77528571D01*
X169857142Y-77528571D02*
X170000000Y-77457142D01*
X170071428Y-77385714D01*
X170142857Y-77242857D01*
X170142857Y-76814285D01*
X170071428Y-76671428D01*
X170000000Y-76600000D01*
X169857142Y-76528571D01*
X169642857Y-76528571D01*
X169500000Y-76600000D01*
X169428571Y-76671428D01*
X169357142Y-76814285D01*
X169357142Y-77242857D01*
X169428571Y-77385714D01*
X169500000Y-77457142D01*
X169642857Y-77528571D01*
X169857142Y-77528571D01*
X168928571Y-76528571D02*
X168357142Y-76528571D01*
X168714285Y-77528571D02*
X168714285Y-76242857D01*
X168642857Y-76100000D01*
X168500000Y-76028571D01*
X168357142Y-76028571D01*
X166071428Y-77528571D02*
X166071428Y-76742857D01*
X166142857Y-76600000D01*
X166285714Y-76528571D01*
X166571428Y-76528571D01*
X166714285Y-76600000D01*
X166071428Y-77457142D02*
X166214285Y-77528571D01*
X166571428Y-77528571D01*
X166714285Y-77457142D01*
X166785714Y-77314285D01*
X166785714Y-77171428D01*
X166714285Y-77028571D01*
X166571428Y-76957142D01*
X166214285Y-76957142D01*
X166071428Y-76885714D01*
X164285714Y-77457142D02*
X164142857Y-77528571D01*
X163857142Y-77528571D01*
X163714285Y-77457142D01*
X163642857Y-77314285D01*
X163642857Y-77242857D01*
X163714285Y-77100000D01*
X163857142Y-77028571D01*
X164071428Y-77028571D01*
X164214285Y-76957142D01*
X164285714Y-76814285D01*
X164285714Y-76742857D01*
X164214285Y-76600000D01*
X164071428Y-76528571D01*
X163857142Y-76528571D01*
X163714285Y-76600000D01*
X163000000Y-76528571D02*
X163000000Y-78028571D01*
X163000000Y-76600000D02*
X162857142Y-76528571D01*
X162571428Y-76528571D01*
X162428571Y-76600000D01*
X162357142Y-76671428D01*
X162285714Y-76814285D01*
X162285714Y-77242857D01*
X162357142Y-77385714D01*
X162428571Y-77457142D01*
X162571428Y-77528571D01*
X162857142Y-77528571D01*
X163000000Y-77457142D01*
X161642857Y-77528571D02*
X161642857Y-76528571D01*
X161642857Y-76028571D02*
X161714285Y-76100000D01*
X161642857Y-76171428D01*
X161571428Y-76100000D01*
X161642857Y-76028571D01*
X161642857Y-76171428D01*
X160928571Y-77528571D02*
X160928571Y-76028571D01*
X160785714Y-76957142D02*
X160357142Y-77528571D01*
X160357142Y-76528571D02*
X160928571Y-77100000D01*
X159714285Y-77528571D02*
X159714285Y-76528571D01*
X159714285Y-76028571D02*
X159785714Y-76100000D01*
X159714285Y-76171428D01*
X159642857Y-76100000D01*
X159714285Y-76028571D01*
X159714285Y-76171428D01*
X159000000Y-76528571D02*
X159000000Y-77528571D01*
X159000000Y-76671428D02*
X158928571Y-76600000D01*
X158785714Y-76528571D01*
X158571428Y-76528571D01*
X158428571Y-76600000D01*
X158357142Y-76742857D01*
X158357142Y-77528571D01*
X157000000Y-76528571D02*
X157000000Y-77742857D01*
X157071428Y-77885714D01*
X157142857Y-77957142D01*
X157285714Y-78028571D01*
X157500000Y-78028571D01*
X157642857Y-77957142D01*
X157000000Y-77457142D02*
X157142857Y-77528571D01*
X157428571Y-77528571D01*
X157571428Y-77457142D01*
X157642857Y-77385714D01*
X157714285Y-77242857D01*
X157714285Y-76814285D01*
X157642857Y-76671428D01*
X157571428Y-76600000D01*
X157428571Y-76528571D01*
X157142857Y-76528571D01*
X157000000Y-76600000D01*
X155142857Y-76528571D02*
X155142857Y-77528571D01*
X155142857Y-76671428D02*
X155071428Y-76600000D01*
X154928571Y-76528571D01*
X154714285Y-76528571D01*
X154571428Y-76600000D01*
X154500000Y-76742857D01*
X154500000Y-77528571D01*
X153214285Y-77457142D02*
X153357142Y-77528571D01*
X153642857Y-77528571D01*
X153785714Y-77457142D01*
X153857142Y-77314285D01*
X153857142Y-76742857D01*
X153785714Y-76600000D01*
X153642857Y-76528571D01*
X153357142Y-76528571D01*
X153214285Y-76600000D01*
X153142857Y-76742857D01*
X153142857Y-76885714D01*
X153857142Y-77028571D01*
X151857142Y-76528571D02*
X151857142Y-77528571D01*
X152500000Y-76528571D02*
X152500000Y-77314285D01*
X152428571Y-77457142D01*
X152285714Y-77528571D01*
X152071428Y-77528571D01*
X151928571Y-77457142D01*
X151857142Y-77385714D01*
X151142857Y-77528571D02*
X151142857Y-76528571D01*
X151142857Y-76814285D02*
X151071428Y-76671428D01*
X151000000Y-76600000D01*
X150857142Y-76528571D01*
X150714285Y-76528571D01*
X150000000Y-77528571D02*
X150142857Y-77457142D01*
X150214285Y-77385714D01*
X150285714Y-77242857D01*
X150285714Y-76814285D01*
X150214285Y-76671428D01*
X150142857Y-76600000D01*
X150000000Y-76528571D01*
X149785714Y-76528571D01*
X149642857Y-76600000D01*
X149571428Y-76671428D01*
X149500000Y-76814285D01*
X149500000Y-77242857D01*
X149571428Y-77385714D01*
X149642857Y-77457142D01*
X149785714Y-77528571D01*
X150000000Y-77528571D01*
X148857142Y-76528571D02*
X148857142Y-77528571D01*
X148857142Y-76671428D02*
X148785714Y-76600000D01*
X148642857Y-76528571D01*
X148428571Y-76528571D01*
X148285714Y-76600000D01*
X148214285Y-76742857D01*
X148214285Y-77528571D01*
X146571428Y-76528571D02*
X146000000Y-76528571D01*
X146357142Y-77528571D02*
X146357142Y-76242857D01*
X146285714Y-76100000D01*
X146142857Y-76028571D01*
X146000000Y-76028571D01*
X145285714Y-77528571D02*
X145428571Y-77457142D01*
X145500000Y-77385714D01*
X145571428Y-77242857D01*
X145571428Y-76814285D01*
X145500000Y-76671428D01*
X145428571Y-76600000D01*
X145285714Y-76528571D01*
X145071428Y-76528571D01*
X144928571Y-76600000D01*
X144857142Y-76671428D01*
X144785714Y-76814285D01*
X144785714Y-77242857D01*
X144857142Y-77385714D01*
X144928571Y-77457142D01*
X145071428Y-77528571D01*
X145285714Y-77528571D01*
X144142857Y-77528571D02*
X144142857Y-76528571D01*
X144142857Y-76814285D02*
X144071428Y-76671428D01*
X144000000Y-76600000D01*
X143857142Y-76528571D01*
X143714285Y-76528571D01*
X142071428Y-76528571D02*
X142071428Y-77528571D01*
X142071428Y-76671428D02*
X142000000Y-76600000D01*
X141857142Y-76528571D01*
X141642857Y-76528571D01*
X141500000Y-76600000D01*
X141428571Y-76742857D01*
X141428571Y-77528571D01*
X140142857Y-77457142D02*
X140285714Y-77528571D01*
X140571428Y-77528571D01*
X140714285Y-77457142D01*
X140785714Y-77314285D01*
X140785714Y-76742857D01*
X140714285Y-76600000D01*
X140571428Y-76528571D01*
X140285714Y-76528571D01*
X140142857Y-76600000D01*
X140071428Y-76742857D01*
X140071428Y-76885714D01*
X140785714Y-77028571D01*
X138785714Y-76528571D02*
X138785714Y-77528571D01*
X139428571Y-76528571D02*
X139428571Y-77314285D01*
X139357142Y-77457142D01*
X139214285Y-77528571D01*
X139000000Y-77528571D01*
X138857142Y-77457142D01*
X138785714Y-77385714D01*
X138071428Y-77528571D02*
X138071428Y-76528571D01*
X138071428Y-76814285D02*
X138000000Y-76671428D01*
X137928571Y-76600000D01*
X137785714Y-76528571D01*
X137642857Y-76528571D01*
X136928571Y-77528571D02*
X137071428Y-77457142D01*
X137142857Y-77385714D01*
X137214285Y-77242857D01*
X137214285Y-76814285D01*
X137142857Y-76671428D01*
X137071428Y-76600000D01*
X136928571Y-76528571D01*
X136714285Y-76528571D01*
X136571428Y-76600000D01*
X136500000Y-76671428D01*
X136428571Y-76814285D01*
X136428571Y-77242857D01*
X136500000Y-77385714D01*
X136571428Y-77457142D01*
X136714285Y-77528571D01*
X136928571Y-77528571D01*
X135857142Y-77457142D02*
X135714285Y-77528571D01*
X135428571Y-77528571D01*
X135285714Y-77457142D01*
X135214285Y-77314285D01*
X135214285Y-77242857D01*
X135285714Y-77100000D01*
X135428571Y-77028571D01*
X135642857Y-77028571D01*
X135785714Y-76957142D01*
X135857142Y-76814285D01*
X135857142Y-76742857D01*
X135785714Y-76600000D01*
X135642857Y-76528571D01*
X135428571Y-76528571D01*
X135285714Y-76600000D01*
X133928571Y-77457142D02*
X134071428Y-77528571D01*
X134357142Y-77528571D01*
X134500000Y-77457142D01*
X134571428Y-77385714D01*
X134642857Y-77242857D01*
X134642857Y-76814285D01*
X134571428Y-76671428D01*
X134500000Y-76600000D01*
X134357142Y-76528571D01*
X134071428Y-76528571D01*
X133928571Y-76600000D01*
X133285714Y-77528571D02*
X133285714Y-76528571D01*
X133285714Y-76028571D02*
X133357142Y-76100000D01*
X133285714Y-76171428D01*
X133214285Y-76100000D01*
X133285714Y-76028571D01*
X133285714Y-76171428D01*
X132000000Y-77457142D02*
X132142857Y-77528571D01*
X132428571Y-77528571D01*
X132571428Y-77457142D01*
X132642857Y-77314285D01*
X132642857Y-76742857D01*
X132571428Y-76600000D01*
X132428571Y-76528571D01*
X132142857Y-76528571D01*
X132000000Y-76600000D01*
X131928571Y-76742857D01*
X131928571Y-76885714D01*
X132642857Y-77028571D01*
X131285714Y-76528571D02*
X131285714Y-77528571D01*
X131285714Y-76671428D02*
X131214285Y-76600000D01*
X131071428Y-76528571D01*
X130857142Y-76528571D01*
X130714285Y-76600000D01*
X130642857Y-76742857D01*
X130642857Y-77528571D01*
X129285714Y-77457142D02*
X129428571Y-77528571D01*
X129714285Y-77528571D01*
X129857142Y-77457142D01*
X129928571Y-77385714D01*
X130000000Y-77242857D01*
X130000000Y-76814285D01*
X129928571Y-76671428D01*
X129857142Y-76600000D01*
X129714285Y-76528571D01*
X129428571Y-76528571D01*
X129285714Y-76600000D01*
X128071428Y-77457142D02*
X128214285Y-77528571D01*
X128500000Y-77528571D01*
X128642857Y-77457142D01*
X128714285Y-77314285D01*
X128714285Y-76742857D01*
X128642857Y-76600000D01*
X128500000Y-76528571D01*
X128214285Y-76528571D01*
X128071428Y-76600000D01*
X128000000Y-76742857D01*
X128000000Y-76885714D01*
X128714285Y-77028571D01*
X126428571Y-76528571D02*
X125857142Y-76528571D01*
X126214285Y-76028571D02*
X126214285Y-77314285D01*
X126142857Y-77457142D01*
X126000000Y-77528571D01*
X125857142Y-77528571D01*
X124785714Y-77457142D02*
X124928571Y-77528571D01*
X125214285Y-77528571D01*
X125357142Y-77457142D01*
X125428571Y-77314285D01*
X125428571Y-76742857D01*
X125357142Y-76600000D01*
X125214285Y-76528571D01*
X124928571Y-76528571D01*
X124785714Y-76600000D01*
X124714285Y-76742857D01*
X124714285Y-76885714D01*
X125428571Y-77028571D01*
X123428571Y-77528571D02*
X123428571Y-76742857D01*
X123499999Y-76600000D01*
X123642857Y-76528571D01*
X123928571Y-76528571D01*
X124071428Y-76600000D01*
X123428571Y-77457142D02*
X123571428Y-77528571D01*
X123928571Y-77528571D01*
X124071428Y-77457142D01*
X124142857Y-77314285D01*
X124142857Y-77171428D01*
X124071428Y-77028571D01*
X123928571Y-76957142D01*
X123571428Y-76957142D01*
X123428571Y-76885714D01*
X122071428Y-77457142D02*
X122214285Y-77528571D01*
X122499999Y-77528571D01*
X122642857Y-77457142D01*
X122714285Y-77385714D01*
X122785714Y-77242857D01*
X122785714Y-76814285D01*
X122714285Y-76671428D01*
X122642857Y-76600000D01*
X122499999Y-76528571D01*
X122214285Y-76528571D01*
X122071428Y-76600000D01*
X121428571Y-77528571D02*
X121428571Y-76028571D01*
X120785714Y-77528571D02*
X120785714Y-76742857D01*
X120857142Y-76600000D01*
X120999999Y-76528571D01*
X121214285Y-76528571D01*
X121357142Y-76600000D01*
X121428571Y-76671428D01*
X120071428Y-77528571D02*
X120071428Y-76528571D01*
X120071428Y-76028571D02*
X120142857Y-76100000D01*
X120071428Y-76171428D01*
X119999999Y-76100000D01*
X120071428Y-76028571D01*
X120071428Y-76171428D01*
X119357142Y-76528571D02*
X119357142Y-77528571D01*
X119357142Y-76671428D02*
X119285714Y-76600000D01*
X119142857Y-76528571D01*
X118928571Y-76528571D01*
X118785714Y-76600000D01*
X118714285Y-76742857D01*
X118714285Y-77528571D01*
X117357142Y-76528571D02*
X117357142Y-77742857D01*
X117428571Y-77885714D01*
X117499999Y-77957142D01*
X117642857Y-78028571D01*
X117857142Y-78028571D01*
X117999999Y-77957142D01*
X117357142Y-77457142D02*
X117499999Y-77528571D01*
X117785714Y-77528571D01*
X117928571Y-77457142D01*
X117999999Y-77385714D01*
X118071428Y-77242857D01*
X118071428Y-76814285D01*
X117999999Y-76671428D01*
X117928571Y-76600000D01*
X117785714Y-76528571D01*
X117499999Y-76528571D01*
X117357142Y-76600000D01*
X114857142Y-77528571D02*
X114857142Y-76742857D01*
X114928571Y-76600000D01*
X115071428Y-76528571D01*
X115357142Y-76528571D01*
X115499999Y-76600000D01*
X114857142Y-77457142D02*
X114999999Y-77528571D01*
X115357142Y-77528571D01*
X115499999Y-77457142D01*
X115571428Y-77314285D01*
X115571428Y-77171428D01*
X115499999Y-77028571D01*
X115357142Y-76957142D01*
X114999999Y-76957142D01*
X114857142Y-76885714D01*
X114142857Y-76528571D02*
X114142857Y-77528571D01*
X114142857Y-76671428D02*
X114071428Y-76600000D01*
X113928571Y-76528571D01*
X113714285Y-76528571D01*
X113571428Y-76600000D01*
X113499999Y-76742857D01*
X113499999Y-77528571D01*
X112142857Y-77528571D02*
X112142857Y-76028571D01*
X112142857Y-77457142D02*
X112285714Y-77528571D01*
X112571428Y-77528571D01*
X112714285Y-77457142D01*
X112785714Y-77385714D01*
X112857142Y-77242857D01*
X112857142Y-76814285D01*
X112785714Y-76671428D01*
X112714285Y-76600000D01*
X112571428Y-76528571D01*
X112285714Y-76528571D01*
X112142857Y-76600000D01*
X110071428Y-77528571D02*
X110214285Y-77457142D01*
X110285714Y-77385714D01*
X110357142Y-77242857D01*
X110357142Y-76814285D01*
X110285714Y-76671428D01*
X110214285Y-76600000D01*
X110071428Y-76528571D01*
X109857142Y-76528571D01*
X109714285Y-76600000D01*
X109642857Y-76671428D01*
X109571428Y-76814285D01*
X109571428Y-77242857D01*
X109642857Y-77385714D01*
X109714285Y-77457142D01*
X109857142Y-77528571D01*
X110071428Y-77528571D01*
X108285714Y-76528571D02*
X108285714Y-77528571D01*
X108928571Y-76528571D02*
X108928571Y-77314285D01*
X108857142Y-77457142D01*
X108714285Y-77528571D01*
X108499999Y-77528571D01*
X108357142Y-77457142D01*
X108285714Y-77385714D01*
X107785714Y-76528571D02*
X107214285Y-76528571D01*
X107571428Y-76028571D02*
X107571428Y-77314285D01*
X107499999Y-77457142D01*
X107357142Y-77528571D01*
X107214285Y-77528571D01*
X106714285Y-77528571D02*
X106714285Y-76528571D01*
X106714285Y-76814285D02*
X106642857Y-76671428D01*
X106571428Y-76600000D01*
X106428571Y-76528571D01*
X106285714Y-76528571D01*
X105214285Y-77457142D02*
X105357142Y-77528571D01*
X105642857Y-77528571D01*
X105785714Y-77457142D01*
X105857142Y-77314285D01*
X105857142Y-76742857D01*
X105785714Y-76600000D01*
X105642857Y-76528571D01*
X105357142Y-76528571D01*
X105214285Y-76600000D01*
X105142857Y-76742857D01*
X105142857Y-76885714D01*
X105857142Y-77028571D01*
X103857142Y-77528571D02*
X103857142Y-76742857D01*
X103928571Y-76600000D01*
X104071428Y-76528571D01*
X104357142Y-76528571D01*
X104499999Y-76600000D01*
X103857142Y-77457142D02*
X103999999Y-77528571D01*
X104357142Y-77528571D01*
X104499999Y-77457142D01*
X104571428Y-77314285D01*
X104571428Y-77171428D01*
X104499999Y-77028571D01*
X104357142Y-76957142D01*
X103999999Y-76957142D01*
X103857142Y-76885714D01*
X102499999Y-77457142D02*
X102642857Y-77528571D01*
X102928571Y-77528571D01*
X103071428Y-77457142D01*
X103142857Y-77385714D01*
X103214285Y-77242857D01*
X103214285Y-76814285D01*
X103142857Y-76671428D01*
X103071428Y-76600000D01*
X102928571Y-76528571D01*
X102642857Y-76528571D01*
X102499999Y-76600000D01*
X101857142Y-77528571D02*
X101857142Y-76028571D01*
X101214285Y-77528571D02*
X101214285Y-76742857D01*
X101285714Y-76600000D01*
X101428571Y-76528571D01*
X101642857Y-76528571D01*
X101785714Y-76600000D01*
X101857142Y-76671428D01*
D12*
X218257261Y-116697380D02*
X217685833Y-116697380D01*
X217971547Y-117697380D02*
X217971547Y-116697380D01*
X217352500Y-117697380D02*
X217352500Y-116697380D01*
X216923928Y-117697380D02*
X216923928Y-117173571D01*
X216971547Y-117078333D01*
X217066785Y-117030714D01*
X217209642Y-117030714D01*
X217304880Y-117078333D01*
X217352500Y-117125952D01*
X216447738Y-117697380D02*
X216447738Y-117030714D01*
X216447738Y-116697380D02*
X216495357Y-116745000D01*
X216447738Y-116792619D01*
X216400119Y-116745000D01*
X216447738Y-116697380D01*
X216447738Y-116792619D01*
X216019166Y-117649761D02*
X215923928Y-117697380D01*
X215733452Y-117697380D01*
X215638214Y-117649761D01*
X215590595Y-117554523D01*
X215590595Y-117506904D01*
X215638214Y-117411666D01*
X215733452Y-117364047D01*
X215876309Y-117364047D01*
X215971547Y-117316428D01*
X216019166Y-117221190D01*
X216019166Y-117173571D01*
X215971547Y-117078333D01*
X215876309Y-117030714D01*
X215733452Y-117030714D01*
X215638214Y-117078333D01*
X214400119Y-117030714D02*
X214400119Y-118030714D01*
X214400119Y-117078333D02*
X214304880Y-117030714D01*
X214114404Y-117030714D01*
X214019166Y-117078333D01*
X213971547Y-117125952D01*
X213923928Y-117221190D01*
X213923928Y-117506904D01*
X213971547Y-117602142D01*
X214019166Y-117649761D01*
X214114404Y-117697380D01*
X214304880Y-117697380D01*
X214400119Y-117649761D01*
X213495357Y-117697380D02*
X213495357Y-117030714D01*
X213495357Y-117221190D02*
X213447738Y-117125952D01*
X213400119Y-117078333D01*
X213304880Y-117030714D01*
X213209642Y-117030714D01*
X212733452Y-117697380D02*
X212828690Y-117649761D01*
X212876309Y-117602142D01*
X212923928Y-117506904D01*
X212923928Y-117221190D01*
X212876309Y-117125952D01*
X212828690Y-117078333D01*
X212733452Y-117030714D01*
X212590595Y-117030714D01*
X212495357Y-117078333D01*
X212447738Y-117125952D01*
X212400119Y-117221190D01*
X212400119Y-117506904D01*
X212447738Y-117602142D01*
X212495357Y-117649761D01*
X212590595Y-117697380D01*
X212733452Y-117697380D01*
X211971547Y-117030714D02*
X211971547Y-117887857D01*
X212019166Y-117983095D01*
X212114404Y-118030714D01*
X212162023Y-118030714D01*
X211971547Y-116697380D02*
X212019166Y-116745000D01*
X211971547Y-116792619D01*
X211923928Y-116745000D01*
X211971547Y-116697380D01*
X211971547Y-116792619D01*
X211114404Y-117649761D02*
X211209642Y-117697380D01*
X211400119Y-117697380D01*
X211495357Y-117649761D01*
X211542976Y-117554523D01*
X211542976Y-117173571D01*
X211495357Y-117078333D01*
X211400119Y-117030714D01*
X211209642Y-117030714D01*
X211114404Y-117078333D01*
X211066785Y-117173571D01*
X211066785Y-117268809D01*
X211542976Y-117364047D01*
X210209642Y-117649761D02*
X210304880Y-117697380D01*
X210495357Y-117697380D01*
X210590595Y-117649761D01*
X210638214Y-117602142D01*
X210685833Y-117506904D01*
X210685833Y-117221190D01*
X210638214Y-117125952D01*
X210590595Y-117078333D01*
X210495357Y-117030714D01*
X210304880Y-117030714D01*
X210209642Y-117078333D01*
X209923928Y-117030714D02*
X209542976Y-117030714D01*
X209781071Y-116697380D02*
X209781071Y-117554523D01*
X209733452Y-117649761D01*
X209638214Y-117697380D01*
X209542976Y-117697380D01*
X208447738Y-117697380D02*
X208447738Y-117030714D01*
X208447738Y-116697380D02*
X208495357Y-116745000D01*
X208447738Y-116792619D01*
X208400119Y-116745000D01*
X208447738Y-116697380D01*
X208447738Y-116792619D01*
X208019166Y-117649761D02*
X207923928Y-117697380D01*
X207733452Y-117697380D01*
X207638214Y-117649761D01*
X207590595Y-117554523D01*
X207590595Y-117506904D01*
X207638214Y-117411666D01*
X207733452Y-117364047D01*
X207876309Y-117364047D01*
X207971547Y-117316428D01*
X208019166Y-117221190D01*
X208019166Y-117173571D01*
X207971547Y-117078333D01*
X207876309Y-117030714D01*
X207733452Y-117030714D01*
X207638214Y-117078333D01*
X206257261Y-117697380D02*
X206352500Y-117649761D01*
X206400119Y-117554523D01*
X206400119Y-116697380D01*
X205876309Y-117697380D02*
X205876309Y-117030714D01*
X205876309Y-116697380D02*
X205923928Y-116745000D01*
X205876309Y-116792619D01*
X205828690Y-116745000D01*
X205876309Y-116697380D01*
X205876309Y-116792619D01*
X204971547Y-117649761D02*
X205066785Y-117697380D01*
X205257261Y-117697380D01*
X205352500Y-117649761D01*
X205400119Y-117602142D01*
X205447738Y-117506904D01*
X205447738Y-117221190D01*
X205400119Y-117125952D01*
X205352500Y-117078333D01*
X205257261Y-117030714D01*
X205066785Y-117030714D01*
X204971547Y-117078333D01*
X204162023Y-117649761D02*
X204257261Y-117697380D01*
X204447738Y-117697380D01*
X204542976Y-117649761D01*
X204590595Y-117554523D01*
X204590595Y-117173571D01*
X204542976Y-117078333D01*
X204447738Y-117030714D01*
X204257261Y-117030714D01*
X204162023Y-117078333D01*
X204114404Y-117173571D01*
X204114404Y-117268809D01*
X204590595Y-117364047D01*
X203685833Y-117030714D02*
X203685833Y-117697380D01*
X203685833Y-117125952D02*
X203638214Y-117078333D01*
X203542976Y-117030714D01*
X203400119Y-117030714D01*
X203304880Y-117078333D01*
X203257261Y-117173571D01*
X203257261Y-117697380D01*
X202828690Y-117649761D02*
X202733452Y-117697380D01*
X202542976Y-117697380D01*
X202447738Y-117649761D01*
X202400119Y-117554523D01*
X202400119Y-117506904D01*
X202447738Y-117411666D01*
X202542976Y-117364047D01*
X202685833Y-117364047D01*
X202781071Y-117316428D01*
X202828690Y-117221190D01*
X202828690Y-117173571D01*
X202781071Y-117078333D01*
X202685833Y-117030714D01*
X202542976Y-117030714D01*
X202447738Y-117078333D01*
X201590595Y-117649761D02*
X201685833Y-117697380D01*
X201876309Y-117697380D01*
X201971547Y-117649761D01*
X202019166Y-117554523D01*
X202019166Y-117173571D01*
X201971547Y-117078333D01*
X201876309Y-117030714D01*
X201685833Y-117030714D01*
X201590595Y-117078333D01*
X201542976Y-117173571D01*
X201542976Y-117268809D01*
X202019166Y-117364047D01*
X200685833Y-117697380D02*
X200685833Y-116697380D01*
X200685833Y-117649761D02*
X200781071Y-117697380D01*
X200971547Y-117697380D01*
X201066785Y-117649761D01*
X201114404Y-117602142D01*
X201162023Y-117506904D01*
X201162023Y-117221190D01*
X201114404Y-117125952D01*
X201066785Y-117078333D01*
X200971547Y-117030714D01*
X200781071Y-117030714D01*
X200685833Y-117078333D01*
X199019166Y-117030714D02*
X199019166Y-117697380D01*
X199447738Y-117030714D02*
X199447738Y-117554523D01*
X199400119Y-117649761D01*
X199304880Y-117697380D01*
X199162023Y-117697380D01*
X199066785Y-117649761D01*
X199019166Y-117602142D01*
X198542976Y-117030714D02*
X198542976Y-117697380D01*
X198542976Y-117125952D02*
X198495357Y-117078333D01*
X198400119Y-117030714D01*
X198257261Y-117030714D01*
X198162023Y-117078333D01*
X198114404Y-117173571D01*
X198114404Y-117697380D01*
X197209642Y-117697380D02*
X197209642Y-116697380D01*
X197209642Y-117649761D02*
X197304880Y-117697380D01*
X197495357Y-117697380D01*
X197590595Y-117649761D01*
X197638214Y-117602142D01*
X197685833Y-117506904D01*
X197685833Y-117221190D01*
X197638214Y-117125952D01*
X197590595Y-117078333D01*
X197495357Y-117030714D01*
X197304880Y-117030714D01*
X197209642Y-117078333D01*
X196352500Y-117649761D02*
X196447738Y-117697380D01*
X196638214Y-117697380D01*
X196733452Y-117649761D01*
X196781071Y-117554523D01*
X196781071Y-117173571D01*
X196733452Y-117078333D01*
X196638214Y-117030714D01*
X196447738Y-117030714D01*
X196352500Y-117078333D01*
X196304880Y-117173571D01*
X196304880Y-117268809D01*
X196781071Y-117364047D01*
X195876309Y-117697380D02*
X195876309Y-117030714D01*
X195876309Y-117221190D02*
X195828690Y-117125952D01*
X195781071Y-117078333D01*
X195685833Y-117030714D01*
X195590595Y-117030714D01*
X194638214Y-117030714D02*
X194257261Y-117030714D01*
X194495357Y-116697380D02*
X194495357Y-117554523D01*
X194447738Y-117649761D01*
X194352500Y-117697380D01*
X194257261Y-117697380D01*
X193923928Y-117697380D02*
X193923928Y-116697380D01*
X193495357Y-117697380D02*
X193495357Y-117173571D01*
X193542976Y-117078333D01*
X193638214Y-117030714D01*
X193781071Y-117030714D01*
X193876309Y-117078333D01*
X193923928Y-117125952D01*
X192638214Y-117649761D02*
X192733452Y-117697380D01*
X192923928Y-117697380D01*
X193019166Y-117649761D01*
X193066785Y-117554523D01*
X193066785Y-117173571D01*
X193019166Y-117078333D01*
X192923928Y-117030714D01*
X192733452Y-117030714D01*
X192638214Y-117078333D01*
X192590595Y-117173571D01*
X192590595Y-117268809D01*
X193066785Y-117364047D01*
X190876309Y-116745000D02*
X190971547Y-116697380D01*
X191114404Y-116697380D01*
X191257261Y-116745000D01*
X191352500Y-116840238D01*
X191400119Y-116935476D01*
X191447738Y-117125952D01*
X191447738Y-117268809D01*
X191400119Y-117459285D01*
X191352500Y-117554523D01*
X191257261Y-117649761D01*
X191114404Y-117697380D01*
X191019166Y-117697380D01*
X190876309Y-117649761D01*
X190828690Y-117602142D01*
X190828690Y-117268809D01*
X191019166Y-117268809D01*
X190400119Y-117697380D02*
X190400119Y-116697380D01*
X189828690Y-117697380D01*
X189828690Y-116697380D01*
X189352500Y-116697380D02*
X189352500Y-117506904D01*
X189304880Y-117602142D01*
X189257261Y-117649761D01*
X189162023Y-117697380D01*
X188971547Y-117697380D01*
X188876309Y-117649761D01*
X188828690Y-117602142D01*
X188781071Y-117506904D01*
X188781071Y-116697380D01*
X187019166Y-116745000D02*
X187114404Y-116697380D01*
X187257261Y-116697380D01*
X187400119Y-116745000D01*
X187495357Y-116840238D01*
X187542976Y-116935476D01*
X187590595Y-117125952D01*
X187590595Y-117268809D01*
X187542976Y-117459285D01*
X187495357Y-117554523D01*
X187400119Y-117649761D01*
X187257261Y-117697380D01*
X187162023Y-117697380D01*
X187019166Y-117649761D01*
X186971547Y-117602142D01*
X186971547Y-117268809D01*
X187162023Y-117268809D01*
X186162023Y-117649761D02*
X186257261Y-117697380D01*
X186447738Y-117697380D01*
X186542976Y-117649761D01*
X186590595Y-117554523D01*
X186590595Y-117173571D01*
X186542976Y-117078333D01*
X186447738Y-117030714D01*
X186257261Y-117030714D01*
X186162023Y-117078333D01*
X186114404Y-117173571D01*
X186114404Y-117268809D01*
X186590595Y-117364047D01*
X185685833Y-117030714D02*
X185685833Y-117697380D01*
X185685833Y-117125952D02*
X185638214Y-117078333D01*
X185542976Y-117030714D01*
X185400119Y-117030714D01*
X185304880Y-117078333D01*
X185257261Y-117173571D01*
X185257261Y-117697380D01*
X184400119Y-117649761D02*
X184495357Y-117697380D01*
X184685833Y-117697380D01*
X184781071Y-117649761D01*
X184828690Y-117554523D01*
X184828690Y-117173571D01*
X184781071Y-117078333D01*
X184685833Y-117030714D01*
X184495357Y-117030714D01*
X184400119Y-117078333D01*
X184352500Y-117173571D01*
X184352500Y-117268809D01*
X184828690Y-117364047D01*
X183923928Y-117697380D02*
X183923928Y-117030714D01*
X183923928Y-117221190D02*
X183876309Y-117125952D01*
X183828690Y-117078333D01*
X183733452Y-117030714D01*
X183638214Y-117030714D01*
X182876309Y-117697380D02*
X182876309Y-117173571D01*
X182923928Y-117078333D01*
X183019166Y-117030714D01*
X183209642Y-117030714D01*
X183304880Y-117078333D01*
X182876309Y-117649761D02*
X182971547Y-117697380D01*
X183209642Y-117697380D01*
X183304880Y-117649761D01*
X183352500Y-117554523D01*
X183352500Y-117459285D01*
X183304880Y-117364047D01*
X183209642Y-117316428D01*
X182971547Y-117316428D01*
X182876309Y-117268809D01*
X182257261Y-117697380D02*
X182352500Y-117649761D01*
X182400119Y-117554523D01*
X182400119Y-116697380D01*
X181114404Y-117697380D02*
X181114404Y-116697380D01*
X180733452Y-116697380D01*
X180638214Y-116745000D01*
X180590595Y-116792619D01*
X180542976Y-116887857D01*
X180542976Y-117030714D01*
X180590595Y-117125952D01*
X180638214Y-117173571D01*
X180733452Y-117221190D01*
X181114404Y-117221190D01*
X179685833Y-117030714D02*
X179685833Y-117697380D01*
X180114404Y-117030714D02*
X180114404Y-117554523D01*
X180066785Y-117649761D01*
X179971547Y-117697380D01*
X179828690Y-117697380D01*
X179733452Y-117649761D01*
X179685833Y-117602142D01*
X179209642Y-117697380D02*
X179209642Y-116697380D01*
X179209642Y-117078333D02*
X179114404Y-117030714D01*
X178923928Y-117030714D01*
X178828690Y-117078333D01*
X178781071Y-117125952D01*
X178733452Y-117221190D01*
X178733452Y-117506904D01*
X178781071Y-117602142D01*
X178828690Y-117649761D01*
X178923928Y-117697380D01*
X179114404Y-117697380D01*
X179209642Y-117649761D01*
X178162023Y-117697380D02*
X178257261Y-117649761D01*
X178304880Y-117554523D01*
X178304880Y-116697380D01*
X177781071Y-117697380D02*
X177781071Y-117030714D01*
X177781071Y-116697380D02*
X177828690Y-116745000D01*
X177781071Y-116792619D01*
X177733452Y-116745000D01*
X177781071Y-116697380D01*
X177781071Y-116792619D01*
X176876309Y-117649761D02*
X176971547Y-117697380D01*
X177162023Y-117697380D01*
X177257261Y-117649761D01*
X177304880Y-117602142D01*
X177352500Y-117506904D01*
X177352500Y-117221190D01*
X177304880Y-117125952D01*
X177257261Y-117078333D01*
X177162023Y-117030714D01*
X176971547Y-117030714D01*
X176876309Y-117078333D01*
X175209642Y-117697380D02*
X175685833Y-117697380D01*
X175685833Y-116697380D01*
X174876309Y-117697380D02*
X174876309Y-117030714D01*
X174876309Y-116697380D02*
X174923928Y-116745000D01*
X174876309Y-116792619D01*
X174828690Y-116745000D01*
X174876309Y-116697380D01*
X174876309Y-116792619D01*
X173971547Y-117649761D02*
X174066785Y-117697380D01*
X174257261Y-117697380D01*
X174352500Y-117649761D01*
X174400119Y-117602142D01*
X174447738Y-117506904D01*
X174447738Y-117221190D01*
X174400119Y-117125952D01*
X174352500Y-117078333D01*
X174257261Y-117030714D01*
X174066785Y-117030714D01*
X173971547Y-117078333D01*
X173162023Y-117649761D02*
X173257261Y-117697380D01*
X173447738Y-117697380D01*
X173542976Y-117649761D01*
X173590595Y-117554523D01*
X173590595Y-117173571D01*
X173542976Y-117078333D01*
X173447738Y-117030714D01*
X173257261Y-117030714D01*
X173162023Y-117078333D01*
X173114404Y-117173571D01*
X173114404Y-117268809D01*
X173590595Y-117364047D01*
X172685833Y-117030714D02*
X172685833Y-117697380D01*
X172685833Y-117125952D02*
X172638214Y-117078333D01*
X172542976Y-117030714D01*
X172400119Y-117030714D01*
X172304880Y-117078333D01*
X172257261Y-117173571D01*
X172257261Y-117697380D01*
X171828690Y-117649761D02*
X171733452Y-117697380D01*
X171542976Y-117697380D01*
X171447738Y-117649761D01*
X171400119Y-117554523D01*
X171400119Y-117506904D01*
X171447738Y-117411666D01*
X171542976Y-117364047D01*
X171685833Y-117364047D01*
X171781071Y-117316428D01*
X171828690Y-117221190D01*
X171828690Y-117173571D01*
X171781071Y-117078333D01*
X171685833Y-117030714D01*
X171542976Y-117030714D01*
X171447738Y-117078333D01*
X170590595Y-117649761D02*
X170685833Y-117697380D01*
X170876309Y-117697380D01*
X170971547Y-117649761D01*
X171019166Y-117554523D01*
X171019166Y-117173571D01*
X170971547Y-117078333D01*
X170876309Y-117030714D01*
X170685833Y-117030714D01*
X170590595Y-117078333D01*
X170542976Y-117173571D01*
X170542976Y-117268809D01*
X171019166Y-117364047D01*
X169447738Y-117030714D02*
X169209642Y-117697380D01*
X168971547Y-117030714D01*
X168685833Y-116697380D02*
X168066785Y-116697380D01*
X168400119Y-117078333D01*
X168257261Y-117078333D01*
X168162023Y-117125952D01*
X168114404Y-117173571D01*
X168066785Y-117268809D01*
X168066785Y-117506904D01*
X168114404Y-117602142D01*
X168162023Y-117649761D01*
X168257261Y-117697380D01*
X168542976Y-117697380D01*
X168638214Y-117649761D01*
X168685833Y-117602142D01*
X167638214Y-117602142D02*
X167590595Y-117649761D01*
X167638214Y-117697380D01*
X167685833Y-117649761D01*
X167638214Y-117602142D01*
X167638214Y-117697380D01*
X166971547Y-116697380D02*
X166876309Y-116697380D01*
X166781071Y-116745000D01*
X166733452Y-116792619D01*
X166685833Y-116887857D01*
X166638214Y-117078333D01*
X166638214Y-117316428D01*
X166685833Y-117506904D01*
X166733452Y-117602142D01*
X166781071Y-117649761D01*
X166876309Y-117697380D01*
X166971547Y-117697380D01*
X167066785Y-117649761D01*
X167114404Y-117602142D01*
X167162023Y-117506904D01*
X167209642Y-117316428D01*
X167209642Y-117078333D01*
X167162023Y-116887857D01*
X167114404Y-116792619D01*
X167066785Y-116745000D01*
X166971547Y-116697380D01*
X218257261Y-118307380D02*
X217685833Y-118307380D01*
X217971547Y-119307380D02*
X217971547Y-118307380D01*
X217352500Y-119307380D02*
X217352500Y-118307380D01*
X216923928Y-119307380D02*
X216923928Y-118783571D01*
X216971547Y-118688333D01*
X217066785Y-118640714D01*
X217209642Y-118640714D01*
X217304880Y-118688333D01*
X217352500Y-118735952D01*
X216066785Y-119259761D02*
X216162023Y-119307380D01*
X216352500Y-119307380D01*
X216447738Y-119259761D01*
X216495357Y-119164523D01*
X216495357Y-118783571D01*
X216447738Y-118688333D01*
X216352500Y-118640714D01*
X216162023Y-118640714D01*
X216066785Y-118688333D01*
X216019166Y-118783571D01*
X216019166Y-118878809D01*
X216495357Y-118974047D01*
X214828690Y-119307380D02*
X214828690Y-118307380D01*
X214400119Y-119307380D02*
X214400119Y-118783571D01*
X214447738Y-118688333D01*
X214542976Y-118640714D01*
X214685833Y-118640714D01*
X214781071Y-118688333D01*
X214828690Y-118735952D01*
X213495357Y-119307380D02*
X213495357Y-118783571D01*
X213542976Y-118688333D01*
X213638214Y-118640714D01*
X213828690Y-118640714D01*
X213923928Y-118688333D01*
X213495357Y-119259761D02*
X213590595Y-119307380D01*
X213828690Y-119307380D01*
X213923928Y-119259761D01*
X213971547Y-119164523D01*
X213971547Y-119069285D01*
X213923928Y-118974047D01*
X213828690Y-118926428D01*
X213590595Y-118926428D01*
X213495357Y-118878809D01*
X213019166Y-119307380D02*
X213019166Y-118640714D01*
X213019166Y-118831190D02*
X212971547Y-118735952D01*
X212923928Y-118688333D01*
X212828690Y-118640714D01*
X212733452Y-118640714D01*
X211971547Y-119307380D02*
X211971547Y-118307380D01*
X211971547Y-119259761D02*
X212066785Y-119307380D01*
X212257261Y-119307380D01*
X212352500Y-119259761D01*
X212400119Y-119212142D01*
X212447738Y-119116904D01*
X212447738Y-118831190D01*
X212400119Y-118735952D01*
X212352500Y-118688333D01*
X212257261Y-118640714D01*
X212066785Y-118640714D01*
X211971547Y-118688333D01*
X211590595Y-118640714D02*
X211400119Y-119307380D01*
X211209642Y-118831190D01*
X211019166Y-119307380D01*
X210828690Y-118640714D01*
X210019166Y-119307380D02*
X210019166Y-118783571D01*
X210066785Y-118688333D01*
X210162023Y-118640714D01*
X210352500Y-118640714D01*
X210447738Y-118688333D01*
X210019166Y-119259761D02*
X210114404Y-119307380D01*
X210352500Y-119307380D01*
X210447738Y-119259761D01*
X210495357Y-119164523D01*
X210495357Y-119069285D01*
X210447738Y-118974047D01*
X210352500Y-118926428D01*
X210114404Y-118926428D01*
X210019166Y-118878809D01*
X209542976Y-119307380D02*
X209542976Y-118640714D01*
X209542976Y-118831190D02*
X209495357Y-118735952D01*
X209447738Y-118688333D01*
X209352500Y-118640714D01*
X209257261Y-118640714D01*
X208542976Y-119259761D02*
X208638214Y-119307380D01*
X208828690Y-119307380D01*
X208923928Y-119259761D01*
X208971547Y-119164523D01*
X208971547Y-118783571D01*
X208923928Y-118688333D01*
X208828690Y-118640714D01*
X208638214Y-118640714D01*
X208542976Y-118688333D01*
X208495357Y-118783571D01*
X208495357Y-118878809D01*
X208971547Y-118974047D01*
X207304880Y-119307380D02*
X207304880Y-118640714D01*
X207304880Y-118307380D02*
X207352500Y-118355000D01*
X207304880Y-118402619D01*
X207257261Y-118355000D01*
X207304880Y-118307380D01*
X207304880Y-118402619D01*
X206876309Y-119259761D02*
X206781071Y-119307380D01*
X206590595Y-119307380D01*
X206495357Y-119259761D01*
X206447738Y-119164523D01*
X206447738Y-119116904D01*
X206495357Y-119021666D01*
X206590595Y-118974047D01*
X206733452Y-118974047D01*
X206828690Y-118926428D01*
X206876309Y-118831190D01*
X206876309Y-118783571D01*
X206828690Y-118688333D01*
X206733452Y-118640714D01*
X206590595Y-118640714D01*
X206495357Y-118688333D01*
X205114404Y-119307380D02*
X205209642Y-119259761D01*
X205257261Y-119164523D01*
X205257261Y-118307380D01*
X204733452Y-119307380D02*
X204733452Y-118640714D01*
X204733452Y-118307380D02*
X204781071Y-118355000D01*
X204733452Y-118402619D01*
X204685833Y-118355000D01*
X204733452Y-118307380D01*
X204733452Y-118402619D01*
X203828690Y-119259761D02*
X203923928Y-119307380D01*
X204114404Y-119307380D01*
X204209642Y-119259761D01*
X204257261Y-119212142D01*
X204304880Y-119116904D01*
X204304880Y-118831190D01*
X204257261Y-118735952D01*
X204209642Y-118688333D01*
X204114404Y-118640714D01*
X203923928Y-118640714D01*
X203828690Y-118688333D01*
X203019166Y-119259761D02*
X203114404Y-119307380D01*
X203304880Y-119307380D01*
X203400119Y-119259761D01*
X203447738Y-119164523D01*
X203447738Y-118783571D01*
X203400119Y-118688333D01*
X203304880Y-118640714D01*
X203114404Y-118640714D01*
X203019166Y-118688333D01*
X202971547Y-118783571D01*
X202971547Y-118878809D01*
X203447738Y-118974047D01*
X202542976Y-118640714D02*
X202542976Y-119307380D01*
X202542976Y-118735952D02*
X202495357Y-118688333D01*
X202400119Y-118640714D01*
X202257261Y-118640714D01*
X202162023Y-118688333D01*
X202114404Y-118783571D01*
X202114404Y-119307380D01*
X201685833Y-119259761D02*
X201590595Y-119307380D01*
X201400119Y-119307380D01*
X201304880Y-119259761D01*
X201257261Y-119164523D01*
X201257261Y-119116904D01*
X201304880Y-119021666D01*
X201400119Y-118974047D01*
X201542976Y-118974047D01*
X201638214Y-118926428D01*
X201685833Y-118831190D01*
X201685833Y-118783571D01*
X201638214Y-118688333D01*
X201542976Y-118640714D01*
X201400119Y-118640714D01*
X201304880Y-118688333D01*
X200447738Y-119259761D02*
X200542976Y-119307380D01*
X200733452Y-119307380D01*
X200828690Y-119259761D01*
X200876309Y-119164523D01*
X200876309Y-118783571D01*
X200828690Y-118688333D01*
X200733452Y-118640714D01*
X200542976Y-118640714D01*
X200447738Y-118688333D01*
X200400119Y-118783571D01*
X200400119Y-118878809D01*
X200876309Y-118974047D01*
X199542976Y-119307380D02*
X199542976Y-118307380D01*
X199542976Y-119259761D02*
X199638214Y-119307380D01*
X199828690Y-119307380D01*
X199923928Y-119259761D01*
X199971547Y-119212142D01*
X200019166Y-119116904D01*
X200019166Y-118831190D01*
X199971547Y-118735952D01*
X199923928Y-118688333D01*
X199828690Y-118640714D01*
X199638214Y-118640714D01*
X199542976Y-118688333D01*
X197876309Y-118640714D02*
X197876309Y-119307380D01*
X198304880Y-118640714D02*
X198304880Y-119164523D01*
X198257261Y-119259761D01*
X198162023Y-119307380D01*
X198019166Y-119307380D01*
X197923928Y-119259761D01*
X197876309Y-119212142D01*
X197400119Y-118640714D02*
X197400119Y-119307380D01*
X197400119Y-118735952D02*
X197352500Y-118688333D01*
X197257261Y-118640714D01*
X197114404Y-118640714D01*
X197019166Y-118688333D01*
X196971547Y-118783571D01*
X196971547Y-119307380D01*
X196066785Y-119307380D02*
X196066785Y-118307380D01*
X196066785Y-119259761D02*
X196162023Y-119307380D01*
X196352500Y-119307380D01*
X196447738Y-119259761D01*
X196495357Y-119212142D01*
X196542976Y-119116904D01*
X196542976Y-118831190D01*
X196495357Y-118735952D01*
X196447738Y-118688333D01*
X196352500Y-118640714D01*
X196162023Y-118640714D01*
X196066785Y-118688333D01*
X195209642Y-119259761D02*
X195304880Y-119307380D01*
X195495357Y-119307380D01*
X195590595Y-119259761D01*
X195638214Y-119164523D01*
X195638214Y-118783571D01*
X195590595Y-118688333D01*
X195495357Y-118640714D01*
X195304880Y-118640714D01*
X195209642Y-118688333D01*
X195162023Y-118783571D01*
X195162023Y-118878809D01*
X195638214Y-118974047D01*
X194733452Y-119307380D02*
X194733452Y-118640714D01*
X194733452Y-118831190D02*
X194685833Y-118735952D01*
X194638214Y-118688333D01*
X194542976Y-118640714D01*
X194447738Y-118640714D01*
X193495357Y-118640714D02*
X193114404Y-118640714D01*
X193352500Y-118307380D02*
X193352500Y-119164523D01*
X193304880Y-119259761D01*
X193209642Y-119307380D01*
X193114404Y-119307380D01*
X192781071Y-119307380D02*
X192781071Y-118307380D01*
X192352500Y-119307380D02*
X192352500Y-118783571D01*
X192400119Y-118688333D01*
X192495357Y-118640714D01*
X192638214Y-118640714D01*
X192733452Y-118688333D01*
X192781071Y-118735952D01*
X191495357Y-119259761D02*
X191590595Y-119307380D01*
X191781071Y-119307380D01*
X191876309Y-119259761D01*
X191923928Y-119164523D01*
X191923928Y-118783571D01*
X191876309Y-118688333D01*
X191781071Y-118640714D01*
X191590595Y-118640714D01*
X191495357Y-118688333D01*
X191447738Y-118783571D01*
X191447738Y-118878809D01*
X191923928Y-118974047D01*
X189685833Y-119212142D02*
X189733452Y-119259761D01*
X189876309Y-119307380D01*
X189971547Y-119307380D01*
X190114404Y-119259761D01*
X190209642Y-119164523D01*
X190257261Y-119069285D01*
X190304880Y-118878809D01*
X190304880Y-118735952D01*
X190257261Y-118545476D01*
X190209642Y-118450238D01*
X190114404Y-118355000D01*
X189971547Y-118307380D01*
X189876309Y-118307380D01*
X189733452Y-118355000D01*
X189685833Y-118402619D01*
X189257261Y-118783571D02*
X188923928Y-118783571D01*
X188781071Y-119307380D02*
X189257261Y-119307380D01*
X189257261Y-118307380D01*
X188781071Y-118307380D01*
X187781071Y-119307380D02*
X188114404Y-118831190D01*
X188352500Y-119307380D02*
X188352500Y-118307380D01*
X187971547Y-118307380D01*
X187876309Y-118355000D01*
X187828690Y-118402619D01*
X187781071Y-118497857D01*
X187781071Y-118640714D01*
X187828690Y-118735952D01*
X187876309Y-118783571D01*
X187971547Y-118831190D01*
X188352500Y-118831190D01*
X187352500Y-119307380D02*
X187352500Y-118307380D01*
X186781071Y-119307380D01*
X186781071Y-118307380D01*
X185352500Y-118307380D02*
X185162023Y-118307380D01*
X185066785Y-118355000D01*
X184971547Y-118450238D01*
X184923928Y-118640714D01*
X184923928Y-118974047D01*
X184971547Y-119164523D01*
X185066785Y-119259761D01*
X185162023Y-119307380D01*
X185352500Y-119307380D01*
X185447738Y-119259761D01*
X185542976Y-119164523D01*
X185590595Y-118974047D01*
X185590595Y-118640714D01*
X185542976Y-118450238D01*
X185447738Y-118355000D01*
X185352500Y-118307380D01*
X184495357Y-119307380D02*
X184495357Y-118307380D01*
X184495357Y-118783571D02*
X183923928Y-118783571D01*
X183923928Y-119307380D02*
X183923928Y-118307380D01*
X182971547Y-119307380D02*
X183447738Y-119307380D01*
X183447738Y-118307380D01*
X181971547Y-118640714D02*
X181733452Y-119307380D01*
X181495357Y-118640714D01*
X180590595Y-119307380D02*
X181162023Y-119307380D01*
X180876309Y-119307380D02*
X180876309Y-118307380D01*
X180971547Y-118450238D01*
X181066785Y-118545476D01*
X181162023Y-118593095D01*
X180162023Y-119212142D02*
X180114404Y-119259761D01*
X180162023Y-119307380D01*
X180209642Y-119259761D01*
X180162023Y-119212142D01*
X180162023Y-119307380D01*
X179733452Y-118402619D02*
X179685833Y-118355000D01*
X179590595Y-118307380D01*
X179352500Y-118307380D01*
X179257261Y-118355000D01*
X179209642Y-118402619D01*
X179162023Y-118497857D01*
X179162023Y-118593095D01*
X179209642Y-118735952D01*
X179781071Y-119307380D01*
X179162023Y-119307380D01*
M02*
