<svg id="Layer_1" data-name="Layer 1" xmlns="http://www.w3.org/2000/svg" viewBox="0 0 841.89 595.28"><title>under_construction</title><rect width="841.89" height="595.28" style="fill:#0c3742"/><path d="M301.12,403.07c.2,12,5.94,20.44,15.72,26.46,2.32,1.43,2.55,2,1.52,4.45l-17.29,41.74c-.18.42-.39.83-.54,1.27-.42,1.21-1.18,1.42-2.27.84-2.34-1.25-4.75-2.4-7-3.78a4.1,4.1,0,0,0-5.06.28c-5.72,4-11.51,8-17.27,12-2.38,1.64-3,1.58-5-.44l-16.28-16.28c-1.78-1.78-1.86-2.46-.45-4.49,4.15-6,8.27-12.06,12.48-18a4.74,4.74,0,0,0,.54-5c-2.29-5.52-4.49-11.07-6.67-16.63a4.65,4.65,0,0,0-3.8-3.12c-7.54-1.37-15.06-2.81-22.6-4.16a2.3,2.3,0,0,1-2.17-2.61q0-12.43,0-24.87a2.16,2.16,0,0,1,2-2.42c7.69-1.41,15.36-2.9,23.06-4.23a5.06,5.06,0,0,0,4.31-3.33q3.17-7.8,6.61-15.49a4.36,4.36,0,0,0-.47-4.72c-4.45-6.37-8.84-12.78-13.25-19.18-1.59-2.32-1.58-2.48.44-4.51l16.49-16.5c1.78-1.78,2.41-1.83,4.49-.4,6.4,4.41,12.82,8.78,19.17,13.26a5,5,0,0,0,5.52.6c4.8-2.13,9.7-4.06,14.6-6a4.72,4.72,0,0,0,3.2-3.9c1.43-8,2.92-16,4.38-24,.37-2,.68-2.28,2.72-2.28h24.56c2.09,0,2.33.22,2.71,2.27q2.19,12,4.39,24a4.89,4.89,0,0,0,3.22,3.94c5.08,2,10.14,4.07,15.17,6.19a4.08,4.08,0,0,0,4.3-.45c6.5-4.53,13-9,19.56-13.5,2.3-1.59,3-1.47,5,.5q8.15,8.24,16.36,16.42c1.81,1.81,1.85,2,.4,4.15-4.42,6.45-8.82,12.91-13.31,19.32a4.41,4.41,0,0,0-.49,4.83q3.48,7.75,6.7,15.62a4.53,4.53,0,0,0,3.67,3c7.54,1.34,15.08,2.73,22.62,4.08,2.46.44,3.06,1.15,3.05,3.55q0,11.59,0,23.18c0,2.54-.48,3.14-2.95,3.59-7.29,1.33-14.57,2.68-21.86,4a4.65,4.65,0,0,0-3.81,3.12q-3.33,8.48-6.78,16.92a4.28,4.28,0,0,0,.48,4.46c4.24,6.08,8.42,12.2,12.63,18.3,1.56,2.27,1.55,2.39-.42,4.36L396.49,486.4c-1.5,1.5-1.89,1.54-3.67.32-6-4.14-12.08-8.24-18-12.45a4,4,0,0,0-4.92-.25c-2.17,1.33-4.47,2.46-6.73,3.64-1.61.84-2,.71-2.7-.89q-9-21.64-17.92-43.3c-.78-1.88-.53-2.54,1.28-3.65,6.1-3.76,11.06-8.53,13.9-15.28,7.64-18.18-5.07-39-24.69-40.44a29.33,29.33,0,0,0-31.47,24.47A20.8,20.8,0,0,0,301.12,403.07Z" style="fill:#93a1a1"/><path d="M465.1,291c.2,12,5.94,20.44,15.72,26.46,2.32,1.43,2.55,2,1.52,4.45L465,363.65c-.18.42-.39.83-.54,1.27-.42,1.21-1.18,1.42-2.27.84-2.34-1.25-4.75-2.4-7-3.78a4.1,4.1,0,0,0-5.06.28c-5.72,4-11.51,8-17.27,12-2.38,1.64-3,1.58-5-.44l-16.28-16.28c-1.78-1.78-1.86-2.46-.45-4.49,4.15-6,8.27-12.06,12.48-18a4.74,4.74,0,0,0,.54-5c-2.29-5.52-4.49-11.07-6.67-16.63a4.65,4.65,0,0,0-3.8-3.12c-7.54-1.37-15.06-2.81-22.6-4.16a2.3,2.3,0,0,1-2.17-2.61q0-12.43,0-24.87a2.16,2.16,0,0,1,2-2.42c7.69-1.41,15.36-2.9,23.06-4.23a5.06,5.06,0,0,0,4.31-3.33q3.17-7.8,6.61-15.49a4.36,4.36,0,0,0-.47-4.72c-4.45-6.37-8.84-12.78-13.25-19.18-1.59-2.32-1.58-2.48.44-4.51l16.49-16.5c1.78-1.78,2.41-1.83,4.49-.4,6.4,4.41,12.82,8.78,19.17,13.26a5,5,0,0,0,5.52.6c4.8-2.13,9.7-4.06,14.6-6a4.72,4.72,0,0,0,3.2-3.9c1.43-8,2.92-16,4.38-24,.37-2,.68-2.28,2.72-2.28h24.56c2.09,0,2.33.22,2.71,2.27q2.19,12,4.39,24a4.89,4.89,0,0,0,3.22,3.94c5.08,2,10.14,4.07,15.17,6.19a4.08,4.08,0,0,0,4.3-.45c6.5-4.53,13-9,19.56-13.5,2.3-1.59,3-1.47,5,.5q8.15,8.24,16.36,16.42c1.81,1.81,1.85,2,.4,4.15-4.42,6.45-8.82,12.91-13.31,19.32a4.41,4.41,0,0,0-.49,4.83q3.48,7.75,6.7,15.62a4.53,4.53,0,0,0,3.67,3c7.54,1.34,15.08,2.73,22.62,4.08,2.46.44,3.06,1.15,3.05,3.55q0,11.59,0,23.18c0,2.54-.48,3.14-2.95,3.59-7.29,1.33-14.57,2.68-21.86,4a4.65,4.65,0,0,0-3.81,3.12q-3.33,8.48-6.78,16.92a4.28,4.28,0,0,0,.48,4.46c4.24,6.08,8.42,12.2,12.63,18.3,1.56,2.27,1.55,2.39-.42,4.36l-16.93,16.93c-1.5,1.5-1.89,1.54-3.67.32-6-4.14-12.08-8.24-18-12.45a4,4,0,0,0-4.92-.25c-2.17,1.33-4.47,2.46-6.73,3.64-1.61.84-2,.71-2.7-.89q-9-21.64-17.92-43.3c-.78-1.88-.53-2.54,1.28-3.65,6.1-3.76,11.06-8.53,13.9-15.28,7.64-18.18-5.07-39-24.69-40.44a29.33,29.33,0,0,0-31.47,24.47A20.8,20.8,0,0,0,465.1,291Z" style="fill:#93a1a1"/><path d="M337.93,193.19c.12,7.38,3.66,12.57,9.67,16.27,1.43.88,1.57,1.21.94,2.74L337.9,237.86c-.11.26-.24.51-.33.78-.26.74-.73.87-1.39.52-1.44-.77-2.92-1.47-4.31-2.32a2.52,2.52,0,0,0-3.11.17c-3.52,2.49-7.08,4.91-10.62,7.36-1.46,1-1.83,1-3.07-.27l-10-10c-1.09-1.09-1.14-1.51-.28-2.76,2.55-3.7,5.09-7.41,7.67-11.09a2.91,2.91,0,0,0,.33-3.08c-1.41-3.39-2.76-6.81-4.1-10.23a2.86,2.86,0,0,0-2.34-1.92c-4.64-.84-9.26-1.73-13.9-2.56a1.41,1.41,0,0,1-1.33-1.6q0-7.65,0-15.29a1.33,1.33,0,0,1,1.23-1.49c4.73-.86,9.45-1.78,14.18-2.6a3.11,3.11,0,0,0,2.65-2q2-4.8,4.07-9.53a2.68,2.68,0,0,0-.29-2.9c-2.74-3.92-5.44-7.86-8.15-11.8-1-1.42-1-1.53.27-2.77l10.14-10.15c1.09-1.09,1.48-1.13,2.76-.25,3.93,2.71,7.89,5.4,11.79,8.16a3.09,3.09,0,0,0,3.4.37c3-1.31,6-2.5,9-3.67a2.9,2.9,0,0,0,2-2.4c.88-4.92,1.79-9.83,2.69-14.74.23-1.24.42-1.4,1.67-1.4h15.1c1.28,0,1.44.14,1.67,1.39q1.35,7.37,2.7,14.74a3,3,0,0,0,2,2.42c3.12,1.24,6.24,2.5,9.33,3.8a2.51,2.51,0,0,0,2.64-.28c4-2.78,8-5.54,12-8.31,1.41-1,1.87-.9,3.07.31q5,5.07,10.06,10.1c1.11,1.11,1.14,1.25.24,2.55-2.72,4-5.43,7.94-8.19,11.88a2.71,2.71,0,0,0-.3,3q2.14,4.77,4.12,9.61a2.79,2.79,0,0,0,2.26,1.87c4.64.82,9.27,1.68,13.91,2.51,1.51.27,1.88.71,1.88,2.18q0,7.13,0,14.25c0,1.56-.29,1.93-1.81,2.21-4.48.82-9,1.65-13.44,2.45a2.86,2.86,0,0,0-2.34,1.92q-2,5.22-4.17,10.41a2.63,2.63,0,0,0,.3,2.74c2.61,3.74,5.18,7.5,7.77,11.26,1,1.39,1,1.47-.26,2.68l-10.41,10.41c-.92.92-1.16.95-2.26.19-3.71-2.54-7.43-5.07-11.1-7.66a2.44,2.44,0,0,0-3-.16c-1.34.82-2.75,1.51-4.14,2.24-1,.52-1.25.44-1.66-.54q-5.52-13.31-11-26.63c-.48-1.16-.33-1.56.78-2.25a20.25,20.25,0,0,0,8.55-9.4,18.07,18.07,0,1,0-34.54-9.82A12.79,12.79,0,0,0,337.93,193.19Z" style="fill:#93a1a1"/><path d="M613.21,198.08c.12,7.38,3.66,12.57,9.67,16.27,1.43.88,1.57,1.21.94,2.74l-10.63,25.67c-.11.26-.24.51-.33.78-.26.74-.73.87-1.39.52-1.44-.77-2.92-1.47-4.31-2.32a2.52,2.52,0,0,0-3.11.17c-3.52,2.49-7.08,4.91-10.62,7.36-1.46,1-1.83,1-3.07-.27l-10-10c-1.09-1.09-1.14-1.51-.28-2.76,2.55-3.7,5.09-7.41,7.67-11.09a2.91,2.91,0,0,0,.33-3.08c-1.41-3.39-2.76-6.81-4.1-10.23a2.86,2.86,0,0,0-2.34-1.92c-4.64-.84-9.26-1.73-13.9-2.56a1.41,1.41,0,0,1-1.33-1.6q0-7.65,0-15.29a1.33,1.33,0,0,1,1.23-1.49c4.73-.86,9.45-1.78,14.18-2.6a3.11,3.11,0,0,0,2.65-2q2-4.8,4.07-9.53a2.68,2.68,0,0,0-.29-2.9c-2.74-3.92-5.44-7.86-8.15-11.8-1-1.42-1-1.53.27-2.77l10.14-10.15c1.09-1.09,1.48-1.13,2.76-.25,3.93,2.71,7.89,5.4,11.79,8.16a3.09,3.09,0,0,0,3.4.37c3-1.31,6-2.5,9-3.67a2.9,2.9,0,0,0,2-2.4c.88-4.92,1.79-9.83,2.69-14.74.23-1.24.42-1.4,1.67-1.4h15.1c1.28,0,1.44.14,1.67,1.39q1.35,7.37,2.7,14.74a3,3,0,0,0,2,2.42c3.12,1.24,6.24,2.5,9.33,3.8a2.51,2.51,0,0,0,2.64-.28c4-2.78,8-5.54,12-8.31,1.41-1,1.87-.9,3.07.31q5,5.07,10.06,10.1c1.11,1.11,1.14,1.25.24,2.55-2.72,4-5.43,7.94-8.19,11.88a2.71,2.71,0,0,0-.3,3q2.14,4.77,4.12,9.61a2.79,2.79,0,0,0,2.26,1.87c4.64.82,9.27,1.68,13.91,2.51,1.51.27,1.88.71,1.88,2.18q0,7.13,0,14.25c0,1.56-.29,1.93-1.81,2.21-4.48.82-9,1.65-13.44,2.45a2.86,2.86,0,0,0-2.34,1.92q-2,5.22-4.17,10.41a2.63,2.63,0,0,0,.3,2.74c2.61,3.74,5.18,7.5,7.77,11.26,1,1.39,1,1.47-.26,2.68l-10.41,10.41c-.92.92-1.16.95-2.26.19-3.71-2.54-7.43-5.07-11.1-7.66a2.44,2.44,0,0,0-3-.16c-1.34.82-2.75,1.51-4.14,2.24-1,.52-1.25.44-1.66-.54q-5.52-13.31-11-26.63c-.48-1.16-.33-1.56.78-2.25a20.25,20.25,0,0,0,8.55-9.4,18.07,18.07,0,1,0-34.54-9.82A12.79,12.79,0,0,0,613.21,198.08Z" style="fill:#93a1a1"/><path d="M613.21,389.86c.12,7.38,3.66,12.57,9.67,16.27,1.43.88,1.57,1.21.94,2.74l-10.63,25.67c-.11.26-.24.51-.33.78-.26.74-.73.87-1.39.52-1.44-.77-2.92-1.47-4.31-2.32a2.52,2.52,0,0,0-3.11.17c-3.52,2.49-7.08,4.91-10.62,7.36-1.46,1-1.83,1-3.07-.27l-10-10c-1.09-1.09-1.14-1.51-.28-2.76,2.55-3.7,5.09-7.41,7.67-11.09a2.91,2.91,0,0,0,.33-3.08c-1.41-3.39-2.76-6.81-4.1-10.23a2.86,2.86,0,0,0-2.34-1.92c-4.64-.84-9.26-1.73-13.9-2.56a1.41,1.41,0,0,1-1.33-1.6q0-7.65,0-15.29a1.33,1.33,0,0,1,1.23-1.49c4.73-.86,9.45-1.78,14.18-2.6a3.11,3.11,0,0,0,2.65-2q2-4.8,4.07-9.53a2.68,2.68,0,0,0-.29-2.9c-2.74-3.92-5.44-7.86-8.15-11.8-1-1.42-1-1.53.27-2.77L590.49,339c1.09-1.09,1.48-1.13,2.76-.25,3.93,2.71,7.89,5.4,11.79,8.16a3.09,3.09,0,0,0,3.4.37c3-1.31,6-2.5,9-3.67a2.9,2.9,0,0,0,2-2.4c.88-4.92,1.79-9.83,2.69-14.74.23-1.24.42-1.4,1.67-1.4h15.1c1.28,0,1.44.14,1.67,1.39q1.35,7.37,2.7,14.74a3,3,0,0,0,2,2.42c3.12,1.24,6.24,2.5,9.33,3.8a2.51,2.51,0,0,0,2.64-.28c4-2.78,8-5.54,12-8.31,1.41-1,1.87-.9,3.07.31q5,5.07,10.06,10.1c1.11,1.11,1.14,1.25.24,2.55-2.72,4-5.43,7.94-8.19,11.88a2.71,2.71,0,0,0-.3,3q2.14,4.77,4.12,9.61a2.79,2.79,0,0,0,2.26,1.87c4.64.82,9.27,1.68,13.91,2.51,1.51.27,1.88.71,1.88,2.18q0,7.13,0,14.25c0,1.56-.29,1.93-1.81,2.21-4.48.82-9,1.65-13.44,2.45a2.86,2.86,0,0,0-2.34,1.92q-2,5.22-4.17,10.41a2.63,2.63,0,0,0,.3,2.74c2.61,3.74,5.18,7.5,7.77,11.26,1,1.39,1,1.47-.26,2.68l-10.41,10.41c-.92.92-1.16.95-2.26.19-3.71-2.54-7.43-5.07-11.1-7.66a2.44,2.44,0,0,0-3-.16c-1.34.82-2.75,1.51-4.14,2.24-1,.52-1.25.44-1.66-.54q-5.52-13.31-11-26.63c-.48-1.16-.33-1.56.78-2.25a20.25,20.25,0,0,0,8.55-9.4,18.07,18.07,0,1,0-34.54-9.82A12.79,12.79,0,0,0,613.21,389.86Z" style="fill:#93a1a1"/><text transform="translate(230.2 58.33)" style="font-size:54px;fill:#93a1a1;font-family:ArialNarrow, Arial">Under Construction</text></svg>