%TF.GenerationSoftware,KiCad,Pcbnew,9.0.3*%
%TF.CreationDate,2025-08-06T15:24:12+02:00*%
%TF.ProjectId,Spikeling_v3.0,5370696b-656c-4696-9e67-5f76332e302e,rev?*%
%TF.SameCoordinates,Original*%
%TF.FileFunction,Other,User*%
%FSLAX46Y46*%
G04 Gerber Fmt 4.6, Leading zero omitted, Abs format (unit mm)*
G04 Created by KiCad (PCBNEW 9.0.3) date 2025-08-06 15:24:12*
%MOMM*%
%LPD*%
G01*
G04 APERTURE LIST*
%ADD10C,0.000000*%
G04 APERTURE END LIST*
D10*
%TO.C,VR2*%
G36*
X150480000Y-124150000D02*
G01*
X148960000Y-124150000D01*
X148960000Y-123850000D01*
X150480000Y-123850000D01*
X150480000Y-124150000D01*
G37*
G36*
X159280000Y-124150000D02*
G01*
X157760000Y-124150000D01*
X157760000Y-123850000D01*
X159280000Y-123850000D01*
X159280000Y-124150000D01*
G37*
G36*
X151792208Y-116584254D02*
G01*
X151893943Y-116642991D01*
X151977009Y-116726057D01*
X152035746Y-116827792D01*
X152066150Y-116941263D01*
X152066150Y-117058737D01*
X152035746Y-117172208D01*
X151977009Y-117273943D01*
X151893943Y-117357009D01*
X151792208Y-117415746D01*
X151678737Y-117446150D01*
X151561263Y-117446150D01*
X151447792Y-117415746D01*
X151346057Y-117357009D01*
X151262991Y-117273943D01*
X151204254Y-117172208D01*
X151173850Y-117058737D01*
X151173850Y-116941263D01*
X151204254Y-116827792D01*
X151262991Y-116726057D01*
X151346057Y-116642991D01*
X151447792Y-116584254D01*
X151561263Y-116553850D01*
X151678737Y-116553850D01*
X151792208Y-116584254D01*
G37*
G36*
X154292208Y-116584254D02*
G01*
X154393943Y-116642991D01*
X154477009Y-116726057D01*
X154535746Y-116827792D01*
X154566150Y-116941263D01*
X154566150Y-117058737D01*
X154535746Y-117172208D01*
X154477009Y-117273943D01*
X154393943Y-117357009D01*
X154292208Y-117415746D01*
X154178737Y-117446150D01*
X154061263Y-117446150D01*
X153947792Y-117415746D01*
X153846057Y-117357009D01*
X153762991Y-117273943D01*
X153704254Y-117172208D01*
X153673850Y-117058737D01*
X153673850Y-116941263D01*
X153704254Y-116827792D01*
X153762991Y-116726057D01*
X153846057Y-116642991D01*
X153947792Y-116584254D01*
X154061263Y-116553850D01*
X154178737Y-116553850D01*
X154292208Y-116584254D01*
G37*
G36*
X156792208Y-116584254D02*
G01*
X156893943Y-116642991D01*
X156977009Y-116726057D01*
X157035746Y-116827792D01*
X157066150Y-116941263D01*
X157066150Y-117058737D01*
X157035746Y-117172208D01*
X156977009Y-117273943D01*
X156893943Y-117357009D01*
X156792208Y-117415746D01*
X156678737Y-117446150D01*
X156561263Y-117446150D01*
X156447792Y-117415746D01*
X156346057Y-117357009D01*
X156262991Y-117273943D01*
X156204254Y-117172208D01*
X156173850Y-117058737D01*
X156173850Y-116941263D01*
X156204254Y-116827792D01*
X156262991Y-116726057D01*
X156346057Y-116642991D01*
X156447792Y-116584254D01*
X156561263Y-116553850D01*
X156678737Y-116553850D01*
X156792208Y-116584254D01*
G37*
%TO.C,U3*%
G36*
X132700000Y-75770000D02*
G01*
X132000000Y-75770000D01*
X132000000Y-75340000D01*
X132700000Y-75340000D01*
X132700000Y-75770000D01*
G37*
G36*
X132700000Y-77040000D02*
G01*
X132000000Y-77040000D01*
X132000000Y-76610000D01*
X132700000Y-76610000D01*
X132700000Y-77040000D01*
G37*
G36*
X132700000Y-78310000D02*
G01*
X132000000Y-78310000D01*
X132000000Y-77880000D01*
X132700000Y-77880000D01*
X132700000Y-78310000D01*
G37*
G36*
X132700000Y-79580000D02*
G01*
X132000000Y-79580000D01*
X132000000Y-79150000D01*
X132700000Y-79150000D01*
X132700000Y-79580000D01*
G37*
G36*
X132700000Y-80850000D02*
G01*
X132000000Y-80850000D01*
X132000000Y-80420000D01*
X132700000Y-80420000D01*
X132700000Y-80850000D01*
G37*
G36*
X132700000Y-82120000D02*
G01*
X132000000Y-82120000D01*
X132000000Y-81690000D01*
X132700000Y-81690000D01*
X132700000Y-82120000D01*
G37*
G36*
X132700000Y-83390000D02*
G01*
X132000000Y-83390000D01*
X132000000Y-82960000D01*
X132700000Y-82960000D01*
X132700000Y-83390000D01*
G37*
G36*
X132700000Y-84660000D02*
G01*
X132000000Y-84660000D01*
X132000000Y-84230000D01*
X132700000Y-84230000D01*
X132700000Y-84660000D01*
G37*
G36*
X133060000Y-75770000D02*
G01*
X132690000Y-75770000D01*
X132690000Y-75340000D01*
X133060000Y-75340000D01*
X133060000Y-75770000D01*
G37*
G36*
X133060000Y-77040000D02*
G01*
X132690000Y-77040000D01*
X132690000Y-76610000D01*
X133060000Y-76610000D01*
X133060000Y-77040000D01*
G37*
G36*
X133060000Y-78310000D02*
G01*
X132690000Y-78310000D01*
X132690000Y-77880000D01*
X133060000Y-77880000D01*
X133060000Y-78310000D01*
G37*
G36*
X133060000Y-79580000D02*
G01*
X132690000Y-79580000D01*
X132690000Y-79150000D01*
X133060000Y-79150000D01*
X133060000Y-79580000D01*
G37*
G36*
X133060000Y-80850000D02*
G01*
X132690000Y-80850000D01*
X132690000Y-80420000D01*
X133060000Y-80420000D01*
X133060000Y-80850000D01*
G37*
G36*
X133060000Y-82120000D02*
G01*
X132690000Y-82120000D01*
X132690000Y-81690000D01*
X133060000Y-81690000D01*
X133060000Y-82120000D01*
G37*
G36*
X133060000Y-83390000D02*
G01*
X132690000Y-83390000D01*
X132690000Y-82960000D01*
X133060000Y-82960000D01*
X133060000Y-83390000D01*
G37*
G36*
X133060000Y-84660000D02*
G01*
X132690000Y-84660000D01*
X132690000Y-84230000D01*
X133060000Y-84230000D01*
X133060000Y-84660000D01*
G37*
G36*
X137310000Y-75770000D02*
G01*
X136940000Y-75770000D01*
X136940000Y-75340000D01*
X137310000Y-75340000D01*
X137310000Y-75770000D01*
G37*
G36*
X137310000Y-77040000D02*
G01*
X136940000Y-77040000D01*
X136940000Y-76610000D01*
X137310000Y-76610000D01*
X137310000Y-77040000D01*
G37*
G36*
X137310000Y-78310000D02*
G01*
X136940000Y-78310000D01*
X136940000Y-77880000D01*
X137310000Y-77880000D01*
X137310000Y-78310000D01*
G37*
G36*
X137310000Y-79580000D02*
G01*
X136940000Y-79580000D01*
X136940000Y-79150000D01*
X137310000Y-79150000D01*
X137310000Y-79580000D01*
G37*
G36*
X137310000Y-80850000D02*
G01*
X136940000Y-80850000D01*
X136940000Y-80420000D01*
X137310000Y-80420000D01*
X137310000Y-80850000D01*
G37*
G36*
X137310000Y-82120000D02*
G01*
X136940000Y-82120000D01*
X136940000Y-81690000D01*
X137310000Y-81690000D01*
X137310000Y-82120000D01*
G37*
G36*
X137310000Y-83390000D02*
G01*
X136940000Y-83390000D01*
X136940000Y-82960000D01*
X137310000Y-82960000D01*
X137310000Y-83390000D01*
G37*
G36*
X137310000Y-84660000D02*
G01*
X136940000Y-84660000D01*
X136940000Y-84230000D01*
X137310000Y-84230000D01*
X137310000Y-84660000D01*
G37*
G36*
X138000000Y-75770000D02*
G01*
X137300000Y-75770000D01*
X137300000Y-75340000D01*
X138000000Y-75340000D01*
X138000000Y-75770000D01*
G37*
G36*
X138000000Y-77040000D02*
G01*
X137300000Y-77040000D01*
X137300000Y-76610000D01*
X138000000Y-76610000D01*
X138000000Y-77040000D01*
G37*
G36*
X138000000Y-78310000D02*
G01*
X137300000Y-78310000D01*
X137300000Y-77880000D01*
X138000000Y-77880000D01*
X138000000Y-78310000D01*
G37*
G36*
X138000000Y-79580000D02*
G01*
X137300000Y-79580000D01*
X137300000Y-79150000D01*
X138000000Y-79150000D01*
X138000000Y-79580000D01*
G37*
G36*
X138000000Y-80850000D02*
G01*
X137300000Y-80850000D01*
X137300000Y-80420000D01*
X138000000Y-80420000D01*
X138000000Y-80850000D01*
G37*
G36*
X138000000Y-82120000D02*
G01*
X137300000Y-82120000D01*
X137300000Y-81690000D01*
X138000000Y-81690000D01*
X138000000Y-82120000D01*
G37*
G36*
X138000000Y-83390000D02*
G01*
X137300000Y-83390000D01*
X137300000Y-82960000D01*
X138000000Y-82960000D01*
X138000000Y-83390000D01*
G37*
G36*
X138000000Y-84660000D02*
G01*
X137300000Y-84660000D01*
X137300000Y-84230000D01*
X138000000Y-84230000D01*
X138000000Y-84660000D01*
G37*
%TO.C,J4*%
G36*
X102500000Y-88500000D02*
G01*
X101500000Y-88500000D01*
X101500000Y-86950000D01*
X102500000Y-86950000D01*
X102500000Y-88500000D01*
G37*
G36*
X104500000Y-81050000D02*
G01*
X103500000Y-81050000D01*
X103500000Y-79500000D01*
X104500000Y-79500000D01*
X104500000Y-81050000D01*
G37*
G36*
X109500000Y-88500000D02*
G01*
X108500000Y-88500000D01*
X108500000Y-86950000D01*
X109500000Y-86950000D01*
X109500000Y-88500000D01*
G37*
%TO.C,J5*%
G36*
X211050000Y-126500000D02*
G01*
X209500000Y-126500000D01*
X209500000Y-125500000D01*
X211050000Y-125500000D01*
X211050000Y-126500000D01*
G37*
G36*
X218500000Y-121500000D02*
G01*
X216950000Y-121500000D01*
X216950000Y-120500000D01*
X218500000Y-120500000D01*
X218500000Y-121500000D01*
G37*
G36*
X218500000Y-128500000D02*
G01*
X216950000Y-128500000D01*
X216950000Y-127500000D01*
X218500000Y-127500000D01*
X218500000Y-128500000D01*
G37*
%TO.C,VR1*%
G36*
X114910000Y-124150000D02*
G01*
X113390000Y-124150000D01*
X113390000Y-123850000D01*
X114910000Y-123850000D01*
X114910000Y-124150000D01*
G37*
G36*
X123710000Y-124150000D02*
G01*
X122190000Y-124150000D01*
X122190000Y-123850000D01*
X123710000Y-123850000D01*
X123710000Y-124150000D01*
G37*
G36*
X116222208Y-116584254D02*
G01*
X116323943Y-116642991D01*
X116407009Y-116726057D01*
X116465746Y-116827792D01*
X116496150Y-116941263D01*
X116496150Y-117058737D01*
X116465746Y-117172208D01*
X116407009Y-117273943D01*
X116323943Y-117357009D01*
X116222208Y-117415746D01*
X116108737Y-117446150D01*
X115991263Y-117446150D01*
X115877792Y-117415746D01*
X115776057Y-117357009D01*
X115692991Y-117273943D01*
X115634254Y-117172208D01*
X115603850Y-117058737D01*
X115603850Y-116941263D01*
X115634254Y-116827792D01*
X115692991Y-116726057D01*
X115776057Y-116642991D01*
X115877792Y-116584254D01*
X115991263Y-116553850D01*
X116108737Y-116553850D01*
X116222208Y-116584254D01*
G37*
G36*
X118722208Y-116584254D02*
G01*
X118823943Y-116642991D01*
X118907009Y-116726057D01*
X118965746Y-116827792D01*
X118996150Y-116941263D01*
X118996150Y-117058737D01*
X118965746Y-117172208D01*
X118907009Y-117273943D01*
X118823943Y-117357009D01*
X118722208Y-117415746D01*
X118608737Y-117446150D01*
X118491263Y-117446150D01*
X118377792Y-117415746D01*
X118276057Y-117357009D01*
X118192991Y-117273943D01*
X118134254Y-117172208D01*
X118103850Y-117058737D01*
X118103850Y-116941263D01*
X118134254Y-116827792D01*
X118192991Y-116726057D01*
X118276057Y-116642991D01*
X118377792Y-116584254D01*
X118491263Y-116553850D01*
X118608737Y-116553850D01*
X118722208Y-116584254D01*
G37*
G36*
X121222208Y-116584254D02*
G01*
X121323943Y-116642991D01*
X121407009Y-116726057D01*
X121465746Y-116827792D01*
X121496150Y-116941263D01*
X121496150Y-117058737D01*
X121465746Y-117172208D01*
X121407009Y-117273943D01*
X121323943Y-117357009D01*
X121222208Y-117415746D01*
X121108737Y-117446150D01*
X120991263Y-117446150D01*
X120877792Y-117415746D01*
X120776057Y-117357009D01*
X120692991Y-117273943D01*
X120634254Y-117172208D01*
X120603850Y-117058737D01*
X120603850Y-116941263D01*
X120634254Y-116827792D01*
X120692991Y-116726057D01*
X120776057Y-116642991D01*
X120877792Y-116584254D01*
X120991263Y-116553850D01*
X121108737Y-116553850D01*
X121222208Y-116584254D01*
G37*
%TO.C,D7*%
G36*
X169950000Y-60275000D02*
G01*
X169050000Y-60275000D01*
X169050000Y-59575000D01*
X169950000Y-59575000D01*
X169950000Y-60275000D01*
G37*
G36*
X169950000Y-61775000D02*
G01*
X169050000Y-61775000D01*
X169050000Y-61075000D01*
X169950000Y-61075000D01*
X169950000Y-61775000D01*
G37*
G36*
X172550000Y-60275000D02*
G01*
X171650000Y-60275000D01*
X171650000Y-59575000D01*
X172550000Y-59575000D01*
X172550000Y-60275000D01*
G37*
G36*
X172550000Y-61775000D02*
G01*
X171650000Y-61775000D01*
X171650000Y-61075000D01*
X172550000Y-61075000D01*
X172550000Y-61775000D01*
G37*
%TO.C,VR5*%
G36*
X209360000Y-108750000D02*
G01*
X207840000Y-108750000D01*
X207840000Y-108450000D01*
X209360000Y-108450000D01*
X209360000Y-108750000D01*
G37*
G36*
X218160000Y-108750000D02*
G01*
X216640000Y-108750000D01*
X216640000Y-108450000D01*
X218160000Y-108450000D01*
X218160000Y-108750000D01*
G37*
G36*
X210672208Y-101184254D02*
G01*
X210773943Y-101242991D01*
X210857009Y-101326057D01*
X210915746Y-101427792D01*
X210946150Y-101541263D01*
X210946150Y-101658737D01*
X210915746Y-101772208D01*
X210857009Y-101873943D01*
X210773943Y-101957009D01*
X210672208Y-102015746D01*
X210558737Y-102046150D01*
X210441263Y-102046150D01*
X210327792Y-102015746D01*
X210226057Y-101957009D01*
X210142991Y-101873943D01*
X210084254Y-101772208D01*
X210053850Y-101658737D01*
X210053850Y-101541263D01*
X210084254Y-101427792D01*
X210142991Y-101326057D01*
X210226057Y-101242991D01*
X210327792Y-101184254D01*
X210441263Y-101153850D01*
X210558737Y-101153850D01*
X210672208Y-101184254D01*
G37*
G36*
X213172208Y-101184254D02*
G01*
X213273943Y-101242991D01*
X213357009Y-101326057D01*
X213415746Y-101427792D01*
X213446150Y-101541263D01*
X213446150Y-101658737D01*
X213415746Y-101772208D01*
X213357009Y-101873943D01*
X213273943Y-101957009D01*
X213172208Y-102015746D01*
X213058737Y-102046150D01*
X212941263Y-102046150D01*
X212827792Y-102015746D01*
X212726057Y-101957009D01*
X212642991Y-101873943D01*
X212584254Y-101772208D01*
X212553850Y-101658737D01*
X212553850Y-101541263D01*
X212584254Y-101427792D01*
X212642991Y-101326057D01*
X212726057Y-101242991D01*
X212827792Y-101184254D01*
X212941263Y-101153850D01*
X213058737Y-101153850D01*
X213172208Y-101184254D01*
G37*
G36*
X215672208Y-101184254D02*
G01*
X215773943Y-101242991D01*
X215857009Y-101326057D01*
X215915746Y-101427792D01*
X215946150Y-101541263D01*
X215946150Y-101658737D01*
X215915746Y-101772208D01*
X215857009Y-101873943D01*
X215773943Y-101957009D01*
X215672208Y-102015746D01*
X215558737Y-102046150D01*
X215441263Y-102046150D01*
X215327792Y-102015746D01*
X215226057Y-101957009D01*
X215142991Y-101873943D01*
X215084254Y-101772208D01*
X215053850Y-101658737D01*
X215053850Y-101541263D01*
X215084254Y-101427792D01*
X215142991Y-101326057D01*
X215226057Y-101242991D01*
X215327792Y-101184254D01*
X215441263Y-101153850D01*
X215558737Y-101153850D01*
X215672208Y-101184254D01*
G37*
%TO.C,U5*%
G36*
X132050000Y-123207500D02*
G01*
X131500000Y-123207500D01*
X131500000Y-122892500D01*
X132050000Y-122892500D01*
X132050000Y-123207500D01*
G37*
G36*
X132050000Y-123857500D02*
G01*
X131500000Y-123857500D01*
X131500000Y-123542500D01*
X132050000Y-123542500D01*
X132050000Y-123857500D01*
G37*
G36*
X132050000Y-124507500D02*
G01*
X131500000Y-124507500D01*
X131500000Y-124192500D01*
X132050000Y-124192500D01*
X132050000Y-124507500D01*
G37*
G36*
X132050000Y-125157500D02*
G01*
X131500000Y-125157500D01*
X131500000Y-124842500D01*
X132050000Y-124842500D01*
X132050000Y-125157500D01*
G37*
G36*
X132460000Y-123207500D02*
G01*
X132040000Y-123207500D01*
X132040000Y-122892500D01*
X132460000Y-122892500D01*
X132460000Y-123207500D01*
G37*
G36*
X132460000Y-123857500D02*
G01*
X132040000Y-123857500D01*
X132040000Y-123542500D01*
X132460000Y-123542500D01*
X132460000Y-123857500D01*
G37*
G36*
X132460000Y-124507500D02*
G01*
X132040000Y-124507500D01*
X132040000Y-124192500D01*
X132460000Y-124192500D01*
X132460000Y-124507500D01*
G37*
G36*
X132460000Y-125157500D02*
G01*
X132040000Y-125157500D01*
X132040000Y-124842500D01*
X132460000Y-124842500D01*
X132460000Y-125157500D01*
G37*
G36*
X135860000Y-123207500D02*
G01*
X135440000Y-123207500D01*
X135440000Y-122892500D01*
X135860000Y-122892500D01*
X135860000Y-123207500D01*
G37*
G36*
X135860000Y-123857500D02*
G01*
X135440000Y-123857500D01*
X135440000Y-123542500D01*
X135860000Y-123542500D01*
X135860000Y-123857500D01*
G37*
G36*
X135860000Y-124507500D02*
G01*
X135440000Y-124507500D01*
X135440000Y-124192500D01*
X135860000Y-124192500D01*
X135860000Y-124507500D01*
G37*
G36*
X135860000Y-125157500D02*
G01*
X135440000Y-125157500D01*
X135440000Y-124842500D01*
X135860000Y-124842500D01*
X135860000Y-125157500D01*
G37*
G36*
X136400000Y-123207500D02*
G01*
X135850000Y-123207500D01*
X135850000Y-122892500D01*
X136400000Y-122892500D01*
X136400000Y-123207500D01*
G37*
G36*
X136400000Y-123857500D02*
G01*
X135850000Y-123857500D01*
X135850000Y-123542500D01*
X136400000Y-123542500D01*
X136400000Y-123857500D01*
G37*
G36*
X136400000Y-124507500D02*
G01*
X135850000Y-124507500D01*
X135850000Y-124192500D01*
X136400000Y-124192500D01*
X136400000Y-124507500D01*
G37*
G36*
X136400000Y-125157500D02*
G01*
X135850000Y-125157500D01*
X135850000Y-124842500D01*
X136400000Y-124842500D01*
X136400000Y-125157500D01*
G37*
%TO.C,J6*%
G36*
X211500000Y-61050000D02*
G01*
X210500000Y-61050000D01*
X210500000Y-59500000D01*
X211500000Y-59500000D01*
X211500000Y-61050000D01*
G37*
G36*
X216500000Y-68500000D02*
G01*
X215500000Y-68500000D01*
X215500000Y-66950000D01*
X216500000Y-66950000D01*
X216500000Y-68500000D01*
G37*
G36*
X218500000Y-61050000D02*
G01*
X217500000Y-61050000D01*
X217500000Y-59500000D01*
X218500000Y-59500000D01*
X218500000Y-61050000D01*
G37*
%TO.C,J3*%
G36*
X102500000Y-60600000D02*
G01*
X101500000Y-60600000D01*
X101500000Y-59050000D01*
X102500000Y-59050000D01*
X102500000Y-60600000D01*
G37*
G36*
X104500000Y-53150000D02*
G01*
X103500000Y-53150000D01*
X103500000Y-51600000D01*
X104500000Y-51600000D01*
X104500000Y-53150000D01*
G37*
G36*
X109500000Y-60600000D02*
G01*
X108500000Y-60600000D01*
X108500000Y-59050000D01*
X109500000Y-59050000D01*
X109500000Y-60600000D01*
G37*
%TO.C,SW3*%
G36*
X176650000Y-55750000D02*
G01*
X176350000Y-55750000D01*
X176350000Y-53740000D01*
X176650000Y-53740000D01*
X176650000Y-55750000D01*
G37*
G36*
X176650000Y-55750000D02*
G01*
X176350000Y-55750000D01*
X176350000Y-54750000D01*
X176650000Y-54750000D01*
X176650000Y-55750000D01*
G37*
G36*
X178100000Y-52875000D02*
G01*
X177400000Y-52875000D01*
X177400000Y-52625000D01*
X178100000Y-52625000D01*
X178100000Y-52875000D01*
G37*
G36*
X182600000Y-52875000D02*
G01*
X181900000Y-52875000D01*
X181900000Y-52625000D01*
X182600000Y-52625000D01*
X182600000Y-52875000D01*
G37*
G36*
X183650000Y-55750000D02*
G01*
X183350000Y-55750000D01*
X183350000Y-53740000D01*
X183650000Y-53740000D01*
X183650000Y-55750000D01*
G37*
G36*
X183650000Y-55750000D02*
G01*
X183350000Y-55750000D01*
X183350000Y-54750000D01*
X183650000Y-54750000D01*
X183650000Y-55750000D01*
G37*
%TO.C,SW2*%
G36*
X126650000Y-55750000D02*
G01*
X126350000Y-55750000D01*
X126350000Y-53740000D01*
X126650000Y-53740000D01*
X126650000Y-55750000D01*
G37*
G36*
X126650000Y-55750000D02*
G01*
X126350000Y-55750000D01*
X126350000Y-54750000D01*
X126650000Y-54750000D01*
X126650000Y-55750000D01*
G37*
G36*
X128100000Y-52875000D02*
G01*
X127400000Y-52875000D01*
X127400000Y-52625000D01*
X128100000Y-52625000D01*
X128100000Y-52875000D01*
G37*
G36*
X132600000Y-52875000D02*
G01*
X131900000Y-52875000D01*
X131900000Y-52625000D01*
X132600000Y-52625000D01*
X132600000Y-52875000D01*
G37*
G36*
X133650000Y-55750000D02*
G01*
X133350000Y-55750000D01*
X133350000Y-53740000D01*
X133650000Y-53740000D01*
X133650000Y-55750000D01*
G37*
G36*
X133650000Y-55750000D02*
G01*
X133350000Y-55750000D01*
X133350000Y-54750000D01*
X133650000Y-54750000D01*
X133650000Y-55750000D01*
G37*
%TO.C,D2*%
G36*
X157787000Y-62147500D02*
G01*
X157450000Y-62147500D01*
X157450000Y-61847500D01*
X157787000Y-61847500D01*
X157787000Y-62147500D01*
G37*
G36*
X159050000Y-62150000D02*
G01*
X158713000Y-62150000D01*
X158713000Y-61850000D01*
X159050000Y-61850000D01*
X159050000Y-62150000D01*
G37*
%TO.C,D6*%
G36*
X138650000Y-124425000D02*
G01*
X138150000Y-124425000D01*
X138150000Y-123625000D01*
X138650000Y-123625000D01*
X138650000Y-124425000D01*
G37*
G36*
X139160000Y-124825000D02*
G01*
X138640000Y-124825000D01*
X138640000Y-123225000D01*
X139160000Y-123225000D01*
X139160000Y-124825000D01*
G37*
G36*
X144060000Y-124825000D02*
G01*
X143540000Y-124825000D01*
X143540000Y-123225000D01*
X144060000Y-123225000D01*
X144060000Y-124825000D01*
G37*
G36*
X144550000Y-124825000D02*
G01*
X144050000Y-124825000D01*
X144050000Y-123225000D01*
X144550000Y-123225000D01*
X144550000Y-124825000D01*
G37*
%TO.C,D4*%
G36*
X152872500Y-61550000D02*
G01*
X152572500Y-61550000D01*
X152572500Y-61213000D01*
X152872500Y-61213000D01*
X152872500Y-61550000D01*
G37*
G36*
X152875000Y-60287000D02*
G01*
X152575000Y-60287000D01*
X152575000Y-59950000D01*
X152875000Y-59950000D01*
X152875000Y-60287000D01*
G37*
%TO.C,VR6*%
G36*
X103360000Y-70550000D02*
G01*
X101840000Y-70550000D01*
X101840000Y-70250000D01*
X103360000Y-70250000D01*
X103360000Y-70550000D01*
G37*
G36*
X112160000Y-70550000D02*
G01*
X110640000Y-70550000D01*
X110640000Y-70250000D01*
X112160000Y-70250000D01*
X112160000Y-70550000D01*
G37*
G36*
X104672208Y-62984254D02*
G01*
X104773943Y-63042991D01*
X104857009Y-63126057D01*
X104915746Y-63227792D01*
X104946150Y-63341263D01*
X104946150Y-63458737D01*
X104915746Y-63572208D01*
X104857009Y-63673943D01*
X104773943Y-63757009D01*
X104672208Y-63815746D01*
X104558737Y-63846150D01*
X104441263Y-63846150D01*
X104327792Y-63815746D01*
X104226057Y-63757009D01*
X104142991Y-63673943D01*
X104084254Y-63572208D01*
X104053850Y-63458737D01*
X104053850Y-63341263D01*
X104084254Y-63227792D01*
X104142991Y-63126057D01*
X104226057Y-63042991D01*
X104327792Y-62984254D01*
X104441263Y-62953850D01*
X104558737Y-62953850D01*
X104672208Y-62984254D01*
G37*
G36*
X107172208Y-62984254D02*
G01*
X107273943Y-63042991D01*
X107357009Y-63126057D01*
X107415746Y-63227792D01*
X107446150Y-63341263D01*
X107446150Y-63458737D01*
X107415746Y-63572208D01*
X107357009Y-63673943D01*
X107273943Y-63757009D01*
X107172208Y-63815746D01*
X107058737Y-63846150D01*
X106941263Y-63846150D01*
X106827792Y-63815746D01*
X106726057Y-63757009D01*
X106642991Y-63673943D01*
X106584254Y-63572208D01*
X106553850Y-63458737D01*
X106553850Y-63341263D01*
X106584254Y-63227792D01*
X106642991Y-63126057D01*
X106726057Y-63042991D01*
X106827792Y-62984254D01*
X106941263Y-62953850D01*
X107058737Y-62953850D01*
X107172208Y-62984254D01*
G37*
G36*
X109672208Y-62984254D02*
G01*
X109773943Y-63042991D01*
X109857009Y-63126057D01*
X109915746Y-63227792D01*
X109946150Y-63341263D01*
X109946150Y-63458737D01*
X109915746Y-63572208D01*
X109857009Y-63673943D01*
X109773943Y-63757009D01*
X109672208Y-63815746D01*
X109558737Y-63846150D01*
X109441263Y-63846150D01*
X109327792Y-63815746D01*
X109226057Y-63757009D01*
X109142991Y-63673943D01*
X109084254Y-63572208D01*
X109053850Y-63458737D01*
X109053850Y-63341263D01*
X109084254Y-63227792D01*
X109142991Y-63126057D01*
X109226057Y-63042991D01*
X109327792Y-62984254D01*
X109441263Y-62953850D01*
X109558737Y-62953850D01*
X109672208Y-62984254D01*
G37*
%TO.C,L1*%
G36*
X151166000Y-56637500D02*
G01*
X150766000Y-56637500D01*
X150766000Y-55362500D01*
X151166000Y-55362500D01*
X151166000Y-56637500D01*
G37*
G36*
X152766000Y-56637500D02*
G01*
X152366000Y-56637500D01*
X152366000Y-55362500D01*
X152766000Y-55362500D01*
X152766000Y-56637500D01*
G37*
%TO.C,U4*%
G36*
X182700000Y-75770000D02*
G01*
X182000000Y-75770000D01*
X182000000Y-75340000D01*
X182700000Y-75340000D01*
X182700000Y-75770000D01*
G37*
G36*
X182700000Y-77040000D02*
G01*
X182000000Y-77040000D01*
X182000000Y-76610000D01*
X182700000Y-76610000D01*
X182700000Y-77040000D01*
G37*
G36*
X182700000Y-78310000D02*
G01*
X182000000Y-78310000D01*
X182000000Y-77880000D01*
X182700000Y-77880000D01*
X182700000Y-78310000D01*
G37*
G36*
X182700000Y-79580000D02*
G01*
X182000000Y-79580000D01*
X182000000Y-79150000D01*
X182700000Y-79150000D01*
X182700000Y-79580000D01*
G37*
G36*
X182700000Y-80850000D02*
G01*
X182000000Y-80850000D01*
X182000000Y-80420000D01*
X182700000Y-80420000D01*
X182700000Y-80850000D01*
G37*
G36*
X182700000Y-82120000D02*
G01*
X182000000Y-82120000D01*
X182000000Y-81690000D01*
X182700000Y-81690000D01*
X182700000Y-82120000D01*
G37*
G36*
X182700000Y-83390000D02*
G01*
X182000000Y-83390000D01*
X182000000Y-82960000D01*
X182700000Y-82960000D01*
X182700000Y-83390000D01*
G37*
G36*
X182700000Y-84660000D02*
G01*
X182000000Y-84660000D01*
X182000000Y-84230000D01*
X182700000Y-84230000D01*
X182700000Y-84660000D01*
G37*
G36*
X183060000Y-75770000D02*
G01*
X182690000Y-75770000D01*
X182690000Y-75340000D01*
X183060000Y-75340000D01*
X183060000Y-75770000D01*
G37*
G36*
X183060000Y-77040000D02*
G01*
X182690000Y-77040000D01*
X182690000Y-76610000D01*
X183060000Y-76610000D01*
X183060000Y-77040000D01*
G37*
G36*
X183060000Y-78310000D02*
G01*
X182690000Y-78310000D01*
X182690000Y-77880000D01*
X183060000Y-77880000D01*
X183060000Y-78310000D01*
G37*
G36*
X183060000Y-79580000D02*
G01*
X182690000Y-79580000D01*
X182690000Y-79150000D01*
X183060000Y-79150000D01*
X183060000Y-79580000D01*
G37*
G36*
X183060000Y-80850000D02*
G01*
X182690000Y-80850000D01*
X182690000Y-80420000D01*
X183060000Y-80420000D01*
X183060000Y-80850000D01*
G37*
G36*
X183060000Y-82120000D02*
G01*
X182690000Y-82120000D01*
X182690000Y-81690000D01*
X183060000Y-81690000D01*
X183060000Y-82120000D01*
G37*
G36*
X183060000Y-83390000D02*
G01*
X182690000Y-83390000D01*
X182690000Y-82960000D01*
X183060000Y-82960000D01*
X183060000Y-83390000D01*
G37*
G36*
X183060000Y-84660000D02*
G01*
X182690000Y-84660000D01*
X182690000Y-84230000D01*
X183060000Y-84230000D01*
X183060000Y-84660000D01*
G37*
G36*
X187310000Y-75770000D02*
G01*
X186940000Y-75770000D01*
X186940000Y-75340000D01*
X187310000Y-75340000D01*
X187310000Y-75770000D01*
G37*
G36*
X187310000Y-77040000D02*
G01*
X186940000Y-77040000D01*
X186940000Y-76610000D01*
X187310000Y-76610000D01*
X187310000Y-77040000D01*
G37*
G36*
X187310000Y-78310000D02*
G01*
X186940000Y-78310000D01*
X186940000Y-77880000D01*
X187310000Y-77880000D01*
X187310000Y-78310000D01*
G37*
G36*
X187310000Y-79580000D02*
G01*
X186940000Y-79580000D01*
X186940000Y-79150000D01*
X187310000Y-79150000D01*
X187310000Y-79580000D01*
G37*
G36*
X187310000Y-80850000D02*
G01*
X186940000Y-80850000D01*
X186940000Y-80420000D01*
X187310000Y-80420000D01*
X187310000Y-80850000D01*
G37*
G36*
X187310000Y-82120000D02*
G01*
X186940000Y-82120000D01*
X186940000Y-81690000D01*
X187310000Y-81690000D01*
X187310000Y-82120000D01*
G37*
G36*
X187310000Y-83390000D02*
G01*
X186940000Y-83390000D01*
X186940000Y-82960000D01*
X187310000Y-82960000D01*
X187310000Y-83390000D01*
G37*
G36*
X187310000Y-84660000D02*
G01*
X186940000Y-84660000D01*
X186940000Y-84230000D01*
X187310000Y-84230000D01*
X187310000Y-84660000D01*
G37*
G36*
X188000000Y-75770000D02*
G01*
X187300000Y-75770000D01*
X187300000Y-75340000D01*
X188000000Y-75340000D01*
X188000000Y-75770000D01*
G37*
G36*
X188000000Y-77040000D02*
G01*
X187300000Y-77040000D01*
X187300000Y-76610000D01*
X188000000Y-76610000D01*
X188000000Y-77040000D01*
G37*
G36*
X188000000Y-78310000D02*
G01*
X187300000Y-78310000D01*
X187300000Y-77880000D01*
X188000000Y-77880000D01*
X188000000Y-78310000D01*
G37*
G36*
X188000000Y-79580000D02*
G01*
X187300000Y-79580000D01*
X187300000Y-79150000D01*
X188000000Y-79150000D01*
X188000000Y-79580000D01*
G37*
G36*
X188000000Y-80850000D02*
G01*
X187300000Y-80850000D01*
X187300000Y-80420000D01*
X188000000Y-80420000D01*
X188000000Y-80850000D01*
G37*
G36*
X188000000Y-82120000D02*
G01*
X187300000Y-82120000D01*
X187300000Y-81690000D01*
X188000000Y-81690000D01*
X188000000Y-82120000D01*
G37*
G36*
X188000000Y-83390000D02*
G01*
X187300000Y-83390000D01*
X187300000Y-82960000D01*
X188000000Y-82960000D01*
X188000000Y-83390000D01*
G37*
G36*
X188000000Y-84660000D02*
G01*
X187300000Y-84660000D01*
X187300000Y-84230000D01*
X188000000Y-84230000D01*
X188000000Y-84660000D01*
G37*
%TO.C,VR3*%
G36*
X172860000Y-124150000D02*
G01*
X171340000Y-124150000D01*
X171340000Y-123850000D01*
X172860000Y-123850000D01*
X172860000Y-124150000D01*
G37*
G36*
X181660000Y-124150000D02*
G01*
X180140000Y-124150000D01*
X180140000Y-123850000D01*
X181660000Y-123850000D01*
X181660000Y-124150000D01*
G37*
G36*
X174172208Y-116584254D02*
G01*
X174273943Y-116642991D01*
X174357009Y-116726057D01*
X174415746Y-116827792D01*
X174446150Y-116941263D01*
X174446150Y-117058737D01*
X174415746Y-117172208D01*
X174357009Y-117273943D01*
X174273943Y-117357009D01*
X174172208Y-117415746D01*
X174058737Y-117446150D01*
X173941263Y-117446150D01*
X173827792Y-117415746D01*
X173726057Y-117357009D01*
X173642991Y-117273943D01*
X173584254Y-117172208D01*
X173553850Y-117058737D01*
X173553850Y-116941263D01*
X173584254Y-116827792D01*
X173642991Y-116726057D01*
X173726057Y-116642991D01*
X173827792Y-116584254D01*
X173941263Y-116553850D01*
X174058737Y-116553850D01*
X174172208Y-116584254D01*
G37*
G36*
X176672208Y-116584254D02*
G01*
X176773943Y-116642991D01*
X176857009Y-116726057D01*
X176915746Y-116827792D01*
X176946150Y-116941263D01*
X176946150Y-117058737D01*
X176915746Y-117172208D01*
X176857009Y-117273943D01*
X176773943Y-117357009D01*
X176672208Y-117415746D01*
X176558737Y-117446150D01*
X176441263Y-117446150D01*
X176327792Y-117415746D01*
X176226057Y-117357009D01*
X176142991Y-117273943D01*
X176084254Y-117172208D01*
X176053850Y-117058737D01*
X176053850Y-116941263D01*
X176084254Y-116827792D01*
X176142991Y-116726057D01*
X176226057Y-116642991D01*
X176327792Y-116584254D01*
X176441263Y-116553850D01*
X176558737Y-116553850D01*
X176672208Y-116584254D01*
G37*
G36*
X179172208Y-116584254D02*
G01*
X179273943Y-116642991D01*
X179357009Y-116726057D01*
X179415746Y-116827792D01*
X179446150Y-116941263D01*
X179446150Y-117058737D01*
X179415746Y-117172208D01*
X179357009Y-117273943D01*
X179273943Y-117357009D01*
X179172208Y-117415746D01*
X179058737Y-117446150D01*
X178941263Y-117446150D01*
X178827792Y-117415746D01*
X178726057Y-117357009D01*
X178642991Y-117273943D01*
X178584254Y-117172208D01*
X178553850Y-117058737D01*
X178553850Y-116941263D01*
X178584254Y-116827792D01*
X178642991Y-116726057D01*
X178726057Y-116642991D01*
X178827792Y-116584254D01*
X178941263Y-116553850D01*
X179058737Y-116553850D01*
X179172208Y-116584254D01*
G37*
%TO.C,SW4*%
G36*
X196650000Y-55750000D02*
G01*
X196350000Y-55750000D01*
X196350000Y-53740000D01*
X196650000Y-53740000D01*
X196650000Y-55750000D01*
G37*
G36*
X196650000Y-55750000D02*
G01*
X196350000Y-55750000D01*
X196350000Y-54750000D01*
X196650000Y-54750000D01*
X196650000Y-55750000D01*
G37*
G36*
X198100000Y-52875000D02*
G01*
X197400000Y-52875000D01*
X197400000Y-52625000D01*
X198100000Y-52625000D01*
X198100000Y-52875000D01*
G37*
G36*
X202600000Y-52875000D02*
G01*
X201900000Y-52875000D01*
X201900000Y-52625000D01*
X202600000Y-52625000D01*
X202600000Y-52875000D01*
G37*
G36*
X203650000Y-55750000D02*
G01*
X203350000Y-55750000D01*
X203350000Y-53740000D01*
X203650000Y-53740000D01*
X203650000Y-55750000D01*
G37*
G36*
X203650000Y-55750000D02*
G01*
X203350000Y-55750000D01*
X203350000Y-54750000D01*
X203650000Y-54750000D01*
X203650000Y-55750000D01*
G37*
%TO.C,D1*%
G36*
X155500000Y-60160000D02*
G01*
X155200000Y-60160000D01*
X155200000Y-59840000D01*
X155500000Y-59840000D01*
X155500000Y-60160000D01*
G37*
G36*
X155610000Y-60160000D02*
G01*
X155490000Y-60160000D01*
X155490000Y-59840000D01*
X155610000Y-59840000D01*
X155610000Y-60160000D01*
G37*
G36*
X157410000Y-60160000D02*
G01*
X157290000Y-60160000D01*
X157290000Y-59840000D01*
X157410000Y-59840000D01*
X157410000Y-60160000D01*
G37*
G36*
X157700000Y-60160000D02*
G01*
X157400000Y-60160000D01*
X157400000Y-59840000D01*
X157700000Y-59840000D01*
X157700000Y-60160000D01*
G37*
%TO.C,D3*%
G36*
X162287000Y-62150000D02*
G01*
X161950000Y-62150000D01*
X161950000Y-61850000D01*
X162287000Y-61850000D01*
X162287000Y-62150000D01*
G37*
G36*
X163550000Y-62152500D02*
G01*
X163213000Y-62152500D01*
X163213000Y-61852500D01*
X163550000Y-61852500D01*
X163550000Y-62152500D01*
G37*
%TO.C,J2*%
G36*
X103050000Y-126500000D02*
G01*
X101500000Y-126500000D01*
X101500000Y-125500000D01*
X103050000Y-125500000D01*
X103050000Y-126500000D01*
G37*
G36*
X110500000Y-121500000D02*
G01*
X108950000Y-121500000D01*
X108950000Y-120500000D01*
X110500000Y-120500000D01*
X110500000Y-121500000D01*
G37*
G36*
X110500000Y-128500000D02*
G01*
X108950000Y-128500000D01*
X108950000Y-127500000D01*
X110500000Y-127500000D01*
X110500000Y-128500000D01*
G37*
%TO.C,VR7*%
G36*
X103360000Y-98550000D02*
G01*
X101840000Y-98550000D01*
X101840000Y-98250000D01*
X103360000Y-98250000D01*
X103360000Y-98550000D01*
G37*
G36*
X112160000Y-98550000D02*
G01*
X110640000Y-98550000D01*
X110640000Y-98250000D01*
X112160000Y-98250000D01*
X112160000Y-98550000D01*
G37*
G36*
X104672208Y-90984254D02*
G01*
X104773943Y-91042991D01*
X104857009Y-91126057D01*
X104915746Y-91227792D01*
X104946150Y-91341263D01*
X104946150Y-91458737D01*
X104915746Y-91572208D01*
X104857009Y-91673943D01*
X104773943Y-91757009D01*
X104672208Y-91815746D01*
X104558737Y-91846150D01*
X104441263Y-91846150D01*
X104327792Y-91815746D01*
X104226057Y-91757009D01*
X104142991Y-91673943D01*
X104084254Y-91572208D01*
X104053850Y-91458737D01*
X104053850Y-91341263D01*
X104084254Y-91227792D01*
X104142991Y-91126057D01*
X104226057Y-91042991D01*
X104327792Y-90984254D01*
X104441263Y-90953850D01*
X104558737Y-90953850D01*
X104672208Y-90984254D01*
G37*
G36*
X107172208Y-90984254D02*
G01*
X107273943Y-91042991D01*
X107357009Y-91126057D01*
X107415746Y-91227792D01*
X107446150Y-91341263D01*
X107446150Y-91458737D01*
X107415746Y-91572208D01*
X107357009Y-91673943D01*
X107273943Y-91757009D01*
X107172208Y-91815746D01*
X107058737Y-91846150D01*
X106941263Y-91846150D01*
X106827792Y-91815746D01*
X106726057Y-91757009D01*
X106642991Y-91673943D01*
X106584254Y-91572208D01*
X106553850Y-91458737D01*
X106553850Y-91341263D01*
X106584254Y-91227792D01*
X106642991Y-91126057D01*
X106726057Y-91042991D01*
X106827792Y-90984254D01*
X106941263Y-90953850D01*
X107058737Y-90953850D01*
X107172208Y-90984254D01*
G37*
G36*
X109672208Y-90984254D02*
G01*
X109773943Y-91042991D01*
X109857009Y-91126057D01*
X109915746Y-91227792D01*
X109946150Y-91341263D01*
X109946150Y-91458737D01*
X109915746Y-91572208D01*
X109857009Y-91673943D01*
X109773943Y-91757009D01*
X109672208Y-91815746D01*
X109558737Y-91846150D01*
X109441263Y-91846150D01*
X109327792Y-91815746D01*
X109226057Y-91757009D01*
X109142991Y-91673943D01*
X109084254Y-91572208D01*
X109053850Y-91458737D01*
X109053850Y-91341263D01*
X109084254Y-91227792D01*
X109142991Y-91126057D01*
X109226057Y-91042991D01*
X109327792Y-90984254D01*
X109441263Y-90953850D01*
X109558737Y-90953850D01*
X109672208Y-90984254D01*
G37*
%TO.C,VR4*%
G36*
X209360000Y-83122000D02*
G01*
X207840000Y-83122000D01*
X207840000Y-82822000D01*
X209360000Y-82822000D01*
X209360000Y-83122000D01*
G37*
G36*
X218160000Y-83122000D02*
G01*
X216640000Y-83122000D01*
X216640000Y-82822000D01*
X218160000Y-82822000D01*
X218160000Y-83122000D01*
G37*
G36*
X210672208Y-75556254D02*
G01*
X210773943Y-75614991D01*
X210857009Y-75698057D01*
X210915746Y-75799792D01*
X210946150Y-75913263D01*
X210946150Y-76030737D01*
X210915746Y-76144208D01*
X210857009Y-76245943D01*
X210773943Y-76329009D01*
X210672208Y-76387746D01*
X210558737Y-76418150D01*
X210441263Y-76418150D01*
X210327792Y-76387746D01*
X210226057Y-76329009D01*
X210142991Y-76245943D01*
X210084254Y-76144208D01*
X210053850Y-76030737D01*
X210053850Y-75913263D01*
X210084254Y-75799792D01*
X210142991Y-75698057D01*
X210226057Y-75614991D01*
X210327792Y-75556254D01*
X210441263Y-75525850D01*
X210558737Y-75525850D01*
X210672208Y-75556254D01*
G37*
G36*
X213172208Y-75556254D02*
G01*
X213273943Y-75614991D01*
X213357009Y-75698057D01*
X213415746Y-75799792D01*
X213446150Y-75913263D01*
X213446150Y-76030737D01*
X213415746Y-76144208D01*
X213357009Y-76245943D01*
X213273943Y-76329009D01*
X213172208Y-76387746D01*
X213058737Y-76418150D01*
X212941263Y-76418150D01*
X212827792Y-76387746D01*
X212726057Y-76329009D01*
X212642991Y-76245943D01*
X212584254Y-76144208D01*
X212553850Y-76030737D01*
X212553850Y-75913263D01*
X212584254Y-75799792D01*
X212642991Y-75698057D01*
X212726057Y-75614991D01*
X212827792Y-75556254D01*
X212941263Y-75525850D01*
X213058737Y-75525850D01*
X213172208Y-75556254D01*
G37*
G36*
X215672208Y-75556254D02*
G01*
X215773943Y-75614991D01*
X215857009Y-75698057D01*
X215915746Y-75799792D01*
X215946150Y-75913263D01*
X215946150Y-76030737D01*
X215915746Y-76144208D01*
X215857009Y-76245943D01*
X215773943Y-76329009D01*
X215672208Y-76387746D01*
X215558737Y-76418150D01*
X215441263Y-76418150D01*
X215327792Y-76387746D01*
X215226057Y-76329009D01*
X215142991Y-76245943D01*
X215084254Y-76144208D01*
X215053850Y-76030737D01*
X215053850Y-75913263D01*
X215084254Y-75799792D01*
X215142991Y-75698057D01*
X215226057Y-75614991D01*
X215327792Y-75556254D01*
X215441263Y-75525850D01*
X215558737Y-75525850D01*
X215672208Y-75556254D01*
G37*
%TD*%
M02*
