%TF.GenerationSoftware,KiCad,Pcbnew,9.0.3*%
%TF.CreationDate,2025-08-06T15:24:12+02:00*%
%TF.ProjectId,Spikeling_v3.0,5370696b-656c-4696-9e67-5f76332e302e,rev?*%
%TF.SameCoordinates,Original*%
%TF.FileFunction,Other,User*%
%FSLAX46Y46*%
G04 Gerber Fmt 4.6, Leading zero omitted, Abs format (unit mm)*
G04 Created by KiCad (PCBNEW 9.0.3) date 2025-08-06 15:24:12*
%MOMM*%
%LPD*%
G01*
G04 APERTURE LIST*
%ADD10C,0.000000*%
G04 APERTURE END LIST*
D10*
%TO.C,VR2*%
G36*
X159825433Y-116127039D02*
G01*
X159825433Y-116172961D01*
X159792961Y-116205433D01*
X159747039Y-116205433D01*
X159714567Y-116172961D01*
X159714567Y-116127039D01*
X159747039Y-116094567D01*
X159792961Y-116094567D01*
X159825433Y-116127039D01*
G37*
%TO.C,U3*%
G36*
X132055433Y-75027039D02*
G01*
X132055433Y-75072961D01*
X132022961Y-75105433D01*
X131977039Y-75105433D01*
X131944567Y-75072961D01*
X131944567Y-75027039D01*
X131977039Y-74994567D01*
X132022961Y-74994567D01*
X132055433Y-75027039D01*
G37*
%TO.C,J4*%
G36*
X96955433Y-88477039D02*
G01*
X96955433Y-88522961D01*
X96922961Y-88555433D01*
X96877039Y-88555433D01*
X96844567Y-88522961D01*
X96844567Y-88477039D01*
X96877039Y-88444567D01*
X96922961Y-88444567D01*
X96955433Y-88477039D01*
G37*
%TO.C,J5*%
G36*
X218555433Y-133077039D02*
G01*
X218555433Y-133122961D01*
X218522961Y-133155433D01*
X218477039Y-133155433D01*
X218444567Y-133122961D01*
X218444567Y-133077039D01*
X218477039Y-133044567D01*
X218522961Y-133044567D01*
X218555433Y-133077039D01*
G37*
%TO.C,VR1*%
G36*
X124255433Y-116127039D02*
G01*
X124255433Y-116172961D01*
X124222961Y-116205433D01*
X124177039Y-116205433D01*
X124144567Y-116172961D01*
X124144567Y-116127039D01*
X124177039Y-116094567D01*
X124222961Y-116094567D01*
X124255433Y-116127039D01*
G37*
%TO.C,D7*%
G36*
X169105433Y-62052039D02*
G01*
X169105433Y-62097961D01*
X169072961Y-62130433D01*
X169027039Y-62130433D01*
X168994567Y-62097961D01*
X168994567Y-62052039D01*
X169027039Y-62019567D01*
X169072961Y-62019567D01*
X169105433Y-62052039D01*
G37*
%TO.C,VR5*%
G36*
X218705433Y-100727039D02*
G01*
X218705433Y-100772961D01*
X218672961Y-100805433D01*
X218627039Y-100805433D01*
X218594567Y-100772961D01*
X218594567Y-100727039D01*
X218627039Y-100694567D01*
X218672961Y-100694567D01*
X218705433Y-100727039D01*
G37*
%TO.C,U5*%
G36*
X131555433Y-122502039D02*
G01*
X131555433Y-122547961D01*
X131522961Y-122580433D01*
X131477039Y-122580433D01*
X131444567Y-122547961D01*
X131444567Y-122502039D01*
X131477039Y-122469567D01*
X131522961Y-122469567D01*
X131555433Y-122502039D01*
G37*
%TO.C,J6*%
G36*
X223155433Y-59477039D02*
G01*
X223155433Y-59522961D01*
X223122961Y-59555433D01*
X223077039Y-59555433D01*
X223044567Y-59522961D01*
X223044567Y-59477039D01*
X223077039Y-59444567D01*
X223122961Y-59444567D01*
X223155433Y-59477039D01*
G37*
%TO.C,J3*%
G36*
X96955433Y-60577039D02*
G01*
X96955433Y-60622961D01*
X96922961Y-60655433D01*
X96877039Y-60655433D01*
X96844567Y-60622961D01*
X96844567Y-60577039D01*
X96877039Y-60544567D01*
X96922961Y-60544567D01*
X96955433Y-60577039D01*
G37*
%TO.C,SW3*%
G36*
X183705433Y-50227039D02*
G01*
X183705433Y-50272961D01*
X183672961Y-50305433D01*
X183627039Y-50305433D01*
X183594567Y-50272961D01*
X183594567Y-50227039D01*
X183627039Y-50194567D01*
X183672961Y-50194567D01*
X183705433Y-50227039D01*
G37*
%TO.C,SW2*%
G36*
X133705433Y-50227039D02*
G01*
X133705433Y-50272961D01*
X133672961Y-50305433D01*
X133627039Y-50305433D01*
X133594567Y-50272961D01*
X133594567Y-50227039D01*
X133627039Y-50194567D01*
X133672961Y-50194567D01*
X133705433Y-50227039D01*
G37*
%TO.C,D2*%
G36*
X159105433Y-61577039D02*
G01*
X159105433Y-61622961D01*
X159072961Y-61655433D01*
X159027039Y-61655433D01*
X158994567Y-61622961D01*
X158994567Y-61577039D01*
X159027039Y-61544567D01*
X159072961Y-61544567D01*
X159105433Y-61577039D01*
G37*
%TO.C,D6*%
G36*
X138205433Y-125927039D02*
G01*
X138205433Y-125972961D01*
X138172961Y-126005433D01*
X138127039Y-126005433D01*
X138094567Y-125972961D01*
X138094567Y-125927039D01*
X138127039Y-125894567D01*
X138172961Y-125894567D01*
X138205433Y-125927039D01*
G37*
%TO.C,D4*%
G36*
X152380433Y-59927039D02*
G01*
X152380433Y-59972961D01*
X152347961Y-60005433D01*
X152302039Y-60005433D01*
X152269567Y-59972961D01*
X152269567Y-59927039D01*
X152302039Y-59894567D01*
X152347961Y-59894567D01*
X152380433Y-59927039D01*
G37*
%TO.C,VR6*%
G36*
X112705433Y-62527039D02*
G01*
X112705433Y-62572961D01*
X112672961Y-62605433D01*
X112627039Y-62605433D01*
X112594567Y-62572961D01*
X112594567Y-62527039D01*
X112627039Y-62494567D01*
X112672961Y-62494567D01*
X112705433Y-62527039D01*
G37*
%TO.C,L1*%
G36*
X152821433Y-55339539D02*
G01*
X152821433Y-55385461D01*
X152788961Y-55417933D01*
X152743039Y-55417933D01*
X152710567Y-55385461D01*
X152710567Y-55339539D01*
X152743039Y-55307067D01*
X152788961Y-55307067D01*
X152821433Y-55339539D01*
G37*
%TO.C,U4*%
G36*
X182055433Y-75027039D02*
G01*
X182055433Y-75072961D01*
X182022961Y-75105433D01*
X181977039Y-75105433D01*
X181944567Y-75072961D01*
X181944567Y-75027039D01*
X181977039Y-74994567D01*
X182022961Y-74994567D01*
X182055433Y-75027039D01*
G37*
%TO.C,VR3*%
G36*
X182205433Y-116127039D02*
G01*
X182205433Y-116172961D01*
X182172961Y-116205433D01*
X182127039Y-116205433D01*
X182094567Y-116172961D01*
X182094567Y-116127039D01*
X182127039Y-116094567D01*
X182172961Y-116094567D01*
X182205433Y-116127039D01*
G37*
%TO.C,SW4*%
G36*
X203705433Y-50227039D02*
G01*
X203705433Y-50272961D01*
X203672961Y-50305433D01*
X203627039Y-50305433D01*
X203594567Y-50272961D01*
X203594567Y-50227039D01*
X203627039Y-50194567D01*
X203672961Y-50194567D01*
X203705433Y-50227039D01*
G37*
%TO.C,D1*%
G36*
X155255433Y-60627039D02*
G01*
X155255433Y-60672961D01*
X155222961Y-60705433D01*
X155177039Y-60705433D01*
X155144567Y-60672961D01*
X155144567Y-60627039D01*
X155177039Y-60594567D01*
X155222961Y-60594567D01*
X155255433Y-60627039D01*
G37*
%TO.C,D3*%
G36*
X162005433Y-62377039D02*
G01*
X162005433Y-62422961D01*
X161972961Y-62455433D01*
X161927039Y-62455433D01*
X161894567Y-62422961D01*
X161894567Y-62377039D01*
X161927039Y-62344567D01*
X161972961Y-62344567D01*
X162005433Y-62377039D01*
G37*
%TO.C,J2*%
G36*
X110555433Y-133077039D02*
G01*
X110555433Y-133122961D01*
X110522961Y-133155433D01*
X110477039Y-133155433D01*
X110444567Y-133122961D01*
X110444567Y-133077039D01*
X110477039Y-133044567D01*
X110522961Y-133044567D01*
X110555433Y-133077039D01*
G37*
%TO.C,VR7*%
G36*
X112705433Y-90527039D02*
G01*
X112705433Y-90572961D01*
X112672961Y-90605433D01*
X112627039Y-90605433D01*
X112594567Y-90572961D01*
X112594567Y-90527039D01*
X112627039Y-90494567D01*
X112672961Y-90494567D01*
X112705433Y-90527039D01*
G37*
%TO.C,VR4*%
G36*
X218705433Y-75099039D02*
G01*
X218705433Y-75144961D01*
X218672961Y-75177433D01*
X218627039Y-75177433D01*
X218594567Y-75144961D01*
X218594567Y-75099039D01*
X218627039Y-75066567D01*
X218672961Y-75066567D01*
X218705433Y-75099039D01*
G37*
%TD*%
M02*
