%TF.GenerationSoftware,KiCad,Pcbnew,9.0.3*%
%TF.CreationDate,2025-08-06T15:24:12+02:00*%
%TF.ProjectId,Spikeling_v3.0,5370696b-656c-4696-9e67-5f76332e302e,rev?*%
%TF.SameCoordinates,Original*%
%TF.FileFunction,Copper,L2,Bot*%
%TF.FilePolarity,Positive*%
%FSLAX46Y46*%
G04 Gerber Fmt 4.6, Leading zero omitted, Abs format (unit mm)*
G04 Created by KiCad (PCBNEW 9.0.3) date 2025-08-06 15:24:12*
%MOMM*%
%LPD*%
G01*
G04 APERTURE LIST*
G04 Aperture macros list*
%AMRoundRect*
0 Rectangle with rounded corners*
0 $1 Rounding radius*
0 $2 $3 $4 $5 $6 $7 $8 $9 X,Y pos of 4 corners*
0 Add a 4 corners polygon primitive as box body*
4,1,4,$2,$3,$4,$5,$6,$7,$8,$9,$2,$3,0*
0 Add four circle primitives for the rounded corners*
1,1,$1+$1,$2,$3*
1,1,$1+$1,$4,$5*
1,1,$1+$1,$6,$7*
1,1,$1+$1,$8,$9*
0 Add four rect primitives between the rounded corners*
20,1,$1+$1,$2,$3,$4,$5,0*
20,1,$1+$1,$4,$5,$6,$7,0*
20,1,$1+$1,$6,$7,$8,$9,0*
20,1,$1+$1,$8,$9,$2,$3,0*%
G04 Aperture macros list end*
%TA.AperFunction,ComponentPad*%
%ADD10C,1.700000*%
%TD*%
%TA.AperFunction,ComponentPad*%
%ADD11O,2.500000X3.000000*%
%TD*%
%TA.AperFunction,HeatsinkPad*%
%ADD12C,0.600000*%
%TD*%
%TA.AperFunction,ComponentPad*%
%ADD13C,0.500000*%
%TD*%
%TA.AperFunction,SMDPad,CuDef*%
%ADD14RoundRect,0.250000X-0.920000X-1.550000X0.920000X-1.550000X0.920000X1.550000X-0.920000X1.550000X0*%
%TD*%
%TA.AperFunction,ComponentPad*%
%ADD15O,1.300000X2.300000*%
%TD*%
%TA.AperFunction,ComponentPad*%
%ADD16O,1.300000X2.100000*%
%TD*%
%TA.AperFunction,ComponentPad*%
%ADD17C,2.000000*%
%TD*%
%TA.AperFunction,ViaPad*%
%ADD18C,0.800000*%
%TD*%
%TA.AperFunction,ViaPad*%
%ADD19C,0.600000*%
%TD*%
%TA.AperFunction,Conductor*%
%ADD20C,0.250000*%
%TD*%
%TA.AperFunction,Conductor*%
%ADD21C,0.200000*%
%TD*%
G04 APERTURE END LIST*
D10*
%TO.P,VR2,1,1*%
%TO.N,GNDREF*%
X156620000Y-117000000D03*
%TO.P,VR2,2,2*%
%TO.N,PhotoGain*%
X154120000Y-117000000D03*
%TO.P,VR2,3,3*%
%TO.N,+3.3V*%
X151620000Y-117000000D03*
D11*
%TO.P,VR2,4,4*%
%TO.N,GNDREF*%
X149720000Y-124000000D03*
%TO.P,VR2,5,5*%
X158520000Y-124000000D03*
%TD*%
D12*
%TO.P,U1,41,GND*%
%TO.N,GNDREF*%
X162825000Y-78240000D03*
X162825000Y-76840000D03*
X162125000Y-78940000D03*
X162125000Y-77540000D03*
X162125000Y-76140000D03*
X161425000Y-78240000D03*
X161425000Y-76840000D03*
X160725000Y-78940000D03*
X160725000Y-77540000D03*
X160725000Y-76140000D03*
X160025000Y-78240000D03*
X160025000Y-76840000D03*
%TD*%
D13*
%TO.P,U2,4,VOUT*%
%TO.N,Net-(C1-Pad1)*%
X142000000Y-57300000D03*
X142000000Y-58300000D03*
D14*
X142000000Y-58300000D03*
D13*
X142000000Y-59300000D03*
%TD*%
D10*
%TO.P,VR1,1,1*%
%TO.N,GNDREF*%
X121050000Y-117000000D03*
%TO.P,VR1,2,2*%
%TO.N,VoltageMembrane*%
X118550000Y-117000000D03*
%TO.P,VR1,3,3*%
%TO.N,+3.3V*%
X116050000Y-117000000D03*
D11*
%TO.P,VR1,4,4*%
%TO.N,GNDREF*%
X114150000Y-124000000D03*
%TO.P,VR1,5,5*%
X122950000Y-124000000D03*
%TD*%
D10*
%TO.P,VR5,1,1*%
%TO.N,GNDREF*%
X215500000Y-101600000D03*
%TO.P,VR5,2,2*%
%TO.N,StimulusFrequency*%
X213000000Y-101600000D03*
%TO.P,VR5,3,3*%
%TO.N,+3.3V*%
X210500000Y-101600000D03*
D11*
%TO.P,VR5,4,4*%
%TO.N,GNDREF*%
X208600000Y-108600000D03*
%TO.P,VR5,5,5*%
X217400000Y-108600000D03*
%TD*%
D15*
%TO.P,J1,S1,SHIELD*%
%TO.N,GNDREF*%
X164330000Y-55570000D03*
D16*
X164330000Y-51370000D03*
D13*
X162000000Y-52750000D03*
X162000000Y-50750000D03*
X158000000Y-52750000D03*
X158000000Y-50750000D03*
D15*
X155670000Y-55570000D03*
D16*
X155670000Y-51370000D03*
%TD*%
D10*
%TO.P,SW3,1,1*%
%TO.N,BuzzerButton*%
X182250000Y-52750000D03*
%TO.P,SW3,2,2*%
%TO.N,+3.3V*%
X177750000Y-52750000D03*
D17*
%TO.P,SW3,3,3*%
%TO.N,GNDREF*%
X176400000Y-55250000D03*
%TO.P,SW3,4,4*%
X183600000Y-55250000D03*
%TD*%
D10*
%TO.P,SW2,1,1*%
%TO.N,En*%
X132250000Y-52750000D03*
%TO.P,SW2,2,2*%
%TO.N,GNDREF*%
X127750000Y-52750000D03*
D17*
%TO.P,SW2,3,3*%
X126400000Y-55250000D03*
%TO.P,SW2,4,4*%
X133600000Y-55250000D03*
%TD*%
D10*
%TO.P,VR6,1,1*%
%TO.N,GNDREF*%
X109500000Y-63400000D03*
%TO.P,VR6,2,2*%
%TO.N,SynapseGain1*%
X107000000Y-63400000D03*
%TO.P,VR6,3,3*%
%TO.N,+3.3V*%
X104500000Y-63400000D03*
D11*
%TO.P,VR6,4,4*%
%TO.N,GNDREF*%
X102600000Y-70400000D03*
%TO.P,VR6,5,5*%
X111400000Y-70400000D03*
%TD*%
D10*
%TO.P,VR3,1,1*%
%TO.N,GNDREF*%
X179000000Y-117000000D03*
%TO.P,VR3,2,2*%
%TO.N,Noise*%
X176500000Y-117000000D03*
%TO.P,VR3,3,3*%
%TO.N,+3.3V*%
X174000000Y-117000000D03*
D11*
%TO.P,VR3,4,4*%
%TO.N,GNDREF*%
X172100000Y-124000000D03*
%TO.P,VR3,5,5*%
X180900000Y-124000000D03*
%TD*%
D10*
%TO.P,SW4,1,1*%
%TO.N,LEDButton*%
X202250000Y-52750000D03*
%TO.P,SW4,2,2*%
%TO.N,+3.3V*%
X197750000Y-52750000D03*
D17*
%TO.P,SW4,3,3*%
%TO.N,GNDREF*%
X196400000Y-55250000D03*
%TO.P,SW4,4,4*%
X203600000Y-55250000D03*
%TD*%
D10*
%TO.P,VR7,1,1*%
%TO.N,GNDREF*%
X109500000Y-91400000D03*
%TO.P,VR7,2,2*%
%TO.N,SynapseGain2*%
X107000000Y-91400000D03*
%TO.P,VR7,3,3*%
%TO.N,+3.3V*%
X104500000Y-91400000D03*
D11*
%TO.P,VR7,4,4*%
%TO.N,GNDREF*%
X102600000Y-98400000D03*
%TO.P,VR7,5,5*%
X111400000Y-98400000D03*
%TD*%
D10*
%TO.P,VR4,1,1*%
%TO.N,GNDREF*%
X215500000Y-75972000D03*
%TO.P,VR4,2,2*%
%TO.N,StimulusStrength*%
X213000000Y-75972000D03*
%TO.P,VR4,3,3*%
%TO.N,+3.3V*%
X210500000Y-75972000D03*
D11*
%TO.P,VR4,4,4*%
%TO.N,GNDREF*%
X208600000Y-82972000D03*
%TO.P,VR4,5,5*%
X217400000Y-82972000D03*
%TD*%
D18*
%TO.N,GNDREF*%
X101525000Y-72525000D03*
X137725000Y-85600000D03*
X135000000Y-78722000D03*
X113475000Y-98400000D03*
X112275000Y-124050000D03*
X147600000Y-124000000D03*
X160625000Y-124025000D03*
X169975000Y-123950000D03*
X182975000Y-124000000D03*
X206500000Y-108625000D03*
X206475000Y-82925000D03*
X212500000Y-70850000D03*
X209550000Y-52750000D03*
X205400000Y-55250000D03*
X194600000Y-55250000D03*
X185425000Y-55250000D03*
X174625000Y-55225000D03*
X159875000Y-53850000D03*
X124525000Y-55250000D03*
X135475000Y-55225000D03*
X149550000Y-64900000D03*
X145850000Y-69075000D03*
X137400000Y-66550000D03*
X135000000Y-63950000D03*
X217275000Y-101600000D03*
X164500000Y-61800000D03*
X163155000Y-59820000D03*
X159000000Y-60925000D03*
X152725000Y-62525000D03*
X154305000Y-51370000D03*
X165825000Y-51375000D03*
X148940000Y-85260000D03*
X170860000Y-85260000D03*
X111350000Y-91400000D03*
X102000000Y-90450000D03*
X111125000Y-63400000D03*
X216025000Y-60000000D03*
X218000000Y-126025000D03*
X112525000Y-128000000D03*
X138300000Y-125475000D03*
X122450000Y-117000000D03*
X158475000Y-117000000D03*
X180725000Y-117000000D03*
X215500000Y-99500000D03*
X215500000Y-74375000D03*
X139644500Y-76819500D03*
X191750000Y-75550000D03*
X157500000Y-63100000D03*
X154345000Y-55570000D03*
X165800000Y-55575000D03*
X190000000Y-52750000D03*
X125850000Y-52750000D03*
X102000000Y-62675000D03*
X113250000Y-75450000D03*
%TO.N,En*%
X153075000Y-69550000D03*
X167550000Y-52750000D03*
%TO.N,GNDREF*%
X133450000Y-124350000D03*
X171525000Y-81700000D03*
%TO.N,CS1*%
X163100000Y-69975000D03*
X140000000Y-83175000D03*
%TO.N,Spike_BLED*%
X167525000Y-59925000D03*
X155480000Y-66005000D03*
%TO.N,SCK*%
X160560000Y-69985000D03*
X140000000Y-79375000D03*
D19*
X189940000Y-79365000D03*
D18*
%TO.N,Spike_GLED*%
X158020000Y-66045000D03*
X173775000Y-59925000D03*
%TO.N,CS2*%
X164370000Y-69995000D03*
D19*
X189975000Y-83175000D03*
D18*
%TO.N,Spike_RLED*%
X167525000Y-61425000D03*
X156750000Y-66025000D03*
%TO.N,MOSI*%
X161830000Y-69980000D03*
D19*
X189980000Y-81905000D03*
D18*
X139995000Y-81905000D03*
D19*
%TO.N,MISO*%
X189985000Y-80635000D03*
D18*
X159290000Y-69990000D03*
X139985000Y-80635000D03*
%TD*%
D20*
%TO.N,En*%
X153075000Y-56301000D02*
X150100000Y-53326000D01*
X150100000Y-53326000D02*
X132826000Y-53326000D01*
X132826000Y-53326000D02*
X132250000Y-52750000D01*
X153075000Y-69550000D02*
X153075000Y-56301000D01*
X166974000Y-53326000D02*
X150100000Y-53326000D01*
X167550000Y-52750000D02*
X166974000Y-53326000D01*
%TO.N,CS1*%
X149900000Y-83175000D02*
X163100000Y-69975000D01*
X140000000Y-83175000D02*
X149900000Y-83175000D01*
%TO.N,Spike_BLED*%
X162575000Y-64550000D02*
X167200000Y-59925000D01*
X167200000Y-59925000D02*
X167525000Y-59925000D01*
X155480000Y-66005000D02*
X156935000Y-64550000D01*
X156935000Y-64550000D02*
X162575000Y-64550000D01*
D21*
%TO.N,SCK*%
X189940000Y-79365000D02*
X177415000Y-79365000D01*
D20*
X151170000Y-79375000D02*
X160560000Y-69985000D01*
D21*
X177415000Y-79365000D02*
X166450000Y-68400000D01*
D20*
X140000000Y-79375000D02*
X151170000Y-79375000D01*
D21*
X166450000Y-68400000D02*
X162145000Y-68400000D01*
X162145000Y-68400000D02*
X160560000Y-69985000D01*
D20*
%TO.N,Spike_GLED*%
X170375000Y-59925000D02*
X173775000Y-59925000D01*
X164255000Y-66045000D02*
X170375000Y-59925000D01*
X158020000Y-66045000D02*
X164255000Y-66045000D01*
%TO.N,CS2*%
X166107446Y-69227000D02*
X180055445Y-83175000D01*
X165123000Y-69227000D02*
X166107446Y-69227000D01*
X180055445Y-83175000D02*
X189975000Y-83175000D01*
X164370000Y-69995000D02*
X164370000Y-69980000D01*
X164370000Y-69980000D02*
X165123000Y-69227000D01*
%TO.N,Spike_RLED*%
X163231000Y-65319000D02*
X157456000Y-65319000D01*
X157456000Y-65319000D02*
X156750000Y-66025000D01*
X167125000Y-61425000D02*
X163231000Y-65319000D01*
X167525000Y-61425000D02*
X167125000Y-61425000D01*
D21*
%TO.N,MOSI*%
X179387900Y-81905000D02*
X166283900Y-68801000D01*
X189980000Y-81905000D02*
X179387900Y-81905000D01*
D20*
X149905000Y-81905000D02*
X161830000Y-69980000D01*
D21*
X166283900Y-68801000D02*
X163009000Y-68801000D01*
X163009000Y-68801000D02*
X161830000Y-69980000D01*
D20*
X139995000Y-81905000D02*
X149905000Y-81905000D01*
%TO.N,MISO*%
X139274000Y-79924000D02*
X139274000Y-79074280D01*
D21*
X190975000Y-78925000D02*
X190550000Y-78500000D01*
D20*
X144524000Y-78649000D02*
X150625000Y-78649000D01*
X139274000Y-79074280D02*
X139699280Y-78649000D01*
X139274000Y-79074280D02*
X139274000Y-79275000D01*
D21*
X190550000Y-78500000D02*
X177117100Y-78500000D01*
D20*
X159290000Y-69990000D02*
X159284000Y-69990000D01*
D21*
X166616100Y-67999000D02*
X161281000Y-67999000D01*
X189985000Y-80635000D02*
X190975000Y-79645000D01*
X161281000Y-67999000D02*
X159290000Y-69990000D01*
D20*
X139699280Y-78649000D02*
X145399000Y-78649000D01*
X159284000Y-69990000D02*
X150625000Y-78649000D01*
D21*
X177117100Y-78500000D02*
X166616100Y-67999000D01*
D20*
X139985000Y-80635000D02*
X139274000Y-79924000D01*
D21*
X190975000Y-79645000D02*
X190975000Y-78925000D01*
%TD*%
%TA.AperFunction,Conductor*%
%TO.N,GNDREF*%
G36*
X154756716Y-50030502D02*
G01*
X154803209Y-50084158D01*
X154813313Y-50154432D01*
X154787992Y-50210412D01*
X154789637Y-50211608D01*
X154679591Y-50363072D01*
X154596840Y-50525480D01*
X154596837Y-50525486D01*
X154540515Y-50698828D01*
X154512000Y-50878866D01*
X154512000Y-51116000D01*
X155420000Y-51116000D01*
X155420000Y-51624000D01*
X154512000Y-51624000D01*
X154512000Y-51861133D01*
X154540515Y-52041171D01*
X154596837Y-52214513D01*
X154596840Y-52214519D01*
X154679591Y-52376927D01*
X154763516Y-52492439D01*
X154787374Y-52559306D01*
X154771294Y-52628458D01*
X154720380Y-52677938D01*
X154661580Y-52692500D01*
X133723941Y-52692500D01*
X133655820Y-52672498D01*
X133609327Y-52618842D01*
X133599492Y-52586211D01*
X133596370Y-52566500D01*
X133575049Y-52431884D01*
X133508972Y-52228517D01*
X133411894Y-52037991D01*
X133286206Y-51864996D01*
X133286203Y-51864993D01*
X133286201Y-51864990D01*
X133135009Y-51713798D01*
X133135006Y-51713796D01*
X133135004Y-51713794D01*
X132962009Y-51588106D01*
X132771483Y-51491028D01*
X132771480Y-51491027D01*
X132771478Y-51491026D01*
X132568120Y-51424952D01*
X132568123Y-51424952D01*
X132507195Y-51415302D01*
X132356916Y-51391500D01*
X132143084Y-51391500D01*
X131931884Y-51424951D01*
X131931878Y-51424952D01*
X131728521Y-51491026D01*
X131728515Y-51491029D01*
X131537987Y-51588108D01*
X131364993Y-51713796D01*
X131364990Y-51713798D01*
X131213798Y-51864990D01*
X131213796Y-51864993D01*
X131088108Y-52037987D01*
X130991029Y-52228515D01*
X130991026Y-52228521D01*
X130924952Y-52431878D01*
X130924951Y-52431883D01*
X130924951Y-52431884D01*
X130891500Y-52643084D01*
X130891500Y-52856916D01*
X130916539Y-53015003D01*
X130924952Y-53068121D01*
X130988115Y-53262518D01*
X130991028Y-53271483D01*
X131088106Y-53462009D01*
X131213794Y-53635004D01*
X131213796Y-53635006D01*
X131213798Y-53635009D01*
X131364990Y-53786201D01*
X131364993Y-53786203D01*
X131364996Y-53786206D01*
X131537991Y-53911894D01*
X131728517Y-54008972D01*
X131931878Y-54075047D01*
X131931879Y-54075047D01*
X131931884Y-54075049D01*
X132143084Y-54108500D01*
X132143087Y-54108500D01*
X132318069Y-54108500D01*
X132386190Y-54128502D01*
X132432683Y-54182158D01*
X132442787Y-54252432D01*
X132420005Y-54308561D01*
X132310245Y-54459632D01*
X132202480Y-54671132D01*
X132129133Y-54896871D01*
X132113432Y-54996000D01*
X132947536Y-54996000D01*
X132926901Y-55045818D01*
X132900000Y-55181056D01*
X132900000Y-55318944D01*
X132926901Y-55454182D01*
X132947536Y-55504000D01*
X132113432Y-55504000D01*
X132129133Y-55603128D01*
X132202480Y-55828867D01*
X132310245Y-56040367D01*
X132449764Y-56232398D01*
X132449766Y-56232401D01*
X132617598Y-56400233D01*
X132617601Y-56400235D01*
X132809632Y-56539754D01*
X133021132Y-56647519D01*
X133246871Y-56720866D01*
X133346000Y-56736566D01*
X133346000Y-55902463D01*
X133395818Y-55923099D01*
X133531056Y-55950000D01*
X133668944Y-55950000D01*
X133804182Y-55923099D01*
X133854000Y-55902463D01*
X133854000Y-56736566D01*
X133953128Y-56720866D01*
X134019052Y-56699446D01*
X140321500Y-56699446D01*
X140321500Y-59900544D01*
X140332112Y-60004425D01*
X140387885Y-60172738D01*
X140480970Y-60323652D01*
X140480975Y-60323658D01*
X140606341Y-60449024D01*
X140606347Y-60449029D01*
X140606348Y-60449030D01*
X140757262Y-60542115D01*
X140925574Y-60597887D01*
X141029455Y-60608500D01*
X142970544Y-60608499D01*
X143074426Y-60597887D01*
X143242738Y-60542115D01*
X143393652Y-60449030D01*
X143519030Y-60323652D01*
X143612115Y-60172738D01*
X143667887Y-60004426D01*
X143678500Y-59900545D01*
X143678499Y-56699456D01*
X143667887Y-56595574D01*
X143612115Y-56427262D01*
X143519030Y-56276348D01*
X143519029Y-56276347D01*
X143519024Y-56276341D01*
X143393658Y-56150975D01*
X143393652Y-56150970D01*
X143337305Y-56116215D01*
X143242738Y-56057885D01*
X143158582Y-56029999D01*
X143074427Y-56002113D01*
X143074420Y-56002112D01*
X142970553Y-55991500D01*
X141029455Y-55991500D01*
X140925574Y-56002112D01*
X140757261Y-56057885D01*
X140606347Y-56150970D01*
X140606341Y-56150975D01*
X140480975Y-56276341D01*
X140480970Y-56276347D01*
X140387885Y-56427262D01*
X140332113Y-56595572D01*
X140332112Y-56595579D01*
X140321500Y-56699446D01*
X134019052Y-56699446D01*
X134178867Y-56647519D01*
X134303570Y-56583980D01*
X134390367Y-56539754D01*
X134582398Y-56400235D01*
X134582401Y-56400233D01*
X134750233Y-56232401D01*
X134750235Y-56232398D01*
X134889754Y-56040367D01*
X134997519Y-55828867D01*
X135070866Y-55603128D01*
X135086568Y-55504000D01*
X134252464Y-55504000D01*
X134273099Y-55454182D01*
X134300000Y-55318944D01*
X134300000Y-55181056D01*
X134273099Y-55045818D01*
X134252464Y-54996000D01*
X135086567Y-54996000D01*
X135070866Y-54896871D01*
X134997519Y-54671132D01*
X134889754Y-54459632D01*
X134750235Y-54267601D01*
X134750233Y-54267598D01*
X134657230Y-54174595D01*
X134623204Y-54112283D01*
X134628269Y-54041468D01*
X134670816Y-53984632D01*
X134737336Y-53959821D01*
X134746325Y-53959500D01*
X149785406Y-53959500D01*
X149853527Y-53979502D01*
X149874501Y-53996405D01*
X152404595Y-56526499D01*
X152438621Y-56588811D01*
X152441500Y-56615594D01*
X152441500Y-68846497D01*
X152421498Y-68914618D01*
X152404595Y-68935592D01*
X152369324Y-68970862D01*
X152369319Y-68970869D01*
X152269899Y-69119662D01*
X152201414Y-69284996D01*
X152166500Y-69460518D01*
X152166500Y-69639481D01*
X152183510Y-69724996D01*
X152201413Y-69815000D01*
X152269898Y-69980336D01*
X152369322Y-70129135D01*
X152495865Y-70255678D01*
X152644664Y-70355102D01*
X152810000Y-70423587D01*
X152985521Y-70458500D01*
X152985522Y-70458500D01*
X153164478Y-70458500D01*
X153164479Y-70458500D01*
X153340000Y-70423587D01*
X153505336Y-70355102D01*
X153654135Y-70255678D01*
X153780678Y-70129135D01*
X153880102Y-69980336D01*
X153948587Y-69815000D01*
X153983500Y-69639479D01*
X153983500Y-69460521D01*
X153948587Y-69285000D01*
X153880102Y-69119664D01*
X153780678Y-68970865D01*
X153745405Y-68935592D01*
X153711379Y-68873280D01*
X153708500Y-68846497D01*
X153708500Y-65915518D01*
X154571500Y-65915518D01*
X154571500Y-65915521D01*
X154571500Y-66094479D01*
X154606413Y-66270000D01*
X154674898Y-66435336D01*
X154774322Y-66584135D01*
X154900865Y-66710678D01*
X155049664Y-66810102D01*
X155215000Y-66878587D01*
X155390521Y-66913500D01*
X155390522Y-66913500D01*
X155569478Y-66913500D01*
X155569479Y-66913500D01*
X155745000Y-66878587D01*
X155910336Y-66810102D01*
X156030032Y-66730123D01*
X156097784Y-66708909D01*
X156166251Y-66727692D01*
X156170034Y-66730124D01*
X156319659Y-66830099D01*
X156319660Y-66830100D01*
X156319662Y-66830101D01*
X156319664Y-66830102D01*
X156485000Y-66898587D01*
X156660521Y-66933500D01*
X156660522Y-66933500D01*
X156839478Y-66933500D01*
X156839479Y-66933500D01*
X157015000Y-66898587D01*
X157180336Y-66830102D01*
X157300032Y-66750123D01*
X157367784Y-66728909D01*
X157436251Y-66747692D01*
X157440034Y-66750124D01*
X157589659Y-66850099D01*
X157589660Y-66850100D01*
X157589662Y-66850101D01*
X157589664Y-66850102D01*
X157755000Y-66918587D01*
X157930521Y-66953500D01*
X157930522Y-66953500D01*
X158109478Y-66953500D01*
X158109479Y-66953500D01*
X158285000Y-66918587D01*
X158450336Y-66850102D01*
X158599135Y-66750678D01*
X158634408Y-66715405D01*
X158696720Y-66681379D01*
X158723503Y-66678500D01*
X164317393Y-66678500D01*
X164317394Y-66678500D01*
X164439785Y-66654155D01*
X164555075Y-66606400D01*
X164658833Y-66537071D01*
X167259616Y-63936288D01*
X211437630Y-63936288D01*
X211437630Y-64063711D01*
X211437927Y-64066730D01*
X211437929Y-64066742D01*
X211446934Y-64112012D01*
X211462787Y-64191709D01*
X211463669Y-64194617D01*
X211512431Y-64312340D01*
X211513863Y-64315019D01*
X211584655Y-64420967D01*
X211586121Y-64422754D01*
X211586577Y-64423309D01*
X211586600Y-64423334D01*
X211676665Y-64513399D01*
X211676677Y-64513410D01*
X211676684Y-64513417D01*
X211679033Y-64515345D01*
X211784981Y-64586137D01*
X211787660Y-64587569D01*
X211905383Y-64636331D01*
X211908291Y-64637213D01*
X212033265Y-64662072D01*
X212036289Y-64662370D01*
X212036292Y-64662370D01*
X212163708Y-64662370D01*
X212163711Y-64662370D01*
X212166735Y-64662072D01*
X212291709Y-64637213D01*
X212294617Y-64636331D01*
X212412340Y-64587569D01*
X212415019Y-64586137D01*
X212520967Y-64515345D01*
X212523316Y-64513417D01*
X212613417Y-64423316D01*
X212615345Y-64420967D01*
X212686137Y-64315019D01*
X212687569Y-64312340D01*
X212736331Y-64194617D01*
X212737213Y-64191709D01*
X212762072Y-64066735D01*
X212762370Y-64063711D01*
X212762370Y-63936289D01*
X212762370Y-63936288D01*
X217437630Y-63936288D01*
X217437630Y-64063711D01*
X217437927Y-64066730D01*
X217437929Y-64066742D01*
X217446934Y-64112012D01*
X217462787Y-64191709D01*
X217463669Y-64194617D01*
X217512431Y-64312340D01*
X217513863Y-64315019D01*
X217584655Y-64420967D01*
X217586121Y-64422754D01*
X217586577Y-64423309D01*
X217586600Y-64423334D01*
X217676665Y-64513399D01*
X217676677Y-64513410D01*
X217676684Y-64513417D01*
X217679033Y-64515345D01*
X217784981Y-64586137D01*
X217787660Y-64587569D01*
X217905383Y-64636331D01*
X217908291Y-64637213D01*
X218033265Y-64662072D01*
X218036289Y-64662370D01*
X218036292Y-64662370D01*
X218163708Y-64662370D01*
X218163711Y-64662370D01*
X218166735Y-64662072D01*
X218291709Y-64637213D01*
X218294617Y-64636331D01*
X218412340Y-64587569D01*
X218415019Y-64586137D01*
X218520967Y-64515345D01*
X218523316Y-64513417D01*
X218613417Y-64423316D01*
X218615345Y-64420967D01*
X218686137Y-64315019D01*
X218687569Y-64312340D01*
X218736331Y-64194617D01*
X218737213Y-64191709D01*
X218762072Y-64066735D01*
X218762370Y-64063711D01*
X218762370Y-63936289D01*
X218762072Y-63933265D01*
X218737213Y-63808291D01*
X218736331Y-63805383D01*
X218687569Y-63687660D01*
X218686137Y-63684981D01*
X218615345Y-63579033D01*
X218613417Y-63576684D01*
X218613410Y-63576677D01*
X218613399Y-63576665D01*
X218523334Y-63486600D01*
X218523309Y-63486577D01*
X218522754Y-63486121D01*
X218520967Y-63484655D01*
X218415019Y-63413863D01*
X218412340Y-63412431D01*
X218294617Y-63363669D01*
X218291709Y-63362787D01*
X218291706Y-63362786D01*
X218291703Y-63362785D01*
X218166742Y-63337929D01*
X218166730Y-63337927D01*
X218163711Y-63337630D01*
X218036289Y-63337630D01*
X218036288Y-63337630D01*
X218033269Y-63337927D01*
X218033257Y-63337929D01*
X217908296Y-63362785D01*
X217908293Y-63362786D01*
X217905385Y-63363668D01*
X217787659Y-63412431D01*
X217784986Y-63413860D01*
X217784983Y-63413861D01*
X217784981Y-63413863D01*
X217679033Y-63484655D01*
X217676690Y-63486577D01*
X217676665Y-63486600D01*
X217586600Y-63576665D01*
X217586577Y-63576690D01*
X217584655Y-63579033D01*
X217513862Y-63684983D01*
X217513860Y-63684986D01*
X217512431Y-63687659D01*
X217463668Y-63805385D01*
X217462786Y-63808293D01*
X217462785Y-63808296D01*
X217437929Y-63933257D01*
X217437927Y-63933269D01*
X217437630Y-63936288D01*
X212762370Y-63936288D01*
X212762072Y-63933265D01*
X212737213Y-63808291D01*
X212736331Y-63805383D01*
X212687569Y-63687660D01*
X212686137Y-63684981D01*
X212615345Y-63579033D01*
X212613417Y-63576684D01*
X212613410Y-63576677D01*
X212613399Y-63576665D01*
X212523334Y-63486600D01*
X212523309Y-63486577D01*
X212522754Y-63486121D01*
X212520967Y-63484655D01*
X212415019Y-63413863D01*
X212412340Y-63412431D01*
X212294617Y-63363669D01*
X212291709Y-63362787D01*
X212291706Y-63362786D01*
X212291703Y-63362785D01*
X212166742Y-63337929D01*
X212166730Y-63337927D01*
X212163711Y-63337630D01*
X212036289Y-63337630D01*
X212036288Y-63337630D01*
X212033269Y-63337927D01*
X212033257Y-63337929D01*
X211908296Y-63362785D01*
X211908293Y-63362786D01*
X211905385Y-63363668D01*
X211787659Y-63412431D01*
X211784986Y-63413860D01*
X211784983Y-63413861D01*
X211784981Y-63413863D01*
X211679033Y-63484655D01*
X211676690Y-63486577D01*
X211676665Y-63486600D01*
X211586600Y-63576665D01*
X211586577Y-63576690D01*
X211584655Y-63579033D01*
X211513862Y-63684983D01*
X211513860Y-63684986D01*
X211512431Y-63687659D01*
X211463668Y-63805385D01*
X211462786Y-63808293D01*
X211462785Y-63808296D01*
X211437929Y-63933257D01*
X211437927Y-63933269D01*
X211437630Y-63936288D01*
X167259616Y-63936288D01*
X170600499Y-60595405D01*
X170662811Y-60561379D01*
X170689594Y-60558500D01*
X173071497Y-60558500D01*
X173139618Y-60578502D01*
X173160592Y-60595405D01*
X173195865Y-60630678D01*
X173344664Y-60730102D01*
X173510000Y-60798587D01*
X173685521Y-60833500D01*
X173685522Y-60833500D01*
X173864478Y-60833500D01*
X173864479Y-60833500D01*
X174040000Y-60798587D01*
X174205336Y-60730102D01*
X174354135Y-60630678D01*
X174480678Y-60504135D01*
X174580102Y-60355336D01*
X174648587Y-60190000D01*
X174683500Y-60014479D01*
X174683500Y-59835521D01*
X174648587Y-59660000D01*
X174580102Y-59494664D01*
X174480678Y-59345865D01*
X174354135Y-59219322D01*
X174205336Y-59119898D01*
X174088429Y-59071473D01*
X174040003Y-59051414D01*
X174040001Y-59051413D01*
X174040000Y-59051413D01*
X173951645Y-59033838D01*
X173864481Y-59016500D01*
X173864479Y-59016500D01*
X173685521Y-59016500D01*
X173685518Y-59016500D01*
X173554771Y-59042507D01*
X173510000Y-59051413D01*
X173509999Y-59051413D01*
X173509996Y-59051414D01*
X173344662Y-59119899D01*
X173195869Y-59219319D01*
X173195862Y-59219324D01*
X173160592Y-59254595D01*
X173098280Y-59288621D01*
X173071497Y-59291500D01*
X170312603Y-59291500D01*
X170239568Y-59306028D01*
X170190215Y-59315845D01*
X170190213Y-59315845D01*
X170190212Y-59315846D01*
X170074923Y-59363601D01*
X169971171Y-59432926D01*
X169971169Y-59432927D01*
X168470439Y-60933656D01*
X168457759Y-60940579D01*
X168448167Y-60951381D01*
X168427221Y-60957254D01*
X168408127Y-60967681D01*
X168393716Y-60966650D01*
X168379807Y-60970551D01*
X168359010Y-60964168D01*
X168337311Y-60962616D01*
X168324426Y-60953552D01*
X168311935Y-60949719D01*
X168294914Y-60932794D01*
X168285120Y-60925905D01*
X168280534Y-60920480D01*
X168230678Y-60845865D01*
X168145174Y-60760361D01*
X168141779Y-60756345D01*
X168129470Y-60728499D01*
X168114882Y-60701783D01*
X168115269Y-60696370D01*
X168113076Y-60691409D01*
X168117775Y-60661334D01*
X168119947Y-60630968D01*
X168123346Y-60625678D01*
X168124036Y-60621264D01*
X168131807Y-60612513D01*
X168148908Y-60585905D01*
X168176313Y-60558500D01*
X168230678Y-60504135D01*
X168330102Y-60355336D01*
X168398587Y-60190000D01*
X168433500Y-60014479D01*
X168433500Y-59835521D01*
X168398587Y-59660000D01*
X168330102Y-59494664D01*
X168230678Y-59345865D01*
X168104135Y-59219322D01*
X167955336Y-59119898D01*
X167838429Y-59071473D01*
X167790003Y-59051414D01*
X167790001Y-59051413D01*
X167790000Y-59051413D01*
X167701645Y-59033838D01*
X167614481Y-59016500D01*
X167614479Y-59016500D01*
X167435521Y-59016500D01*
X167435518Y-59016500D01*
X167304771Y-59042507D01*
X167260000Y-59051413D01*
X167259999Y-59051413D01*
X167259996Y-59051414D01*
X167094662Y-59119899D01*
X166945869Y-59219319D01*
X166945862Y-59219324D01*
X166819324Y-59345862D01*
X166819319Y-59345869D01*
X166719898Y-59494662D01*
X166719894Y-59494669D01*
X166719205Y-59496334D01*
X166718206Y-59497828D01*
X166716982Y-59500119D01*
X166716756Y-59499998D01*
X166691898Y-59537195D01*
X162349501Y-63879595D01*
X162287189Y-63913620D01*
X162260406Y-63916500D01*
X156872600Y-63916500D01*
X156750217Y-63940844D01*
X156750209Y-63940846D01*
X156716447Y-63954830D01*
X156716447Y-63954831D01*
X156634925Y-63988599D01*
X156531167Y-64057927D01*
X156304416Y-64284679D01*
X155529499Y-65059596D01*
X155467189Y-65093620D01*
X155440406Y-65096500D01*
X155390518Y-65096500D01*
X155259771Y-65122507D01*
X155215000Y-65131413D01*
X155214999Y-65131413D01*
X155214996Y-65131414D01*
X155049662Y-65199899D01*
X154900869Y-65299319D01*
X154900862Y-65299324D01*
X154774324Y-65425862D01*
X154774319Y-65425869D01*
X154674899Y-65574662D01*
X154606414Y-65739996D01*
X154571500Y-65915518D01*
X153708500Y-65915518D01*
X153708500Y-56238607D01*
X153708499Y-56238603D01*
X153693090Y-56161133D01*
X154512000Y-56161133D01*
X154540515Y-56341171D01*
X154596837Y-56514513D01*
X154596840Y-56514519D01*
X154679591Y-56676927D01*
X154786729Y-56824389D01*
X154786731Y-56824392D01*
X154915607Y-56953268D01*
X154915610Y-56953270D01*
X155063072Y-57060408D01*
X155225480Y-57143159D01*
X155225486Y-57143162D01*
X155398832Y-57199485D01*
X155416000Y-57202203D01*
X155416000Y-55824000D01*
X154512000Y-55824000D01*
X154512000Y-56161133D01*
X153693090Y-56161133D01*
X153684155Y-56116215D01*
X153636400Y-56000925D01*
X153567071Y-55897167D01*
X153478833Y-55808929D01*
X151844499Y-54174595D01*
X151810473Y-54112283D01*
X151815538Y-54041468D01*
X151858085Y-53984632D01*
X151924605Y-53959821D01*
X151933594Y-53959500D01*
X154840576Y-53959500D01*
X154908697Y-53979502D01*
X154955190Y-54033158D01*
X154965294Y-54103432D01*
X154935800Y-54168012D01*
X154919171Y-54183275D01*
X154919375Y-54183514D01*
X154915607Y-54186731D01*
X154786731Y-54315607D01*
X154786729Y-54315610D01*
X154679591Y-54463072D01*
X154596840Y-54625480D01*
X154596837Y-54625486D01*
X154540515Y-54798828D01*
X154512000Y-54978866D01*
X154512000Y-55316000D01*
X155420000Y-55316000D01*
X155420000Y-56169728D01*
X155458060Y-56261614D01*
X155528386Y-56331940D01*
X155620272Y-56370000D01*
X155719728Y-56370000D01*
X155811614Y-56331940D01*
X155881940Y-56261614D01*
X155920000Y-56169728D01*
X155920000Y-55677611D01*
X155924000Y-55696000D01*
X155924000Y-57202202D01*
X155941167Y-57199485D01*
X156114513Y-57143162D01*
X156114519Y-57143159D01*
X156276927Y-57060408D01*
X156424389Y-56953270D01*
X156424392Y-56953268D01*
X156553268Y-56824392D01*
X156553270Y-56824389D01*
X156660408Y-56676927D01*
X156743159Y-56514519D01*
X156743162Y-56514513D01*
X156799484Y-56341171D01*
X156828000Y-56161133D01*
X156828000Y-55708564D01*
X156848002Y-55640443D01*
X156901658Y-55593950D01*
X156971932Y-55583846D01*
X156986600Y-55586854D01*
X157037525Y-55600500D01*
X157037528Y-55600500D01*
X157182473Y-55600500D01*
X157182475Y-55600500D01*
X157322485Y-55562984D01*
X157448015Y-55490509D01*
X157550509Y-55388015D01*
X157622984Y-55262485D01*
X157660500Y-55122475D01*
X157660500Y-54977525D01*
X157622984Y-54837515D01*
X157550509Y-54711985D01*
X157550507Y-54711983D01*
X157550503Y-54711978D01*
X157448021Y-54609496D01*
X157448011Y-54609488D01*
X157322485Y-54537016D01*
X157182475Y-54499500D01*
X157037525Y-54499500D01*
X156967520Y-54518258D01*
X156897513Y-54537016D01*
X156858402Y-54559597D01*
X156789407Y-54576334D01*
X156722315Y-54553112D01*
X156683137Y-54507679D01*
X156660410Y-54463075D01*
X156553270Y-54315610D01*
X156553268Y-54315607D01*
X156424392Y-54186731D01*
X156420625Y-54183514D01*
X156421524Y-54182461D01*
X156382006Y-54131206D01*
X156375935Y-54060470D01*
X156409071Y-53997680D01*
X156470893Y-53962773D01*
X156499424Y-53959500D01*
X163500576Y-53959500D01*
X163568697Y-53979502D01*
X163615190Y-54033158D01*
X163625294Y-54103432D01*
X163595800Y-54168012D01*
X163579171Y-54183275D01*
X163579375Y-54183514D01*
X163575607Y-54186731D01*
X163446731Y-54315607D01*
X163446729Y-54315610D01*
X163339589Y-54463075D01*
X163316861Y-54507681D01*
X163268113Y-54559296D01*
X163199198Y-54576361D01*
X163141596Y-54559597D01*
X163141075Y-54559296D01*
X163102485Y-54537016D01*
X162962475Y-54499500D01*
X162817525Y-54499500D01*
X162724185Y-54524510D01*
X162677514Y-54537016D01*
X162551988Y-54609488D01*
X162551978Y-54609496D01*
X162449496Y-54711978D01*
X162449488Y-54711988D01*
X162377016Y-54837514D01*
X162361111Y-54896871D01*
X162341444Y-54970272D01*
X162339500Y-54977526D01*
X162339500Y-55122473D01*
X162339499Y-55122473D01*
X162377016Y-55262485D01*
X162449488Y-55388011D01*
X162449496Y-55388021D01*
X162551978Y-55490503D01*
X162551983Y-55490507D01*
X162551985Y-55490509D01*
X162677515Y-55562984D01*
X162817525Y-55600500D01*
X162817527Y-55600500D01*
X162962472Y-55600500D01*
X162962475Y-55600500D01*
X163013390Y-55586857D01*
X163084365Y-55588547D01*
X163143161Y-55628341D01*
X163171109Y-55693605D01*
X163172000Y-55708564D01*
X163172000Y-56161133D01*
X163200515Y-56341171D01*
X163256837Y-56514513D01*
X163256840Y-56514519D01*
X163339591Y-56676927D01*
X163446729Y-56824389D01*
X163446731Y-56824392D01*
X163575607Y-56953268D01*
X163575610Y-56953270D01*
X163723072Y-57060408D01*
X163885480Y-57143159D01*
X163885486Y-57143162D01*
X164058832Y-57199485D01*
X164076000Y-57202203D01*
X164076000Y-57202202D01*
X164584000Y-57202202D01*
X164601167Y-57199485D01*
X164774513Y-57143162D01*
X164774519Y-57143159D01*
X164936927Y-57060408D01*
X165084389Y-56953270D01*
X165084392Y-56953268D01*
X165213268Y-56824392D01*
X165213270Y-56824389D01*
X165320408Y-56676927D01*
X165403159Y-56514519D01*
X165403162Y-56514513D01*
X165459484Y-56341171D01*
X165488000Y-56161133D01*
X165488000Y-55824000D01*
X164584000Y-55824000D01*
X164584000Y-57202202D01*
X164076000Y-57202202D01*
X164076000Y-55696000D01*
X164080000Y-55682377D01*
X164080000Y-56169728D01*
X164118060Y-56261614D01*
X164188386Y-56331940D01*
X164280272Y-56370000D01*
X164379728Y-56370000D01*
X164471614Y-56331940D01*
X164541940Y-56261614D01*
X164580000Y-56169728D01*
X164580000Y-55316000D01*
X165488000Y-55316000D01*
X165488000Y-54996000D01*
X174913432Y-54996000D01*
X175747536Y-54996000D01*
X175726901Y-55045818D01*
X175700000Y-55181056D01*
X175700000Y-55318944D01*
X175726901Y-55454182D01*
X175747536Y-55504000D01*
X174913432Y-55504000D01*
X174929133Y-55603128D01*
X175002480Y-55828867D01*
X175110245Y-56040367D01*
X175249764Y-56232398D01*
X175249766Y-56232401D01*
X175417598Y-56400233D01*
X175417601Y-56400235D01*
X175609632Y-56539754D01*
X175821132Y-56647519D01*
X176046871Y-56720866D01*
X176146000Y-56736566D01*
X176146000Y-55902463D01*
X176195818Y-55923099D01*
X176331056Y-55950000D01*
X176468944Y-55950000D01*
X176604182Y-55923099D01*
X176654000Y-55902463D01*
X176654000Y-56736566D01*
X176753128Y-56720866D01*
X176978867Y-56647519D01*
X177190367Y-56539754D01*
X177382398Y-56400235D01*
X177382401Y-56400233D01*
X177550233Y-56232401D01*
X177550235Y-56232398D01*
X177689754Y-56040367D01*
X177797519Y-55828867D01*
X177870866Y-55603128D01*
X177886568Y-55504000D01*
X177052464Y-55504000D01*
X177073099Y-55454182D01*
X177100000Y-55318944D01*
X177100000Y-55181056D01*
X177073099Y-55045818D01*
X177052464Y-54996000D01*
X177886567Y-54996000D01*
X177870866Y-54896871D01*
X177797519Y-54671132D01*
X177689754Y-54459632D01*
X177579995Y-54308561D01*
X177556136Y-54241693D01*
X177572217Y-54172542D01*
X177623131Y-54123061D01*
X177681931Y-54108500D01*
X177856913Y-54108500D01*
X177856916Y-54108500D01*
X178068116Y-54075049D01*
X178271483Y-54008972D01*
X178462009Y-53911894D01*
X178635004Y-53786206D01*
X178786206Y-53635004D01*
X178911894Y-53462009D01*
X179008972Y-53271483D01*
X179075049Y-53068116D01*
X179108500Y-52856916D01*
X179108500Y-52643084D01*
X180891500Y-52643084D01*
X180891500Y-52856916D01*
X180916539Y-53015003D01*
X180924952Y-53068121D01*
X180988115Y-53262518D01*
X180991028Y-53271483D01*
X181088106Y-53462009D01*
X181213794Y-53635004D01*
X181213796Y-53635006D01*
X181213798Y-53635009D01*
X181364990Y-53786201D01*
X181364993Y-53786203D01*
X181364996Y-53786206D01*
X181537991Y-53911894D01*
X181728517Y-54008972D01*
X181931878Y-54075047D01*
X181931879Y-54075047D01*
X181931884Y-54075049D01*
X182143084Y-54108500D01*
X182143087Y-54108500D01*
X182318069Y-54108500D01*
X182386190Y-54128502D01*
X182432683Y-54182158D01*
X182442787Y-54252432D01*
X182420005Y-54308561D01*
X182310245Y-54459632D01*
X182202480Y-54671132D01*
X182129133Y-54896871D01*
X182113432Y-54996000D01*
X182947536Y-54996000D01*
X182926901Y-55045818D01*
X182900000Y-55181056D01*
X182900000Y-55318944D01*
X182926901Y-55454182D01*
X182947536Y-55504000D01*
X182113432Y-55504000D01*
X182129133Y-55603128D01*
X182202480Y-55828867D01*
X182310245Y-56040367D01*
X182449764Y-56232398D01*
X182449766Y-56232401D01*
X182617598Y-56400233D01*
X182617601Y-56400235D01*
X182809632Y-56539754D01*
X183021132Y-56647519D01*
X183246871Y-56720866D01*
X183346000Y-56736566D01*
X183346000Y-55902463D01*
X183395818Y-55923099D01*
X183531056Y-55950000D01*
X183668944Y-55950000D01*
X183804182Y-55923099D01*
X183854000Y-55902463D01*
X183854000Y-56736566D01*
X183953128Y-56720866D01*
X184178867Y-56647519D01*
X184390367Y-56539754D01*
X184582398Y-56400235D01*
X184582401Y-56400233D01*
X184750233Y-56232401D01*
X184750235Y-56232398D01*
X184889754Y-56040367D01*
X184997519Y-55828867D01*
X185070866Y-55603128D01*
X185086568Y-55504000D01*
X184252464Y-55504000D01*
X184273099Y-55454182D01*
X184300000Y-55318944D01*
X184300000Y-55181056D01*
X184273099Y-55045818D01*
X184252464Y-54996000D01*
X185086567Y-54996000D01*
X194913432Y-54996000D01*
X195747536Y-54996000D01*
X195726901Y-55045818D01*
X195700000Y-55181056D01*
X195700000Y-55318944D01*
X195726901Y-55454182D01*
X195747536Y-55504000D01*
X194913432Y-55504000D01*
X194929133Y-55603128D01*
X195002480Y-55828867D01*
X195110245Y-56040367D01*
X195249764Y-56232398D01*
X195249766Y-56232401D01*
X195417598Y-56400233D01*
X195417601Y-56400235D01*
X195609632Y-56539754D01*
X195821132Y-56647519D01*
X196046871Y-56720866D01*
X196146000Y-56736566D01*
X196146000Y-55902463D01*
X196195818Y-55923099D01*
X196331056Y-55950000D01*
X196468944Y-55950000D01*
X196604182Y-55923099D01*
X196654000Y-55902463D01*
X196654000Y-56736566D01*
X196753128Y-56720866D01*
X196978867Y-56647519D01*
X197190367Y-56539754D01*
X197382398Y-56400235D01*
X197382401Y-56400233D01*
X197550233Y-56232401D01*
X197550235Y-56232398D01*
X197689754Y-56040367D01*
X197797519Y-55828867D01*
X197870866Y-55603128D01*
X197886568Y-55504000D01*
X197052464Y-55504000D01*
X197073099Y-55454182D01*
X197100000Y-55318944D01*
X197100000Y-55181056D01*
X197073099Y-55045818D01*
X197052464Y-54996000D01*
X197886567Y-54996000D01*
X197870866Y-54896871D01*
X197797519Y-54671132D01*
X197689754Y-54459632D01*
X197579995Y-54308561D01*
X197556136Y-54241693D01*
X197572217Y-54172542D01*
X197623131Y-54123061D01*
X197681931Y-54108500D01*
X197856913Y-54108500D01*
X197856916Y-54108500D01*
X198068116Y-54075049D01*
X198271483Y-54008972D01*
X198462009Y-53911894D01*
X198635004Y-53786206D01*
X198786206Y-53635004D01*
X198911894Y-53462009D01*
X199008972Y-53271483D01*
X199075049Y-53068116D01*
X199108500Y-52856916D01*
X199108500Y-52643084D01*
X200891500Y-52643084D01*
X200891500Y-52856916D01*
X200916539Y-53015003D01*
X200924952Y-53068121D01*
X200988115Y-53262518D01*
X200991028Y-53271483D01*
X201088106Y-53462009D01*
X201213794Y-53635004D01*
X201213796Y-53635006D01*
X201213798Y-53635009D01*
X201364990Y-53786201D01*
X201364993Y-53786203D01*
X201364996Y-53786206D01*
X201537991Y-53911894D01*
X201728517Y-54008972D01*
X201931878Y-54075047D01*
X201931879Y-54075047D01*
X201931884Y-54075049D01*
X202143084Y-54108500D01*
X202143087Y-54108500D01*
X202318069Y-54108500D01*
X202386190Y-54128502D01*
X202432683Y-54182158D01*
X202442787Y-54252432D01*
X202420005Y-54308561D01*
X202310245Y-54459632D01*
X202202480Y-54671132D01*
X202129133Y-54896871D01*
X202113432Y-54996000D01*
X202947536Y-54996000D01*
X202926901Y-55045818D01*
X202900000Y-55181056D01*
X202900000Y-55318944D01*
X202926901Y-55454182D01*
X202947536Y-55504000D01*
X202113432Y-55504000D01*
X202129133Y-55603128D01*
X202202480Y-55828867D01*
X202310245Y-56040367D01*
X202449764Y-56232398D01*
X202449766Y-56232401D01*
X202617598Y-56400233D01*
X202617601Y-56400235D01*
X202809632Y-56539754D01*
X203021132Y-56647519D01*
X203246871Y-56720866D01*
X203346000Y-56736566D01*
X203346000Y-55902463D01*
X203395818Y-55923099D01*
X203531056Y-55950000D01*
X203668944Y-55950000D01*
X203804182Y-55923099D01*
X203854000Y-55902463D01*
X203854000Y-56736566D01*
X203953128Y-56720866D01*
X204178867Y-56647519D01*
X204390367Y-56539754D01*
X204582398Y-56400235D01*
X204582401Y-56400233D01*
X204750233Y-56232401D01*
X204750235Y-56232398D01*
X204889754Y-56040367D01*
X204997519Y-55828867D01*
X205070866Y-55603128D01*
X205086568Y-55504000D01*
X204252464Y-55504000D01*
X204273099Y-55454182D01*
X204300000Y-55318944D01*
X204300000Y-55181056D01*
X204273099Y-55045818D01*
X204252464Y-54996000D01*
X205086567Y-54996000D01*
X205070866Y-54896871D01*
X204997519Y-54671132D01*
X204889754Y-54459632D01*
X204750235Y-54267601D01*
X204750233Y-54267598D01*
X204582401Y-54099766D01*
X204582398Y-54099764D01*
X204390367Y-53960245D01*
X204178867Y-53852480D01*
X203953128Y-53779133D01*
X203854000Y-53763432D01*
X203854000Y-54597536D01*
X203804182Y-54576901D01*
X203668944Y-54550000D01*
X203531056Y-54550000D01*
X203395818Y-54576901D01*
X203346000Y-54597536D01*
X203346000Y-53763431D01*
X203340089Y-53758383D01*
X203301280Y-53698932D01*
X203300774Y-53627937D01*
X203319980Y-53588517D01*
X203411894Y-53462009D01*
X203508972Y-53271483D01*
X203575049Y-53068116D01*
X203608500Y-52856916D01*
X203608500Y-52643084D01*
X203575049Y-52431884D01*
X203508972Y-52228517D01*
X203411894Y-52037991D01*
X203286206Y-51864996D01*
X203286203Y-51864993D01*
X203286201Y-51864990D01*
X203135009Y-51713798D01*
X203135006Y-51713796D01*
X203135004Y-51713794D01*
X202962009Y-51588106D01*
X202771483Y-51491028D01*
X202771480Y-51491027D01*
X202771478Y-51491026D01*
X202568120Y-51424952D01*
X202568123Y-51424952D01*
X202507195Y-51415302D01*
X202356916Y-51391500D01*
X202143084Y-51391500D01*
X201931884Y-51424951D01*
X201931878Y-51424952D01*
X201728521Y-51491026D01*
X201728515Y-51491029D01*
X201537987Y-51588108D01*
X201364993Y-51713796D01*
X201364990Y-51713798D01*
X201213798Y-51864990D01*
X201213796Y-51864993D01*
X201088108Y-52037987D01*
X200991029Y-52228515D01*
X200991026Y-52228521D01*
X200924952Y-52431878D01*
X200924951Y-52431883D01*
X200924951Y-52431884D01*
X200891500Y-52643084D01*
X199108500Y-52643084D01*
X199075049Y-52431884D01*
X199008972Y-52228517D01*
X198911894Y-52037991D01*
X198786206Y-51864996D01*
X198786203Y-51864993D01*
X198786201Y-51864990D01*
X198635009Y-51713798D01*
X198635006Y-51713796D01*
X198635004Y-51713794D01*
X198462009Y-51588106D01*
X198271483Y-51491028D01*
X198271480Y-51491027D01*
X198271478Y-51491026D01*
X198068120Y-51424952D01*
X198068123Y-51424952D01*
X198007195Y-51415302D01*
X197856916Y-51391500D01*
X197643084Y-51391500D01*
X197431884Y-51424951D01*
X197431878Y-51424952D01*
X197228521Y-51491026D01*
X197228515Y-51491029D01*
X197037987Y-51588108D01*
X196864993Y-51713796D01*
X196864990Y-51713798D01*
X196713798Y-51864990D01*
X196713796Y-51864993D01*
X196588108Y-52037987D01*
X196491029Y-52228515D01*
X196491026Y-52228521D01*
X196424952Y-52431878D01*
X196424951Y-52431883D01*
X196424951Y-52431884D01*
X196391500Y-52643084D01*
X196391500Y-52856916D01*
X196416539Y-53015003D01*
X196424952Y-53068121D01*
X196488115Y-53262518D01*
X196491028Y-53271483D01*
X196588106Y-53462009D01*
X196588108Y-53462012D01*
X196680015Y-53588511D01*
X196703874Y-53655379D01*
X196687793Y-53724530D01*
X196659911Y-53758382D01*
X196654000Y-53763430D01*
X196654000Y-54597536D01*
X196604182Y-54576901D01*
X196468944Y-54550000D01*
X196331056Y-54550000D01*
X196195818Y-54576901D01*
X196146000Y-54597536D01*
X196146000Y-53763432D01*
X196046871Y-53779133D01*
X195821132Y-53852480D01*
X195609632Y-53960245D01*
X195417601Y-54099764D01*
X195417598Y-54099766D01*
X195249766Y-54267598D01*
X195249764Y-54267601D01*
X195110245Y-54459632D01*
X195002480Y-54671132D01*
X194929133Y-54896871D01*
X194913432Y-54996000D01*
X185086567Y-54996000D01*
X185070866Y-54896871D01*
X184997519Y-54671132D01*
X184889754Y-54459632D01*
X184750235Y-54267601D01*
X184750233Y-54267598D01*
X184582401Y-54099766D01*
X184582398Y-54099764D01*
X184390367Y-53960245D01*
X184178867Y-53852480D01*
X183953128Y-53779133D01*
X183854000Y-53763432D01*
X183854000Y-54597536D01*
X183804182Y-54576901D01*
X183668944Y-54550000D01*
X183531056Y-54550000D01*
X183395818Y-54576901D01*
X183346000Y-54597536D01*
X183346000Y-53763431D01*
X183340089Y-53758383D01*
X183301280Y-53698932D01*
X183300774Y-53627937D01*
X183319980Y-53588517D01*
X183411894Y-53462009D01*
X183508972Y-53271483D01*
X183575049Y-53068116D01*
X183608500Y-52856916D01*
X183608500Y-52643084D01*
X183575049Y-52431884D01*
X183508972Y-52228517D01*
X183411894Y-52037991D01*
X183286206Y-51864996D01*
X183286203Y-51864993D01*
X183286201Y-51864990D01*
X183135009Y-51713798D01*
X183135006Y-51713796D01*
X183135004Y-51713794D01*
X182962009Y-51588106D01*
X182771483Y-51491028D01*
X182771480Y-51491027D01*
X182771478Y-51491026D01*
X182568120Y-51424952D01*
X182568123Y-51424952D01*
X182507195Y-51415302D01*
X182356916Y-51391500D01*
X182143084Y-51391500D01*
X181931884Y-51424951D01*
X181931878Y-51424952D01*
X181728521Y-51491026D01*
X181728515Y-51491029D01*
X181537987Y-51588108D01*
X181364993Y-51713796D01*
X181364990Y-51713798D01*
X181213798Y-51864990D01*
X181213796Y-51864993D01*
X181088108Y-52037987D01*
X180991029Y-52228515D01*
X180991026Y-52228521D01*
X180924952Y-52431878D01*
X180924951Y-52431883D01*
X180924951Y-52431884D01*
X180891500Y-52643084D01*
X179108500Y-52643084D01*
X179075049Y-52431884D01*
X179008972Y-52228517D01*
X178911894Y-52037991D01*
X178786206Y-51864996D01*
X178786203Y-51864993D01*
X178786201Y-51864990D01*
X178635009Y-51713798D01*
X178635006Y-51713796D01*
X178635004Y-51713794D01*
X178462009Y-51588106D01*
X178271483Y-51491028D01*
X178271480Y-51491027D01*
X178271478Y-51491026D01*
X178068120Y-51424952D01*
X178068123Y-51424952D01*
X178007195Y-51415302D01*
X177856916Y-51391500D01*
X177643084Y-51391500D01*
X177431884Y-51424951D01*
X177431878Y-51424952D01*
X177228521Y-51491026D01*
X177228515Y-51491029D01*
X177037987Y-51588108D01*
X176864993Y-51713796D01*
X176864990Y-51713798D01*
X176713798Y-51864990D01*
X176713796Y-51864993D01*
X176588108Y-52037987D01*
X176491029Y-52228515D01*
X176491026Y-52228521D01*
X176424952Y-52431878D01*
X176424951Y-52431883D01*
X176424951Y-52431884D01*
X176391500Y-52643084D01*
X176391500Y-52856916D01*
X176416539Y-53015003D01*
X176424952Y-53068121D01*
X176488115Y-53262518D01*
X176491028Y-53271483D01*
X176588106Y-53462009D01*
X176588108Y-53462012D01*
X176680015Y-53588511D01*
X176703874Y-53655379D01*
X176687793Y-53724530D01*
X176659911Y-53758382D01*
X176654000Y-53763430D01*
X176654000Y-54597536D01*
X176604182Y-54576901D01*
X176468944Y-54550000D01*
X176331056Y-54550000D01*
X176195818Y-54576901D01*
X176146000Y-54597536D01*
X176146000Y-53763432D01*
X176046871Y-53779133D01*
X175821132Y-53852480D01*
X175609632Y-53960245D01*
X175417601Y-54099764D01*
X175417598Y-54099766D01*
X175249766Y-54267598D01*
X175249764Y-54267601D01*
X175110245Y-54459632D01*
X175002480Y-54671132D01*
X174929133Y-54896871D01*
X174913432Y-54996000D01*
X165488000Y-54996000D01*
X165488000Y-54978866D01*
X165459484Y-54798828D01*
X165403162Y-54625486D01*
X165403159Y-54625480D01*
X165320408Y-54463072D01*
X165213270Y-54315610D01*
X165213268Y-54315607D01*
X165084392Y-54186731D01*
X165080625Y-54183514D01*
X165081524Y-54182461D01*
X165042006Y-54131206D01*
X165035935Y-54060470D01*
X165069071Y-53997680D01*
X165130893Y-53962773D01*
X165159424Y-53959500D01*
X167036393Y-53959500D01*
X167036394Y-53959500D01*
X167158785Y-53935155D01*
X167274075Y-53887400D01*
X167377833Y-53818071D01*
X167500499Y-53695405D01*
X167562811Y-53661379D01*
X167589594Y-53658500D01*
X167639478Y-53658500D01*
X167639479Y-53658500D01*
X167815000Y-53623587D01*
X167980336Y-53555102D01*
X168129135Y-53455678D01*
X168255678Y-53329135D01*
X168355102Y-53180336D01*
X168423587Y-53015000D01*
X168458500Y-52839479D01*
X168458500Y-52660521D01*
X168454546Y-52640645D01*
X168444688Y-52591082D01*
X168423587Y-52485000D01*
X168355102Y-52319664D01*
X168255678Y-52170865D01*
X168129135Y-52044322D01*
X167980336Y-51944898D01*
X167863429Y-51896473D01*
X167815003Y-51876414D01*
X167815001Y-51876413D01*
X167815000Y-51876413D01*
X167726645Y-51858838D01*
X167639481Y-51841500D01*
X167639479Y-51841500D01*
X167460521Y-51841500D01*
X167460518Y-51841500D01*
X167340769Y-51865320D01*
X167285000Y-51876413D01*
X167284999Y-51876413D01*
X167284996Y-51876414D01*
X167119662Y-51944899D01*
X166970869Y-52044319D01*
X166970862Y-52044324D01*
X166844324Y-52170862D01*
X166844319Y-52170869D01*
X166744899Y-52319662D01*
X166698369Y-52431995D01*
X166676413Y-52485000D01*
X166667681Y-52528899D01*
X166655312Y-52591082D01*
X166622404Y-52653991D01*
X166560709Y-52689123D01*
X166531733Y-52692500D01*
X165338420Y-52692500D01*
X165270299Y-52672498D01*
X165223806Y-52618842D01*
X165213702Y-52548568D01*
X165236484Y-52492439D01*
X165320408Y-52376927D01*
X165403159Y-52214519D01*
X165403162Y-52214513D01*
X165459484Y-52041171D01*
X165488000Y-51861133D01*
X165488000Y-51624000D01*
X164580000Y-51624000D01*
X164580000Y-51116000D01*
X165488000Y-51116000D01*
X165488000Y-50878866D01*
X165459484Y-50698828D01*
X165403162Y-50525486D01*
X165403159Y-50525480D01*
X165320408Y-50363072D01*
X165210363Y-50211608D01*
X165212034Y-50210393D01*
X165186561Y-50153525D01*
X165197175Y-50083327D01*
X165244056Y-50030010D01*
X165311405Y-50010500D01*
X219863500Y-50010500D01*
X219931621Y-50030502D01*
X219978114Y-50084158D01*
X219989500Y-50136500D01*
X219989500Y-129863500D01*
X219969498Y-129931621D01*
X219915842Y-129978114D01*
X219863500Y-129989500D01*
X194810500Y-129989500D01*
X100175868Y-129950052D01*
X100107756Y-129930022D01*
X100061286Y-129876347D01*
X100049921Y-129824131D01*
X100049257Y-128762070D01*
X100048803Y-128036288D01*
X105337630Y-128036288D01*
X105337630Y-128163711D01*
X105337927Y-128166730D01*
X105337928Y-128166735D01*
X105362787Y-128291709D01*
X105363669Y-128294617D01*
X105412431Y-128412340D01*
X105413863Y-128415019D01*
X105484655Y-128520967D01*
X105486121Y-128522754D01*
X105486577Y-128523309D01*
X105486600Y-128523334D01*
X105576665Y-128613399D01*
X105576677Y-128613410D01*
X105576684Y-128613417D01*
X105579033Y-128615345D01*
X105684981Y-128686137D01*
X105687660Y-128687569D01*
X105805383Y-128736331D01*
X105808291Y-128737213D01*
X105933265Y-128762072D01*
X105936289Y-128762370D01*
X105936292Y-128762370D01*
X106063708Y-128762370D01*
X106063711Y-128762370D01*
X106066735Y-128762072D01*
X106191709Y-128737213D01*
X106194617Y-128736331D01*
X106312340Y-128687569D01*
X106315019Y-128686137D01*
X106420967Y-128615345D01*
X106423316Y-128613417D01*
X106513417Y-128523316D01*
X106515345Y-128520967D01*
X106586137Y-128415019D01*
X106587569Y-128412340D01*
X106636331Y-128294617D01*
X106637213Y-128291709D01*
X106662072Y-128166735D01*
X106662370Y-128163711D01*
X106662370Y-128036289D01*
X106662370Y-128036288D01*
X213337630Y-128036288D01*
X213337630Y-128163711D01*
X213337927Y-128166730D01*
X213337928Y-128166735D01*
X213362787Y-128291709D01*
X213363669Y-128294617D01*
X213412431Y-128412340D01*
X213413863Y-128415019D01*
X213484655Y-128520967D01*
X213486121Y-128522754D01*
X213486577Y-128523309D01*
X213486600Y-128523334D01*
X213576665Y-128613399D01*
X213576677Y-128613410D01*
X213576684Y-128613417D01*
X213579033Y-128615345D01*
X213684981Y-128686137D01*
X213687660Y-128687569D01*
X213805383Y-128736331D01*
X213808291Y-128737213D01*
X213933265Y-128762072D01*
X213936289Y-128762370D01*
X213936292Y-128762370D01*
X214063708Y-128762370D01*
X214063711Y-128762370D01*
X214066735Y-128762072D01*
X214191709Y-128737213D01*
X214194617Y-128736331D01*
X214312340Y-128687569D01*
X214315019Y-128686137D01*
X214420967Y-128615345D01*
X214423316Y-128613417D01*
X214513417Y-128523316D01*
X214515345Y-128520967D01*
X214586137Y-128415019D01*
X214587569Y-128412340D01*
X214636331Y-128294617D01*
X214637213Y-128291709D01*
X214662072Y-128166735D01*
X214662370Y-128163711D01*
X214662370Y-128036289D01*
X214662072Y-128033265D01*
X214637213Y-127908291D01*
X214636331Y-127905383D01*
X214587569Y-127787660D01*
X214586137Y-127784981D01*
X214515345Y-127679033D01*
X214513417Y-127676684D01*
X214513410Y-127676677D01*
X214513399Y-127676665D01*
X214423334Y-127586600D01*
X214423309Y-127586577D01*
X214422754Y-127586121D01*
X214420967Y-127584655D01*
X214315019Y-127513863D01*
X214312340Y-127512431D01*
X214194617Y-127463669D01*
X214191709Y-127462787D01*
X214191706Y-127462786D01*
X214191703Y-127462785D01*
X214066742Y-127437929D01*
X214066730Y-127437927D01*
X214063711Y-127437630D01*
X213936289Y-127437630D01*
X213936288Y-127437630D01*
X213933269Y-127437927D01*
X213933257Y-127437929D01*
X213808296Y-127462785D01*
X213808293Y-127462786D01*
X213805385Y-127463668D01*
X213687659Y-127512431D01*
X213684986Y-127513860D01*
X213684983Y-127513861D01*
X213684981Y-127513863D01*
X213579033Y-127584655D01*
X213576690Y-127586577D01*
X213576665Y-127586600D01*
X213486600Y-127676665D01*
X213486577Y-127676690D01*
X213484655Y-127679033D01*
X213413862Y-127784983D01*
X213413860Y-127784986D01*
X213412431Y-127787659D01*
X213363668Y-127905385D01*
X213362786Y-127908293D01*
X213362785Y-127908296D01*
X213337929Y-128033257D01*
X213337927Y-128033269D01*
X213337630Y-128036288D01*
X106662370Y-128036288D01*
X106662072Y-128033265D01*
X106637213Y-127908291D01*
X106636331Y-127905383D01*
X106587569Y-127787660D01*
X106586137Y-127784981D01*
X106515345Y-127679033D01*
X106513417Y-127676684D01*
X106513410Y-127676677D01*
X106513399Y-127676665D01*
X106423334Y-127586600D01*
X106423309Y-127586577D01*
X106422754Y-127586121D01*
X106420967Y-127584655D01*
X106315019Y-127513863D01*
X106312340Y-127512431D01*
X106194617Y-127463669D01*
X106191709Y-127462787D01*
X106191706Y-127462786D01*
X106191703Y-127462785D01*
X106066742Y-127437929D01*
X106066730Y-127437927D01*
X106063711Y-127437630D01*
X105936289Y-127437630D01*
X105936288Y-127437630D01*
X105933269Y-127437927D01*
X105933257Y-127437929D01*
X105808296Y-127462785D01*
X105808293Y-127462786D01*
X105805385Y-127463668D01*
X105687659Y-127512431D01*
X105684986Y-127513860D01*
X105684983Y-127513861D01*
X105684981Y-127513863D01*
X105579033Y-127584655D01*
X105576690Y-127586577D01*
X105576665Y-127586600D01*
X105486600Y-127676665D01*
X105486577Y-127676690D01*
X105484655Y-127679033D01*
X105413862Y-127784983D01*
X105413860Y-127784986D01*
X105412431Y-127787659D01*
X105363668Y-127905385D01*
X105362786Y-127908293D01*
X105362785Y-127908296D01*
X105337929Y-128033257D01*
X105337927Y-128033269D01*
X105337630Y-128036288D01*
X100048803Y-128036288D01*
X100046051Y-123634772D01*
X112392000Y-123634772D01*
X112392000Y-123746000D01*
X113202075Y-123746000D01*
X113200000Y-123756433D01*
X113200000Y-124243567D01*
X113202075Y-124254000D01*
X112392000Y-124254000D01*
X112392000Y-124365227D01*
X112422078Y-124593698D01*
X112481724Y-124816298D01*
X112481725Y-124816302D01*
X112569916Y-125029213D01*
X112569921Y-125029224D01*
X112685137Y-125228784D01*
X112685141Y-125228790D01*
X112825425Y-125411611D01*
X112825444Y-125411632D01*
X112988367Y-125574555D01*
X112988388Y-125574574D01*
X113171209Y-125714858D01*
X113171215Y-125714862D01*
X113370775Y-125830078D01*
X113370786Y-125830083D01*
X113583697Y-125918274D01*
X113583701Y-125918275D01*
X113806299Y-125977920D01*
X113806303Y-125977921D01*
X113895999Y-125989729D01*
X113896000Y-125989729D01*
X113896000Y-125068087D01*
X114056433Y-125100000D01*
X114243567Y-125100000D01*
X114404000Y-125068087D01*
X114404000Y-125989729D01*
X114493696Y-125977921D01*
X114493700Y-125977920D01*
X114716298Y-125918275D01*
X114716302Y-125918274D01*
X114929213Y-125830083D01*
X114929224Y-125830078D01*
X115128784Y-125714862D01*
X115128790Y-125714858D01*
X115311611Y-125574574D01*
X115311632Y-125574555D01*
X115474555Y-125411632D01*
X115474574Y-125411611D01*
X115614858Y-125228790D01*
X115614862Y-125228784D01*
X115730078Y-125029224D01*
X115730083Y-125029213D01*
X115818274Y-124816302D01*
X115818275Y-124816298D01*
X115877921Y-124593698D01*
X115907999Y-124365227D01*
X115908000Y-124365218D01*
X115908000Y-124254000D01*
X115097925Y-124254000D01*
X115100000Y-124243567D01*
X115100000Y-123756433D01*
X115097925Y-123746000D01*
X115908000Y-123746000D01*
X115908000Y-123634782D01*
X115907999Y-123634772D01*
X121192000Y-123634772D01*
X121192000Y-123746000D01*
X122002075Y-123746000D01*
X122000000Y-123756433D01*
X122000000Y-124243567D01*
X122002075Y-124254000D01*
X121192000Y-124254000D01*
X121192000Y-124365227D01*
X121222078Y-124593698D01*
X121281724Y-124816298D01*
X121281725Y-124816302D01*
X121369916Y-125029213D01*
X121369921Y-125029224D01*
X121485137Y-125228784D01*
X121485141Y-125228790D01*
X121625425Y-125411611D01*
X121625444Y-125411632D01*
X121788367Y-125574555D01*
X121788388Y-125574574D01*
X121971209Y-125714858D01*
X121971215Y-125714862D01*
X122170775Y-125830078D01*
X122170786Y-125830083D01*
X122383697Y-125918274D01*
X122383701Y-125918275D01*
X122606299Y-125977920D01*
X122606303Y-125977921D01*
X122695999Y-125989729D01*
X122696000Y-125989729D01*
X122696000Y-125068087D01*
X122856433Y-125100000D01*
X123043567Y-125100000D01*
X123204000Y-125068087D01*
X123204000Y-125989729D01*
X123293696Y-125977921D01*
X123293700Y-125977920D01*
X123516298Y-125918275D01*
X123516302Y-125918274D01*
X123729213Y-125830083D01*
X123729224Y-125830078D01*
X123928784Y-125714862D01*
X123928790Y-125714858D01*
X124111611Y-125574574D01*
X124111632Y-125574555D01*
X124274555Y-125411632D01*
X124274574Y-125411611D01*
X124414858Y-125228790D01*
X124414862Y-125228784D01*
X124530078Y-125029224D01*
X124530083Y-125029213D01*
X124618274Y-124816302D01*
X124618275Y-124816298D01*
X124677921Y-124593698D01*
X124707999Y-124365227D01*
X124708000Y-124365218D01*
X124708000Y-124254000D01*
X123897925Y-124254000D01*
X123900000Y-124243567D01*
X123900000Y-123756433D01*
X123897925Y-123746000D01*
X124708000Y-123746000D01*
X124708000Y-123634782D01*
X124707999Y-123634772D01*
X147962000Y-123634772D01*
X147962000Y-123746000D01*
X148772075Y-123746000D01*
X148770000Y-123756433D01*
X148770000Y-124243567D01*
X148772075Y-124254000D01*
X147962000Y-124254000D01*
X147962000Y-124365227D01*
X147992078Y-124593698D01*
X148051724Y-124816298D01*
X148051725Y-124816302D01*
X148139916Y-125029213D01*
X148139921Y-125029224D01*
X148255137Y-125228784D01*
X148255141Y-125228790D01*
X148395425Y-125411611D01*
X148395444Y-125411632D01*
X148558367Y-125574555D01*
X148558388Y-125574574D01*
X148741209Y-125714858D01*
X148741215Y-125714862D01*
X148940775Y-125830078D01*
X148940786Y-125830083D01*
X149153697Y-125918274D01*
X149153701Y-125918275D01*
X149376299Y-125977920D01*
X149376303Y-125977921D01*
X149465999Y-125989729D01*
X149466000Y-125989729D01*
X149466000Y-125068087D01*
X149626433Y-125100000D01*
X149813567Y-125100000D01*
X149974000Y-125068087D01*
X149974000Y-125989729D01*
X150063696Y-125977921D01*
X150063700Y-125977920D01*
X150286298Y-125918275D01*
X150286302Y-125918274D01*
X150499213Y-125830083D01*
X150499224Y-125830078D01*
X150698784Y-125714862D01*
X150698790Y-125714858D01*
X150881611Y-125574574D01*
X150881632Y-125574555D01*
X151044555Y-125411632D01*
X151044574Y-125411611D01*
X151184858Y-125228790D01*
X151184862Y-125228784D01*
X151300078Y-125029224D01*
X151300083Y-125029213D01*
X151388274Y-124816302D01*
X151388275Y-124816298D01*
X151447921Y-124593698D01*
X151477999Y-124365227D01*
X151478000Y-124365218D01*
X151478000Y-124254000D01*
X150667925Y-124254000D01*
X150670000Y-124243567D01*
X150670000Y-123756433D01*
X150667925Y-123746000D01*
X151478000Y-123746000D01*
X151478000Y-123634782D01*
X151477999Y-123634772D01*
X156762000Y-123634772D01*
X156762000Y-123746000D01*
X157572075Y-123746000D01*
X157570000Y-123756433D01*
X157570000Y-124243567D01*
X157572075Y-124254000D01*
X156762000Y-124254000D01*
X156762000Y-124365227D01*
X156792078Y-124593698D01*
X156851724Y-124816298D01*
X156851725Y-124816302D01*
X156939916Y-125029213D01*
X156939921Y-125029224D01*
X157055137Y-125228784D01*
X157055141Y-125228790D01*
X157195425Y-125411611D01*
X157195444Y-125411632D01*
X157358367Y-125574555D01*
X157358388Y-125574574D01*
X157541209Y-125714858D01*
X157541215Y-125714862D01*
X157740775Y-125830078D01*
X157740786Y-125830083D01*
X157953697Y-125918274D01*
X157953701Y-125918275D01*
X158176299Y-125977920D01*
X158176303Y-125977921D01*
X158265999Y-125989729D01*
X158266000Y-125989729D01*
X158266000Y-125068087D01*
X158426433Y-125100000D01*
X158613567Y-125100000D01*
X158774000Y-125068087D01*
X158774000Y-125989729D01*
X158863696Y-125977921D01*
X158863700Y-125977920D01*
X159086298Y-125918275D01*
X159086302Y-125918274D01*
X159299213Y-125830083D01*
X159299224Y-125830078D01*
X159498784Y-125714862D01*
X159498790Y-125714858D01*
X159681611Y-125574574D01*
X159681632Y-125574555D01*
X159844555Y-125411632D01*
X159844574Y-125411611D01*
X159984858Y-125228790D01*
X159984862Y-125228784D01*
X160100078Y-125029224D01*
X160100083Y-125029213D01*
X160188274Y-124816302D01*
X160188275Y-124816298D01*
X160247921Y-124593698D01*
X160277999Y-124365227D01*
X160278000Y-124365218D01*
X160278000Y-124254000D01*
X159467925Y-124254000D01*
X159470000Y-124243567D01*
X159470000Y-123756433D01*
X159467925Y-123746000D01*
X160278000Y-123746000D01*
X160278000Y-123634782D01*
X160277999Y-123634772D01*
X170342000Y-123634772D01*
X170342000Y-123746000D01*
X171152075Y-123746000D01*
X171150000Y-123756433D01*
X171150000Y-124243567D01*
X171152075Y-124254000D01*
X170342000Y-124254000D01*
X170342000Y-124365227D01*
X170372078Y-124593698D01*
X170431724Y-124816298D01*
X170431725Y-124816302D01*
X170519916Y-125029213D01*
X170519921Y-125029224D01*
X170635137Y-125228784D01*
X170635141Y-125228790D01*
X170775425Y-125411611D01*
X170775444Y-125411632D01*
X170938367Y-125574555D01*
X170938388Y-125574574D01*
X171121209Y-125714858D01*
X171121215Y-125714862D01*
X171320775Y-125830078D01*
X171320786Y-125830083D01*
X171533697Y-125918274D01*
X171533701Y-125918275D01*
X171756299Y-125977920D01*
X171756303Y-125977921D01*
X171846000Y-125989729D01*
X171846000Y-125068087D01*
X172006433Y-125100000D01*
X172193567Y-125100000D01*
X172354000Y-125068087D01*
X172354000Y-125989729D01*
X172443696Y-125977921D01*
X172443700Y-125977920D01*
X172666298Y-125918275D01*
X172666302Y-125918274D01*
X172879213Y-125830083D01*
X172879224Y-125830078D01*
X173078784Y-125714862D01*
X173078790Y-125714858D01*
X173261611Y-125574574D01*
X173261632Y-125574555D01*
X173424555Y-125411632D01*
X173424574Y-125411611D01*
X173564858Y-125228790D01*
X173564862Y-125228784D01*
X173680078Y-125029224D01*
X173680083Y-125029213D01*
X173768274Y-124816302D01*
X173768275Y-124816298D01*
X173827921Y-124593698D01*
X173857999Y-124365227D01*
X173858000Y-124365218D01*
X173858000Y-124254000D01*
X173047925Y-124254000D01*
X173050000Y-124243567D01*
X173050000Y-123756433D01*
X173047925Y-123746000D01*
X173858000Y-123746000D01*
X173858000Y-123634782D01*
X173857999Y-123634772D01*
X179142000Y-123634772D01*
X179142000Y-123746000D01*
X179952075Y-123746000D01*
X179950000Y-123756433D01*
X179950000Y-124243567D01*
X179952075Y-124254000D01*
X179142000Y-124254000D01*
X179142000Y-124365227D01*
X179172078Y-124593698D01*
X179231724Y-124816298D01*
X179231725Y-124816302D01*
X179319916Y-125029213D01*
X179319921Y-125029224D01*
X179435137Y-125228784D01*
X179435141Y-125228790D01*
X179575425Y-125411611D01*
X179575444Y-125411632D01*
X179738367Y-125574555D01*
X179738388Y-125574574D01*
X179921209Y-125714858D01*
X179921215Y-125714862D01*
X180120775Y-125830078D01*
X180120786Y-125830083D01*
X180333697Y-125918274D01*
X180333701Y-125918275D01*
X180556299Y-125977920D01*
X180556303Y-125977921D01*
X180646000Y-125989729D01*
X180646000Y-125068087D01*
X180806433Y-125100000D01*
X180993567Y-125100000D01*
X181154000Y-125068087D01*
X181154000Y-125989729D01*
X181243696Y-125977921D01*
X181243700Y-125977920D01*
X181466298Y-125918275D01*
X181466302Y-125918274D01*
X181679213Y-125830083D01*
X181679224Y-125830078D01*
X181878784Y-125714862D01*
X181878790Y-125714858D01*
X182061611Y-125574574D01*
X182061632Y-125574555D01*
X182224555Y-125411632D01*
X182224574Y-125411611D01*
X182364858Y-125228790D01*
X182364862Y-125228784D01*
X182480078Y-125029224D01*
X182480083Y-125029213D01*
X182568274Y-124816302D01*
X182568275Y-124816298D01*
X182627921Y-124593698D01*
X182657999Y-124365227D01*
X182658000Y-124365218D01*
X182658000Y-124254000D01*
X181847925Y-124254000D01*
X181850000Y-124243567D01*
X181850000Y-123756433D01*
X181847925Y-123746000D01*
X182658000Y-123746000D01*
X182658000Y-123634782D01*
X182657999Y-123634772D01*
X182627921Y-123406301D01*
X182568275Y-123183701D01*
X182568274Y-123183697D01*
X182480083Y-122970786D01*
X182480078Y-122970775D01*
X182364862Y-122771215D01*
X182364858Y-122771209D01*
X182224574Y-122588388D01*
X182224555Y-122588367D01*
X182061632Y-122425444D01*
X182061611Y-122425425D01*
X181878790Y-122285141D01*
X181878784Y-122285137D01*
X181679224Y-122169921D01*
X181679213Y-122169916D01*
X181630173Y-122149603D01*
X181466302Y-122081725D01*
X181466298Y-122081724D01*
X181296729Y-122036288D01*
X213337630Y-122036288D01*
X213337630Y-122163711D01*
X213337927Y-122166730D01*
X213337929Y-122166742D01*
X213362185Y-122288685D01*
X213362787Y-122291709D01*
X213363669Y-122294617D01*
X213412431Y-122412340D01*
X213413863Y-122415019D01*
X213484655Y-122520967D01*
X213486121Y-122522754D01*
X213486577Y-122523309D01*
X213486600Y-122523334D01*
X213576665Y-122613399D01*
X213576677Y-122613410D01*
X213576684Y-122613417D01*
X213579033Y-122615345D01*
X213684981Y-122686137D01*
X213687660Y-122687569D01*
X213805383Y-122736331D01*
X213808291Y-122737213D01*
X213933265Y-122762072D01*
X213936289Y-122762370D01*
X213936292Y-122762370D01*
X214063708Y-122762370D01*
X214063711Y-122762370D01*
X214066735Y-122762072D01*
X214191709Y-122737213D01*
X214194617Y-122736331D01*
X214312340Y-122687569D01*
X214315019Y-122686137D01*
X214420967Y-122615345D01*
X214423316Y-122613417D01*
X214513417Y-122523316D01*
X214515345Y-122520967D01*
X214586137Y-122415019D01*
X214587569Y-122412340D01*
X214636331Y-122294617D01*
X214637213Y-122291709D01*
X214638520Y-122285141D01*
X214661439Y-122169916D01*
X214662072Y-122166735D01*
X214662370Y-122163711D01*
X214662370Y-122036289D01*
X214662072Y-122033265D01*
X214637213Y-121908291D01*
X214636331Y-121905383D01*
X214587569Y-121787660D01*
X214586137Y-121784981D01*
X214515345Y-121679033D01*
X214513417Y-121676684D01*
X214513410Y-121676677D01*
X214513399Y-121676665D01*
X214423334Y-121586600D01*
X214423309Y-121586577D01*
X214422754Y-121586121D01*
X214420967Y-121584655D01*
X214315019Y-121513863D01*
X214312340Y-121512431D01*
X214194617Y-121463669D01*
X214191709Y-121462787D01*
X214191706Y-121462786D01*
X214191703Y-121462785D01*
X214066742Y-121437929D01*
X214066730Y-121437927D01*
X214063711Y-121437630D01*
X213936289Y-121437630D01*
X213936288Y-121437630D01*
X213933269Y-121437927D01*
X213933257Y-121437929D01*
X213808296Y-121462785D01*
X213808293Y-121462786D01*
X213805385Y-121463668D01*
X213687659Y-121512431D01*
X213684986Y-121513860D01*
X213684983Y-121513861D01*
X213684981Y-121513863D01*
X213579033Y-121584655D01*
X213576690Y-121586577D01*
X213576665Y-121586600D01*
X213486600Y-121676665D01*
X213486577Y-121676690D01*
X213484655Y-121679033D01*
X213413862Y-121784983D01*
X213413860Y-121784986D01*
X213412431Y-121787659D01*
X213363668Y-121905385D01*
X213362786Y-121908293D01*
X213362785Y-121908296D01*
X213337929Y-122033257D01*
X213337927Y-122033269D01*
X213337630Y-122036288D01*
X181296729Y-122036288D01*
X181243697Y-122022078D01*
X181154000Y-122010269D01*
X181154000Y-122931912D01*
X180993567Y-122900000D01*
X180806433Y-122900000D01*
X180646000Y-122931912D01*
X180646000Y-122010270D01*
X180645999Y-122010269D01*
X180556302Y-122022078D01*
X180333701Y-122081724D01*
X180333697Y-122081725D01*
X180120786Y-122169916D01*
X180120775Y-122169921D01*
X179921215Y-122285137D01*
X179921209Y-122285141D01*
X179738388Y-122425425D01*
X179738367Y-122425444D01*
X179575444Y-122588367D01*
X179575425Y-122588388D01*
X179435141Y-122771209D01*
X179435137Y-122771215D01*
X179319921Y-122970775D01*
X179319916Y-122970786D01*
X179231725Y-123183697D01*
X179231724Y-123183701D01*
X179172078Y-123406301D01*
X179142000Y-123634772D01*
X173857999Y-123634772D01*
X173827921Y-123406301D01*
X173768275Y-123183701D01*
X173768274Y-123183697D01*
X173680083Y-122970786D01*
X173680078Y-122970775D01*
X173564862Y-122771215D01*
X173564858Y-122771209D01*
X173424574Y-122588388D01*
X173424555Y-122588367D01*
X173261632Y-122425444D01*
X173261611Y-122425425D01*
X173078790Y-122285141D01*
X173078784Y-122285137D01*
X172879224Y-122169921D01*
X172879213Y-122169916D01*
X172666302Y-122081725D01*
X172666298Y-122081724D01*
X172443697Y-122022078D01*
X172354000Y-122010269D01*
X172354000Y-122931912D01*
X172193567Y-122900000D01*
X172006433Y-122900000D01*
X171846000Y-122931912D01*
X171846000Y-122010270D01*
X171845999Y-122010269D01*
X171756302Y-122022078D01*
X171533701Y-122081724D01*
X171533697Y-122081725D01*
X171320786Y-122169916D01*
X171320775Y-122169921D01*
X171121215Y-122285137D01*
X171121209Y-122285141D01*
X170938388Y-122425425D01*
X170938367Y-122425444D01*
X170775444Y-122588367D01*
X170775425Y-122588388D01*
X170635141Y-122771209D01*
X170635137Y-122771215D01*
X170519921Y-122970775D01*
X170519916Y-122970786D01*
X170431725Y-123183697D01*
X170431724Y-123183701D01*
X170372078Y-123406301D01*
X170342000Y-123634772D01*
X160277999Y-123634772D01*
X160247921Y-123406301D01*
X160188275Y-123183701D01*
X160188274Y-123183697D01*
X160100083Y-122970786D01*
X160100078Y-122970775D01*
X159984862Y-122771215D01*
X159984858Y-122771209D01*
X159844574Y-122588388D01*
X159844555Y-122588367D01*
X159681632Y-122425444D01*
X159681611Y-122425425D01*
X159498790Y-122285141D01*
X159498784Y-122285137D01*
X159299224Y-122169921D01*
X159299213Y-122169916D01*
X159086302Y-122081725D01*
X159086298Y-122081724D01*
X158863697Y-122022078D01*
X158774000Y-122010269D01*
X158774000Y-122931912D01*
X158613567Y-122900000D01*
X158426433Y-122900000D01*
X158266000Y-122931912D01*
X158266000Y-122010270D01*
X158265999Y-122010269D01*
X158176302Y-122022078D01*
X157953701Y-122081724D01*
X157953697Y-122081725D01*
X157740786Y-122169916D01*
X157740775Y-122169921D01*
X157541215Y-122285137D01*
X157541209Y-122285141D01*
X157358388Y-122425425D01*
X157358367Y-122425444D01*
X157195444Y-122588367D01*
X157195425Y-122588388D01*
X157055141Y-122771209D01*
X157055137Y-122771215D01*
X156939921Y-122970775D01*
X156939916Y-122970786D01*
X156851725Y-123183697D01*
X156851724Y-123183701D01*
X156792078Y-123406301D01*
X156762000Y-123634772D01*
X151477999Y-123634772D01*
X151447921Y-123406301D01*
X151388275Y-123183701D01*
X151388274Y-123183697D01*
X151300083Y-122970786D01*
X151300078Y-122970775D01*
X151184862Y-122771215D01*
X151184858Y-122771209D01*
X151044574Y-122588388D01*
X151044555Y-122588367D01*
X150881632Y-122425444D01*
X150881611Y-122425425D01*
X150698790Y-122285141D01*
X150698784Y-122285137D01*
X150499224Y-122169921D01*
X150499213Y-122169916D01*
X150286302Y-122081725D01*
X150286298Y-122081724D01*
X150063697Y-122022078D01*
X149974000Y-122010269D01*
X149974000Y-122931912D01*
X149813567Y-122900000D01*
X149626433Y-122900000D01*
X149466000Y-122931912D01*
X149466000Y-122010270D01*
X149465999Y-122010269D01*
X149376302Y-122022078D01*
X149153701Y-122081724D01*
X149153697Y-122081725D01*
X148940786Y-122169916D01*
X148940775Y-122169921D01*
X148741215Y-122285137D01*
X148741209Y-122285141D01*
X148558388Y-122425425D01*
X148558367Y-122425444D01*
X148395444Y-122588367D01*
X148395425Y-122588388D01*
X148255141Y-122771209D01*
X148255137Y-122771215D01*
X148139921Y-122970775D01*
X148139916Y-122970786D01*
X148051725Y-123183697D01*
X148051724Y-123183701D01*
X147992078Y-123406301D01*
X147962000Y-123634772D01*
X124707999Y-123634772D01*
X124677921Y-123406301D01*
X124618275Y-123183701D01*
X124618274Y-123183697D01*
X124530083Y-122970786D01*
X124530078Y-122970775D01*
X124414862Y-122771215D01*
X124414858Y-122771209D01*
X124274574Y-122588388D01*
X124274555Y-122588367D01*
X124111632Y-122425444D01*
X124111611Y-122425425D01*
X123928790Y-122285141D01*
X123928784Y-122285137D01*
X123729224Y-122169921D01*
X123729213Y-122169916D01*
X123516302Y-122081725D01*
X123516298Y-122081724D01*
X123293697Y-122022078D01*
X123204000Y-122010269D01*
X123204000Y-122931912D01*
X123043567Y-122900000D01*
X122856433Y-122900000D01*
X122696000Y-122931912D01*
X122696000Y-122010270D01*
X122695999Y-122010269D01*
X122606302Y-122022078D01*
X122383701Y-122081724D01*
X122383697Y-122081725D01*
X122170786Y-122169916D01*
X122170775Y-122169921D01*
X121971215Y-122285137D01*
X121971209Y-122285141D01*
X121788388Y-122425425D01*
X121788367Y-122425444D01*
X121625444Y-122588367D01*
X121625425Y-122588388D01*
X121485141Y-122771209D01*
X121485137Y-122771215D01*
X121369921Y-122970775D01*
X121369916Y-122970786D01*
X121281725Y-123183697D01*
X121281724Y-123183701D01*
X121222078Y-123406301D01*
X121192000Y-123634772D01*
X115907999Y-123634772D01*
X115877921Y-123406301D01*
X115818275Y-123183701D01*
X115818274Y-123183697D01*
X115730083Y-122970786D01*
X115730078Y-122970775D01*
X115614862Y-122771215D01*
X115614858Y-122771209D01*
X115474574Y-122588388D01*
X115474555Y-122588367D01*
X115311632Y-122425444D01*
X115311611Y-122425425D01*
X115128790Y-122285141D01*
X115128784Y-122285137D01*
X114929224Y-122169921D01*
X114929213Y-122169916D01*
X114716302Y-122081725D01*
X114716298Y-122081724D01*
X114493697Y-122022078D01*
X114404000Y-122010269D01*
X114404000Y-122931912D01*
X114243567Y-122900000D01*
X114056433Y-122900000D01*
X113896000Y-122931912D01*
X113896000Y-122010270D01*
X113895999Y-122010269D01*
X113806302Y-122022078D01*
X113583701Y-122081724D01*
X113583697Y-122081725D01*
X113370786Y-122169916D01*
X113370775Y-122169921D01*
X113171215Y-122285137D01*
X113171209Y-122285141D01*
X112988388Y-122425425D01*
X112988367Y-122425444D01*
X112825444Y-122588367D01*
X112825425Y-122588388D01*
X112685141Y-122771209D01*
X112685137Y-122771215D01*
X112569921Y-122970775D01*
X112569916Y-122970786D01*
X112481725Y-123183697D01*
X112481724Y-123183701D01*
X112422078Y-123406301D01*
X112392000Y-123634772D01*
X100046051Y-123634772D01*
X100045209Y-122288685D01*
X100045051Y-122036288D01*
X105337630Y-122036288D01*
X105337630Y-122163711D01*
X105337927Y-122166730D01*
X105337929Y-122166742D01*
X105362185Y-122288685D01*
X105362787Y-122291709D01*
X105363669Y-122294617D01*
X105412431Y-122412340D01*
X105413863Y-122415019D01*
X105484655Y-122520967D01*
X105486121Y-122522754D01*
X105486577Y-122523309D01*
X105486600Y-122523334D01*
X105576665Y-122613399D01*
X105576677Y-122613410D01*
X105576684Y-122613417D01*
X105579033Y-122615345D01*
X105684981Y-122686137D01*
X105687660Y-122687569D01*
X105805383Y-122736331D01*
X105808291Y-122737213D01*
X105933265Y-122762072D01*
X105936289Y-122762370D01*
X105936292Y-122762370D01*
X106063708Y-122762370D01*
X106063711Y-122762370D01*
X106066735Y-122762072D01*
X106191709Y-122737213D01*
X106194617Y-122736331D01*
X106312340Y-122687569D01*
X106315019Y-122686137D01*
X106420967Y-122615345D01*
X106423316Y-122613417D01*
X106513417Y-122523316D01*
X106515345Y-122520967D01*
X106586137Y-122415019D01*
X106587569Y-122412340D01*
X106636331Y-122294617D01*
X106637213Y-122291709D01*
X106638520Y-122285141D01*
X106661439Y-122169916D01*
X106662072Y-122166735D01*
X106662370Y-122163711D01*
X106662370Y-122036289D01*
X106662072Y-122033265D01*
X106637213Y-121908291D01*
X106636331Y-121905383D01*
X106587569Y-121787660D01*
X106586137Y-121784981D01*
X106515345Y-121679033D01*
X106513417Y-121676684D01*
X106513410Y-121676677D01*
X106513399Y-121676665D01*
X106423334Y-121586600D01*
X106423309Y-121586577D01*
X106422754Y-121586121D01*
X106420967Y-121584655D01*
X106315019Y-121513863D01*
X106312340Y-121512431D01*
X106194617Y-121463669D01*
X106191709Y-121462787D01*
X106191706Y-121462786D01*
X106191703Y-121462785D01*
X106066742Y-121437929D01*
X106066730Y-121437927D01*
X106063711Y-121437630D01*
X105936289Y-121437630D01*
X105936288Y-121437630D01*
X105933269Y-121437927D01*
X105933257Y-121437929D01*
X105808296Y-121462785D01*
X105808293Y-121462786D01*
X105805385Y-121463668D01*
X105687659Y-121512431D01*
X105684986Y-121513860D01*
X105684983Y-121513861D01*
X105684981Y-121513863D01*
X105579033Y-121584655D01*
X105576690Y-121586577D01*
X105576665Y-121586600D01*
X105486600Y-121676665D01*
X105486577Y-121676690D01*
X105484655Y-121679033D01*
X105413862Y-121784983D01*
X105413860Y-121784986D01*
X105412431Y-121787659D01*
X105363668Y-121905385D01*
X105362786Y-121908293D01*
X105362785Y-121908296D01*
X105337929Y-122033257D01*
X105337927Y-122033269D01*
X105337630Y-122036288D01*
X100045051Y-122036288D01*
X100045049Y-122033273D01*
X100042730Y-118325047D01*
X100041835Y-116893084D01*
X114691500Y-116893084D01*
X114691500Y-117106916D01*
X114708190Y-117212292D01*
X114724952Y-117318121D01*
X114788115Y-117512518D01*
X114791028Y-117521483D01*
X114888106Y-117712009D01*
X114888108Y-117712012D01*
X114901626Y-117730618D01*
X115013794Y-117885004D01*
X115013796Y-117885006D01*
X115013798Y-117885009D01*
X115164990Y-118036201D01*
X115164993Y-118036203D01*
X115164996Y-118036206D01*
X115337991Y-118161894D01*
X115528517Y-118258972D01*
X115731878Y-118325047D01*
X115731879Y-118325047D01*
X115731884Y-118325049D01*
X115943084Y-118358500D01*
X115943087Y-118358500D01*
X116156913Y-118358500D01*
X116156916Y-118358500D01*
X116368116Y-118325049D01*
X116571483Y-118258972D01*
X116762009Y-118161894D01*
X116935004Y-118036206D01*
X117086206Y-117885004D01*
X117198064Y-117731043D01*
X117254286Y-117687690D01*
X117325022Y-117681615D01*
X117387814Y-117714746D01*
X117401934Y-117731041D01*
X117513794Y-117885004D01*
X117513796Y-117885006D01*
X117513798Y-117885009D01*
X117664990Y-118036201D01*
X117664993Y-118036203D01*
X117664996Y-118036206D01*
X117837991Y-118161894D01*
X118028517Y-118258972D01*
X118231878Y-118325047D01*
X118231879Y-118325047D01*
X118231884Y-118325049D01*
X118443084Y-118358500D01*
X118443087Y-118358500D01*
X118656913Y-118358500D01*
X118656916Y-118358500D01*
X118868116Y-118325049D01*
X119071483Y-118258972D01*
X119262009Y-118161894D01*
X119435004Y-118036206D01*
X119586206Y-117885004D01*
X119698374Y-117730616D01*
X119754595Y-117687264D01*
X119825331Y-117681189D01*
X119888123Y-117714320D01*
X119902245Y-117730618D01*
X120014177Y-117884679D01*
X120165320Y-118035822D01*
X120338249Y-118161463D01*
X120528707Y-118258506D01*
X120528713Y-118258509D01*
X120731998Y-118324560D01*
X120796000Y-118334696D01*
X120796000Y-117488438D01*
X120837708Y-117512518D01*
X120977591Y-117550000D01*
X121122409Y-117550000D01*
X121262292Y-117512518D01*
X121304000Y-117488438D01*
X121304000Y-118334696D01*
X121368001Y-118324560D01*
X121571286Y-118258509D01*
X121571292Y-118258506D01*
X121761750Y-118161463D01*
X121934679Y-118035822D01*
X122085822Y-117884679D01*
X122211463Y-117711750D01*
X122308506Y-117521292D01*
X122308509Y-117521286D01*
X122374559Y-117318004D01*
X122384698Y-117254000D01*
X121538438Y-117254000D01*
X121562518Y-117212292D01*
X121600000Y-117072409D01*
X121600000Y-116927591D01*
X121590754Y-116893084D01*
X150261500Y-116893084D01*
X150261500Y-117106916D01*
X150278190Y-117212292D01*
X150294952Y-117318121D01*
X150358115Y-117512518D01*
X150361028Y-117521483D01*
X150458106Y-117712009D01*
X150458108Y-117712012D01*
X150471626Y-117730618D01*
X150583794Y-117885004D01*
X150583796Y-117885006D01*
X150583798Y-117885009D01*
X150734990Y-118036201D01*
X150734993Y-118036203D01*
X150734996Y-118036206D01*
X150907991Y-118161894D01*
X151098517Y-118258972D01*
X151301878Y-118325047D01*
X151301879Y-118325047D01*
X151301884Y-118325049D01*
X151513084Y-118358500D01*
X151513087Y-118358500D01*
X151726913Y-118358500D01*
X151726916Y-118358500D01*
X151938116Y-118325049D01*
X152141483Y-118258972D01*
X152332009Y-118161894D01*
X152505004Y-118036206D01*
X152656206Y-117885004D01*
X152768064Y-117731043D01*
X152824286Y-117687690D01*
X152895022Y-117681615D01*
X152957814Y-117714746D01*
X152971934Y-117731041D01*
X153083794Y-117885004D01*
X153083796Y-117885006D01*
X153083798Y-117885009D01*
X153234990Y-118036201D01*
X153234993Y-118036203D01*
X153234996Y-118036206D01*
X153407991Y-118161894D01*
X153598517Y-118258972D01*
X153801878Y-118325047D01*
X153801879Y-118325047D01*
X153801884Y-118325049D01*
X154013084Y-118358500D01*
X154013087Y-118358500D01*
X154226913Y-118358500D01*
X154226916Y-118358500D01*
X154438116Y-118325049D01*
X154641483Y-118258972D01*
X154832009Y-118161894D01*
X155005004Y-118036206D01*
X155156206Y-117885004D01*
X155268374Y-117730616D01*
X155324595Y-117687264D01*
X155395331Y-117681189D01*
X155458123Y-117714320D01*
X155472245Y-117730618D01*
X155584177Y-117884679D01*
X155735320Y-118035822D01*
X155908249Y-118161463D01*
X156098707Y-118258506D01*
X156098713Y-118258509D01*
X156301998Y-118324560D01*
X156366000Y-118334696D01*
X156366000Y-117488438D01*
X156407708Y-117512518D01*
X156547591Y-117550000D01*
X156692409Y-117550000D01*
X156832292Y-117512518D01*
X156874000Y-117488438D01*
X156874000Y-118334696D01*
X156938001Y-118324560D01*
X157141286Y-118258509D01*
X157141292Y-118258506D01*
X157331750Y-118161463D01*
X157504679Y-118035822D01*
X157655822Y-117884679D01*
X157781463Y-117711750D01*
X157878506Y-117521292D01*
X157878509Y-117521286D01*
X157944559Y-117318004D01*
X157954698Y-117254000D01*
X157108438Y-117254000D01*
X157132518Y-117212292D01*
X157170000Y-117072409D01*
X157170000Y-116927591D01*
X157160754Y-116893084D01*
X172641500Y-116893084D01*
X172641500Y-117106916D01*
X172658190Y-117212292D01*
X172674952Y-117318121D01*
X172738115Y-117512518D01*
X172741028Y-117521483D01*
X172838106Y-117712009D01*
X172838108Y-117712012D01*
X172851626Y-117730618D01*
X172963794Y-117885004D01*
X172963796Y-117885006D01*
X172963798Y-117885009D01*
X173114990Y-118036201D01*
X173114993Y-118036203D01*
X173114996Y-118036206D01*
X173287991Y-118161894D01*
X173478517Y-118258972D01*
X173681878Y-118325047D01*
X173681879Y-118325047D01*
X173681884Y-118325049D01*
X173893084Y-118358500D01*
X173893087Y-118358500D01*
X174106913Y-118358500D01*
X174106916Y-118358500D01*
X174318116Y-118325049D01*
X174521483Y-118258972D01*
X174712009Y-118161894D01*
X174885004Y-118036206D01*
X175036206Y-117885004D01*
X175148064Y-117731043D01*
X175204286Y-117687690D01*
X175275022Y-117681615D01*
X175337814Y-117714746D01*
X175351934Y-117731041D01*
X175463794Y-117885004D01*
X175463796Y-117885006D01*
X175463798Y-117885009D01*
X175614990Y-118036201D01*
X175614993Y-118036203D01*
X175614996Y-118036206D01*
X175787991Y-118161894D01*
X175978517Y-118258972D01*
X176181878Y-118325047D01*
X176181879Y-118325047D01*
X176181884Y-118325049D01*
X176393084Y-118358500D01*
X176393087Y-118358500D01*
X176606913Y-118358500D01*
X176606916Y-118358500D01*
X176818116Y-118325049D01*
X177021483Y-118258972D01*
X177212009Y-118161894D01*
X177385004Y-118036206D01*
X177536206Y-117885004D01*
X177648374Y-117730616D01*
X177704595Y-117687264D01*
X177775331Y-117681189D01*
X177838123Y-117714320D01*
X177852245Y-117730618D01*
X177964177Y-117884679D01*
X178115320Y-118035822D01*
X178288249Y-118161463D01*
X178478707Y-118258506D01*
X178478713Y-118258509D01*
X178681998Y-118324560D01*
X178746000Y-118334696D01*
X178746000Y-117488438D01*
X178787708Y-117512518D01*
X178927591Y-117550000D01*
X179072409Y-117550000D01*
X179212292Y-117512518D01*
X179254000Y-117488438D01*
X179254000Y-118334696D01*
X179318001Y-118324560D01*
X179521286Y-118258509D01*
X179521292Y-118258506D01*
X179711750Y-118161463D01*
X179884679Y-118035822D01*
X180035822Y-117884679D01*
X180161463Y-117711750D01*
X180258506Y-117521292D01*
X180258509Y-117521286D01*
X180324559Y-117318004D01*
X180334698Y-117254000D01*
X179488438Y-117254000D01*
X179512518Y-117212292D01*
X179550000Y-117072409D01*
X179550000Y-116927591D01*
X179512518Y-116787708D01*
X179488438Y-116746000D01*
X180334697Y-116746000D01*
X180324559Y-116681995D01*
X180258509Y-116478713D01*
X180258506Y-116478707D01*
X180161463Y-116288249D01*
X180035822Y-116115320D01*
X179884679Y-115964177D01*
X179711750Y-115838536D01*
X179521292Y-115741493D01*
X179521286Y-115741490D01*
X179318004Y-115675440D01*
X179254000Y-115665302D01*
X179254000Y-116511561D01*
X179212292Y-116487482D01*
X179072409Y-116450000D01*
X178927591Y-116450000D01*
X178787708Y-116487482D01*
X178746000Y-116511561D01*
X178746000Y-115665302D01*
X178681995Y-115675440D01*
X178478713Y-115741490D01*
X178478707Y-115741493D01*
X178288249Y-115838536D01*
X178115320Y-115964177D01*
X177964181Y-116115316D01*
X177852245Y-116269382D01*
X177796022Y-116312735D01*
X177725286Y-116318810D01*
X177662494Y-116285678D01*
X177648373Y-116269381D01*
X177536206Y-116114996D01*
X177536203Y-116114993D01*
X177536201Y-116114990D01*
X177385009Y-115963798D01*
X177385006Y-115963796D01*
X177385004Y-115963794D01*
X177212009Y-115838106D01*
X177021483Y-115741028D01*
X177021480Y-115741027D01*
X177021478Y-115741026D01*
X176818120Y-115674952D01*
X176818123Y-115674952D01*
X176757195Y-115665302D01*
X176606916Y-115641500D01*
X176393084Y-115641500D01*
X176181884Y-115674951D01*
X176181878Y-115674952D01*
X175978521Y-115741026D01*
X175978515Y-115741029D01*
X175787987Y-115838108D01*
X175614993Y-115963796D01*
X175614990Y-115963798D01*
X175463798Y-116114990D01*
X175463796Y-116114993D01*
X175351936Y-116268955D01*
X175295714Y-116312309D01*
X175224977Y-116318384D01*
X175162186Y-116285252D01*
X175148064Y-116268955D01*
X175036438Y-116115316D01*
X175036206Y-116114996D01*
X175036203Y-116114993D01*
X175036201Y-116114990D01*
X174885009Y-115963798D01*
X174885006Y-115963796D01*
X174885004Y-115963794D01*
X174712009Y-115838106D01*
X174521483Y-115741028D01*
X174521480Y-115741027D01*
X174521478Y-115741026D01*
X174318120Y-115674952D01*
X174318123Y-115674952D01*
X174257195Y-115665302D01*
X174106916Y-115641500D01*
X173893084Y-115641500D01*
X173681884Y-115674951D01*
X173681878Y-115674952D01*
X173478521Y-115741026D01*
X173478515Y-115741029D01*
X173287987Y-115838108D01*
X173114993Y-115963796D01*
X173114990Y-115963798D01*
X172963798Y-116114990D01*
X172963796Y-116114993D01*
X172838108Y-116287987D01*
X172741029Y-116478515D01*
X172741026Y-116478521D01*
X172674952Y-116681878D01*
X172674951Y-116681883D01*
X172674951Y-116681884D01*
X172641500Y-116893084D01*
X157160754Y-116893084D01*
X157132518Y-116787708D01*
X157108438Y-116746000D01*
X157954697Y-116746000D01*
X157944559Y-116681995D01*
X157878509Y-116478713D01*
X157878506Y-116478707D01*
X157781463Y-116288249D01*
X157655822Y-116115320D01*
X157504679Y-115964177D01*
X157331750Y-115838536D01*
X157141292Y-115741493D01*
X157141286Y-115741490D01*
X156938004Y-115675440D01*
X156874000Y-115665302D01*
X156874000Y-116511561D01*
X156832292Y-116487482D01*
X156692409Y-116450000D01*
X156547591Y-116450000D01*
X156407708Y-116487482D01*
X156366000Y-116511561D01*
X156366000Y-115665302D01*
X156301995Y-115675440D01*
X156098713Y-115741490D01*
X156098707Y-115741493D01*
X155908249Y-115838536D01*
X155735320Y-115964177D01*
X155584181Y-116115316D01*
X155472245Y-116269382D01*
X155416022Y-116312735D01*
X155345286Y-116318810D01*
X155282494Y-116285678D01*
X155268373Y-116269381D01*
X155156206Y-116114996D01*
X155156203Y-116114993D01*
X155156201Y-116114990D01*
X155005009Y-115963798D01*
X155005006Y-115963796D01*
X155005004Y-115963794D01*
X154832009Y-115838106D01*
X154641483Y-115741028D01*
X154641480Y-115741027D01*
X154641478Y-115741026D01*
X154438120Y-115674952D01*
X154438123Y-115674952D01*
X154377195Y-115665302D01*
X154226916Y-115641500D01*
X154013084Y-115641500D01*
X153801884Y-115674951D01*
X153801878Y-115674952D01*
X153598521Y-115741026D01*
X153598515Y-115741029D01*
X153407987Y-115838108D01*
X153234993Y-115963796D01*
X153234990Y-115963798D01*
X153083798Y-116114990D01*
X153083796Y-116114993D01*
X152971936Y-116268955D01*
X152915714Y-116312309D01*
X152844977Y-116318384D01*
X152782186Y-116285252D01*
X152768064Y-116268955D01*
X152656438Y-116115316D01*
X152656206Y-116114996D01*
X152656203Y-116114993D01*
X152656201Y-116114990D01*
X152505009Y-115963798D01*
X152505006Y-115963796D01*
X152505004Y-115963794D01*
X152332009Y-115838106D01*
X152141483Y-115741028D01*
X152141480Y-115741027D01*
X152141478Y-115741026D01*
X151938120Y-115674952D01*
X151938123Y-115674952D01*
X151877195Y-115665302D01*
X151726916Y-115641500D01*
X151513084Y-115641500D01*
X151301884Y-115674951D01*
X151301878Y-115674952D01*
X151098521Y-115741026D01*
X151098515Y-115741029D01*
X150907987Y-115838108D01*
X150734993Y-115963796D01*
X150734990Y-115963798D01*
X150583798Y-116114990D01*
X150583796Y-116114993D01*
X150458108Y-116287987D01*
X150361029Y-116478515D01*
X150361026Y-116478521D01*
X150294952Y-116681878D01*
X150294951Y-116681883D01*
X150294951Y-116681884D01*
X150261500Y-116893084D01*
X121590754Y-116893084D01*
X121562518Y-116787708D01*
X121538438Y-116746000D01*
X122384697Y-116746000D01*
X122374559Y-116681995D01*
X122308509Y-116478713D01*
X122308506Y-116478707D01*
X122211463Y-116288249D01*
X122085822Y-116115320D01*
X121934679Y-115964177D01*
X121761750Y-115838536D01*
X121571292Y-115741493D01*
X121571286Y-115741490D01*
X121368004Y-115675440D01*
X121304000Y-115665302D01*
X121304000Y-116511561D01*
X121262292Y-116487482D01*
X121122409Y-116450000D01*
X120977591Y-116450000D01*
X120837708Y-116487482D01*
X120796000Y-116511561D01*
X120796000Y-115665302D01*
X120731995Y-115675440D01*
X120528713Y-115741490D01*
X120528707Y-115741493D01*
X120338249Y-115838536D01*
X120165320Y-115964177D01*
X120014181Y-116115316D01*
X119902245Y-116269382D01*
X119846022Y-116312735D01*
X119775286Y-116318810D01*
X119712494Y-116285678D01*
X119698373Y-116269381D01*
X119586206Y-116114996D01*
X119586203Y-116114993D01*
X119586201Y-116114990D01*
X119435009Y-115963798D01*
X119435006Y-115963796D01*
X119435004Y-115963794D01*
X119262009Y-115838106D01*
X119071483Y-115741028D01*
X119071480Y-115741027D01*
X119071478Y-115741026D01*
X118868120Y-115674952D01*
X118868123Y-115674952D01*
X118807195Y-115665302D01*
X118656916Y-115641500D01*
X118443084Y-115641500D01*
X118231884Y-115674951D01*
X118231878Y-115674952D01*
X118028521Y-115741026D01*
X118028515Y-115741029D01*
X117837987Y-115838108D01*
X117664993Y-115963796D01*
X117664990Y-115963798D01*
X117513798Y-116114990D01*
X117513796Y-116114993D01*
X117401936Y-116268955D01*
X117345714Y-116312309D01*
X117274977Y-116318384D01*
X117212186Y-116285252D01*
X117198064Y-116268955D01*
X117086438Y-116115316D01*
X117086206Y-116114996D01*
X117086203Y-116114993D01*
X117086201Y-116114990D01*
X116935009Y-115963798D01*
X116935006Y-115963796D01*
X116935004Y-115963794D01*
X116762009Y-115838106D01*
X116571483Y-115741028D01*
X116571480Y-115741027D01*
X116571478Y-115741026D01*
X116368120Y-115674952D01*
X116368123Y-115674952D01*
X116307195Y-115665302D01*
X116156916Y-115641500D01*
X115943084Y-115641500D01*
X115731884Y-115674951D01*
X115731878Y-115674952D01*
X115528521Y-115741026D01*
X115528515Y-115741029D01*
X115337987Y-115838108D01*
X115164993Y-115963796D01*
X115164990Y-115963798D01*
X115013798Y-116114990D01*
X115013796Y-116114993D01*
X114888108Y-116287987D01*
X114791029Y-116478515D01*
X114791026Y-116478521D01*
X114724952Y-116681878D01*
X114724951Y-116681883D01*
X114724951Y-116681884D01*
X114691500Y-116893084D01*
X100041835Y-116893084D01*
X100036420Y-108234782D01*
X100036420Y-108234772D01*
X206842000Y-108234772D01*
X206842000Y-108346000D01*
X207652075Y-108346000D01*
X207650000Y-108356433D01*
X207650000Y-108843567D01*
X207652075Y-108854000D01*
X206842000Y-108854000D01*
X206842000Y-108965227D01*
X206872078Y-109193698D01*
X206931724Y-109416298D01*
X206931725Y-109416302D01*
X207019916Y-109629213D01*
X207019921Y-109629224D01*
X207135137Y-109828784D01*
X207135141Y-109828790D01*
X207275425Y-110011611D01*
X207275444Y-110011632D01*
X207438367Y-110174555D01*
X207438388Y-110174574D01*
X207621209Y-110314858D01*
X207621215Y-110314862D01*
X207820775Y-110430078D01*
X207820786Y-110430083D01*
X208033697Y-110518274D01*
X208033701Y-110518275D01*
X208256299Y-110577920D01*
X208256303Y-110577921D01*
X208345999Y-110589729D01*
X208346000Y-110589729D01*
X208346000Y-109668087D01*
X208506433Y-109700000D01*
X208693567Y-109700000D01*
X208854000Y-109668087D01*
X208854000Y-110589729D01*
X208943696Y-110577921D01*
X208943700Y-110577920D01*
X209166298Y-110518275D01*
X209166302Y-110518274D01*
X209379213Y-110430083D01*
X209379224Y-110430078D01*
X209578784Y-110314862D01*
X209578790Y-110314858D01*
X209761611Y-110174574D01*
X209761632Y-110174555D01*
X209924555Y-110011632D01*
X209924574Y-110011611D01*
X210064858Y-109828790D01*
X210064862Y-109828784D01*
X210180078Y-109629224D01*
X210180083Y-109629213D01*
X210268274Y-109416302D01*
X210268275Y-109416298D01*
X210327921Y-109193698D01*
X210357999Y-108965227D01*
X210358000Y-108965218D01*
X210358000Y-108854000D01*
X209547925Y-108854000D01*
X209550000Y-108843567D01*
X209550000Y-108356433D01*
X209547925Y-108346000D01*
X210358000Y-108346000D01*
X210358000Y-108234782D01*
X210357999Y-108234772D01*
X215642000Y-108234772D01*
X215642000Y-108346000D01*
X216452075Y-108346000D01*
X216450000Y-108356433D01*
X216450000Y-108843567D01*
X216452075Y-108854000D01*
X215642000Y-108854000D01*
X215642000Y-108965227D01*
X215672078Y-109193698D01*
X215731724Y-109416298D01*
X215731725Y-109416302D01*
X215819916Y-109629213D01*
X215819921Y-109629224D01*
X215935137Y-109828784D01*
X215935141Y-109828790D01*
X216075425Y-110011611D01*
X216075444Y-110011632D01*
X216238367Y-110174555D01*
X216238388Y-110174574D01*
X216421209Y-110314858D01*
X216421215Y-110314862D01*
X216620775Y-110430078D01*
X216620786Y-110430083D01*
X216833697Y-110518274D01*
X216833701Y-110518275D01*
X217056299Y-110577920D01*
X217056303Y-110577921D01*
X217145999Y-110589729D01*
X217146000Y-110589729D01*
X217146000Y-109668087D01*
X217306433Y-109700000D01*
X217493567Y-109700000D01*
X217654000Y-109668087D01*
X217654000Y-110589729D01*
X217743696Y-110577921D01*
X217743700Y-110577920D01*
X217966298Y-110518275D01*
X217966302Y-110518274D01*
X218179213Y-110430083D01*
X218179224Y-110430078D01*
X218378784Y-110314862D01*
X218378790Y-110314858D01*
X218561611Y-110174574D01*
X218561632Y-110174555D01*
X218724555Y-110011632D01*
X218724574Y-110011611D01*
X218864858Y-109828790D01*
X218864862Y-109828784D01*
X218980078Y-109629224D01*
X218980083Y-109629213D01*
X219068274Y-109416302D01*
X219068275Y-109416298D01*
X219127921Y-109193698D01*
X219157999Y-108965227D01*
X219158000Y-108965218D01*
X219158000Y-108854000D01*
X218347925Y-108854000D01*
X218350000Y-108843567D01*
X218350000Y-108356433D01*
X218347925Y-108346000D01*
X219158000Y-108346000D01*
X219158000Y-108234782D01*
X219157999Y-108234772D01*
X219127921Y-108006301D01*
X219068275Y-107783701D01*
X219068274Y-107783697D01*
X218980083Y-107570786D01*
X218980078Y-107570775D01*
X218864862Y-107371215D01*
X218864858Y-107371209D01*
X218724574Y-107188388D01*
X218724555Y-107188367D01*
X218561632Y-107025444D01*
X218561611Y-107025425D01*
X218378790Y-106885141D01*
X218378784Y-106885137D01*
X218179224Y-106769921D01*
X218179213Y-106769916D01*
X217966302Y-106681725D01*
X217966298Y-106681724D01*
X217743697Y-106622078D01*
X217654000Y-106610269D01*
X217654000Y-107531912D01*
X217493567Y-107500000D01*
X217306433Y-107500000D01*
X217146000Y-107531912D01*
X217146000Y-106610270D01*
X217145999Y-106610269D01*
X217056302Y-106622078D01*
X216833701Y-106681724D01*
X216833697Y-106681725D01*
X216620786Y-106769916D01*
X216620775Y-106769921D01*
X216421215Y-106885137D01*
X216421209Y-106885141D01*
X216238388Y-107025425D01*
X216238367Y-107025444D01*
X216075444Y-107188367D01*
X216075425Y-107188388D01*
X215935141Y-107371209D01*
X215935137Y-107371215D01*
X215819921Y-107570775D01*
X215819916Y-107570786D01*
X215731725Y-107783697D01*
X215731724Y-107783701D01*
X215672078Y-108006301D01*
X215642000Y-108234772D01*
X210357999Y-108234772D01*
X210327921Y-108006301D01*
X210268275Y-107783701D01*
X210268274Y-107783697D01*
X210180083Y-107570786D01*
X210180078Y-107570775D01*
X210064862Y-107371215D01*
X210064858Y-107371209D01*
X209924574Y-107188388D01*
X209924555Y-107188367D01*
X209761632Y-107025444D01*
X209761611Y-107025425D01*
X209578790Y-106885141D01*
X209578784Y-106885137D01*
X209379224Y-106769921D01*
X209379213Y-106769916D01*
X209166302Y-106681725D01*
X209166298Y-106681724D01*
X208943697Y-106622078D01*
X208854000Y-106610269D01*
X208854000Y-107531912D01*
X208693567Y-107500000D01*
X208506433Y-107500000D01*
X208346000Y-107531912D01*
X208346000Y-106610270D01*
X208345999Y-106610269D01*
X208256302Y-106622078D01*
X208033701Y-106681724D01*
X208033697Y-106681725D01*
X207820786Y-106769916D01*
X207820775Y-106769921D01*
X207621215Y-106885137D01*
X207621209Y-106885141D01*
X207438388Y-107025425D01*
X207438367Y-107025444D01*
X207275444Y-107188367D01*
X207275425Y-107188388D01*
X207135141Y-107371209D01*
X207135137Y-107371215D01*
X207019921Y-107570775D01*
X207019916Y-107570786D01*
X206931725Y-107783697D01*
X206931724Y-107783701D01*
X206872078Y-108006301D01*
X206842000Y-108234772D01*
X100036420Y-108234772D01*
X100036417Y-108230729D01*
X100036116Y-107750000D01*
X135925000Y-107750000D01*
X183925000Y-107750000D01*
X183925000Y-101493084D01*
X209141500Y-101493084D01*
X209141500Y-101706916D01*
X209158190Y-101812292D01*
X209174952Y-101918121D01*
X209238115Y-102112518D01*
X209241028Y-102121483D01*
X209338106Y-102312009D01*
X209338108Y-102312012D01*
X209351626Y-102330618D01*
X209463794Y-102485004D01*
X209463796Y-102485006D01*
X209463798Y-102485009D01*
X209614990Y-102636201D01*
X209614993Y-102636203D01*
X209614996Y-102636206D01*
X209787991Y-102761894D01*
X209978517Y-102858972D01*
X210181878Y-102925047D01*
X210181879Y-102925047D01*
X210181884Y-102925049D01*
X210393084Y-102958500D01*
X210393087Y-102958500D01*
X210606913Y-102958500D01*
X210606916Y-102958500D01*
X210818116Y-102925049D01*
X211021483Y-102858972D01*
X211212009Y-102761894D01*
X211385004Y-102636206D01*
X211536206Y-102485004D01*
X211648064Y-102331043D01*
X211704286Y-102287690D01*
X211775022Y-102281615D01*
X211837814Y-102314746D01*
X211851934Y-102331041D01*
X211963794Y-102485004D01*
X211963796Y-102485006D01*
X211963798Y-102485009D01*
X212114990Y-102636201D01*
X212114993Y-102636203D01*
X212114996Y-102636206D01*
X212287991Y-102761894D01*
X212478517Y-102858972D01*
X212681878Y-102925047D01*
X212681879Y-102925047D01*
X212681884Y-102925049D01*
X212893084Y-102958500D01*
X212893087Y-102958500D01*
X213106913Y-102958500D01*
X213106916Y-102958500D01*
X213318116Y-102925049D01*
X213521483Y-102858972D01*
X213712009Y-102761894D01*
X213885004Y-102636206D01*
X214036206Y-102485004D01*
X214148374Y-102330616D01*
X214204595Y-102287264D01*
X214275331Y-102281189D01*
X214338123Y-102314320D01*
X214352245Y-102330618D01*
X214464177Y-102484679D01*
X214615320Y-102635822D01*
X214788249Y-102761463D01*
X214978707Y-102858506D01*
X214978713Y-102858509D01*
X215181998Y-102924560D01*
X215246000Y-102934696D01*
X215246000Y-102088438D01*
X215287708Y-102112518D01*
X215427591Y-102150000D01*
X215572409Y-102150000D01*
X215712292Y-102112518D01*
X215754000Y-102088438D01*
X215754000Y-102934696D01*
X215818001Y-102924560D01*
X216021286Y-102858509D01*
X216021292Y-102858506D01*
X216211750Y-102761463D01*
X216384679Y-102635822D01*
X216535822Y-102484679D01*
X216661463Y-102311750D01*
X216758506Y-102121292D01*
X216758509Y-102121286D01*
X216824559Y-101918004D01*
X216834698Y-101854000D01*
X215988438Y-101854000D01*
X216012518Y-101812292D01*
X216050000Y-101672409D01*
X216050000Y-101527591D01*
X216012518Y-101387708D01*
X215988438Y-101346000D01*
X216834697Y-101346000D01*
X216824559Y-101281995D01*
X216758509Y-101078713D01*
X216758506Y-101078707D01*
X216661463Y-100888249D01*
X216535822Y-100715320D01*
X216384679Y-100564177D01*
X216211750Y-100438536D01*
X216021292Y-100341493D01*
X216021286Y-100341490D01*
X215818004Y-100275440D01*
X215754000Y-100265302D01*
X215754000Y-101111561D01*
X215712292Y-101087482D01*
X215572409Y-101050000D01*
X215427591Y-101050000D01*
X215287708Y-101087482D01*
X215246000Y-101111561D01*
X215246000Y-100265302D01*
X215181995Y-100275440D01*
X214978713Y-100341490D01*
X214978707Y-100341493D01*
X214788249Y-100438536D01*
X214615320Y-100564177D01*
X214464181Y-100715316D01*
X214352245Y-100869382D01*
X214296022Y-100912735D01*
X214225286Y-100918810D01*
X214162494Y-100885678D01*
X214148373Y-100869381D01*
X214036206Y-100714996D01*
X214036203Y-100714993D01*
X214036201Y-100714990D01*
X213885009Y-100563798D01*
X213885006Y-100563796D01*
X213885004Y-100563794D01*
X213712009Y-100438106D01*
X213521483Y-100341028D01*
X213521480Y-100341027D01*
X213521478Y-100341026D01*
X213318120Y-100274952D01*
X213318123Y-100274952D01*
X213257195Y-100265302D01*
X213106916Y-100241500D01*
X212893084Y-100241500D01*
X212681884Y-100274951D01*
X212681878Y-100274952D01*
X212478521Y-100341026D01*
X212478515Y-100341029D01*
X212287987Y-100438108D01*
X212114993Y-100563796D01*
X212114990Y-100563798D01*
X211963798Y-100714990D01*
X211963796Y-100714993D01*
X211851936Y-100868955D01*
X211795714Y-100912309D01*
X211724977Y-100918384D01*
X211662186Y-100885252D01*
X211648064Y-100868955D01*
X211536438Y-100715316D01*
X211536206Y-100714996D01*
X211536203Y-100714993D01*
X211536201Y-100714990D01*
X211385009Y-100563798D01*
X211385006Y-100563796D01*
X211385004Y-100563794D01*
X211212009Y-100438106D01*
X211021483Y-100341028D01*
X211021480Y-100341027D01*
X211021478Y-100341026D01*
X210818120Y-100274952D01*
X210818123Y-100274952D01*
X210757195Y-100265302D01*
X210606916Y-100241500D01*
X210393084Y-100241500D01*
X210181884Y-100274951D01*
X210181878Y-100274952D01*
X209978521Y-100341026D01*
X209978515Y-100341029D01*
X209787987Y-100438108D01*
X209614993Y-100563796D01*
X209614990Y-100563798D01*
X209463798Y-100714990D01*
X209463796Y-100714993D01*
X209338108Y-100887987D01*
X209241029Y-101078515D01*
X209241026Y-101078521D01*
X209174952Y-101281878D01*
X209174951Y-101281883D01*
X209174951Y-101281884D01*
X209141500Y-101493084D01*
X183925000Y-101493084D01*
X183925000Y-86750000D01*
X135925000Y-86750000D01*
X135925000Y-107750000D01*
X100036116Y-107750000D01*
X100033099Y-102925047D01*
X100030041Y-98034772D01*
X100842000Y-98034772D01*
X100842000Y-98146000D01*
X101652075Y-98146000D01*
X101650000Y-98156433D01*
X101650000Y-98643567D01*
X101652075Y-98654000D01*
X100842000Y-98654000D01*
X100842000Y-98765227D01*
X100872078Y-98993698D01*
X100931724Y-99216298D01*
X100931725Y-99216302D01*
X101019916Y-99429213D01*
X101019921Y-99429224D01*
X101135137Y-99628784D01*
X101135141Y-99628790D01*
X101275425Y-99811611D01*
X101275444Y-99811632D01*
X101438367Y-99974555D01*
X101438388Y-99974574D01*
X101621209Y-100114858D01*
X101621215Y-100114862D01*
X101820775Y-100230078D01*
X101820786Y-100230083D01*
X102033697Y-100318274D01*
X102033701Y-100318275D01*
X102256299Y-100377920D01*
X102256303Y-100377921D01*
X102345999Y-100389729D01*
X102346000Y-100389729D01*
X102346000Y-99468087D01*
X102506433Y-99500000D01*
X102693567Y-99500000D01*
X102854000Y-99468087D01*
X102854000Y-100389729D01*
X102943696Y-100377921D01*
X102943700Y-100377920D01*
X103166298Y-100318275D01*
X103166302Y-100318274D01*
X103379213Y-100230083D01*
X103379224Y-100230078D01*
X103578784Y-100114862D01*
X103578790Y-100114858D01*
X103761611Y-99974574D01*
X103761632Y-99974555D01*
X103924555Y-99811632D01*
X103924574Y-99811611D01*
X104064858Y-99628790D01*
X104064862Y-99628784D01*
X104180078Y-99429224D01*
X104180083Y-99429213D01*
X104268274Y-99216302D01*
X104268275Y-99216298D01*
X104327921Y-98993698D01*
X104357999Y-98765227D01*
X104358000Y-98765218D01*
X104358000Y-98654000D01*
X103547925Y-98654000D01*
X103550000Y-98643567D01*
X103550000Y-98156433D01*
X103547925Y-98146000D01*
X104358000Y-98146000D01*
X104358000Y-98034782D01*
X104357999Y-98034772D01*
X109642000Y-98034772D01*
X109642000Y-98146000D01*
X110452075Y-98146000D01*
X110450000Y-98156433D01*
X110450000Y-98643567D01*
X110452075Y-98654000D01*
X109642000Y-98654000D01*
X109642000Y-98765227D01*
X109672078Y-98993698D01*
X109731724Y-99216298D01*
X109731725Y-99216302D01*
X109819916Y-99429213D01*
X109819921Y-99429224D01*
X109935137Y-99628784D01*
X109935141Y-99628790D01*
X110075425Y-99811611D01*
X110075444Y-99811632D01*
X110238367Y-99974555D01*
X110238388Y-99974574D01*
X110421209Y-100114858D01*
X110421215Y-100114862D01*
X110620775Y-100230078D01*
X110620786Y-100230083D01*
X110833697Y-100318274D01*
X110833701Y-100318275D01*
X111056299Y-100377920D01*
X111056303Y-100377921D01*
X111145999Y-100389729D01*
X111146000Y-100389729D01*
X111146000Y-99468087D01*
X111306433Y-99500000D01*
X111493567Y-99500000D01*
X111654000Y-99468087D01*
X111654000Y-100389729D01*
X111743696Y-100377921D01*
X111743700Y-100377920D01*
X111966298Y-100318275D01*
X111966302Y-100318274D01*
X112179213Y-100230083D01*
X112179224Y-100230078D01*
X112378784Y-100114862D01*
X112378790Y-100114858D01*
X112561611Y-99974574D01*
X112561632Y-99974555D01*
X112724555Y-99811632D01*
X112724574Y-99811611D01*
X112864858Y-99628790D01*
X112864862Y-99628784D01*
X112980078Y-99429224D01*
X112980083Y-99429213D01*
X113068274Y-99216302D01*
X113068275Y-99216298D01*
X113127921Y-98993698D01*
X113157999Y-98765227D01*
X113158000Y-98765218D01*
X113158000Y-98654000D01*
X112347925Y-98654000D01*
X112350000Y-98643567D01*
X112350000Y-98156433D01*
X112347925Y-98146000D01*
X113158000Y-98146000D01*
X113158000Y-98034782D01*
X113157999Y-98034772D01*
X113127921Y-97806301D01*
X113068275Y-97583701D01*
X113068274Y-97583697D01*
X112980083Y-97370786D01*
X112980078Y-97370775D01*
X112864862Y-97171215D01*
X112864858Y-97171209D01*
X112724574Y-96988388D01*
X112724555Y-96988367D01*
X112561632Y-96825444D01*
X112561611Y-96825425D01*
X112378790Y-96685141D01*
X112378784Y-96685137D01*
X112179224Y-96569921D01*
X112179213Y-96569916D01*
X111966302Y-96481725D01*
X111966298Y-96481724D01*
X111743697Y-96422078D01*
X111654000Y-96410269D01*
X111654000Y-97331912D01*
X111493567Y-97300000D01*
X111306433Y-97300000D01*
X111146000Y-97331912D01*
X111146000Y-96410270D01*
X111145999Y-96410269D01*
X111056302Y-96422078D01*
X110833701Y-96481724D01*
X110833697Y-96481725D01*
X110620786Y-96569916D01*
X110620775Y-96569921D01*
X110421215Y-96685137D01*
X110421209Y-96685141D01*
X110238388Y-96825425D01*
X110238367Y-96825444D01*
X110075444Y-96988367D01*
X110075425Y-96988388D01*
X109935141Y-97171209D01*
X109935137Y-97171215D01*
X109819921Y-97370775D01*
X109819916Y-97370786D01*
X109731725Y-97583697D01*
X109731724Y-97583701D01*
X109672078Y-97806301D01*
X109642000Y-98034772D01*
X104357999Y-98034772D01*
X104327921Y-97806301D01*
X104268275Y-97583701D01*
X104268274Y-97583697D01*
X104180083Y-97370786D01*
X104180078Y-97370775D01*
X104064862Y-97171215D01*
X104064858Y-97171209D01*
X103924574Y-96988388D01*
X103924555Y-96988367D01*
X103761632Y-96825444D01*
X103761611Y-96825425D01*
X103578790Y-96685141D01*
X103578784Y-96685137D01*
X103379224Y-96569921D01*
X103379213Y-96569916D01*
X103166302Y-96481725D01*
X103166298Y-96481724D01*
X102943697Y-96422078D01*
X102854000Y-96410269D01*
X102854000Y-97331912D01*
X102693567Y-97300000D01*
X102506433Y-97300000D01*
X102346000Y-97331912D01*
X102346000Y-96410270D01*
X102345999Y-96410269D01*
X102256302Y-96422078D01*
X102033701Y-96481724D01*
X102033697Y-96481725D01*
X101820786Y-96569916D01*
X101820775Y-96569921D01*
X101621215Y-96685137D01*
X101621209Y-96685141D01*
X101438388Y-96825425D01*
X101438367Y-96825444D01*
X101275444Y-96988367D01*
X101275425Y-96988388D01*
X101135141Y-97171209D01*
X101135137Y-97171215D01*
X101019921Y-97370775D01*
X101019916Y-97370786D01*
X100931725Y-97583697D01*
X100931724Y-97583701D01*
X100872078Y-97806301D01*
X100842000Y-98034772D01*
X100030041Y-98034772D01*
X100025825Y-91293084D01*
X103141500Y-91293084D01*
X103141500Y-91506916D01*
X103158190Y-91612292D01*
X103174952Y-91718121D01*
X103238115Y-91912518D01*
X103241028Y-91921483D01*
X103338106Y-92112009D01*
X103338108Y-92112012D01*
X103351626Y-92130618D01*
X103463794Y-92285004D01*
X103463796Y-92285006D01*
X103463798Y-92285009D01*
X103614990Y-92436201D01*
X103614993Y-92436203D01*
X103614996Y-92436206D01*
X103787991Y-92561894D01*
X103978517Y-92658972D01*
X104181878Y-92725047D01*
X104181879Y-92725047D01*
X104181884Y-92725049D01*
X104393084Y-92758500D01*
X104393087Y-92758500D01*
X104606913Y-92758500D01*
X104606916Y-92758500D01*
X104818116Y-92725049D01*
X105021483Y-92658972D01*
X105212009Y-92561894D01*
X105385004Y-92436206D01*
X105536206Y-92285004D01*
X105648064Y-92131043D01*
X105704286Y-92087690D01*
X105775022Y-92081615D01*
X105837814Y-92114746D01*
X105851934Y-92131041D01*
X105963794Y-92285004D01*
X105963796Y-92285006D01*
X105963798Y-92285009D01*
X106114990Y-92436201D01*
X106114993Y-92436203D01*
X106114996Y-92436206D01*
X106287991Y-92561894D01*
X106478517Y-92658972D01*
X106681878Y-92725047D01*
X106681879Y-92725047D01*
X106681884Y-92725049D01*
X106893084Y-92758500D01*
X106893087Y-92758500D01*
X107106913Y-92758500D01*
X107106916Y-92758500D01*
X107318116Y-92725049D01*
X107521483Y-92658972D01*
X107712009Y-92561894D01*
X107885004Y-92436206D01*
X108036206Y-92285004D01*
X108148374Y-92130616D01*
X108204595Y-92087264D01*
X108275331Y-92081189D01*
X108338123Y-92114320D01*
X108352245Y-92130618D01*
X108464177Y-92284679D01*
X108615320Y-92435822D01*
X108788249Y-92561463D01*
X108978707Y-92658506D01*
X108978713Y-92658509D01*
X109181998Y-92724560D01*
X109246000Y-92734696D01*
X109246000Y-91888438D01*
X109287708Y-91912518D01*
X109427591Y-91950000D01*
X109572409Y-91950000D01*
X109712292Y-91912518D01*
X109754000Y-91888438D01*
X109754000Y-92734696D01*
X109818001Y-92724560D01*
X110021286Y-92658509D01*
X110021292Y-92658506D01*
X110211750Y-92561463D01*
X110384679Y-92435822D01*
X110535822Y-92284679D01*
X110661463Y-92111750D01*
X110758506Y-91921292D01*
X110758509Y-91921286D01*
X110824559Y-91718004D01*
X110834698Y-91654000D01*
X109988438Y-91654000D01*
X110012518Y-91612292D01*
X110050000Y-91472409D01*
X110050000Y-91327591D01*
X110012518Y-91187708D01*
X109988438Y-91146000D01*
X110834697Y-91146000D01*
X110824559Y-91081995D01*
X110758509Y-90878713D01*
X110758506Y-90878707D01*
X110661463Y-90688249D01*
X110535822Y-90515320D01*
X110384679Y-90364177D01*
X110211750Y-90238536D01*
X110021292Y-90141493D01*
X110021286Y-90141490D01*
X109818004Y-90075440D01*
X109754000Y-90065302D01*
X109754000Y-90911561D01*
X109712292Y-90887482D01*
X109572409Y-90850000D01*
X109427591Y-90850000D01*
X109287708Y-90887482D01*
X109246000Y-90911561D01*
X109246000Y-90065302D01*
X109181995Y-90075440D01*
X108978713Y-90141490D01*
X108978707Y-90141493D01*
X108788249Y-90238536D01*
X108615320Y-90364177D01*
X108464181Y-90515316D01*
X108352245Y-90669382D01*
X108296022Y-90712735D01*
X108225286Y-90718810D01*
X108162494Y-90685678D01*
X108148373Y-90669381D01*
X108036206Y-90514996D01*
X108036203Y-90514993D01*
X108036201Y-90514990D01*
X107885009Y-90363798D01*
X107885006Y-90363796D01*
X107885004Y-90363794D01*
X107712009Y-90238106D01*
X107521483Y-90141028D01*
X107521480Y-90141027D01*
X107521478Y-90141026D01*
X107318120Y-90074952D01*
X107318123Y-90074952D01*
X107257195Y-90065302D01*
X107106916Y-90041500D01*
X106893084Y-90041500D01*
X106681884Y-90074951D01*
X106681878Y-90074952D01*
X106478521Y-90141026D01*
X106478515Y-90141029D01*
X106287987Y-90238108D01*
X106114993Y-90363796D01*
X106114990Y-90363798D01*
X105963798Y-90514990D01*
X105963796Y-90514993D01*
X105851936Y-90668955D01*
X105795714Y-90712309D01*
X105724977Y-90718384D01*
X105662186Y-90685252D01*
X105648064Y-90668955D01*
X105536438Y-90515316D01*
X105536206Y-90514996D01*
X105536203Y-90514993D01*
X105536201Y-90514990D01*
X105385009Y-90363798D01*
X105385006Y-90363796D01*
X105385004Y-90363794D01*
X105212009Y-90238106D01*
X105021483Y-90141028D01*
X105021480Y-90141027D01*
X105021478Y-90141026D01*
X104818120Y-90074952D01*
X104818123Y-90074952D01*
X104757195Y-90065302D01*
X104606916Y-90041500D01*
X104393084Y-90041500D01*
X104181884Y-90074951D01*
X104181878Y-90074952D01*
X103978521Y-90141026D01*
X103978515Y-90141029D01*
X103787987Y-90238108D01*
X103614993Y-90363796D01*
X103614990Y-90363798D01*
X103463798Y-90514990D01*
X103463796Y-90514993D01*
X103338108Y-90687987D01*
X103241029Y-90878515D01*
X103241026Y-90878521D01*
X103174952Y-91081878D01*
X103174951Y-91081883D01*
X103174951Y-91081884D01*
X103141500Y-91293084D01*
X100025825Y-91293084D01*
X100021224Y-83936288D01*
X101237630Y-83936288D01*
X101237630Y-84063711D01*
X101237927Y-84066730D01*
X101237929Y-84066742D01*
X101262785Y-84191700D01*
X101262787Y-84191709D01*
X101263669Y-84194617D01*
X101312431Y-84312340D01*
X101313863Y-84315019D01*
X101384655Y-84420967D01*
X101386121Y-84422754D01*
X101386577Y-84423309D01*
X101386600Y-84423334D01*
X101476665Y-84513399D01*
X101476677Y-84513410D01*
X101476684Y-84513417D01*
X101479033Y-84515345D01*
X101584981Y-84586137D01*
X101587660Y-84587569D01*
X101705383Y-84636331D01*
X101708291Y-84637213D01*
X101833265Y-84662072D01*
X101836289Y-84662370D01*
X101836292Y-84662370D01*
X101963708Y-84662370D01*
X101963711Y-84662370D01*
X101966735Y-84662072D01*
X102091709Y-84637213D01*
X102094617Y-84636331D01*
X102212340Y-84587569D01*
X102215019Y-84586137D01*
X102320967Y-84515345D01*
X102323316Y-84513417D01*
X102413417Y-84423316D01*
X102415345Y-84420967D01*
X102486137Y-84315019D01*
X102487569Y-84312340D01*
X102536331Y-84194617D01*
X102537213Y-84191709D01*
X102562072Y-84066735D01*
X102562370Y-84063711D01*
X102562370Y-83936289D01*
X102562370Y-83936288D01*
X107237630Y-83936288D01*
X107237630Y-84063711D01*
X107237927Y-84066730D01*
X107237929Y-84066742D01*
X107262785Y-84191700D01*
X107262787Y-84191709D01*
X107263669Y-84194617D01*
X107312431Y-84312340D01*
X107313863Y-84315019D01*
X107384655Y-84420967D01*
X107386121Y-84422754D01*
X107386577Y-84423309D01*
X107386600Y-84423334D01*
X107476665Y-84513399D01*
X107476677Y-84513410D01*
X107476684Y-84513417D01*
X107479033Y-84515345D01*
X107584981Y-84586137D01*
X107587660Y-84587569D01*
X107705383Y-84636331D01*
X107708291Y-84637213D01*
X107833265Y-84662072D01*
X107836289Y-84662370D01*
X107836292Y-84662370D01*
X107963708Y-84662370D01*
X107963711Y-84662370D01*
X107966735Y-84662072D01*
X108091709Y-84637213D01*
X108094617Y-84636331D01*
X108212340Y-84587569D01*
X108215019Y-84586137D01*
X108320967Y-84515345D01*
X108323316Y-84513417D01*
X108413417Y-84423316D01*
X108415345Y-84420967D01*
X108486137Y-84315019D01*
X108487569Y-84312340D01*
X108536331Y-84194617D01*
X108537213Y-84191709D01*
X108562072Y-84066735D01*
X108562370Y-84063711D01*
X108562370Y-83936289D01*
X108562072Y-83933265D01*
X108537213Y-83808291D01*
X108536331Y-83805383D01*
X108487569Y-83687660D01*
X108486137Y-83684981D01*
X108415345Y-83579033D01*
X108413417Y-83576684D01*
X108413410Y-83576677D01*
X108413399Y-83576665D01*
X108323334Y-83486600D01*
X108323309Y-83486577D01*
X108322754Y-83486121D01*
X108320967Y-83484655D01*
X108215019Y-83413863D01*
X108212340Y-83412431D01*
X108094617Y-83363669D01*
X108091709Y-83362787D01*
X108091706Y-83362786D01*
X108091703Y-83362785D01*
X107966742Y-83337929D01*
X107966730Y-83337927D01*
X107963711Y-83337630D01*
X107836289Y-83337630D01*
X107836288Y-83337630D01*
X107833269Y-83337927D01*
X107833257Y-83337929D01*
X107708296Y-83362785D01*
X107708293Y-83362786D01*
X107705385Y-83363668D01*
X107587659Y-83412431D01*
X107584986Y-83413860D01*
X107584983Y-83413861D01*
X107584981Y-83413863D01*
X107545864Y-83440000D01*
X107479033Y-83484655D01*
X107476690Y-83486577D01*
X107476665Y-83486600D01*
X107386600Y-83576665D01*
X107386577Y-83576690D01*
X107384655Y-83579033D01*
X107313862Y-83684983D01*
X107313860Y-83684986D01*
X107312431Y-83687659D01*
X107263668Y-83805385D01*
X107262786Y-83808293D01*
X107262785Y-83808296D01*
X107237929Y-83933257D01*
X107237927Y-83933269D01*
X107237630Y-83936288D01*
X102562370Y-83936288D01*
X102562072Y-83933265D01*
X102537213Y-83808291D01*
X102536331Y-83805383D01*
X102487569Y-83687660D01*
X102486137Y-83684981D01*
X102415345Y-83579033D01*
X102413417Y-83576684D01*
X102413410Y-83576677D01*
X102413399Y-83576665D01*
X102323334Y-83486600D01*
X102323309Y-83486577D01*
X102322754Y-83486121D01*
X102320967Y-83484655D01*
X102215019Y-83413863D01*
X102212340Y-83412431D01*
X102094617Y-83363669D01*
X102091709Y-83362787D01*
X102091706Y-83362786D01*
X102091703Y-83362785D01*
X101966742Y-83337929D01*
X101966730Y-83337927D01*
X101963711Y-83337630D01*
X101836289Y-83337630D01*
X101836288Y-83337630D01*
X101833269Y-83337927D01*
X101833257Y-83337929D01*
X101708296Y-83362785D01*
X101708293Y-83362786D01*
X101705385Y-83363668D01*
X101587659Y-83412431D01*
X101584986Y-83413860D01*
X101584983Y-83413861D01*
X101584981Y-83413863D01*
X101545864Y-83440000D01*
X101479033Y-83484655D01*
X101476690Y-83486577D01*
X101476665Y-83486600D01*
X101386600Y-83576665D01*
X101386577Y-83576690D01*
X101384655Y-83579033D01*
X101313862Y-83684983D01*
X101313860Y-83684986D01*
X101312431Y-83687659D01*
X101263668Y-83805385D01*
X101262786Y-83808293D01*
X101262785Y-83808296D01*
X101237929Y-83933257D01*
X101237927Y-83933269D01*
X101237630Y-83936288D01*
X100021224Y-83936288D01*
X100018144Y-79011883D01*
X138640500Y-79011883D01*
X138640500Y-79986396D01*
X138641914Y-79993502D01*
X138664845Y-80108785D01*
X138712600Y-80224075D01*
X138781929Y-80327833D01*
X138781931Y-80327835D01*
X139039595Y-80585499D01*
X139073621Y-80647811D01*
X139076500Y-80674594D01*
X139076500Y-80724479D01*
X139105610Y-80870828D01*
X139111414Y-80900003D01*
X139179898Y-81065336D01*
X139274876Y-81207482D01*
X139296090Y-81275235D01*
X139277307Y-81343702D01*
X139274876Y-81347484D01*
X139189898Y-81474663D01*
X139121414Y-81639996D01*
X139086500Y-81815518D01*
X139086500Y-81994481D01*
X139121414Y-82170003D01*
X139189898Y-82335336D01*
X139282376Y-82473740D01*
X139303590Y-82541493D01*
X139284807Y-82609959D01*
X139282376Y-82613742D01*
X139194898Y-82744663D01*
X139126414Y-82909996D01*
X139091500Y-83085518D01*
X139091500Y-83264481D01*
X139106110Y-83337927D01*
X139126413Y-83440000D01*
X139194898Y-83605336D01*
X139294322Y-83754135D01*
X139420865Y-83880678D01*
X139569664Y-83980102D01*
X139735000Y-84048587D01*
X139910521Y-84083500D01*
X139910522Y-84083500D01*
X140089478Y-84083500D01*
X140089479Y-84083500D01*
X140265000Y-84048587D01*
X140430336Y-83980102D01*
X140579135Y-83880678D01*
X140614408Y-83845405D01*
X140676720Y-83811379D01*
X140703503Y-83808500D01*
X149962393Y-83808500D01*
X149962394Y-83808500D01*
X150084785Y-83784155D01*
X150200075Y-83736400D01*
X150303833Y-83667071D01*
X163050499Y-70920405D01*
X163112811Y-70886379D01*
X163139594Y-70883500D01*
X163189478Y-70883500D01*
X163189479Y-70883500D01*
X163365000Y-70848587D01*
X163530336Y-70780102D01*
X163650032Y-70700123D01*
X163717784Y-70678909D01*
X163786251Y-70697692D01*
X163790034Y-70700124D01*
X163939659Y-70800099D01*
X163939660Y-70800100D01*
X163939662Y-70800101D01*
X163939664Y-70800102D01*
X164105000Y-70868587D01*
X164280521Y-70903500D01*
X164280522Y-70903500D01*
X164459478Y-70903500D01*
X164459479Y-70903500D01*
X164635000Y-70868587D01*
X164800336Y-70800102D01*
X164949135Y-70700678D01*
X165075678Y-70574135D01*
X165175102Y-70425336D01*
X165243587Y-70260000D01*
X165278500Y-70084479D01*
X165278500Y-70019594D01*
X165287283Y-69989678D01*
X165293912Y-69959209D01*
X165297726Y-69954113D01*
X165298502Y-69951473D01*
X165315405Y-69930499D01*
X165348499Y-69897405D01*
X165410811Y-69863379D01*
X165437594Y-69860500D01*
X165792852Y-69860500D01*
X165860973Y-69880502D01*
X165881946Y-69897404D01*
X179563373Y-83578832D01*
X179563374Y-83578833D01*
X179651612Y-83667071D01*
X179755370Y-83736400D01*
X179870660Y-83784155D01*
X179993051Y-83808500D01*
X189429618Y-83808500D01*
X189497739Y-83828502D01*
X189499552Y-83829690D01*
X189592032Y-83891483D01*
X189739169Y-83952430D01*
X189895370Y-83983500D01*
X189895371Y-83983500D01*
X190054629Y-83983500D01*
X190054630Y-83983500D01*
X190210831Y-83952430D01*
X190357968Y-83891483D01*
X190490389Y-83803003D01*
X190539262Y-83754130D01*
X190602998Y-83690395D01*
X190602999Y-83690392D01*
X190603003Y-83690389D01*
X190691483Y-83557968D01*
X190752430Y-83410831D01*
X190783500Y-83254630D01*
X190783500Y-83095370D01*
X190752430Y-82939169D01*
X190691483Y-82792032D01*
X190603003Y-82659611D01*
X190571921Y-82628529D01*
X190569076Y-82625263D01*
X190560572Y-82606772D01*
X206842000Y-82606772D01*
X206842000Y-82718000D01*
X207652075Y-82718000D01*
X207650000Y-82728433D01*
X207650000Y-83215567D01*
X207652075Y-83226000D01*
X206842000Y-83226000D01*
X206842000Y-83337227D01*
X206872078Y-83565698D01*
X206931724Y-83788298D01*
X206931725Y-83788302D01*
X207019916Y-84001213D01*
X207019921Y-84001224D01*
X207135137Y-84200784D01*
X207135141Y-84200790D01*
X207275425Y-84383611D01*
X207275444Y-84383632D01*
X207438367Y-84546555D01*
X207438388Y-84546574D01*
X207621209Y-84686858D01*
X207621215Y-84686862D01*
X207820775Y-84802078D01*
X207820786Y-84802083D01*
X208033697Y-84890274D01*
X208033701Y-84890275D01*
X208256299Y-84949920D01*
X208256303Y-84949921D01*
X208345999Y-84961729D01*
X208346000Y-84961729D01*
X208346000Y-84040087D01*
X208506433Y-84072000D01*
X208693567Y-84072000D01*
X208854000Y-84040087D01*
X208854000Y-84961729D01*
X208943696Y-84949921D01*
X208943700Y-84949920D01*
X209166298Y-84890275D01*
X209166302Y-84890274D01*
X209379213Y-84802083D01*
X209379224Y-84802078D01*
X209578784Y-84686862D01*
X209578790Y-84686858D01*
X209761611Y-84546574D01*
X209761632Y-84546555D01*
X209924555Y-84383632D01*
X209924574Y-84383611D01*
X210064858Y-84200790D01*
X210064862Y-84200784D01*
X210180078Y-84001224D01*
X210180083Y-84001213D01*
X210268274Y-83788302D01*
X210268275Y-83788298D01*
X210327921Y-83565698D01*
X210357999Y-83337227D01*
X210358000Y-83337218D01*
X210358000Y-83226000D01*
X209547925Y-83226000D01*
X209550000Y-83215567D01*
X209550000Y-82728433D01*
X209547925Y-82718000D01*
X210358000Y-82718000D01*
X210358000Y-82606782D01*
X210357999Y-82606772D01*
X215642000Y-82606772D01*
X215642000Y-82718000D01*
X216452075Y-82718000D01*
X216450000Y-82728433D01*
X216450000Y-83215567D01*
X216452075Y-83226000D01*
X215642000Y-83226000D01*
X215642000Y-83337227D01*
X215672078Y-83565698D01*
X215731724Y-83788298D01*
X215731725Y-83788302D01*
X215819916Y-84001213D01*
X215819921Y-84001224D01*
X215935137Y-84200784D01*
X215935141Y-84200790D01*
X216075425Y-84383611D01*
X216075444Y-84383632D01*
X216238367Y-84546555D01*
X216238388Y-84546574D01*
X216421209Y-84686858D01*
X216421215Y-84686862D01*
X216620775Y-84802078D01*
X216620786Y-84802083D01*
X216833697Y-84890274D01*
X216833701Y-84890275D01*
X217056299Y-84949920D01*
X217056303Y-84949921D01*
X217145999Y-84961729D01*
X217146000Y-84961729D01*
X217146000Y-84040087D01*
X217306433Y-84072000D01*
X217493567Y-84072000D01*
X217654000Y-84040087D01*
X217654000Y-84961729D01*
X217743696Y-84949921D01*
X217743700Y-84949920D01*
X217966298Y-84890275D01*
X217966302Y-84890274D01*
X218179213Y-84802083D01*
X218179224Y-84802078D01*
X218378784Y-84686862D01*
X218378790Y-84686858D01*
X218561611Y-84546574D01*
X218561632Y-84546555D01*
X218724555Y-84383632D01*
X218724574Y-84383611D01*
X218864858Y-84200790D01*
X218864862Y-84200784D01*
X218980078Y-84001224D01*
X218980083Y-84001213D01*
X219068274Y-83788302D01*
X219068275Y-83788298D01*
X219127921Y-83565698D01*
X219157999Y-83337227D01*
X219158000Y-83337218D01*
X219158000Y-83226000D01*
X218347925Y-83226000D01*
X218350000Y-83215567D01*
X218350000Y-82728433D01*
X218347925Y-82718000D01*
X219158000Y-82718000D01*
X219158000Y-82606782D01*
X219157999Y-82606772D01*
X219127921Y-82378301D01*
X219068275Y-82155701D01*
X219068274Y-82155697D01*
X218980083Y-81942786D01*
X218980078Y-81942775D01*
X218864862Y-81743215D01*
X218864858Y-81743209D01*
X218724574Y-81560388D01*
X218724555Y-81560367D01*
X218561632Y-81397444D01*
X218561611Y-81397425D01*
X218378790Y-81257141D01*
X218378784Y-81257137D01*
X218179224Y-81141921D01*
X218179213Y-81141916D01*
X217966302Y-81053725D01*
X217966298Y-81053724D01*
X217743697Y-80994078D01*
X217654000Y-80982269D01*
X217654000Y-81903912D01*
X217493567Y-81872000D01*
X217306433Y-81872000D01*
X217146000Y-81903912D01*
X217146000Y-80982270D01*
X217145999Y-80982269D01*
X217056302Y-80994078D01*
X216833701Y-81053724D01*
X216833697Y-81053725D01*
X216620786Y-81141916D01*
X216620775Y-81141921D01*
X216421215Y-81257137D01*
X216421209Y-81257141D01*
X216238388Y-81397425D01*
X216238367Y-81397444D01*
X216075444Y-81560367D01*
X216075425Y-81560388D01*
X215935141Y-81743209D01*
X215935137Y-81743215D01*
X215819921Y-81942775D01*
X215819916Y-81942786D01*
X215731725Y-82155697D01*
X215731724Y-82155701D01*
X215672078Y-82378301D01*
X215642000Y-82606772D01*
X210357999Y-82606772D01*
X210327921Y-82378301D01*
X210268275Y-82155701D01*
X210268274Y-82155697D01*
X210180083Y-81942786D01*
X210180078Y-81942775D01*
X210064862Y-81743215D01*
X210064858Y-81743209D01*
X209924574Y-81560388D01*
X209924555Y-81560367D01*
X209761632Y-81397444D01*
X209761611Y-81397425D01*
X209578790Y-81257141D01*
X209578784Y-81257137D01*
X209379224Y-81141921D01*
X209379213Y-81141916D01*
X209166302Y-81053725D01*
X209166298Y-81053724D01*
X208943697Y-80994078D01*
X208854000Y-80982269D01*
X208854000Y-81903912D01*
X208693567Y-81872000D01*
X208506433Y-81872000D01*
X208346000Y-81903912D01*
X208346000Y-80982270D01*
X208345999Y-80982269D01*
X208256302Y-80994078D01*
X208033701Y-81053724D01*
X208033697Y-81053725D01*
X207820786Y-81141916D01*
X207820775Y-81141921D01*
X207621215Y-81257137D01*
X207621209Y-81257141D01*
X207438388Y-81397425D01*
X207438367Y-81397444D01*
X207275444Y-81560367D01*
X207275425Y-81560388D01*
X207135141Y-81743209D01*
X207135137Y-81743215D01*
X207019921Y-81942775D01*
X207019916Y-81942786D01*
X206931725Y-82155697D01*
X206931724Y-82155701D01*
X206872078Y-82378301D01*
X206842000Y-82606772D01*
X190560572Y-82606772D01*
X190555980Y-82596786D01*
X190540962Y-82569283D01*
X190541281Y-82564822D01*
X190539413Y-82560760D01*
X190543790Y-82529731D01*
X190546027Y-82498468D01*
X190548813Y-82494131D01*
X190549332Y-82490459D01*
X190556574Y-82482056D01*
X190574988Y-82453405D01*
X190607996Y-82420396D01*
X190608003Y-82420389D01*
X190696483Y-82287968D01*
X190757430Y-82140831D01*
X190788500Y-81984630D01*
X190788500Y-81825370D01*
X190757430Y-81669169D01*
X190696483Y-81522032D01*
X190608003Y-81389611D01*
X190608001Y-81389609D01*
X190607996Y-81389603D01*
X190579988Y-81361595D01*
X190545962Y-81299283D01*
X190551027Y-81228468D01*
X190579988Y-81183405D01*
X190612996Y-81150396D01*
X190613003Y-81150389D01*
X190701483Y-81017968D01*
X190762430Y-80870831D01*
X190792892Y-80717685D01*
X190825799Y-80654776D01*
X190827263Y-80653285D01*
X191461921Y-80018628D01*
X191499156Y-79954135D01*
X191542032Y-79879872D01*
X191583500Y-79725111D01*
X191583500Y-78844889D01*
X191542032Y-78690128D01*
X191482820Y-78587570D01*
X191461922Y-78551373D01*
X191461919Y-78551370D01*
X191461915Y-78551365D01*
X190923633Y-78013083D01*
X190923623Y-78013075D01*
X190784877Y-77932970D01*
X190784874Y-77932969D01*
X190784873Y-77932968D01*
X190784871Y-77932967D01*
X190784870Y-77932967D01*
X190707491Y-77912234D01*
X190630111Y-77891500D01*
X190630109Y-77891500D01*
X177421339Y-77891500D01*
X177353218Y-77871498D01*
X177332244Y-77854595D01*
X175426877Y-75949228D01*
X175342733Y-75865084D01*
X209141500Y-75865084D01*
X209141500Y-76078916D01*
X209158190Y-76184292D01*
X209174952Y-76290121D01*
X209238115Y-76484518D01*
X209241028Y-76493483D01*
X209338106Y-76684009D01*
X209338108Y-76684012D01*
X209351626Y-76702618D01*
X209463794Y-76857004D01*
X209463796Y-76857006D01*
X209463798Y-76857009D01*
X209614990Y-77008201D01*
X209614993Y-77008203D01*
X209614996Y-77008206D01*
X209787991Y-77133894D01*
X209978517Y-77230972D01*
X210181878Y-77297047D01*
X210181879Y-77297047D01*
X210181884Y-77297049D01*
X210393084Y-77330500D01*
X210393087Y-77330500D01*
X210606913Y-77330500D01*
X210606916Y-77330500D01*
X210818116Y-77297049D01*
X211021483Y-77230972D01*
X211212009Y-77133894D01*
X211385004Y-77008206D01*
X211536206Y-76857004D01*
X211648064Y-76703043D01*
X211704286Y-76659690D01*
X211775022Y-76653615D01*
X211837814Y-76686746D01*
X211851934Y-76703041D01*
X211963794Y-76857004D01*
X211963796Y-76857006D01*
X211963798Y-76857009D01*
X212114990Y-77008201D01*
X212114993Y-77008203D01*
X212114996Y-77008206D01*
X212287991Y-77133894D01*
X212478517Y-77230972D01*
X212681878Y-77297047D01*
X212681879Y-77297047D01*
X212681884Y-77297049D01*
X212893084Y-77330500D01*
X212893087Y-77330500D01*
X213106913Y-77330500D01*
X213106916Y-77330500D01*
X213318116Y-77297049D01*
X213521483Y-77230972D01*
X213712009Y-77133894D01*
X213885004Y-77008206D01*
X214036206Y-76857004D01*
X214148374Y-76702616D01*
X214204595Y-76659264D01*
X214275331Y-76653189D01*
X214338123Y-76686320D01*
X214352245Y-76702618D01*
X214464177Y-76856679D01*
X214615320Y-77007822D01*
X214788249Y-77133463D01*
X214978707Y-77230506D01*
X214978713Y-77230509D01*
X215181998Y-77296560D01*
X215246000Y-77306696D01*
X215246000Y-76460438D01*
X215287708Y-76484518D01*
X215427591Y-76522000D01*
X215572409Y-76522000D01*
X215712292Y-76484518D01*
X215754000Y-76460438D01*
X215754000Y-77306696D01*
X215818001Y-77296560D01*
X216021286Y-77230509D01*
X216021292Y-77230506D01*
X216211750Y-77133463D01*
X216384679Y-77007822D01*
X216535822Y-76856679D01*
X216661463Y-76683750D01*
X216758506Y-76493292D01*
X216758509Y-76493286D01*
X216824559Y-76290004D01*
X216834698Y-76226000D01*
X215988438Y-76226000D01*
X216012518Y-76184292D01*
X216050000Y-76044409D01*
X216050000Y-75899591D01*
X216012518Y-75759708D01*
X215988438Y-75718000D01*
X216834697Y-75718000D01*
X216824559Y-75653995D01*
X216758509Y-75450713D01*
X216758506Y-75450707D01*
X216661463Y-75260249D01*
X216535822Y-75087320D01*
X216384679Y-74936177D01*
X216211750Y-74810536D01*
X216021292Y-74713493D01*
X216021286Y-74713490D01*
X215818004Y-74647440D01*
X215754000Y-74637302D01*
X215754000Y-75483561D01*
X215712292Y-75459482D01*
X215572409Y-75422000D01*
X215427591Y-75422000D01*
X215287708Y-75459482D01*
X215246000Y-75483561D01*
X215246000Y-74637302D01*
X215181995Y-74647440D01*
X214978713Y-74713490D01*
X214978707Y-74713493D01*
X214788249Y-74810536D01*
X214615320Y-74936177D01*
X214464181Y-75087316D01*
X214352245Y-75241382D01*
X214296022Y-75284735D01*
X214225286Y-75290810D01*
X214162494Y-75257678D01*
X214148373Y-75241381D01*
X214036206Y-75086996D01*
X214036203Y-75086993D01*
X214036201Y-75086990D01*
X213885009Y-74935798D01*
X213885006Y-74935796D01*
X213885004Y-74935794D01*
X213712009Y-74810106D01*
X213521483Y-74713028D01*
X213521480Y-74713027D01*
X213521478Y-74713026D01*
X213318120Y-74646952D01*
X213318123Y-74646952D01*
X213257195Y-74637302D01*
X213106916Y-74613500D01*
X212893084Y-74613500D01*
X212681884Y-74646951D01*
X212681878Y-74646952D01*
X212478521Y-74713026D01*
X212478515Y-74713029D01*
X212287987Y-74810108D01*
X212114993Y-74935796D01*
X212114990Y-74935798D01*
X211963798Y-75086990D01*
X211963796Y-75086993D01*
X211851936Y-75240955D01*
X211795714Y-75284309D01*
X211724977Y-75290384D01*
X211662186Y-75257252D01*
X211648064Y-75240955D01*
X211536438Y-75087316D01*
X211536206Y-75086996D01*
X211536203Y-75086993D01*
X211536201Y-75086990D01*
X211385009Y-74935798D01*
X211385006Y-74935796D01*
X211385004Y-74935794D01*
X211212009Y-74810106D01*
X211021483Y-74713028D01*
X211021480Y-74713027D01*
X211021478Y-74713026D01*
X210818120Y-74646952D01*
X210818123Y-74646952D01*
X210757195Y-74637302D01*
X210606916Y-74613500D01*
X210393084Y-74613500D01*
X210181884Y-74646951D01*
X210181878Y-74646952D01*
X209978521Y-74713026D01*
X209978515Y-74713029D01*
X209787987Y-74810108D01*
X209614993Y-74935796D01*
X209614990Y-74935798D01*
X209463798Y-75086990D01*
X209463796Y-75086993D01*
X209338108Y-75259987D01*
X209241029Y-75450515D01*
X209241026Y-75450521D01*
X209174952Y-75653878D01*
X209174951Y-75653883D01*
X209174951Y-75653884D01*
X209141500Y-75865084D01*
X175342733Y-75865084D01*
X166989733Y-67512083D01*
X166989723Y-67512075D01*
X166850977Y-67431970D01*
X166850974Y-67431969D01*
X166850973Y-67431968D01*
X166850971Y-67431967D01*
X166850970Y-67431967D01*
X166773591Y-67411234D01*
X166773587Y-67411233D01*
X166696211Y-67390500D01*
X161200889Y-67390500D01*
X161200888Y-67390500D01*
X161123508Y-67411233D01*
X161123508Y-67411234D01*
X161046131Y-67431967D01*
X161046127Y-67431968D01*
X161046122Y-67431970D01*
X160907375Y-67512076D01*
X160907365Y-67512084D01*
X159374856Y-69044595D01*
X159312544Y-69078620D01*
X159285761Y-69081500D01*
X159200518Y-69081500D01*
X159069771Y-69107507D01*
X159025000Y-69116413D01*
X159024999Y-69116413D01*
X159024996Y-69116414D01*
X158859662Y-69184899D01*
X158710869Y-69284319D01*
X158710862Y-69284324D01*
X158584324Y-69410862D01*
X158584322Y-69410865D01*
X158484898Y-69559664D01*
X158470716Y-69593902D01*
X158416414Y-69724996D01*
X158381500Y-69900518D01*
X158381500Y-69944406D01*
X158361498Y-70012527D01*
X158344595Y-70033501D01*
X150399501Y-77978595D01*
X150337189Y-78012621D01*
X150310406Y-78015500D01*
X139636880Y-78015500D01*
X139514497Y-78039844D01*
X139514489Y-78039846D01*
X139480727Y-78053830D01*
X139480727Y-78053831D01*
X139399205Y-78087599D01*
X139295447Y-78156927D01*
X138870167Y-78582209D01*
X138781927Y-78670449D01*
X138781926Y-78670451D01*
X138712601Y-78774203D01*
X138664846Y-78889492D01*
X138640500Y-79011883D01*
X100018144Y-79011883D01*
X100012530Y-70034772D01*
X100842000Y-70034772D01*
X100842000Y-70146000D01*
X101652075Y-70146000D01*
X101650000Y-70156433D01*
X101650000Y-70643567D01*
X101652075Y-70654000D01*
X100842000Y-70654000D01*
X100842000Y-70765227D01*
X100872078Y-70993698D01*
X100931724Y-71216298D01*
X100931725Y-71216302D01*
X101019916Y-71429213D01*
X101019921Y-71429224D01*
X101135137Y-71628784D01*
X101135141Y-71628790D01*
X101275425Y-71811611D01*
X101275444Y-71811632D01*
X101438367Y-71974555D01*
X101438388Y-71974574D01*
X101621209Y-72114858D01*
X101621215Y-72114862D01*
X101820775Y-72230078D01*
X101820786Y-72230083D01*
X102033697Y-72318274D01*
X102033701Y-72318275D01*
X102256299Y-72377920D01*
X102256303Y-72377921D01*
X102345999Y-72389729D01*
X102346000Y-72389729D01*
X102346000Y-71468087D01*
X102506433Y-71500000D01*
X102693567Y-71500000D01*
X102854000Y-71468087D01*
X102854000Y-72389729D01*
X102943696Y-72377921D01*
X102943700Y-72377920D01*
X103166298Y-72318275D01*
X103166302Y-72318274D01*
X103379213Y-72230083D01*
X103379224Y-72230078D01*
X103578784Y-72114862D01*
X103578790Y-72114858D01*
X103761611Y-71974574D01*
X103761632Y-71974555D01*
X103924555Y-71811632D01*
X103924574Y-71811611D01*
X104064858Y-71628790D01*
X104064862Y-71628784D01*
X104180078Y-71429224D01*
X104180083Y-71429213D01*
X104268274Y-71216302D01*
X104268275Y-71216298D01*
X104327921Y-70993698D01*
X104357999Y-70765227D01*
X104358000Y-70765218D01*
X104358000Y-70654000D01*
X103547925Y-70654000D01*
X103550000Y-70643567D01*
X103550000Y-70156433D01*
X103547925Y-70146000D01*
X104358000Y-70146000D01*
X104358000Y-70034782D01*
X104357999Y-70034772D01*
X109642000Y-70034772D01*
X109642000Y-70146000D01*
X110452075Y-70146000D01*
X110450000Y-70156433D01*
X110450000Y-70643567D01*
X110452075Y-70654000D01*
X109642000Y-70654000D01*
X109642000Y-70765227D01*
X109672078Y-70993698D01*
X109731724Y-71216298D01*
X109731725Y-71216302D01*
X109819916Y-71429213D01*
X109819921Y-71429224D01*
X109935137Y-71628784D01*
X109935141Y-71628790D01*
X110075425Y-71811611D01*
X110075444Y-71811632D01*
X110238367Y-71974555D01*
X110238388Y-71974574D01*
X110421209Y-72114858D01*
X110421215Y-72114862D01*
X110620775Y-72230078D01*
X110620786Y-72230083D01*
X110833697Y-72318274D01*
X110833701Y-72318275D01*
X111056299Y-72377920D01*
X111056303Y-72377921D01*
X111145999Y-72389729D01*
X111146000Y-72389729D01*
X111146000Y-71468087D01*
X111306433Y-71500000D01*
X111493567Y-71500000D01*
X111654000Y-71468087D01*
X111654000Y-72389729D01*
X111743696Y-72377921D01*
X111743700Y-72377920D01*
X111966298Y-72318275D01*
X111966302Y-72318274D01*
X112179213Y-72230083D01*
X112179224Y-72230078D01*
X112378784Y-72114862D01*
X112378790Y-72114858D01*
X112561611Y-71974574D01*
X112561632Y-71974555D01*
X112724555Y-71811632D01*
X112724574Y-71811611D01*
X112864858Y-71628790D01*
X112864862Y-71628784D01*
X112980078Y-71429224D01*
X112980083Y-71429213D01*
X113068274Y-71216302D01*
X113068275Y-71216298D01*
X113127921Y-70993698D01*
X113157999Y-70765227D01*
X113158000Y-70765218D01*
X113158000Y-70654000D01*
X112347925Y-70654000D01*
X112350000Y-70643567D01*
X112350000Y-70156433D01*
X112347925Y-70146000D01*
X113158000Y-70146000D01*
X113158000Y-70034782D01*
X113157999Y-70034772D01*
X113127921Y-69806301D01*
X113068275Y-69583701D01*
X113068274Y-69583697D01*
X112980083Y-69370786D01*
X112980078Y-69370775D01*
X112864862Y-69171215D01*
X112864858Y-69171209D01*
X112724574Y-68988388D01*
X112724555Y-68988367D01*
X112561632Y-68825444D01*
X112561611Y-68825425D01*
X112378790Y-68685141D01*
X112378784Y-68685137D01*
X112179224Y-68569921D01*
X112179213Y-68569916D01*
X111966302Y-68481725D01*
X111966298Y-68481724D01*
X111743697Y-68422078D01*
X111654000Y-68410269D01*
X111654000Y-69331912D01*
X111493567Y-69300000D01*
X111306433Y-69300000D01*
X111146000Y-69331912D01*
X111146000Y-68410270D01*
X111145999Y-68410269D01*
X111056302Y-68422078D01*
X110833701Y-68481724D01*
X110833697Y-68481725D01*
X110620786Y-68569916D01*
X110620775Y-68569921D01*
X110421215Y-68685137D01*
X110421209Y-68685141D01*
X110238388Y-68825425D01*
X110238367Y-68825444D01*
X110075444Y-68988367D01*
X110075425Y-68988388D01*
X109935141Y-69171209D01*
X109935137Y-69171215D01*
X109819921Y-69370775D01*
X109819916Y-69370786D01*
X109731725Y-69583697D01*
X109731724Y-69583701D01*
X109672078Y-69806301D01*
X109642000Y-70034772D01*
X104357999Y-70034772D01*
X104327921Y-69806301D01*
X104268275Y-69583701D01*
X104268274Y-69583697D01*
X104180083Y-69370786D01*
X104180078Y-69370775D01*
X104064862Y-69171215D01*
X104064858Y-69171209D01*
X103924574Y-68988388D01*
X103924555Y-68988367D01*
X103761632Y-68825444D01*
X103761611Y-68825425D01*
X103578790Y-68685141D01*
X103578784Y-68685137D01*
X103379224Y-68569921D01*
X103379213Y-68569916D01*
X103166302Y-68481725D01*
X103166298Y-68481724D01*
X102943697Y-68422078D01*
X102854000Y-68410269D01*
X102854000Y-69331912D01*
X102693567Y-69300000D01*
X102506433Y-69300000D01*
X102346000Y-69331912D01*
X102346000Y-68410270D01*
X102345999Y-68410269D01*
X102256302Y-68422078D01*
X102033701Y-68481724D01*
X102033697Y-68481725D01*
X101820786Y-68569916D01*
X101820775Y-68569921D01*
X101621215Y-68685137D01*
X101621209Y-68685141D01*
X101438388Y-68825425D01*
X101438367Y-68825444D01*
X101275444Y-68988367D01*
X101275425Y-68988388D01*
X101135141Y-69171209D01*
X101135137Y-69171215D01*
X101019921Y-69370775D01*
X101019916Y-69370786D01*
X100931725Y-69583697D01*
X100931724Y-69583701D01*
X100872078Y-69806301D01*
X100842000Y-70034772D01*
X100012530Y-70034772D01*
X100010500Y-66789500D01*
X100010500Y-63293084D01*
X103141500Y-63293084D01*
X103141500Y-63506916D01*
X103158190Y-63612292D01*
X103174952Y-63718121D01*
X103227418Y-63879595D01*
X103241028Y-63921483D01*
X103338106Y-64112009D01*
X103338108Y-64112012D01*
X103351626Y-64130618D01*
X103463794Y-64285004D01*
X103463796Y-64285006D01*
X103463798Y-64285009D01*
X103614990Y-64436201D01*
X103614993Y-64436203D01*
X103614996Y-64436206D01*
X103787991Y-64561894D01*
X103978517Y-64658972D01*
X104181878Y-64725047D01*
X104181879Y-64725047D01*
X104181884Y-64725049D01*
X104393084Y-64758500D01*
X104393087Y-64758500D01*
X104606913Y-64758500D01*
X104606916Y-64758500D01*
X104818116Y-64725049D01*
X105021483Y-64658972D01*
X105212009Y-64561894D01*
X105385004Y-64436206D01*
X105536206Y-64285004D01*
X105648064Y-64131043D01*
X105704286Y-64087690D01*
X105775022Y-64081615D01*
X105837814Y-64114746D01*
X105851934Y-64131041D01*
X105963794Y-64285004D01*
X105963796Y-64285006D01*
X105963798Y-64285009D01*
X106114990Y-64436201D01*
X106114993Y-64436203D01*
X106114996Y-64436206D01*
X106287991Y-64561894D01*
X106478517Y-64658972D01*
X106681878Y-64725047D01*
X106681879Y-64725047D01*
X106681884Y-64725049D01*
X106893084Y-64758500D01*
X106893087Y-64758500D01*
X107106913Y-64758500D01*
X107106916Y-64758500D01*
X107318116Y-64725049D01*
X107521483Y-64658972D01*
X107712009Y-64561894D01*
X107885004Y-64436206D01*
X108036206Y-64285004D01*
X108148374Y-64130616D01*
X108204595Y-64087264D01*
X108275331Y-64081189D01*
X108338123Y-64114320D01*
X108352245Y-64130618D01*
X108464177Y-64284679D01*
X108615320Y-64435822D01*
X108788249Y-64561463D01*
X108978707Y-64658506D01*
X108978713Y-64658509D01*
X109181998Y-64724560D01*
X109246000Y-64734696D01*
X109246000Y-63888438D01*
X109287708Y-63912518D01*
X109427591Y-63950000D01*
X109572409Y-63950000D01*
X109712292Y-63912518D01*
X109754000Y-63888438D01*
X109754000Y-64734696D01*
X109818001Y-64724560D01*
X110021286Y-64658509D01*
X110021292Y-64658506D01*
X110211750Y-64561463D01*
X110384679Y-64435822D01*
X110535822Y-64284679D01*
X110661463Y-64111750D01*
X110758506Y-63921292D01*
X110758509Y-63921286D01*
X110824559Y-63718004D01*
X110834698Y-63654000D01*
X109988438Y-63654000D01*
X110012518Y-63612292D01*
X110050000Y-63472409D01*
X110050000Y-63327591D01*
X110012518Y-63187708D01*
X109988438Y-63146000D01*
X110834697Y-63146000D01*
X110824559Y-63081995D01*
X110758509Y-62878713D01*
X110758506Y-62878707D01*
X110661463Y-62688249D01*
X110535822Y-62515320D01*
X110384679Y-62364177D01*
X110211750Y-62238536D01*
X110021292Y-62141493D01*
X110021286Y-62141490D01*
X109818004Y-62075440D01*
X109754000Y-62065302D01*
X109754000Y-62911561D01*
X109712292Y-62887482D01*
X109572409Y-62850000D01*
X109427591Y-62850000D01*
X109287708Y-62887482D01*
X109246000Y-62911561D01*
X109246000Y-62065302D01*
X109181995Y-62075440D01*
X108978713Y-62141490D01*
X108978707Y-62141493D01*
X108788249Y-62238536D01*
X108615320Y-62364177D01*
X108464181Y-62515316D01*
X108352245Y-62669382D01*
X108296022Y-62712735D01*
X108225286Y-62718810D01*
X108162494Y-62685678D01*
X108148373Y-62669381D01*
X108036206Y-62514996D01*
X108036203Y-62514993D01*
X108036201Y-62514990D01*
X107885009Y-62363798D01*
X107885006Y-62363796D01*
X107885004Y-62363794D01*
X107712009Y-62238106D01*
X107521483Y-62141028D01*
X107521480Y-62141027D01*
X107521478Y-62141026D01*
X107318120Y-62074952D01*
X107318123Y-62074952D01*
X107257195Y-62065302D01*
X107106916Y-62041500D01*
X106893084Y-62041500D01*
X106681884Y-62074951D01*
X106681878Y-62074952D01*
X106478521Y-62141026D01*
X106478515Y-62141029D01*
X106287987Y-62238108D01*
X106114993Y-62363796D01*
X106114990Y-62363798D01*
X105963798Y-62514990D01*
X105963796Y-62514993D01*
X105851936Y-62668955D01*
X105795714Y-62712309D01*
X105724977Y-62718384D01*
X105662186Y-62685252D01*
X105648064Y-62668955D01*
X105536438Y-62515316D01*
X105536206Y-62514996D01*
X105536203Y-62514993D01*
X105536201Y-62514990D01*
X105385009Y-62363798D01*
X105385006Y-62363796D01*
X105385004Y-62363794D01*
X105212009Y-62238106D01*
X105021483Y-62141028D01*
X105021480Y-62141027D01*
X105021478Y-62141026D01*
X104818120Y-62074952D01*
X104818123Y-62074952D01*
X104757195Y-62065302D01*
X104606916Y-62041500D01*
X104393084Y-62041500D01*
X104181884Y-62074951D01*
X104181878Y-62074952D01*
X103978521Y-62141026D01*
X103978515Y-62141029D01*
X103787987Y-62238108D01*
X103614993Y-62363796D01*
X103614990Y-62363798D01*
X103463798Y-62514990D01*
X103463796Y-62514993D01*
X103338108Y-62687987D01*
X103241029Y-62878515D01*
X103241026Y-62878521D01*
X103174952Y-63081878D01*
X103174951Y-63081883D01*
X103174951Y-63081884D01*
X103141500Y-63293084D01*
X100010500Y-63293084D01*
X100010500Y-56036288D01*
X101237630Y-56036288D01*
X101237630Y-56163711D01*
X101237927Y-56166730D01*
X101237929Y-56166742D01*
X101259730Y-56276341D01*
X101262787Y-56291709D01*
X101263669Y-56294617D01*
X101312431Y-56412340D01*
X101313863Y-56415019D01*
X101384655Y-56520967D01*
X101386121Y-56522754D01*
X101386577Y-56523309D01*
X101386600Y-56523334D01*
X101476665Y-56613399D01*
X101476677Y-56613410D01*
X101476684Y-56613417D01*
X101479033Y-56615345D01*
X101584981Y-56686137D01*
X101587660Y-56687569D01*
X101705383Y-56736331D01*
X101708291Y-56737213D01*
X101833265Y-56762072D01*
X101836289Y-56762370D01*
X101836292Y-56762370D01*
X101963708Y-56762370D01*
X101963711Y-56762370D01*
X101966735Y-56762072D01*
X102091709Y-56737213D01*
X102094617Y-56736331D01*
X102212340Y-56687569D01*
X102215019Y-56686137D01*
X102320967Y-56615345D01*
X102323316Y-56613417D01*
X102413417Y-56523316D01*
X102415345Y-56520967D01*
X102486137Y-56415019D01*
X102487569Y-56412340D01*
X102536331Y-56294617D01*
X102537213Y-56291709D01*
X102562072Y-56166735D01*
X102562370Y-56163711D01*
X102562370Y-56036289D01*
X102562370Y-56036288D01*
X107237630Y-56036288D01*
X107237630Y-56163711D01*
X107237927Y-56166730D01*
X107237929Y-56166742D01*
X107259730Y-56276341D01*
X107262787Y-56291709D01*
X107263669Y-56294617D01*
X107312431Y-56412340D01*
X107313863Y-56415019D01*
X107384655Y-56520967D01*
X107386121Y-56522754D01*
X107386577Y-56523309D01*
X107386600Y-56523334D01*
X107476665Y-56613399D01*
X107476677Y-56613410D01*
X107476684Y-56613417D01*
X107479033Y-56615345D01*
X107584981Y-56686137D01*
X107587660Y-56687569D01*
X107705383Y-56736331D01*
X107708291Y-56737213D01*
X107833265Y-56762072D01*
X107836289Y-56762370D01*
X107836292Y-56762370D01*
X107963708Y-56762370D01*
X107963711Y-56762370D01*
X107966735Y-56762072D01*
X108091709Y-56737213D01*
X108094617Y-56736331D01*
X108212340Y-56687569D01*
X108215019Y-56686137D01*
X108320967Y-56615345D01*
X108323316Y-56613417D01*
X108413417Y-56523316D01*
X108415345Y-56520967D01*
X108486137Y-56415019D01*
X108487569Y-56412340D01*
X108536331Y-56294617D01*
X108537213Y-56291709D01*
X108562072Y-56166735D01*
X108562370Y-56163711D01*
X108562370Y-56036289D01*
X108562072Y-56033265D01*
X108537213Y-55908291D01*
X108536331Y-55905383D01*
X108487569Y-55787660D01*
X108486137Y-55784981D01*
X108415345Y-55679033D01*
X108413417Y-55676684D01*
X108413410Y-55676677D01*
X108413399Y-55676665D01*
X108323334Y-55586600D01*
X108323309Y-55586577D01*
X108322476Y-55585893D01*
X108320967Y-55584655D01*
X108320964Y-55584652D01*
X108300687Y-55571104D01*
X108277459Y-55555584D01*
X108215019Y-55513863D01*
X108212340Y-55512431D01*
X108094617Y-55463669D01*
X108091709Y-55462787D01*
X108091706Y-55462786D01*
X108091703Y-55462785D01*
X107966742Y-55437929D01*
X107966730Y-55437927D01*
X107963711Y-55437630D01*
X107836289Y-55437630D01*
X107836288Y-55437630D01*
X107833269Y-55437927D01*
X107833257Y-55437929D01*
X107708296Y-55462785D01*
X107708293Y-55462786D01*
X107705385Y-55463668D01*
X107587659Y-55512431D01*
X107584986Y-55513860D01*
X107584983Y-55513861D01*
X107584981Y-55513863D01*
X107511468Y-55562983D01*
X107479033Y-55584655D01*
X107476690Y-55586577D01*
X107476665Y-55586600D01*
X107386600Y-55676665D01*
X107386577Y-55676690D01*
X107384655Y-55679033D01*
X107313862Y-55784983D01*
X107313860Y-55784986D01*
X107312431Y-55787659D01*
X107263668Y-55905385D01*
X107262786Y-55908293D01*
X107262785Y-55908296D01*
X107237929Y-56033257D01*
X107237927Y-56033269D01*
X107237630Y-56036288D01*
X102562370Y-56036288D01*
X102562072Y-56033265D01*
X102537213Y-55908291D01*
X102536331Y-55905383D01*
X102487569Y-55787660D01*
X102486137Y-55784981D01*
X102415345Y-55679033D01*
X102413417Y-55676684D01*
X102413410Y-55676677D01*
X102413399Y-55676665D01*
X102323334Y-55586600D01*
X102323309Y-55586577D01*
X102322754Y-55586121D01*
X102320967Y-55584655D01*
X102215019Y-55513863D01*
X102212340Y-55512431D01*
X102094617Y-55463669D01*
X102091709Y-55462787D01*
X102091706Y-55462786D01*
X102091703Y-55462785D01*
X101966742Y-55437929D01*
X101966730Y-55437927D01*
X101963711Y-55437630D01*
X101836289Y-55437630D01*
X101836288Y-55437630D01*
X101833269Y-55437927D01*
X101833257Y-55437929D01*
X101708296Y-55462785D01*
X101708293Y-55462786D01*
X101705385Y-55463668D01*
X101587659Y-55512431D01*
X101584986Y-55513860D01*
X101584983Y-55513861D01*
X101584981Y-55513863D01*
X101511468Y-55562983D01*
X101479033Y-55584655D01*
X101476690Y-55586577D01*
X101476665Y-55586600D01*
X101386600Y-55676665D01*
X101386577Y-55676690D01*
X101384655Y-55679033D01*
X101313862Y-55784983D01*
X101313860Y-55784986D01*
X101312431Y-55787659D01*
X101263668Y-55905385D01*
X101262786Y-55908293D01*
X101262785Y-55908296D01*
X101237929Y-56033257D01*
X101237927Y-56033269D01*
X101237630Y-56036288D01*
X100010500Y-56036288D01*
X100010500Y-54996000D01*
X124913432Y-54996000D01*
X125747536Y-54996000D01*
X125726901Y-55045818D01*
X125700000Y-55181056D01*
X125700000Y-55318944D01*
X125726901Y-55454182D01*
X125747536Y-55504000D01*
X124913432Y-55504000D01*
X124929133Y-55603128D01*
X125002480Y-55828867D01*
X125110245Y-56040367D01*
X125249764Y-56232398D01*
X125249766Y-56232401D01*
X125417598Y-56400233D01*
X125417601Y-56400235D01*
X125609632Y-56539754D01*
X125821132Y-56647519D01*
X126046871Y-56720866D01*
X126146000Y-56736566D01*
X126146000Y-55902463D01*
X126195818Y-55923099D01*
X126331056Y-55950000D01*
X126468944Y-55950000D01*
X126604182Y-55923099D01*
X126654000Y-55902463D01*
X126654000Y-56736566D01*
X126753128Y-56720866D01*
X126978867Y-56647519D01*
X127190367Y-56539754D01*
X127382398Y-56400235D01*
X127382401Y-56400233D01*
X127550233Y-56232401D01*
X127550235Y-56232398D01*
X127689754Y-56040367D01*
X127797519Y-55828867D01*
X127870866Y-55603128D01*
X127886568Y-55504000D01*
X127052464Y-55504000D01*
X127073099Y-55454182D01*
X127100000Y-55318944D01*
X127100000Y-55181056D01*
X127073099Y-55045818D01*
X127052464Y-54996000D01*
X127886567Y-54996000D01*
X127870866Y-54896871D01*
X127797519Y-54671132D01*
X127689754Y-54459632D01*
X127550235Y-54267601D01*
X127550233Y-54267598D01*
X127522985Y-54240350D01*
X127488959Y-54178038D01*
X127494024Y-54107223D01*
X127496000Y-54104398D01*
X127496000Y-53238438D01*
X127537708Y-53262518D01*
X127677591Y-53300000D01*
X127822409Y-53300000D01*
X127962292Y-53262518D01*
X128004000Y-53238438D01*
X128004000Y-54084696D01*
X128068001Y-54074560D01*
X128271286Y-54008509D01*
X128271292Y-54008506D01*
X128461750Y-53911463D01*
X128634679Y-53785822D01*
X128785822Y-53634679D01*
X128911463Y-53461750D01*
X129008506Y-53271292D01*
X129008509Y-53271286D01*
X129074559Y-53068004D01*
X129084698Y-53004000D01*
X128238438Y-53004000D01*
X128262518Y-52962292D01*
X128300000Y-52822409D01*
X128300000Y-52677591D01*
X128262518Y-52537708D01*
X128238438Y-52496000D01*
X129084697Y-52496000D01*
X129074559Y-52431995D01*
X129008509Y-52228713D01*
X129008506Y-52228707D01*
X128911463Y-52038249D01*
X128785822Y-51865320D01*
X128634679Y-51714177D01*
X128461750Y-51588536D01*
X128271292Y-51491493D01*
X128271286Y-51491490D01*
X128068004Y-51425440D01*
X128004000Y-51415302D01*
X128004000Y-52261561D01*
X127962292Y-52237482D01*
X127822409Y-52200000D01*
X127677591Y-52200000D01*
X127537708Y-52237482D01*
X127496000Y-52261561D01*
X127496000Y-51415302D01*
X127431995Y-51425440D01*
X127228713Y-51491490D01*
X127228707Y-51491493D01*
X127038249Y-51588536D01*
X126865320Y-51714177D01*
X126714177Y-51865320D01*
X126588536Y-52038249D01*
X126491493Y-52228707D01*
X126491490Y-52228713D01*
X126425440Y-52431995D01*
X126415302Y-52496000D01*
X127261562Y-52496000D01*
X127237482Y-52537708D01*
X127200000Y-52677591D01*
X127200000Y-52822409D01*
X127237482Y-52962292D01*
X127261562Y-53004000D01*
X126415302Y-53004000D01*
X126425440Y-53068004D01*
X126491490Y-53271286D01*
X126491493Y-53271292D01*
X126588536Y-53461750D01*
X126680397Y-53588185D01*
X126704255Y-53655052D01*
X126688175Y-53724204D01*
X126660293Y-53758056D01*
X126654000Y-53763430D01*
X126654000Y-54597536D01*
X126604182Y-54576901D01*
X126468944Y-54550000D01*
X126331056Y-54550000D01*
X126195818Y-54576901D01*
X126146000Y-54597536D01*
X126146000Y-53763432D01*
X126046871Y-53779133D01*
X125821132Y-53852480D01*
X125609632Y-53960245D01*
X125417601Y-54099764D01*
X125417598Y-54099766D01*
X125249766Y-54267598D01*
X125249764Y-54267601D01*
X125110245Y-54459632D01*
X125002480Y-54671132D01*
X124929133Y-54896871D01*
X124913432Y-54996000D01*
X100010500Y-54996000D01*
X100010500Y-50136500D01*
X100030502Y-50068379D01*
X100084158Y-50021886D01*
X100136500Y-50010500D01*
X154688595Y-50010500D01*
X154756716Y-50030502D01*
G37*
%TD.AperFunction*%
%TA.AperFunction,Conductor*%
G36*
X157431456Y-50030502D02*
G01*
X157477949Y-50084158D01*
X157488053Y-50154432D01*
X157458559Y-50219012D01*
X157452430Y-50225595D01*
X157411227Y-50266797D01*
X157411222Y-50266803D01*
X157328269Y-50390952D01*
X157283099Y-50500000D01*
X158716900Y-50500000D01*
X158671730Y-50390952D01*
X158588777Y-50266803D01*
X158588772Y-50266797D01*
X158547570Y-50225595D01*
X158513544Y-50163283D01*
X158518609Y-50092468D01*
X158561156Y-50035632D01*
X158627676Y-50010821D01*
X158636665Y-50010500D01*
X161363335Y-50010500D01*
X161431456Y-50030502D01*
X161477949Y-50084158D01*
X161488053Y-50154432D01*
X161458559Y-50219012D01*
X161452430Y-50225595D01*
X161411227Y-50266797D01*
X161411222Y-50266803D01*
X161328269Y-50390952D01*
X161283099Y-50500000D01*
X162716900Y-50500000D01*
X162671730Y-50390952D01*
X162588777Y-50266803D01*
X162588772Y-50266797D01*
X162547570Y-50225595D01*
X162513544Y-50163283D01*
X162518609Y-50092468D01*
X162561156Y-50035632D01*
X162627676Y-50010821D01*
X162636665Y-50010500D01*
X163348595Y-50010500D01*
X163416716Y-50030502D01*
X163463209Y-50084158D01*
X163473313Y-50154432D01*
X163447992Y-50210412D01*
X163449637Y-50211608D01*
X163339591Y-50363072D01*
X163256840Y-50525480D01*
X163256837Y-50525486D01*
X163200515Y-50698828D01*
X163172000Y-50878866D01*
X163172000Y-51116000D01*
X164080000Y-51116000D01*
X164080000Y-51624000D01*
X163172000Y-51624000D01*
X163172000Y-51861133D01*
X163200515Y-52041171D01*
X163256837Y-52214513D01*
X163256840Y-52214519D01*
X163339591Y-52376927D01*
X163423516Y-52492439D01*
X163447374Y-52559306D01*
X163431294Y-52628458D01*
X163380380Y-52677938D01*
X163321580Y-52692500D01*
X162864818Y-52692500D01*
X162796697Y-52672498D01*
X162750204Y-52618842D01*
X162741239Y-52591081D01*
X162728870Y-52528899D01*
X162728869Y-52528897D01*
X162671729Y-52390950D01*
X162588777Y-52266803D01*
X162588772Y-52266797D01*
X162483202Y-52161227D01*
X162483196Y-52161222D01*
X162359047Y-52078269D01*
X162250000Y-52033099D01*
X162250000Y-52566500D01*
X162247408Y-52575325D01*
X162248718Y-52584432D01*
X162237562Y-52608857D01*
X162229998Y-52634621D01*
X162223044Y-52640645D01*
X162219224Y-52649012D01*
X162196638Y-52663526D01*
X162176342Y-52681114D01*
X162165655Y-52683438D01*
X162159498Y-52687396D01*
X162137724Y-52690526D01*
X162127164Y-52665032D01*
X162084968Y-52622836D01*
X162029837Y-52600000D01*
X161970163Y-52600000D01*
X161915032Y-52622836D01*
X161872836Y-52665032D01*
X161863035Y-52688693D01*
X161807879Y-52672498D01*
X161761386Y-52618842D01*
X161750000Y-52566500D01*
X161750000Y-52033099D01*
X161640952Y-52078269D01*
X161516803Y-52161222D01*
X161516797Y-52161227D01*
X161411227Y-52266797D01*
X161411222Y-52266803D01*
X161328270Y-52390950D01*
X161271130Y-52528897D01*
X161271129Y-52528899D01*
X161258761Y-52591081D01*
X161225854Y-52653991D01*
X161164159Y-52689123D01*
X161135182Y-52692500D01*
X158864818Y-52692500D01*
X158796697Y-52672498D01*
X158750204Y-52618842D01*
X158741239Y-52591081D01*
X158728870Y-52528899D01*
X158728869Y-52528897D01*
X158671729Y-52390950D01*
X158588777Y-52266803D01*
X158588772Y-52266797D01*
X158483202Y-52161227D01*
X158483196Y-52161222D01*
X158359047Y-52078269D01*
X158250000Y-52033099D01*
X158250000Y-52566500D01*
X158247408Y-52575325D01*
X158248718Y-52584432D01*
X158237562Y-52608857D01*
X158229998Y-52634621D01*
X158223044Y-52640645D01*
X158219224Y-52649012D01*
X158196638Y-52663526D01*
X158176342Y-52681114D01*
X158165655Y-52683438D01*
X158159498Y-52687396D01*
X158137724Y-52690526D01*
X158127164Y-52665032D01*
X158084968Y-52622836D01*
X158029837Y-52600000D01*
X157970163Y-52600000D01*
X157915032Y-52622836D01*
X157872836Y-52665032D01*
X157863035Y-52688693D01*
X157807879Y-52672498D01*
X157761386Y-52618842D01*
X157750000Y-52566500D01*
X157750000Y-52033099D01*
X157640952Y-52078269D01*
X157516803Y-52161222D01*
X157516797Y-52161227D01*
X157411227Y-52266797D01*
X157411222Y-52266803D01*
X157328270Y-52390950D01*
X157271130Y-52528897D01*
X157271129Y-52528899D01*
X157258761Y-52591081D01*
X157225854Y-52653991D01*
X157164159Y-52689123D01*
X157135182Y-52692500D01*
X156678420Y-52692500D01*
X156610299Y-52672498D01*
X156563806Y-52618842D01*
X156553702Y-52548568D01*
X156576484Y-52492439D01*
X156660408Y-52376927D01*
X156743159Y-52214519D01*
X156743162Y-52214513D01*
X156799484Y-52041171D01*
X156828000Y-51861133D01*
X156828000Y-51624000D01*
X155920000Y-51624000D01*
X155920000Y-51116000D01*
X156828000Y-51116000D01*
X156828000Y-51000000D01*
X157283099Y-51000000D01*
X157328269Y-51109047D01*
X157411222Y-51233196D01*
X157411227Y-51233202D01*
X157516797Y-51338772D01*
X157516803Y-51338777D01*
X157640951Y-51421730D01*
X157750000Y-51466899D01*
X158250000Y-51466899D01*
X158359048Y-51421730D01*
X158483196Y-51338777D01*
X158483202Y-51338772D01*
X158588772Y-51233202D01*
X158588777Y-51233196D01*
X158671730Y-51109047D01*
X158716901Y-51000000D01*
X161283099Y-51000000D01*
X161328269Y-51109047D01*
X161411222Y-51233196D01*
X161411227Y-51233202D01*
X161516797Y-51338772D01*
X161516803Y-51338777D01*
X161640951Y-51421730D01*
X161750000Y-51466899D01*
X162250000Y-51466899D01*
X162359048Y-51421730D01*
X162483196Y-51338777D01*
X162483202Y-51338772D01*
X162588772Y-51233202D01*
X162588777Y-51233196D01*
X162671730Y-51109047D01*
X162716901Y-51000000D01*
X162250000Y-51000000D01*
X162250000Y-51466899D01*
X161750000Y-51466899D01*
X161750000Y-51000000D01*
X161283099Y-51000000D01*
X158716901Y-51000000D01*
X158250000Y-51000000D01*
X158250000Y-51466899D01*
X157750000Y-51466899D01*
X157750000Y-51000000D01*
X157283099Y-51000000D01*
X156828000Y-51000000D01*
X156828000Y-50878866D01*
X156802863Y-50720163D01*
X157850000Y-50720163D01*
X157850000Y-50779837D01*
X157872836Y-50834968D01*
X157915032Y-50877164D01*
X157970163Y-50900000D01*
X158029837Y-50900000D01*
X158084968Y-50877164D01*
X158127164Y-50834968D01*
X158150000Y-50779837D01*
X158150000Y-50720163D01*
X161850000Y-50720163D01*
X161850000Y-50779837D01*
X161872836Y-50834968D01*
X161915032Y-50877164D01*
X161970163Y-50900000D01*
X162029837Y-50900000D01*
X162084968Y-50877164D01*
X162127164Y-50834968D01*
X162150000Y-50779837D01*
X162150000Y-50720163D01*
X162127164Y-50665032D01*
X162084968Y-50622836D01*
X162029837Y-50600000D01*
X161970163Y-50600000D01*
X161915032Y-50622836D01*
X161872836Y-50665032D01*
X161850000Y-50720163D01*
X158150000Y-50720163D01*
X158127164Y-50665032D01*
X158084968Y-50622836D01*
X158029837Y-50600000D01*
X157970163Y-50600000D01*
X157915032Y-50622836D01*
X157872836Y-50665032D01*
X157850000Y-50720163D01*
X156802863Y-50720163D01*
X156799484Y-50698828D01*
X156743162Y-50525486D01*
X156743159Y-50525480D01*
X156660408Y-50363072D01*
X156550363Y-50211608D01*
X156552034Y-50210393D01*
X156526561Y-50153525D01*
X156537175Y-50083327D01*
X156584056Y-50030010D01*
X156651405Y-50010500D01*
X157363335Y-50010500D01*
X157431456Y-50030502D01*
G37*
%TD.AperFunction*%
%TD*%
M02*
