%TF.GenerationSoftware,KiCad,Pcbnew,9.0.3*%
%TF.CreationDate,2025-08-06T15:24:12+02:00*%
%TF.ProjectId,Spikeling_v3.0,5370696b-656c-4696-9e67-5f76332e302e,rev?*%
%TF.SameCoordinates,Original*%
%TF.FileFunction,Legend,Top*%
%TF.FilePolarity,Positive*%
%FSLAX46Y46*%
G04 Gerber Fmt 4.6, Leading zero omitted, Abs format (unit mm)*
G04 Created by KiCad (PCBNEW 9.0.3) date 2025-08-06 15:24:12*
%MOMM*%
%LPD*%
G01*
G04 APERTURE LIST*
%ADD10C,0.150000*%
%ADD11C,0.254000*%
%ADD12C,0.152500*%
%ADD13C,0.300000*%
%ADD14C,0.120000*%
%ADD15C,0.152000*%
%ADD16C,0.000000*%
%ADD17C,0.127000*%
%ADD18C,0.100000*%
%ADD19C,0.130000*%
G04 APERTURE END LIST*
D10*
X152825443Y-129807319D02*
X153158776Y-130807319D01*
X153158776Y-130807319D02*
X153492109Y-129807319D01*
X154396871Y-130807319D02*
X154063538Y-130331128D01*
X153825443Y-130807319D02*
X153825443Y-129807319D01*
X153825443Y-129807319D02*
X154206395Y-129807319D01*
X154206395Y-129807319D02*
X154301633Y-129854938D01*
X154301633Y-129854938D02*
X154349252Y-129902557D01*
X154349252Y-129902557D02*
X154396871Y-129997795D01*
X154396871Y-129997795D02*
X154396871Y-130140652D01*
X154396871Y-130140652D02*
X154349252Y-130235890D01*
X154349252Y-130235890D02*
X154301633Y-130283509D01*
X154301633Y-130283509D02*
X154206395Y-130331128D01*
X154206395Y-130331128D02*
X153825443Y-130331128D01*
X154777824Y-129902557D02*
X154825443Y-129854938D01*
X154825443Y-129854938D02*
X154920681Y-129807319D01*
X154920681Y-129807319D02*
X155158776Y-129807319D01*
X155158776Y-129807319D02*
X155254014Y-129854938D01*
X155254014Y-129854938D02*
X155301633Y-129902557D01*
X155301633Y-129902557D02*
X155349252Y-129997795D01*
X155349252Y-129997795D02*
X155349252Y-130093033D01*
X155349252Y-130093033D02*
X155301633Y-130235890D01*
X155301633Y-130235890D02*
X154730205Y-130807319D01*
X154730205Y-130807319D02*
X155349252Y-130807319D01*
X138875819Y-80559529D02*
X139685342Y-80559529D01*
X139685342Y-80559529D02*
X139780580Y-80511910D01*
X139780580Y-80511910D02*
X139828200Y-80464291D01*
X139828200Y-80464291D02*
X139875819Y-80369053D01*
X139875819Y-80369053D02*
X139875819Y-80178577D01*
X139875819Y-80178577D02*
X139828200Y-80083339D01*
X139828200Y-80083339D02*
X139780580Y-80035720D01*
X139780580Y-80035720D02*
X139685342Y-79988101D01*
X139685342Y-79988101D02*
X138875819Y-79988101D01*
X138875819Y-79607148D02*
X138875819Y-78988101D01*
X138875819Y-78988101D02*
X139256771Y-79321434D01*
X139256771Y-79321434D02*
X139256771Y-79178577D01*
X139256771Y-79178577D02*
X139304390Y-79083339D01*
X139304390Y-79083339D02*
X139352009Y-79035720D01*
X139352009Y-79035720D02*
X139447247Y-78988101D01*
X139447247Y-78988101D02*
X139685342Y-78988101D01*
X139685342Y-78988101D02*
X139780580Y-79035720D01*
X139780580Y-79035720D02*
X139828200Y-79083339D01*
X139828200Y-79083339D02*
X139875819Y-79178577D01*
X139875819Y-79178577D02*
X139875819Y-79464291D01*
X139875819Y-79464291D02*
X139828200Y-79559529D01*
X139828200Y-79559529D02*
X139780580Y-79607148D01*
X95527819Y-84333333D02*
X96242104Y-84333333D01*
X96242104Y-84333333D02*
X96384961Y-84380952D01*
X96384961Y-84380952D02*
X96480200Y-84476190D01*
X96480200Y-84476190D02*
X96527819Y-84619047D01*
X96527819Y-84619047D02*
X96527819Y-84714285D01*
X95861152Y-83428571D02*
X96527819Y-83428571D01*
X95480200Y-83666666D02*
X96194485Y-83904761D01*
X96194485Y-83904761D02*
X96194485Y-83285714D01*
X170970180Y-67838095D02*
X170160657Y-67838095D01*
X170160657Y-67838095D02*
X170065419Y-67885714D01*
X170065419Y-67885714D02*
X170017800Y-67933333D01*
X170017800Y-67933333D02*
X169970180Y-68028571D01*
X169970180Y-68028571D02*
X169970180Y-68219047D01*
X169970180Y-68219047D02*
X170017800Y-68314285D01*
X170017800Y-68314285D02*
X170065419Y-68361904D01*
X170065419Y-68361904D02*
X170160657Y-68409523D01*
X170160657Y-68409523D02*
X170970180Y-68409523D01*
X169970180Y-69409523D02*
X169970180Y-68838095D01*
X169970180Y-69123809D02*
X170970180Y-69123809D01*
X170970180Y-69123809D02*
X170827323Y-69028571D01*
X170827323Y-69028571D02*
X170732085Y-68933333D01*
X170732085Y-68933333D02*
X170684466Y-68838095D01*
X213666666Y-133381819D02*
X213666666Y-134096104D01*
X213666666Y-134096104D02*
X213619047Y-134238961D01*
X213619047Y-134238961D02*
X213523809Y-134334200D01*
X213523809Y-134334200D02*
X213380952Y-134381819D01*
X213380952Y-134381819D02*
X213285714Y-134381819D01*
X214619047Y-133381819D02*
X214142857Y-133381819D01*
X214142857Y-133381819D02*
X214095238Y-133858009D01*
X214095238Y-133858009D02*
X214142857Y-133810390D01*
X214142857Y-133810390D02*
X214238095Y-133762771D01*
X214238095Y-133762771D02*
X214476190Y-133762771D01*
X214476190Y-133762771D02*
X214571428Y-133810390D01*
X214571428Y-133810390D02*
X214619047Y-133858009D01*
X214619047Y-133858009D02*
X214666666Y-133953247D01*
X214666666Y-133953247D02*
X214666666Y-134191342D01*
X214666666Y-134191342D02*
X214619047Y-134286580D01*
X214619047Y-134286580D02*
X214571428Y-134334200D01*
X214571428Y-134334200D02*
X214476190Y-134381819D01*
X214476190Y-134381819D02*
X214238095Y-134381819D01*
X214238095Y-134381819D02*
X214142857Y-134334200D01*
X214142857Y-134334200D02*
X214095238Y-134286580D01*
X117255443Y-129807319D02*
X117588776Y-130807319D01*
X117588776Y-130807319D02*
X117922109Y-129807319D01*
X118826871Y-130807319D02*
X118493538Y-130331128D01*
X118255443Y-130807319D02*
X118255443Y-129807319D01*
X118255443Y-129807319D02*
X118636395Y-129807319D01*
X118636395Y-129807319D02*
X118731633Y-129854938D01*
X118731633Y-129854938D02*
X118779252Y-129902557D01*
X118779252Y-129902557D02*
X118826871Y-129997795D01*
X118826871Y-129997795D02*
X118826871Y-130140652D01*
X118826871Y-130140652D02*
X118779252Y-130235890D01*
X118779252Y-130235890D02*
X118731633Y-130283509D01*
X118731633Y-130283509D02*
X118636395Y-130331128D01*
X118636395Y-130331128D02*
X118255443Y-130331128D01*
X119779252Y-130807319D02*
X119207824Y-130807319D01*
X119493538Y-130807319D02*
X119493538Y-129807319D01*
X119493538Y-129807319D02*
X119398300Y-129950176D01*
X119398300Y-129950176D02*
X119303062Y-130045414D01*
X119303062Y-130045414D02*
X119207824Y-130093033D01*
X170061905Y-58953819D02*
X170061905Y-57953819D01*
X170061905Y-57953819D02*
X170300000Y-57953819D01*
X170300000Y-57953819D02*
X170442857Y-58001438D01*
X170442857Y-58001438D02*
X170538095Y-58096676D01*
X170538095Y-58096676D02*
X170585714Y-58191914D01*
X170585714Y-58191914D02*
X170633333Y-58382390D01*
X170633333Y-58382390D02*
X170633333Y-58525247D01*
X170633333Y-58525247D02*
X170585714Y-58715723D01*
X170585714Y-58715723D02*
X170538095Y-58810961D01*
X170538095Y-58810961D02*
X170442857Y-58906200D01*
X170442857Y-58906200D02*
X170300000Y-58953819D01*
X170300000Y-58953819D02*
X170061905Y-58953819D01*
X170966667Y-57953819D02*
X171633333Y-57953819D01*
X171633333Y-57953819D02*
X171204762Y-58953819D01*
X211705443Y-114407319D02*
X212038776Y-115407319D01*
X212038776Y-115407319D02*
X212372109Y-114407319D01*
X213276871Y-115407319D02*
X212943538Y-114931128D01*
X212705443Y-115407319D02*
X212705443Y-114407319D01*
X212705443Y-114407319D02*
X213086395Y-114407319D01*
X213086395Y-114407319D02*
X213181633Y-114454938D01*
X213181633Y-114454938D02*
X213229252Y-114502557D01*
X213229252Y-114502557D02*
X213276871Y-114597795D01*
X213276871Y-114597795D02*
X213276871Y-114740652D01*
X213276871Y-114740652D02*
X213229252Y-114835890D01*
X213229252Y-114835890D02*
X213181633Y-114883509D01*
X213181633Y-114883509D02*
X213086395Y-114931128D01*
X213086395Y-114931128D02*
X212705443Y-114931128D01*
X214181633Y-114407319D02*
X213705443Y-114407319D01*
X213705443Y-114407319D02*
X213657824Y-114883509D01*
X213657824Y-114883509D02*
X213705443Y-114835890D01*
X213705443Y-114835890D02*
X213800681Y-114788271D01*
X213800681Y-114788271D02*
X214038776Y-114788271D01*
X214038776Y-114788271D02*
X214134014Y-114835890D01*
X214134014Y-114835890D02*
X214181633Y-114883509D01*
X214181633Y-114883509D02*
X214229252Y-114978747D01*
X214229252Y-114978747D02*
X214229252Y-115216842D01*
X214229252Y-115216842D02*
X214181633Y-115312080D01*
X214181633Y-115312080D02*
X214134014Y-115359700D01*
X214134014Y-115359700D02*
X214038776Y-115407319D01*
X214038776Y-115407319D02*
X213800681Y-115407319D01*
X213800681Y-115407319D02*
X213705443Y-115359700D01*
X213705443Y-115359700D02*
X213657824Y-115312080D01*
X190270238Y-58604009D02*
X190413095Y-58651628D01*
X190413095Y-58651628D02*
X190460714Y-58699247D01*
X190460714Y-58699247D02*
X190508333Y-58794485D01*
X190508333Y-58794485D02*
X190508333Y-58937342D01*
X190508333Y-58937342D02*
X190460714Y-59032580D01*
X190460714Y-59032580D02*
X190413095Y-59080200D01*
X190413095Y-59080200D02*
X190317857Y-59127819D01*
X190317857Y-59127819D02*
X189936905Y-59127819D01*
X189936905Y-59127819D02*
X189936905Y-58127819D01*
X189936905Y-58127819D02*
X190270238Y-58127819D01*
X190270238Y-58127819D02*
X190365476Y-58175438D01*
X190365476Y-58175438D02*
X190413095Y-58223057D01*
X190413095Y-58223057D02*
X190460714Y-58318295D01*
X190460714Y-58318295D02*
X190460714Y-58413533D01*
X190460714Y-58413533D02*
X190413095Y-58508771D01*
X190413095Y-58508771D02*
X190365476Y-58556390D01*
X190365476Y-58556390D02*
X190270238Y-58604009D01*
X190270238Y-58604009D02*
X189936905Y-58604009D01*
X191460714Y-59127819D02*
X190889286Y-59127819D01*
X191175000Y-59127819D02*
X191175000Y-58127819D01*
X191175000Y-58127819D02*
X191079762Y-58270676D01*
X191079762Y-58270676D02*
X190984524Y-58365914D01*
X190984524Y-58365914D02*
X190889286Y-58413533D01*
X133213095Y-121104819D02*
X133213095Y-121914342D01*
X133213095Y-121914342D02*
X133260714Y-122009580D01*
X133260714Y-122009580D02*
X133308333Y-122057200D01*
X133308333Y-122057200D02*
X133403571Y-122104819D01*
X133403571Y-122104819D02*
X133594047Y-122104819D01*
X133594047Y-122104819D02*
X133689285Y-122057200D01*
X133689285Y-122057200D02*
X133736904Y-122009580D01*
X133736904Y-122009580D02*
X133784523Y-121914342D01*
X133784523Y-121914342D02*
X133784523Y-121104819D01*
X134736904Y-121104819D02*
X134260714Y-121104819D01*
X134260714Y-121104819D02*
X134213095Y-121581009D01*
X134213095Y-121581009D02*
X134260714Y-121533390D01*
X134260714Y-121533390D02*
X134355952Y-121485771D01*
X134355952Y-121485771D02*
X134594047Y-121485771D01*
X134594047Y-121485771D02*
X134689285Y-121533390D01*
X134689285Y-121533390D02*
X134736904Y-121581009D01*
X134736904Y-121581009D02*
X134784523Y-121676247D01*
X134784523Y-121676247D02*
X134784523Y-121914342D01*
X134784523Y-121914342D02*
X134736904Y-122009580D01*
X134736904Y-122009580D02*
X134689285Y-122057200D01*
X134689285Y-122057200D02*
X134594047Y-122104819D01*
X134594047Y-122104819D02*
X134355952Y-122104819D01*
X134355952Y-122104819D02*
X134260714Y-122057200D01*
X134260714Y-122057200D02*
X134213095Y-122009580D01*
X223381819Y-64333333D02*
X224096104Y-64333333D01*
X224096104Y-64333333D02*
X224238961Y-64380952D01*
X224238961Y-64380952D02*
X224334200Y-64476190D01*
X224334200Y-64476190D02*
X224381819Y-64619047D01*
X224381819Y-64619047D02*
X224381819Y-64714285D01*
X223381819Y-63428571D02*
X223381819Y-63619047D01*
X223381819Y-63619047D02*
X223429438Y-63714285D01*
X223429438Y-63714285D02*
X223477057Y-63761904D01*
X223477057Y-63761904D02*
X223619914Y-63857142D01*
X223619914Y-63857142D02*
X223810390Y-63904761D01*
X223810390Y-63904761D02*
X224191342Y-63904761D01*
X224191342Y-63904761D02*
X224286580Y-63857142D01*
X224286580Y-63857142D02*
X224334200Y-63809523D01*
X224334200Y-63809523D02*
X224381819Y-63714285D01*
X224381819Y-63714285D02*
X224381819Y-63523809D01*
X224381819Y-63523809D02*
X224334200Y-63428571D01*
X224334200Y-63428571D02*
X224286580Y-63380952D01*
X224286580Y-63380952D02*
X224191342Y-63333333D01*
X224191342Y-63333333D02*
X223953247Y-63333333D01*
X223953247Y-63333333D02*
X223858009Y-63380952D01*
X223858009Y-63380952D02*
X223810390Y-63428571D01*
X223810390Y-63428571D02*
X223762771Y-63523809D01*
X223762771Y-63523809D02*
X223762771Y-63714285D01*
X223762771Y-63714285D02*
X223810390Y-63809523D01*
X223810390Y-63809523D02*
X223858009Y-63857142D01*
X223858009Y-63857142D02*
X223953247Y-63904761D01*
X95527819Y-56433333D02*
X96242104Y-56433333D01*
X96242104Y-56433333D02*
X96384961Y-56480952D01*
X96384961Y-56480952D02*
X96480200Y-56576190D01*
X96480200Y-56576190D02*
X96527819Y-56719047D01*
X96527819Y-56719047D02*
X96527819Y-56814285D01*
X95527819Y-56052380D02*
X95527819Y-55433333D01*
X95527819Y-55433333D02*
X95908771Y-55766666D01*
X95908771Y-55766666D02*
X95908771Y-55623809D01*
X95908771Y-55623809D02*
X95956390Y-55528571D01*
X95956390Y-55528571D02*
X96004009Y-55480952D01*
X96004009Y-55480952D02*
X96099247Y-55433333D01*
X96099247Y-55433333D02*
X96337342Y-55433333D01*
X96337342Y-55433333D02*
X96432580Y-55480952D01*
X96432580Y-55480952D02*
X96480200Y-55528571D01*
X96480200Y-55528571D02*
X96527819Y-55623809D01*
X96527819Y-55623809D02*
X96527819Y-55909523D01*
X96527819Y-55909523D02*
X96480200Y-56004761D01*
X96480200Y-56004761D02*
X96432580Y-56052380D01*
X178666667Y-58024200D02*
X178809524Y-58071819D01*
X178809524Y-58071819D02*
X179047619Y-58071819D01*
X179047619Y-58071819D02*
X179142857Y-58024200D01*
X179142857Y-58024200D02*
X179190476Y-57976580D01*
X179190476Y-57976580D02*
X179238095Y-57881342D01*
X179238095Y-57881342D02*
X179238095Y-57786104D01*
X179238095Y-57786104D02*
X179190476Y-57690866D01*
X179190476Y-57690866D02*
X179142857Y-57643247D01*
X179142857Y-57643247D02*
X179047619Y-57595628D01*
X179047619Y-57595628D02*
X178857143Y-57548009D01*
X178857143Y-57548009D02*
X178761905Y-57500390D01*
X178761905Y-57500390D02*
X178714286Y-57452771D01*
X178714286Y-57452771D02*
X178666667Y-57357533D01*
X178666667Y-57357533D02*
X178666667Y-57262295D01*
X178666667Y-57262295D02*
X178714286Y-57167057D01*
X178714286Y-57167057D02*
X178761905Y-57119438D01*
X178761905Y-57119438D02*
X178857143Y-57071819D01*
X178857143Y-57071819D02*
X179095238Y-57071819D01*
X179095238Y-57071819D02*
X179238095Y-57119438D01*
X179571429Y-57071819D02*
X179809524Y-58071819D01*
X179809524Y-58071819D02*
X180000000Y-57357533D01*
X180000000Y-57357533D02*
X180190476Y-58071819D01*
X180190476Y-58071819D02*
X180428572Y-57071819D01*
X180714286Y-57071819D02*
X181333333Y-57071819D01*
X181333333Y-57071819D02*
X181000000Y-57452771D01*
X181000000Y-57452771D02*
X181142857Y-57452771D01*
X181142857Y-57452771D02*
X181238095Y-57500390D01*
X181238095Y-57500390D02*
X181285714Y-57548009D01*
X181285714Y-57548009D02*
X181333333Y-57643247D01*
X181333333Y-57643247D02*
X181333333Y-57881342D01*
X181333333Y-57881342D02*
X181285714Y-57976580D01*
X181285714Y-57976580D02*
X181238095Y-58024200D01*
X181238095Y-58024200D02*
X181142857Y-58071819D01*
X181142857Y-58071819D02*
X180857143Y-58071819D01*
X180857143Y-58071819D02*
X180761905Y-58024200D01*
X180761905Y-58024200D02*
X180714286Y-57976580D01*
X128666667Y-58024200D02*
X128809524Y-58071819D01*
X128809524Y-58071819D02*
X129047619Y-58071819D01*
X129047619Y-58071819D02*
X129142857Y-58024200D01*
X129142857Y-58024200D02*
X129190476Y-57976580D01*
X129190476Y-57976580D02*
X129238095Y-57881342D01*
X129238095Y-57881342D02*
X129238095Y-57786104D01*
X129238095Y-57786104D02*
X129190476Y-57690866D01*
X129190476Y-57690866D02*
X129142857Y-57643247D01*
X129142857Y-57643247D02*
X129047619Y-57595628D01*
X129047619Y-57595628D02*
X128857143Y-57548009D01*
X128857143Y-57548009D02*
X128761905Y-57500390D01*
X128761905Y-57500390D02*
X128714286Y-57452771D01*
X128714286Y-57452771D02*
X128666667Y-57357533D01*
X128666667Y-57357533D02*
X128666667Y-57262295D01*
X128666667Y-57262295D02*
X128714286Y-57167057D01*
X128714286Y-57167057D02*
X128761905Y-57119438D01*
X128761905Y-57119438D02*
X128857143Y-57071819D01*
X128857143Y-57071819D02*
X129095238Y-57071819D01*
X129095238Y-57071819D02*
X129238095Y-57119438D01*
X129571429Y-57071819D02*
X129809524Y-58071819D01*
X129809524Y-58071819D02*
X130000000Y-57357533D01*
X130000000Y-57357533D02*
X130190476Y-58071819D01*
X130190476Y-58071819D02*
X130428572Y-57071819D01*
X130761905Y-57167057D02*
X130809524Y-57119438D01*
X130809524Y-57119438D02*
X130904762Y-57071819D01*
X130904762Y-57071819D02*
X131142857Y-57071819D01*
X131142857Y-57071819D02*
X131238095Y-57119438D01*
X131238095Y-57119438D02*
X131285714Y-57167057D01*
X131285714Y-57167057D02*
X131333333Y-57262295D01*
X131333333Y-57262295D02*
X131333333Y-57357533D01*
X131333333Y-57357533D02*
X131285714Y-57500390D01*
X131285714Y-57500390D02*
X130714286Y-58071819D01*
X130714286Y-58071819D02*
X131333333Y-58071819D01*
X157536905Y-61304819D02*
X157536905Y-60304819D01*
X157536905Y-60304819D02*
X157775000Y-60304819D01*
X157775000Y-60304819D02*
X157917857Y-60352438D01*
X157917857Y-60352438D02*
X158013095Y-60447676D01*
X158013095Y-60447676D02*
X158060714Y-60542914D01*
X158060714Y-60542914D02*
X158108333Y-60733390D01*
X158108333Y-60733390D02*
X158108333Y-60876247D01*
X158108333Y-60876247D02*
X158060714Y-61066723D01*
X158060714Y-61066723D02*
X158013095Y-61161961D01*
X158013095Y-61161961D02*
X157917857Y-61257200D01*
X157917857Y-61257200D02*
X157775000Y-61304819D01*
X157775000Y-61304819D02*
X157536905Y-61304819D01*
X158489286Y-60400057D02*
X158536905Y-60352438D01*
X158536905Y-60352438D02*
X158632143Y-60304819D01*
X158632143Y-60304819D02*
X158870238Y-60304819D01*
X158870238Y-60304819D02*
X158965476Y-60352438D01*
X158965476Y-60352438D02*
X159013095Y-60400057D01*
X159013095Y-60400057D02*
X159060714Y-60495295D01*
X159060714Y-60495295D02*
X159060714Y-60590533D01*
X159060714Y-60590533D02*
X159013095Y-60733390D01*
X159013095Y-60733390D02*
X158441667Y-61304819D01*
X158441667Y-61304819D02*
X159060714Y-61304819D01*
X140612155Y-121778819D02*
X140612155Y-120778819D01*
X140612155Y-120778819D02*
X140850250Y-120778819D01*
X140850250Y-120778819D02*
X140993107Y-120826438D01*
X140993107Y-120826438D02*
X141088345Y-120921676D01*
X141088345Y-120921676D02*
X141135964Y-121016914D01*
X141135964Y-121016914D02*
X141183583Y-121207390D01*
X141183583Y-121207390D02*
X141183583Y-121350247D01*
X141183583Y-121350247D02*
X141135964Y-121540723D01*
X141135964Y-121540723D02*
X141088345Y-121635961D01*
X141088345Y-121635961D02*
X140993107Y-121731200D01*
X140993107Y-121731200D02*
X140850250Y-121778819D01*
X140850250Y-121778819D02*
X140612155Y-121778819D01*
X142040726Y-120778819D02*
X141850250Y-120778819D01*
X141850250Y-120778819D02*
X141755012Y-120826438D01*
X141755012Y-120826438D02*
X141707393Y-120874057D01*
X141707393Y-120874057D02*
X141612155Y-121016914D01*
X141612155Y-121016914D02*
X141564536Y-121207390D01*
X141564536Y-121207390D02*
X141564536Y-121588342D01*
X141564536Y-121588342D02*
X141612155Y-121683580D01*
X141612155Y-121683580D02*
X141659774Y-121731200D01*
X141659774Y-121731200D02*
X141755012Y-121778819D01*
X141755012Y-121778819D02*
X141945488Y-121778819D01*
X141945488Y-121778819D02*
X142040726Y-121731200D01*
X142040726Y-121731200D02*
X142088345Y-121683580D01*
X142088345Y-121683580D02*
X142135964Y-121588342D01*
X142135964Y-121588342D02*
X142135964Y-121350247D01*
X142135964Y-121350247D02*
X142088345Y-121255009D01*
X142088345Y-121255009D02*
X142040726Y-121207390D01*
X142040726Y-121207390D02*
X141945488Y-121159771D01*
X141945488Y-121159771D02*
X141755012Y-121159771D01*
X141755012Y-121159771D02*
X141659774Y-121207390D01*
X141659774Y-121207390D02*
X141612155Y-121255009D01*
X141612155Y-121255009D02*
X141564536Y-121350247D01*
X151911905Y-59504819D02*
X151911905Y-58504819D01*
X151911905Y-58504819D02*
X152150000Y-58504819D01*
X152150000Y-58504819D02*
X152292857Y-58552438D01*
X152292857Y-58552438D02*
X152388095Y-58647676D01*
X152388095Y-58647676D02*
X152435714Y-58742914D01*
X152435714Y-58742914D02*
X152483333Y-58933390D01*
X152483333Y-58933390D02*
X152483333Y-59076247D01*
X152483333Y-59076247D02*
X152435714Y-59266723D01*
X152435714Y-59266723D02*
X152388095Y-59361961D01*
X152388095Y-59361961D02*
X152292857Y-59457200D01*
X152292857Y-59457200D02*
X152150000Y-59504819D01*
X152150000Y-59504819D02*
X151911905Y-59504819D01*
X153340476Y-58838152D02*
X153340476Y-59504819D01*
X153102381Y-58457200D02*
X152864286Y-59171485D01*
X152864286Y-59171485D02*
X153483333Y-59171485D01*
X105705443Y-76207319D02*
X106038776Y-77207319D01*
X106038776Y-77207319D02*
X106372109Y-76207319D01*
X107276871Y-77207319D02*
X106943538Y-76731128D01*
X106705443Y-77207319D02*
X106705443Y-76207319D01*
X106705443Y-76207319D02*
X107086395Y-76207319D01*
X107086395Y-76207319D02*
X107181633Y-76254938D01*
X107181633Y-76254938D02*
X107229252Y-76302557D01*
X107229252Y-76302557D02*
X107276871Y-76397795D01*
X107276871Y-76397795D02*
X107276871Y-76540652D01*
X107276871Y-76540652D02*
X107229252Y-76635890D01*
X107229252Y-76635890D02*
X107181633Y-76683509D01*
X107181633Y-76683509D02*
X107086395Y-76731128D01*
X107086395Y-76731128D02*
X106705443Y-76731128D01*
X108134014Y-76207319D02*
X107943538Y-76207319D01*
X107943538Y-76207319D02*
X107848300Y-76254938D01*
X107848300Y-76254938D02*
X107800681Y-76302557D01*
X107800681Y-76302557D02*
X107705443Y-76445414D01*
X107705443Y-76445414D02*
X107657824Y-76635890D01*
X107657824Y-76635890D02*
X107657824Y-77016842D01*
X107657824Y-77016842D02*
X107705443Y-77112080D01*
X107705443Y-77112080D02*
X107753062Y-77159700D01*
X107753062Y-77159700D02*
X107848300Y-77207319D01*
X107848300Y-77207319D02*
X108038776Y-77207319D01*
X108038776Y-77207319D02*
X108134014Y-77159700D01*
X108134014Y-77159700D02*
X108181633Y-77112080D01*
X108181633Y-77112080D02*
X108229252Y-77016842D01*
X108229252Y-77016842D02*
X108229252Y-76778747D01*
X108229252Y-76778747D02*
X108181633Y-76683509D01*
X108181633Y-76683509D02*
X108134014Y-76635890D01*
X108134014Y-76635890D02*
X108038776Y-76588271D01*
X108038776Y-76588271D02*
X107848300Y-76588271D01*
X107848300Y-76588271D02*
X107753062Y-76635890D01*
X107753062Y-76635890D02*
X107705443Y-76683509D01*
X107705443Y-76683509D02*
X107657824Y-76778747D01*
X151639833Y-58297819D02*
X151163643Y-58297819D01*
X151163643Y-58297819D02*
X151163643Y-57297819D01*
X152496976Y-58297819D02*
X151925548Y-58297819D01*
X152211262Y-58297819D02*
X152211262Y-57297819D01*
X152211262Y-57297819D02*
X152116024Y-57440676D01*
X152116024Y-57440676D02*
X152020786Y-57535914D01*
X152020786Y-57535914D02*
X151925548Y-57583533D01*
X188875819Y-80559529D02*
X189685342Y-80559529D01*
X189685342Y-80559529D02*
X189780580Y-80511910D01*
X189780580Y-80511910D02*
X189828200Y-80464291D01*
X189828200Y-80464291D02*
X189875819Y-80369053D01*
X189875819Y-80369053D02*
X189875819Y-80178577D01*
X189875819Y-80178577D02*
X189828200Y-80083339D01*
X189828200Y-80083339D02*
X189780580Y-80035720D01*
X189780580Y-80035720D02*
X189685342Y-79988101D01*
X189685342Y-79988101D02*
X188875819Y-79988101D01*
X189209152Y-79083339D02*
X189875819Y-79083339D01*
X188828200Y-79321434D02*
X189542485Y-79559529D01*
X189542485Y-79559529D02*
X189542485Y-78940482D01*
X175205443Y-129807319D02*
X175538776Y-130807319D01*
X175538776Y-130807319D02*
X175872109Y-129807319D01*
X176776871Y-130807319D02*
X176443538Y-130331128D01*
X176205443Y-130807319D02*
X176205443Y-129807319D01*
X176205443Y-129807319D02*
X176586395Y-129807319D01*
X176586395Y-129807319D02*
X176681633Y-129854938D01*
X176681633Y-129854938D02*
X176729252Y-129902557D01*
X176729252Y-129902557D02*
X176776871Y-129997795D01*
X176776871Y-129997795D02*
X176776871Y-130140652D01*
X176776871Y-130140652D02*
X176729252Y-130235890D01*
X176729252Y-130235890D02*
X176681633Y-130283509D01*
X176681633Y-130283509D02*
X176586395Y-130331128D01*
X176586395Y-130331128D02*
X176205443Y-130331128D01*
X177110205Y-129807319D02*
X177729252Y-129807319D01*
X177729252Y-129807319D02*
X177395919Y-130188271D01*
X177395919Y-130188271D02*
X177538776Y-130188271D01*
X177538776Y-130188271D02*
X177634014Y-130235890D01*
X177634014Y-130235890D02*
X177681633Y-130283509D01*
X177681633Y-130283509D02*
X177729252Y-130378747D01*
X177729252Y-130378747D02*
X177729252Y-130616842D01*
X177729252Y-130616842D02*
X177681633Y-130712080D01*
X177681633Y-130712080D02*
X177634014Y-130759700D01*
X177634014Y-130759700D02*
X177538776Y-130807319D01*
X177538776Y-130807319D02*
X177253062Y-130807319D01*
X177253062Y-130807319D02*
X177157824Y-130759700D01*
X177157824Y-130759700D02*
X177110205Y-130712080D01*
X198666667Y-58024200D02*
X198809524Y-58071819D01*
X198809524Y-58071819D02*
X199047619Y-58071819D01*
X199047619Y-58071819D02*
X199142857Y-58024200D01*
X199142857Y-58024200D02*
X199190476Y-57976580D01*
X199190476Y-57976580D02*
X199238095Y-57881342D01*
X199238095Y-57881342D02*
X199238095Y-57786104D01*
X199238095Y-57786104D02*
X199190476Y-57690866D01*
X199190476Y-57690866D02*
X199142857Y-57643247D01*
X199142857Y-57643247D02*
X199047619Y-57595628D01*
X199047619Y-57595628D02*
X198857143Y-57548009D01*
X198857143Y-57548009D02*
X198761905Y-57500390D01*
X198761905Y-57500390D02*
X198714286Y-57452771D01*
X198714286Y-57452771D02*
X198666667Y-57357533D01*
X198666667Y-57357533D02*
X198666667Y-57262295D01*
X198666667Y-57262295D02*
X198714286Y-57167057D01*
X198714286Y-57167057D02*
X198761905Y-57119438D01*
X198761905Y-57119438D02*
X198857143Y-57071819D01*
X198857143Y-57071819D02*
X199095238Y-57071819D01*
X199095238Y-57071819D02*
X199238095Y-57119438D01*
X199571429Y-57071819D02*
X199809524Y-58071819D01*
X199809524Y-58071819D02*
X200000000Y-57357533D01*
X200000000Y-57357533D02*
X200190476Y-58071819D01*
X200190476Y-58071819D02*
X200428572Y-57071819D01*
X201238095Y-57405152D02*
X201238095Y-58071819D01*
X201000000Y-57024200D02*
X200761905Y-57738485D01*
X200761905Y-57738485D02*
X201380952Y-57738485D01*
X155686905Y-58952319D02*
X155686905Y-57952319D01*
X155686905Y-57952319D02*
X155925000Y-57952319D01*
X155925000Y-57952319D02*
X156067857Y-57999938D01*
X156067857Y-57999938D02*
X156163095Y-58095176D01*
X156163095Y-58095176D02*
X156210714Y-58190414D01*
X156210714Y-58190414D02*
X156258333Y-58380890D01*
X156258333Y-58380890D02*
X156258333Y-58523747D01*
X156258333Y-58523747D02*
X156210714Y-58714223D01*
X156210714Y-58714223D02*
X156163095Y-58809461D01*
X156163095Y-58809461D02*
X156067857Y-58904700D01*
X156067857Y-58904700D02*
X155925000Y-58952319D01*
X155925000Y-58952319D02*
X155686905Y-58952319D01*
X157210714Y-58952319D02*
X156639286Y-58952319D01*
X156925000Y-58952319D02*
X156925000Y-57952319D01*
X156925000Y-57952319D02*
X156829762Y-58095176D01*
X156829762Y-58095176D02*
X156734524Y-58190414D01*
X156734524Y-58190414D02*
X156639286Y-58238033D01*
X162036905Y-61329819D02*
X162036905Y-60329819D01*
X162036905Y-60329819D02*
X162275000Y-60329819D01*
X162275000Y-60329819D02*
X162417857Y-60377438D01*
X162417857Y-60377438D02*
X162513095Y-60472676D01*
X162513095Y-60472676D02*
X162560714Y-60567914D01*
X162560714Y-60567914D02*
X162608333Y-60758390D01*
X162608333Y-60758390D02*
X162608333Y-60901247D01*
X162608333Y-60901247D02*
X162560714Y-61091723D01*
X162560714Y-61091723D02*
X162513095Y-61186961D01*
X162513095Y-61186961D02*
X162417857Y-61282200D01*
X162417857Y-61282200D02*
X162275000Y-61329819D01*
X162275000Y-61329819D02*
X162036905Y-61329819D01*
X162941667Y-60329819D02*
X163560714Y-60329819D01*
X163560714Y-60329819D02*
X163227381Y-60710771D01*
X163227381Y-60710771D02*
X163370238Y-60710771D01*
X163370238Y-60710771D02*
X163465476Y-60758390D01*
X163465476Y-60758390D02*
X163513095Y-60806009D01*
X163513095Y-60806009D02*
X163560714Y-60901247D01*
X163560714Y-60901247D02*
X163560714Y-61139342D01*
X163560714Y-61139342D02*
X163513095Y-61234580D01*
X163513095Y-61234580D02*
X163465476Y-61282200D01*
X163465476Y-61282200D02*
X163370238Y-61329819D01*
X163370238Y-61329819D02*
X163084524Y-61329819D01*
X163084524Y-61329819D02*
X162989286Y-61282200D01*
X162989286Y-61282200D02*
X162941667Y-61234580D01*
X105666666Y-133381819D02*
X105666666Y-134096104D01*
X105666666Y-134096104D02*
X105619047Y-134238961D01*
X105619047Y-134238961D02*
X105523809Y-134334200D01*
X105523809Y-134334200D02*
X105380952Y-134381819D01*
X105380952Y-134381819D02*
X105285714Y-134381819D01*
X106095238Y-133477057D02*
X106142857Y-133429438D01*
X106142857Y-133429438D02*
X106238095Y-133381819D01*
X106238095Y-133381819D02*
X106476190Y-133381819D01*
X106476190Y-133381819D02*
X106571428Y-133429438D01*
X106571428Y-133429438D02*
X106619047Y-133477057D01*
X106619047Y-133477057D02*
X106666666Y-133572295D01*
X106666666Y-133572295D02*
X106666666Y-133667533D01*
X106666666Y-133667533D02*
X106619047Y-133810390D01*
X106619047Y-133810390D02*
X106047619Y-134381819D01*
X106047619Y-134381819D02*
X106666666Y-134381819D01*
X105705443Y-104207319D02*
X106038776Y-105207319D01*
X106038776Y-105207319D02*
X106372109Y-104207319D01*
X107276871Y-105207319D02*
X106943538Y-104731128D01*
X106705443Y-105207319D02*
X106705443Y-104207319D01*
X106705443Y-104207319D02*
X107086395Y-104207319D01*
X107086395Y-104207319D02*
X107181633Y-104254938D01*
X107181633Y-104254938D02*
X107229252Y-104302557D01*
X107229252Y-104302557D02*
X107276871Y-104397795D01*
X107276871Y-104397795D02*
X107276871Y-104540652D01*
X107276871Y-104540652D02*
X107229252Y-104635890D01*
X107229252Y-104635890D02*
X107181633Y-104683509D01*
X107181633Y-104683509D02*
X107086395Y-104731128D01*
X107086395Y-104731128D02*
X106705443Y-104731128D01*
X107610205Y-104207319D02*
X108276871Y-104207319D01*
X108276871Y-104207319D02*
X107848300Y-105207319D01*
X211705443Y-88779319D02*
X212038776Y-89779319D01*
X212038776Y-89779319D02*
X212372109Y-88779319D01*
X213276871Y-89779319D02*
X212943538Y-89303128D01*
X212705443Y-89779319D02*
X212705443Y-88779319D01*
X212705443Y-88779319D02*
X213086395Y-88779319D01*
X213086395Y-88779319D02*
X213181633Y-88826938D01*
X213181633Y-88826938D02*
X213229252Y-88874557D01*
X213229252Y-88874557D02*
X213276871Y-88969795D01*
X213276871Y-88969795D02*
X213276871Y-89112652D01*
X213276871Y-89112652D02*
X213229252Y-89207890D01*
X213229252Y-89207890D02*
X213181633Y-89255509D01*
X213181633Y-89255509D02*
X213086395Y-89303128D01*
X213086395Y-89303128D02*
X212705443Y-89303128D01*
X214134014Y-89112652D02*
X214134014Y-89779319D01*
X213895919Y-88731700D02*
X213657824Y-89445985D01*
X213657824Y-89445985D02*
X214276871Y-89445985D01*
D11*
%TO.C,VR2*%
X149220000Y-122356000D02*
X149220000Y-117381000D01*
X149220000Y-129500000D02*
X149220000Y-125644000D01*
X149220000Y-129500000D02*
X159020000Y-129500000D01*
X150608500Y-117381000D02*
X149220000Y-117381000D01*
X151580000Y-125437000D02*
X156660000Y-125437000D01*
X152143000Y-124874000D02*
X151580000Y-125437000D01*
X153108500Y-117381000D02*
X152631500Y-117381000D01*
X155608500Y-117381000D02*
X155131500Y-117381000D01*
X156152000Y-124874000D02*
X152143000Y-124874000D01*
X156660000Y-125382000D02*
X156152000Y-124874000D01*
X156660000Y-125437000D02*
X156660000Y-125382000D01*
X159020000Y-117381000D02*
X157631500Y-117381000D01*
X159020000Y-122356000D02*
X159020000Y-117381000D01*
X159020000Y-129500000D02*
X159020000Y-125644000D01*
X152144000Y-124874000D02*
G75*
G02*
X156152000Y-124874000I2004000J676500D01*
G01*
X150945000Y-118524000D02*
G75*
G02*
X149675000Y-118524000I-635000J0D01*
G01*
X149675000Y-118524000D02*
G75*
G02*
X150945000Y-118524000I635000J0D01*
G01*
X150945000Y-128430000D02*
G75*
G02*
X149675000Y-128430000I-635000J0D01*
G01*
X149675000Y-128430000D02*
G75*
G02*
X150945000Y-128430000I635000J0D01*
G01*
X157120000Y-124000000D02*
G75*
G02*
X151120000Y-124000000I-3000000J0D01*
G01*
X151120000Y-124000000D02*
G75*
G02*
X157120000Y-124000000I3000000J0D01*
G01*
X158565000Y-118524000D02*
G75*
G02*
X157295000Y-118524000I-635000J0D01*
G01*
X157295000Y-118524000D02*
G75*
G02*
X158565000Y-118524000I635000J0D01*
G01*
X158565000Y-128430000D02*
G75*
G02*
X157295000Y-128430000I-635000J0D01*
G01*
X157295000Y-128430000D02*
G75*
G02*
X158565000Y-128430000I635000J0D01*
G01*
D12*
%TO.C,U3*%
X133478500Y-74974000D02*
X136521500Y-74974000D01*
X133478500Y-85026000D02*
X133478500Y-74974000D01*
X136521500Y-74974000D02*
X136521500Y-85026000D01*
X136521500Y-85026000D02*
X133478500Y-85026000D01*
D13*
X132483000Y-74793000D02*
G75*
G02*
X132183000Y-74793000I-150000J0D01*
G01*
X132183000Y-74793000D02*
G75*
G02*
X132483000Y-74793000I150000J0D01*
G01*
X134381000Y-75555000D02*
G75*
G02*
X134081000Y-75555000I-150000J0D01*
G01*
X134081000Y-75555000D02*
G75*
G02*
X134381000Y-75555000I150000J0D01*
G01*
D11*
%TO.C,J4*%
X96900000Y-86500000D02*
X96900000Y-81500000D01*
X99900000Y-81000000D02*
X103019000Y-81000000D01*
X99900000Y-81500000D02*
X96900000Y-81500000D01*
X99900000Y-86500000D02*
X96900000Y-86500000D01*
X99900000Y-87000000D02*
X99900000Y-81000000D01*
X99900000Y-87000000D02*
X101019000Y-87000000D01*
X102981000Y-87000000D02*
X108019000Y-87000000D01*
X104981000Y-81000000D02*
X108899000Y-81000000D01*
X108899000Y-81000500D02*
X108899000Y-81699000D01*
X108899000Y-81699000D02*
X110100500Y-81699000D01*
X109981000Y-87000000D02*
X110900000Y-87000000D01*
X110100500Y-81000500D02*
X110900500Y-81000500D01*
X110100500Y-81699000D02*
X110100500Y-81000500D01*
X110900000Y-81000000D02*
X110900000Y-87000000D01*
D14*
%TO.C,U1*%
X150725000Y-67050000D02*
X150725000Y-68050000D01*
X150725000Y-67050000D02*
X152225000Y-67050000D01*
X150725000Y-92900000D02*
X150725000Y-86700000D01*
X169125000Y-67050000D02*
X167625000Y-67050000D01*
X169125000Y-68050000D02*
X169125000Y-67050000D01*
X169125000Y-92900000D02*
X150725000Y-92900000D01*
X169125000Y-92900000D02*
X169125000Y-86700000D01*
X169125000Y-86525000D02*
X169125000Y-86025000D01*
X169625000Y-86025000D01*
X169125000Y-86525000D01*
G36*
X169125000Y-86525000D02*
G01*
X169125000Y-86025000D01*
X169625000Y-86025000D01*
X169125000Y-86525000D01*
G37*
D11*
%TO.C,J5*%
X211000000Y-119100000D02*
X217000000Y-119100000D01*
X211000000Y-125019000D02*
X211000000Y-121101000D01*
X211000000Y-130100000D02*
X211000000Y-126981000D01*
X211000500Y-119899500D02*
X211000500Y-119099500D01*
X211000500Y-121101000D02*
X211699000Y-121101000D01*
X211500000Y-130100000D02*
X211500000Y-133100000D01*
X211699000Y-119899500D02*
X211000500Y-119899500D01*
X211699000Y-121101000D02*
X211699000Y-119899500D01*
X216500000Y-130100000D02*
X216500000Y-133100000D01*
X216500000Y-133100000D02*
X211500000Y-133100000D01*
X217000000Y-120019000D02*
X217000000Y-119100000D01*
X217000000Y-127019000D02*
X217000000Y-121981000D01*
X217000000Y-130100000D02*
X211000000Y-130100000D01*
X217000000Y-130100000D02*
X217000000Y-128981000D01*
D10*
%TO.C,U2*%
X143430000Y-54970000D02*
X146370000Y-54970000D01*
X143430000Y-61630000D02*
X143430000Y-54970000D01*
X146370000Y-54970000D02*
X146370000Y-61630000D01*
X146370000Y-61630000D02*
X143430000Y-61630000D01*
X146780000Y-61300000D02*
G75*
G02*
X146720000Y-61300000I-30000J0D01*
G01*
X146720000Y-61300000D02*
G75*
G02*
X146780000Y-61300000I30000J0D01*
G01*
D11*
%TO.C,VR1*%
X113650000Y-122356000D02*
X113650000Y-117381000D01*
X113650000Y-129500000D02*
X113650000Y-125644000D01*
X113650000Y-129500000D02*
X123450000Y-129500000D01*
X115038500Y-117381000D02*
X113650000Y-117381000D01*
X116010000Y-125437000D02*
X121090000Y-125437000D01*
X116573000Y-124874000D02*
X116010000Y-125437000D01*
X117538500Y-117381000D02*
X117061500Y-117381000D01*
X120038500Y-117381000D02*
X119561500Y-117381000D01*
X120582000Y-124874000D02*
X116573000Y-124874000D01*
X121090000Y-125382000D02*
X120582000Y-124874000D01*
X121090000Y-125437000D02*
X121090000Y-125382000D01*
X123450000Y-117381000D02*
X122061500Y-117381000D01*
X123450000Y-122356000D02*
X123450000Y-117381000D01*
X123450000Y-129500000D02*
X123450000Y-125644000D01*
X116574000Y-124874000D02*
G75*
G02*
X120582000Y-124874000I2004000J676500D01*
G01*
X115375000Y-118524000D02*
G75*
G02*
X114105000Y-118524000I-635000J0D01*
G01*
X114105000Y-118524000D02*
G75*
G02*
X115375000Y-118524000I635000J0D01*
G01*
X115375000Y-128430000D02*
G75*
G02*
X114105000Y-128430000I-635000J0D01*
G01*
X114105000Y-128430000D02*
G75*
G02*
X115375000Y-128430000I635000J0D01*
G01*
X121550000Y-124000000D02*
G75*
G02*
X115550000Y-124000000I-3000000J0D01*
G01*
X115550000Y-124000000D02*
G75*
G02*
X121550000Y-124000000I3000000J0D01*
G01*
X122995000Y-118524000D02*
G75*
G02*
X121725000Y-118524000I-635000J0D01*
G01*
X121725000Y-118524000D02*
G75*
G02*
X122995000Y-118524000I635000J0D01*
G01*
X122995000Y-128430000D02*
G75*
G02*
X121725000Y-128430000I-635000J0D01*
G01*
X121725000Y-128430000D02*
G75*
G02*
X122995000Y-128430000I635000J0D01*
G01*
D15*
%TO.C,D7*%
X169200000Y-59275000D02*
X172400000Y-59275000D01*
X169200000Y-59345000D02*
X169200000Y-59275000D01*
X169200000Y-60845000D02*
X169200000Y-60505000D01*
X169200000Y-62075000D02*
X169200000Y-62005000D01*
X172400000Y-59275000D02*
X172400000Y-59345000D01*
X172400000Y-60505000D02*
X172400000Y-60845000D01*
X172400000Y-62005000D02*
X172400000Y-62075000D01*
X172400000Y-62075000D02*
X169200000Y-62075000D01*
D16*
G36*
X172400000Y-62105000D02*
G01*
X171900000Y-62105000D01*
X172400000Y-61605000D01*
X172400000Y-62105000D01*
G37*
D11*
%TO.C,VR5*%
X208100000Y-106956000D02*
X208100000Y-101981000D01*
X208100000Y-114100000D02*
X208100000Y-110244000D01*
X208100000Y-114100000D02*
X217900000Y-114100000D01*
X209488500Y-101981000D02*
X208100000Y-101981000D01*
X210460000Y-110037000D02*
X215540000Y-110037000D01*
X211023000Y-109474000D02*
X210460000Y-110037000D01*
X211988500Y-101981000D02*
X211511500Y-101981000D01*
X214488500Y-101981000D02*
X214011500Y-101981000D01*
X215032000Y-109474000D02*
X211023000Y-109474000D01*
X215540000Y-109982000D02*
X215032000Y-109474000D01*
X215540000Y-110037000D02*
X215540000Y-109982000D01*
X217900000Y-101981000D02*
X216511500Y-101981000D01*
X217900000Y-106956000D02*
X217900000Y-101981000D01*
X217900000Y-114100000D02*
X217900000Y-110244000D01*
X211024000Y-109474000D02*
G75*
G02*
X215032000Y-109474000I2004000J676500D01*
G01*
X209825000Y-103124000D02*
G75*
G02*
X208555000Y-103124000I-635000J0D01*
G01*
X208555000Y-103124000D02*
G75*
G02*
X209825000Y-103124000I635000J0D01*
G01*
X209825000Y-113030000D02*
G75*
G02*
X208555000Y-113030000I-635000J0D01*
G01*
X208555000Y-113030000D02*
G75*
G02*
X209825000Y-113030000I635000J0D01*
G01*
X216000000Y-108600000D02*
G75*
G02*
X210000000Y-108600000I-3000000J0D01*
G01*
X210000000Y-108600000D02*
G75*
G02*
X216000000Y-108600000I3000000J0D01*
G01*
X217445000Y-103124000D02*
G75*
G02*
X216175000Y-103124000I-635000J0D01*
G01*
X216175000Y-103124000D02*
G75*
G02*
X217445000Y-103124000I635000J0D01*
G01*
X217445000Y-113030000D02*
G75*
G02*
X216175000Y-113030000I-635000J0D01*
G01*
X216175000Y-113030000D02*
G75*
G02*
X217445000Y-113030000I635000J0D01*
G01*
%TO.C,B1*%
X184675000Y-59500000D02*
X196675000Y-59500000D01*
X184675000Y-63269000D02*
X184675000Y-59500000D01*
X184675000Y-71500000D02*
X184675000Y-67731000D01*
X187425000Y-61000000D02*
X187425000Y-59500000D01*
X187425000Y-61000000D02*
X193925000Y-61000000D01*
X193925000Y-61000000D02*
X193925000Y-59500000D01*
X196675000Y-59500000D02*
X196675000Y-63269000D01*
X196675000Y-67731000D02*
X196675000Y-71500000D01*
X196675000Y-71500000D02*
X184675000Y-71500000D01*
D12*
%TO.C,U5*%
X132878500Y-122449000D02*
X135021500Y-122449000D01*
X132878500Y-125601000D02*
X132878500Y-122449000D01*
X135021500Y-122449000D02*
X135021500Y-125601000D01*
X135021500Y-125601000D02*
X132878500Y-125601000D01*
D13*
X131969500Y-122415500D02*
G75*
G02*
X131668500Y-122415500I-150500J0D01*
G01*
X131668500Y-122415500D02*
G75*
G02*
X131969500Y-122415500I150500J0D01*
G01*
X133781000Y-123050000D02*
G75*
G02*
X133481000Y-123050000I-150000J0D01*
G01*
X133481000Y-123050000D02*
G75*
G02*
X133781000Y-123050000I150000J0D01*
G01*
D17*
%TO.C,SW1*%
X143925000Y-66375000D02*
X143925000Y-66145000D01*
X147925000Y-66375000D02*
X143925000Y-66375000D01*
X147925000Y-66375000D02*
X147925000Y-66145000D01*
X143925000Y-63705000D02*
X143925000Y-63475000D01*
X143925000Y-63475000D02*
X147925000Y-63475000D01*
X147925000Y-63475000D02*
X147925000Y-63705000D01*
D11*
%TO.C,J6*%
X209100000Y-67000000D02*
X209100000Y-61000000D01*
X209899500Y-66301000D02*
X209899500Y-66999500D01*
X209899500Y-66999500D02*
X209099500Y-66999500D01*
X210019000Y-61000000D02*
X209100000Y-61000000D01*
X211101000Y-66301000D02*
X209899500Y-66301000D01*
X211101000Y-66999500D02*
X211101000Y-66301000D01*
X215019000Y-67000000D02*
X211101000Y-67000000D01*
X217019000Y-61000000D02*
X211981000Y-61000000D01*
X220100000Y-61000000D02*
X218981000Y-61000000D01*
X220100000Y-61000000D02*
X220100000Y-67000000D01*
X220100000Y-61500000D02*
X223100000Y-61500000D01*
X220100000Y-66500000D02*
X223100000Y-66500000D01*
X220100000Y-67000000D02*
X216981000Y-67000000D01*
X223100000Y-61500000D02*
X223100000Y-66500000D01*
%TO.C,J3*%
X96900000Y-58600000D02*
X96900000Y-53600000D01*
X99900000Y-53100000D02*
X103019000Y-53100000D01*
X99900000Y-53600000D02*
X96900000Y-53600000D01*
X99900000Y-58600000D02*
X96900000Y-58600000D01*
X99900000Y-59100000D02*
X99900000Y-53100000D01*
X99900000Y-59100000D02*
X101019000Y-59100000D01*
X102981000Y-59100000D02*
X108019000Y-59100000D01*
X104981000Y-53100000D02*
X108899000Y-53100000D01*
X108899000Y-53100500D02*
X108899000Y-53799000D01*
X108899000Y-53799000D02*
X110100500Y-53799000D01*
X109981000Y-59100000D02*
X110900000Y-59100000D01*
X110100500Y-53100500D02*
X110900500Y-53100500D01*
X110100500Y-53799000D02*
X110100500Y-53100500D01*
X110900000Y-53100000D02*
X110900000Y-59100000D01*
%TO.C,SW3*%
X176350000Y-53819500D02*
X176350000Y-50250000D01*
X176350000Y-56790000D02*
X176350000Y-56510500D01*
X176350000Y-56790000D02*
X183650000Y-56790000D01*
X178222000Y-48287000D02*
X178222000Y-50101000D01*
X181666000Y-48287000D02*
X178222000Y-48287000D01*
X181666000Y-48287000D02*
X181666000Y-50101000D01*
X183650000Y-50250000D02*
X176350000Y-50250000D01*
X183650000Y-53819500D02*
X183650000Y-50250000D01*
X183650000Y-56790000D02*
X183650000Y-56510500D01*
%TO.C,SW2*%
X126350000Y-53819500D02*
X126350000Y-50250000D01*
X126350000Y-56790000D02*
X126350000Y-56510500D01*
X126350000Y-56790000D02*
X133650000Y-56790000D01*
X128222000Y-48287000D02*
X128222000Y-50101000D01*
X131666000Y-48287000D02*
X128222000Y-48287000D01*
X131666000Y-48287000D02*
X131666000Y-50101000D01*
X133650000Y-50250000D02*
X126350000Y-50250000D01*
X133650000Y-53819500D02*
X133650000Y-50250000D01*
X133650000Y-56790000D02*
X133650000Y-56510500D01*
D18*
%TO.C,D2*%
X158250000Y-62228500D02*
X158250000Y-61746000D01*
D19*
X158900000Y-61500000D02*
X157600000Y-61500000D01*
X158900000Y-62500000D02*
X157600000Y-62500000D01*
D16*
G36*
X158250000Y-62000000D02*
G01*
X158021500Y-62279500D01*
X158021500Y-61720500D01*
X158250000Y-62000000D01*
G37*
G36*
X158478500Y-62279500D02*
G01*
X158250000Y-62000000D01*
X158478500Y-61720500D01*
X158478500Y-62279500D01*
G37*
D15*
%TO.C,D6*%
X139150000Y-122100000D02*
X143535000Y-122100000D01*
X139150000Y-125950000D02*
X139150000Y-122100000D01*
X143550000Y-122100000D02*
X143550000Y-125950000D01*
X143550000Y-122105000D02*
X143550000Y-122100000D01*
X143550000Y-125950000D02*
X139150000Y-125950000D01*
D19*
%TO.C,D4*%
X152225000Y-60100000D02*
X152225000Y-61400000D01*
D18*
X152953500Y-60750000D02*
X152471000Y-60750000D01*
D19*
X153225000Y-60100000D02*
X153225000Y-61400000D01*
D16*
G36*
X152725000Y-60750000D02*
G01*
X152445500Y-60521500D01*
X153004500Y-60521500D01*
X152725000Y-60750000D01*
G37*
G36*
X153004500Y-60978500D02*
G01*
X152445500Y-60978500D01*
X152725000Y-60750000D01*
X153004500Y-60978500D01*
G37*
D11*
%TO.C,VR6*%
X102100000Y-68756000D02*
X102100000Y-63781000D01*
X102100000Y-75900000D02*
X102100000Y-72044000D01*
X102100000Y-75900000D02*
X111900000Y-75900000D01*
X103488500Y-63781000D02*
X102100000Y-63781000D01*
X104460000Y-71837000D02*
X109540000Y-71837000D01*
X105023000Y-71274000D02*
X104460000Y-71837000D01*
X105988500Y-63781000D02*
X105511500Y-63781000D01*
X108488500Y-63781000D02*
X108011500Y-63781000D01*
X109032000Y-71274000D02*
X105023000Y-71274000D01*
X109540000Y-71782000D02*
X109032000Y-71274000D01*
X109540000Y-71837000D02*
X109540000Y-71782000D01*
X111900000Y-63781000D02*
X110511500Y-63781000D01*
X111900000Y-68756000D02*
X111900000Y-63781000D01*
X111900000Y-75900000D02*
X111900000Y-72044000D01*
X105024000Y-71274000D02*
G75*
G02*
X109032000Y-71274000I2004000J676500D01*
G01*
X103825000Y-64924000D02*
G75*
G02*
X102555000Y-64924000I-635000J0D01*
G01*
X102555000Y-64924000D02*
G75*
G02*
X103825000Y-64924000I635000J0D01*
G01*
X103825000Y-74830000D02*
G75*
G02*
X102555000Y-74830000I-635000J0D01*
G01*
X102555000Y-74830000D02*
G75*
G02*
X103825000Y-74830000I635000J0D01*
G01*
X110000000Y-70400000D02*
G75*
G02*
X104000000Y-70400000I-3000000J0D01*
G01*
X104000000Y-70400000D02*
G75*
G02*
X110000000Y-70400000I3000000J0D01*
G01*
X111445000Y-64924000D02*
G75*
G02*
X110175000Y-64924000I-635000J0D01*
G01*
X110175000Y-64924000D02*
G75*
G02*
X111445000Y-64924000I635000J0D01*
G01*
X111445000Y-74830000D02*
G75*
G02*
X110175000Y-74830000I-635000J0D01*
G01*
X110175000Y-74830000D02*
G75*
G02*
X111445000Y-74830000I635000J0D01*
G01*
%TO.C,L1*%
X149901500Y-55238000D02*
X149901500Y-56635000D01*
X149901500Y-56635000D02*
X149901500Y-56762000D01*
X149901500Y-56762000D02*
X150155500Y-57016000D01*
X150155500Y-54984000D02*
X149901500Y-55238000D01*
X150155500Y-57016000D02*
X151425500Y-57016000D01*
X150282500Y-54984000D02*
X150155500Y-54984000D01*
X151425500Y-54984000D02*
X150282500Y-54984000D01*
X152187500Y-57016000D02*
X153330500Y-57016000D01*
X153330500Y-57016000D02*
X153457500Y-57016000D01*
X153457500Y-54984000D02*
X152187500Y-54984000D01*
X153457500Y-57016000D02*
X153711500Y-56762000D01*
X153711500Y-55238000D02*
X153457500Y-54984000D01*
X153711500Y-55365000D02*
X153711500Y-55238000D01*
X153711500Y-56762000D02*
X153711500Y-55365000D01*
D12*
%TO.C,U4*%
X183478500Y-74974000D02*
X186521500Y-74974000D01*
X183478500Y-85026000D02*
X183478500Y-74974000D01*
X186521500Y-74974000D02*
X186521500Y-85026000D01*
X186521500Y-85026000D02*
X183478500Y-85026000D01*
D13*
X182483000Y-74793000D02*
G75*
G02*
X182183000Y-74793000I-150000J0D01*
G01*
X182183000Y-74793000D02*
G75*
G02*
X182483000Y-74793000I150000J0D01*
G01*
X184381000Y-75555000D02*
G75*
G02*
X184081000Y-75555000I-150000J0D01*
G01*
X184081000Y-75555000D02*
G75*
G02*
X184381000Y-75555000I150000J0D01*
G01*
D11*
%TO.C,VR3*%
X171600000Y-122356000D02*
X171600000Y-117381000D01*
X171600000Y-129500000D02*
X171600000Y-125644000D01*
X171600000Y-129500000D02*
X181400000Y-129500000D01*
X172988500Y-117381000D02*
X171600000Y-117381000D01*
X173960000Y-125437000D02*
X179040000Y-125437000D01*
X174523000Y-124874000D02*
X173960000Y-125437000D01*
X175488500Y-117381000D02*
X175011500Y-117381000D01*
X177988500Y-117381000D02*
X177511500Y-117381000D01*
X178532000Y-124874000D02*
X174523000Y-124874000D01*
X179040000Y-125382000D02*
X178532000Y-124874000D01*
X179040000Y-125437000D02*
X179040000Y-125382000D01*
X181400000Y-117381000D02*
X180011500Y-117381000D01*
X181400000Y-122356000D02*
X181400000Y-117381000D01*
X181400000Y-129500000D02*
X181400000Y-125644000D01*
X174524000Y-124874000D02*
G75*
G02*
X178532000Y-124874000I2004000J676500D01*
G01*
X173325000Y-118524000D02*
G75*
G02*
X172055000Y-118524000I-635000J0D01*
G01*
X172055000Y-118524000D02*
G75*
G02*
X173325000Y-118524000I635000J0D01*
G01*
X173325000Y-128430000D02*
G75*
G02*
X172055000Y-128430000I-635000J0D01*
G01*
X172055000Y-128430000D02*
G75*
G02*
X173325000Y-128430000I635000J0D01*
G01*
X179500000Y-124000000D02*
G75*
G02*
X173500000Y-124000000I-3000000J0D01*
G01*
X173500000Y-124000000D02*
G75*
G02*
X179500000Y-124000000I3000000J0D01*
G01*
X180945000Y-118524000D02*
G75*
G02*
X179675000Y-118524000I-635000J0D01*
G01*
X179675000Y-118524000D02*
G75*
G02*
X180945000Y-118524000I635000J0D01*
G01*
X180945000Y-128430000D02*
G75*
G02*
X179675000Y-128430000I-635000J0D01*
G01*
X179675000Y-128430000D02*
G75*
G02*
X180945000Y-128430000I635000J0D01*
G01*
%TO.C,SW4*%
X196350000Y-53819500D02*
X196350000Y-50250000D01*
X196350000Y-56790000D02*
X196350000Y-56510500D01*
X196350000Y-56790000D02*
X203650000Y-56790000D01*
X198222000Y-48287000D02*
X198222000Y-50101000D01*
X201666000Y-48287000D02*
X198222000Y-48287000D01*
X201666000Y-48287000D02*
X201666000Y-50101000D01*
X203650000Y-50250000D02*
X196350000Y-50250000D01*
X203650000Y-53819500D02*
X203650000Y-50250000D01*
X203650000Y-56790000D02*
X203650000Y-56510500D01*
D12*
%TO.C,D1*%
X155574000Y-59274000D02*
X157326000Y-59274000D01*
X155574000Y-60726000D02*
X157326000Y-60726000D01*
X155978000Y-59274000D02*
X155978000Y-60726000D01*
D15*
X157326000Y-59274000D02*
X157326000Y-59470000D01*
X157326000Y-60726000D02*
X157326000Y-60520000D01*
D16*
G36*
X155650000Y-59550000D02*
G01*
X155345000Y-59550000D01*
X155345000Y-59197500D01*
X155650000Y-59197500D01*
X155650000Y-59550000D01*
G37*
G36*
X155650000Y-60802500D02*
G01*
X155345000Y-60802500D01*
X155345000Y-60450000D01*
X155650000Y-60450000D01*
X155650000Y-60802500D01*
G37*
D19*
%TO.C,D3*%
X162100000Y-61500000D02*
X163400000Y-61500000D01*
X162100000Y-62500000D02*
X163400000Y-62500000D01*
D18*
X162750000Y-61771500D02*
X162750000Y-62254000D01*
D16*
G36*
X162750000Y-62000000D02*
G01*
X162521500Y-62279500D01*
X162521500Y-61720500D01*
X162750000Y-62000000D01*
G37*
G36*
X162978500Y-62279500D02*
G01*
X162750000Y-62000000D01*
X162978500Y-61720500D01*
X162978500Y-62279500D01*
G37*
D11*
%TO.C,J2*%
X103000000Y-119100000D02*
X109000000Y-119100000D01*
X103000000Y-125019000D02*
X103000000Y-121101000D01*
X103000000Y-130100000D02*
X103000000Y-126981000D01*
X103000500Y-119899500D02*
X103000500Y-119099500D01*
X103000500Y-121101000D02*
X103699000Y-121101000D01*
X103500000Y-130100000D02*
X103500000Y-133100000D01*
X103699000Y-119899500D02*
X103000500Y-119899500D01*
X103699000Y-121101000D02*
X103699000Y-119899500D01*
X108500000Y-130100000D02*
X108500000Y-133100000D01*
X108500000Y-133100000D02*
X103500000Y-133100000D01*
X109000000Y-120019000D02*
X109000000Y-119100000D01*
X109000000Y-127019000D02*
X109000000Y-121981000D01*
X109000000Y-130100000D02*
X103000000Y-130100000D01*
X109000000Y-130100000D02*
X109000000Y-128981000D01*
D10*
%TO.C,D5*%
X151525000Y-51580000D02*
X153815000Y-51580000D01*
X153815000Y-50120000D02*
X151525000Y-50120000D01*
X153815000Y-51580000D02*
X153815000Y-50120000D01*
D11*
%TO.C,VR7*%
X102100000Y-96756000D02*
X102100000Y-91781000D01*
X102100000Y-103900000D02*
X102100000Y-100044000D01*
X102100000Y-103900000D02*
X111900000Y-103900000D01*
X103488500Y-91781000D02*
X102100000Y-91781000D01*
X104460000Y-99837000D02*
X109540000Y-99837000D01*
X105023000Y-99274000D02*
X104460000Y-99837000D01*
X105988500Y-91781000D02*
X105511500Y-91781000D01*
X108488500Y-91781000D02*
X108011500Y-91781000D01*
X109032000Y-99274000D02*
X105023000Y-99274000D01*
X109540000Y-99782000D02*
X109032000Y-99274000D01*
X109540000Y-99837000D02*
X109540000Y-99782000D01*
X111900000Y-91781000D02*
X110511500Y-91781000D01*
X111900000Y-96756000D02*
X111900000Y-91781000D01*
X111900000Y-103900000D02*
X111900000Y-100044000D01*
X105024000Y-99274000D02*
G75*
G02*
X109032000Y-99274000I2004000J676500D01*
G01*
X103825000Y-92924000D02*
G75*
G02*
X102555000Y-92924000I-635000J0D01*
G01*
X102555000Y-92924000D02*
G75*
G02*
X103825000Y-92924000I635000J0D01*
G01*
X103825000Y-102830000D02*
G75*
G02*
X102555000Y-102830000I-635000J0D01*
G01*
X102555000Y-102830000D02*
G75*
G02*
X103825000Y-102830000I635000J0D01*
G01*
X110000000Y-98400000D02*
G75*
G02*
X104000000Y-98400000I-3000000J0D01*
G01*
X104000000Y-98400000D02*
G75*
G02*
X110000000Y-98400000I3000000J0D01*
G01*
X111445000Y-92924000D02*
G75*
G02*
X110175000Y-92924000I-635000J0D01*
G01*
X110175000Y-92924000D02*
G75*
G02*
X111445000Y-92924000I635000J0D01*
G01*
X111445000Y-102830000D02*
G75*
G02*
X110175000Y-102830000I-635000J0D01*
G01*
X110175000Y-102830000D02*
G75*
G02*
X111445000Y-102830000I635000J0D01*
G01*
%TO.C,VR4*%
X208100000Y-81328000D02*
X208100000Y-76353000D01*
X208100000Y-88472000D02*
X208100000Y-84616000D01*
X208100000Y-88472000D02*
X217900000Y-88472000D01*
X209488500Y-76353000D02*
X208100000Y-76353000D01*
X210460000Y-84409000D02*
X215540000Y-84409000D01*
X211023000Y-83846000D02*
X210460000Y-84409000D01*
X211988500Y-76353000D02*
X211511500Y-76353000D01*
X214488500Y-76353000D02*
X214011500Y-76353000D01*
X215032000Y-83846000D02*
X211023000Y-83846000D01*
X215540000Y-84354000D02*
X215032000Y-83846000D01*
X215540000Y-84409000D02*
X215540000Y-84354000D01*
X217900000Y-76353000D02*
X216511500Y-76353000D01*
X217900000Y-81328000D02*
X217900000Y-76353000D01*
X217900000Y-88472000D02*
X217900000Y-84616000D01*
X211024000Y-83846000D02*
G75*
G02*
X215032000Y-83846000I2004000J676500D01*
G01*
X209825000Y-77496000D02*
G75*
G02*
X208555000Y-77496000I-635000J0D01*
G01*
X208555000Y-77496000D02*
G75*
G02*
X209825000Y-77496000I635000J0D01*
G01*
X209825000Y-87402000D02*
G75*
G02*
X208555000Y-87402000I-635000J0D01*
G01*
X208555000Y-87402000D02*
G75*
G02*
X209825000Y-87402000I635000J0D01*
G01*
X216000000Y-82972000D02*
G75*
G02*
X210000000Y-82972000I-3000000J0D01*
G01*
X210000000Y-82972000D02*
G75*
G02*
X216000000Y-82972000I3000000J0D01*
G01*
X217445000Y-77496000D02*
G75*
G02*
X216175000Y-77496000I-635000J0D01*
G01*
X216175000Y-77496000D02*
G75*
G02*
X217445000Y-77496000I635000J0D01*
G01*
X217445000Y-87402000D02*
G75*
G02*
X216175000Y-87402000I-635000J0D01*
G01*
X216175000Y-87402000D02*
G75*
G02*
X217445000Y-87402000I635000J0D01*
G01*
%TD*%
M02*
