%TF.GenerationSoftware,KiCad,Pcbnew,9.0.3*%
%TF.CreationDate,2025-08-06T15:24:12+02:00*%
%TF.ProjectId,Spikeling_v3.0,5370696b-656c-4696-9e67-5f76332e302e,rev?*%
%TF.SameCoordinates,Original*%
%TF.FileFunction,Other,User*%
%FSLAX46Y46*%
G04 Gerber Fmt 4.6, Leading zero omitted, Abs format (unit mm)*
G04 Created by KiCad (PCBNEW 9.0.3) date 2025-08-06 15:24:12*
%MOMM*%
%LPD*%
G01*
G04 APERTURE LIST*
%ADD10C,0.050000*%
G04 APERTURE END LIST*
D10*
%TO.C,C2*%
X147375000Y-52375000D02*
X148575000Y-52375000D01*
X147375000Y-55175000D02*
X147375000Y-52375000D01*
X148575000Y-52375000D02*
X148575000Y-55175000D01*
X148575000Y-55175000D02*
X147375000Y-55175000D01*
%TO.C,R9*%
X209425000Y-67525000D02*
X210625000Y-67525000D01*
X209425000Y-70125000D02*
X209425000Y-67525000D01*
X210625000Y-67525000D02*
X210625000Y-70125000D01*
X210625000Y-70125000D02*
X209425000Y-70125000D01*
%TO.C,U1*%
X135925000Y-86750000D02*
X135925000Y-107750000D01*
X135925000Y-107750000D02*
X183925000Y-107750000D01*
X150175000Y-86750000D02*
X135925000Y-86750000D01*
X150175000Y-86750000D02*
X150175000Y-66550000D01*
X169675000Y-66550000D02*
X150175000Y-66550000D01*
X169675000Y-66550000D02*
X169675000Y-86750000D01*
X183925000Y-86750000D02*
X169675000Y-86750000D01*
X183925000Y-107750000D02*
X183925000Y-86750000D01*
%TO.C,R7*%
X132675000Y-119725000D02*
X135275000Y-119725000D01*
X132675000Y-120925000D02*
X132675000Y-119725000D01*
X135275000Y-119725000D02*
X135275000Y-120925000D01*
X135275000Y-120925000D02*
X132675000Y-120925000D01*
%TO.C,R8*%
X212700000Y-117625000D02*
X215300000Y-117625000D01*
X212700000Y-118825000D02*
X212700000Y-117625000D01*
X215300000Y-117625000D02*
X215300000Y-118825000D01*
X215300000Y-118825000D02*
X212700000Y-118825000D01*
%TO.C,U2*%
X143250000Y-54800000D02*
X146750000Y-54800000D01*
X143250000Y-61800000D02*
X143250000Y-54800000D01*
X146750000Y-54800000D02*
X146750000Y-61800000D01*
X146750000Y-61800000D02*
X143250000Y-61800000D01*
%TO.C,C5*%
X170125000Y-82320000D02*
X170125000Y-83120000D01*
X170125000Y-82320000D02*
X171925000Y-82320000D01*
X171925000Y-82320000D02*
X171925000Y-83120000D01*
X171925000Y-83120000D02*
X170125000Y-83120000D01*
%TO.C,R12*%
X206200000Y-52150000D02*
X208800000Y-52150000D01*
X206200000Y-53350000D02*
X206200000Y-52150000D01*
X208800000Y-52150000D02*
X208800000Y-53350000D01*
X208800000Y-53350000D02*
X206200000Y-53350000D01*
%TO.C,R5*%
X148800000Y-70875000D02*
X147600000Y-70875000D01*
X148800000Y-68275000D02*
X148800000Y-70875000D01*
X147600000Y-70875000D02*
X147600000Y-68275000D01*
X147600000Y-68275000D02*
X148800000Y-68275000D01*
%TO.C,SW1*%
X142925000Y-66625000D02*
X148925000Y-66625000D01*
X148925000Y-66625000D02*
X148925000Y-63225000D01*
X142925000Y-63225000D02*
X142925000Y-66625000D01*
X148925000Y-63225000D02*
X142925000Y-63225000D01*
%TO.C,C1*%
X135700000Y-57150000D02*
X140300000Y-57150000D01*
X135700000Y-59450000D02*
X135700000Y-57150000D01*
X140300000Y-57150000D02*
X140300000Y-59450000D01*
X140300000Y-59450000D02*
X135700000Y-59450000D01*
%TO.C,C7*%
X139100000Y-75150000D02*
X139100000Y-75950000D01*
X139100000Y-75150000D02*
X140900000Y-75150000D01*
X140900000Y-75150000D02*
X140900000Y-75950000D01*
X140900000Y-75950000D02*
X139100000Y-75950000D01*
%TO.C,C8*%
X189150000Y-75150000D02*
X190950000Y-75150000D01*
X189150000Y-75950000D02*
X189150000Y-75150000D01*
X190950000Y-75950000D02*
X189150000Y-75950000D01*
X190950000Y-75950000D02*
X190950000Y-75150000D01*
%TO.C,R3*%
X147025000Y-50250000D02*
X149625000Y-50250000D01*
X147025000Y-51450000D02*
X147025000Y-50250000D01*
X149625000Y-50250000D02*
X149625000Y-51450000D01*
X149625000Y-51450000D02*
X147025000Y-51450000D01*
%TO.C,C11*%
X211900000Y-67380000D02*
X213100000Y-67380000D01*
X211900000Y-70180000D02*
X211900000Y-67380000D01*
X213100000Y-67380000D02*
X213100000Y-70180000D01*
X213100000Y-70180000D02*
X211900000Y-70180000D01*
%TO.C,J1*%
X155250000Y-48500000D02*
X164750000Y-48500000D01*
X155250000Y-56750000D02*
X155250000Y-48500000D01*
X164750000Y-48500000D02*
X164750000Y-56750000D01*
X164750000Y-56750000D02*
X155250000Y-56750000D01*
%TO.C,C10*%
X133075000Y-118775000D02*
X134875000Y-118775000D01*
X133075000Y-119575000D02*
X133075000Y-118775000D01*
X134875000Y-119575000D02*
X133075000Y-119575000D01*
X134875000Y-119575000D02*
X134875000Y-118775000D01*
%TO.C,C9*%
X137900000Y-122850000D02*
X137900000Y-121050000D01*
X138700000Y-121050000D02*
X137900000Y-121050000D01*
X138700000Y-121050000D02*
X138700000Y-122850000D01*
X138700000Y-122850000D02*
X137900000Y-122850000D01*
%TO.C,R11*%
X186200000Y-52150000D02*
X188800000Y-52150000D01*
X186200000Y-53350000D02*
X186200000Y-52150000D01*
X188800000Y-52150000D02*
X188800000Y-53350000D01*
X188800000Y-53350000D02*
X186200000Y-53350000D01*
%TO.C,R4*%
X171200000Y-52150000D02*
X173800000Y-52150000D01*
X171200000Y-53350000D02*
X171200000Y-52150000D01*
X173800000Y-52150000D02*
X173800000Y-53350000D01*
X173800000Y-53350000D02*
X171200000Y-53350000D01*
%TO.C,C12*%
X181600000Y-65100000D02*
X182400000Y-65100000D01*
X181600000Y-66900000D02*
X181600000Y-65100000D01*
X181600000Y-66900000D02*
X182400000Y-66900000D01*
X182400000Y-65100000D02*
X182400000Y-66900000D01*
%TO.C,C3*%
X135700000Y-62800000D02*
X140300000Y-62800000D01*
X135700000Y-65100000D02*
X135700000Y-62800000D01*
X140300000Y-62800000D02*
X140300000Y-65100000D01*
X140300000Y-65100000D02*
X135700000Y-65100000D01*
%TO.C,R10*%
X174775000Y-60825000D02*
X177375000Y-60825000D01*
X174775000Y-62025000D02*
X174775000Y-60825000D01*
X177375000Y-60825000D02*
X177375000Y-62025000D01*
X177375000Y-62025000D02*
X174775000Y-62025000D01*
%TO.C,R6*%
X137360000Y-60350000D02*
X139960000Y-60350000D01*
X137360000Y-61550000D02*
X137360000Y-60350000D01*
X139960000Y-60350000D02*
X139960000Y-61550000D01*
X139960000Y-61550000D02*
X137360000Y-61550000D01*
%TO.C,C6*%
X147250000Y-68675000D02*
X147250000Y-70475000D01*
X146450000Y-70475000D02*
X147250000Y-70475000D01*
X146450000Y-70475000D02*
X146450000Y-68675000D01*
X146450000Y-68675000D02*
X147250000Y-68675000D01*
%TO.C,R2*%
X158400000Y-57700000D02*
X159600000Y-57700000D01*
X158400000Y-60300000D02*
X158400000Y-57700000D01*
X159600000Y-57700000D02*
X159600000Y-60300000D01*
X159600000Y-60300000D02*
X158400000Y-60300000D01*
%TO.C,C4*%
X138100000Y-66150000D02*
X139900000Y-66150000D01*
X138100000Y-66950000D02*
X138100000Y-66150000D01*
X139900000Y-66950000D02*
X138100000Y-66950000D01*
X139900000Y-66950000D02*
X139900000Y-66150000D01*
%TO.C,R1*%
X161400000Y-57700000D02*
X162600000Y-57700000D01*
X161400000Y-60300000D02*
X161400000Y-57700000D01*
X162600000Y-57700000D02*
X162600000Y-60300000D01*
X162600000Y-60300000D02*
X161400000Y-60300000D01*
%TO.C,D5*%
X150845000Y-50120000D02*
X153805000Y-50120000D01*
X150845000Y-51580000D02*
X150845000Y-50120000D01*
X153805000Y-50120000D02*
X153805000Y-51580000D01*
X153805000Y-51580000D02*
X150845000Y-51580000D01*
%TD*%
M02*
