%TF.GenerationSoftware,KiCad,Pcbnew,9.0.3*%
%TF.CreationDate,2025-08-06T15:24:12+02:00*%
%TF.ProjectId,Spikeling_v3.0,5370696b-656c-4696-9e67-5f76332e302e,rev?*%
%TF.SameCoordinates,Original*%
%TF.FileFunction,Soldermask,Bot*%
%TF.FilePolarity,Negative*%
%FSLAX46Y46*%
G04 Gerber Fmt 4.6, Leading zero omitted, Abs format (unit mm)*
G04 Created by KiCad (PCBNEW 9.0.3) date 2025-08-06 15:24:12*
%MOMM*%
%LPD*%
G01*
G04 APERTURE LIST*
%ADD10C,1.700000*%
%ADD11O,2.500000X3.000000*%
%ADD12C,0.600000*%
%ADD13O,1.300000X2.300000*%
%ADD14O,1.300000X2.100000*%
%ADD15C,0.500000*%
%ADD16C,2.000000*%
G04 APERTURE END LIST*
D10*
%TO.C,VR2*%
X156620000Y-117000000D03*
X154120000Y-117000000D03*
X151620000Y-117000000D03*
D11*
X149720000Y-124000000D03*
X158520000Y-124000000D03*
%TD*%
D10*
%TO.C,VR1*%
X121050000Y-117000000D03*
X118550000Y-117000000D03*
X116050000Y-117000000D03*
D11*
X114150000Y-124000000D03*
X122950000Y-124000000D03*
%TD*%
D10*
%TO.C,VR5*%
X215500000Y-101600000D03*
X213000000Y-101600000D03*
X210500000Y-101600000D03*
D11*
X208600000Y-108600000D03*
X217400000Y-108600000D03*
%TD*%
D12*
%TO.C,J1*%
X162890000Y-55050000D03*
X157110000Y-55050000D03*
D13*
X164330000Y-55570000D03*
D14*
X164330000Y-51370000D03*
D15*
X162000000Y-52750000D03*
X162000000Y-50750000D03*
X158000000Y-52750000D03*
X158000000Y-50750000D03*
D13*
X155670000Y-55570000D03*
D14*
X155670000Y-51370000D03*
%TD*%
D10*
%TO.C,SW3*%
X182250000Y-52750000D03*
X177750000Y-52750000D03*
D16*
X176400000Y-55250000D03*
X183600000Y-55250000D03*
%TD*%
D10*
%TO.C,SW2*%
X132250000Y-52750000D03*
X127750000Y-52750000D03*
D16*
X126400000Y-55250000D03*
X133600000Y-55250000D03*
%TD*%
D10*
%TO.C,VR6*%
X109500000Y-63400000D03*
X107000000Y-63400000D03*
X104500000Y-63400000D03*
D11*
X102600000Y-70400000D03*
X111400000Y-70400000D03*
%TD*%
D10*
%TO.C,VR3*%
X179000000Y-117000000D03*
X176500000Y-117000000D03*
X174000000Y-117000000D03*
D11*
X172100000Y-124000000D03*
X180900000Y-124000000D03*
%TD*%
D10*
%TO.C,SW4*%
X202250000Y-52750000D03*
X197750000Y-52750000D03*
D16*
X196400000Y-55250000D03*
X203600000Y-55250000D03*
%TD*%
D10*
%TO.C,VR7*%
X109500000Y-91400000D03*
X107000000Y-91400000D03*
X104500000Y-91400000D03*
D11*
X102600000Y-98400000D03*
X111400000Y-98400000D03*
%TD*%
D10*
%TO.C,VR4*%
X215500000Y-75972000D03*
X213000000Y-75972000D03*
X210500000Y-75972000D03*
D11*
X208600000Y-82972000D03*
X217400000Y-82972000D03*
%TD*%
M02*
