%TF.GenerationSoftware,KiCad,Pcbnew,9.0.3*%
%TF.CreationDate,2025-08-06T15:24:12+02:00*%
%TF.ProjectId,Spikeling_v3.0,5370696b-656c-4696-9e67-5f76332e302e,rev?*%
%TF.SameCoordinates,Original*%
%TF.FileFunction,Other,User*%
%FSLAX46Y46*%
G04 Gerber Fmt 4.6, Leading zero omitted, Abs format (unit mm)*
G04 Created by KiCad (PCBNEW 9.0.3) date 2025-08-06 15:24:12*
%MOMM*%
%LPD*%
G01*
G04 APERTURE LIST*
%ADD10C,0.051000*%
G04 APERTURE END LIST*
D10*
%TO.C,VR2*%
X148470000Y-116150000D02*
X159770000Y-116150000D01*
X148470000Y-129627000D02*
X148470000Y-116150000D01*
X159770000Y-116150000D02*
X159770000Y-129627000D01*
X159770000Y-129627000D02*
X148470000Y-129627000D01*
%TO.C,U3*%
X133050000Y-75050000D02*
X136950000Y-75050000D01*
X133050000Y-84950000D02*
X133050000Y-75050000D01*
X136950000Y-75050000D02*
X136950000Y-84950000D01*
X136950000Y-84950000D02*
X133050000Y-84950000D01*
%TO.C,J4*%
X96900000Y-81500000D02*
X99900000Y-81500000D01*
X96900000Y-86500000D02*
X96900000Y-81500000D01*
X99900000Y-81000000D02*
X110900000Y-81000000D01*
X99900000Y-81500000D02*
X99900000Y-81000000D01*
X99900000Y-86500000D02*
X96900000Y-86500000D01*
X99900000Y-87000000D02*
X99900000Y-86500000D01*
X110900000Y-81000000D02*
X110900000Y-87000000D01*
X110900000Y-87000000D02*
X99900000Y-87000000D01*
%TO.C,J5*%
X211000000Y-119100000D02*
X217000000Y-119100000D01*
X211000000Y-130100000D02*
X211000000Y-119100000D01*
X211500000Y-130100000D02*
X211000000Y-130100000D01*
X211500000Y-133100000D02*
X211500000Y-130100000D01*
X216500000Y-130100000D02*
X216500000Y-133100000D01*
X216500000Y-133100000D02*
X211500000Y-133100000D01*
X217000000Y-119100000D02*
X217000000Y-130100000D01*
X217000000Y-130100000D02*
X216500000Y-130100000D01*
%TO.C,VR1*%
X112900000Y-116150000D02*
X124200000Y-116150000D01*
X112900000Y-129627000D02*
X112900000Y-116150000D01*
X124200000Y-116150000D02*
X124200000Y-129627000D01*
X124200000Y-129627000D02*
X112900000Y-129627000D01*
%TO.C,D7*%
X169200000Y-59275000D02*
X172400000Y-59275000D01*
X169200000Y-62075000D02*
X169200000Y-59275000D01*
X172400000Y-59275000D02*
X172400000Y-62075000D01*
X172400000Y-62075000D02*
X169200000Y-62075000D01*
%TO.C,VR5*%
X207350000Y-100750000D02*
X218650000Y-100750000D01*
X207350000Y-114227000D02*
X207350000Y-100750000D01*
X218650000Y-100750000D02*
X218650000Y-114227000D01*
X218650000Y-114227000D02*
X207350000Y-114227000D01*
%TO.C,U5*%
X132450000Y-122525000D02*
X135450000Y-122525000D01*
X132450000Y-125525000D02*
X132450000Y-122525000D01*
X135450000Y-122525000D02*
X135450000Y-125525000D01*
X135450000Y-125525000D02*
X132450000Y-125525000D01*
%TO.C,J6*%
X209100000Y-61000000D02*
X220100000Y-61000000D01*
X209100000Y-67000000D02*
X209100000Y-61000000D01*
X220100000Y-61000000D02*
X220100000Y-61500000D01*
X220100000Y-61500000D02*
X223100000Y-61500000D01*
X220100000Y-66500000D02*
X220100000Y-67000000D01*
X220100000Y-67000000D02*
X209100000Y-67000000D01*
X223100000Y-61500000D02*
X223100000Y-66500000D01*
X223100000Y-66500000D02*
X220100000Y-66500000D01*
%TO.C,J3*%
X96900000Y-53600000D02*
X99900000Y-53600000D01*
X96900000Y-58600000D02*
X96900000Y-53600000D01*
X99900000Y-53100000D02*
X110900000Y-53100000D01*
X99900000Y-53600000D02*
X99900000Y-53100000D01*
X99900000Y-58600000D02*
X96900000Y-58600000D01*
X99900000Y-59100000D02*
X99900000Y-58600000D01*
X110900000Y-53100000D02*
X110900000Y-59100000D01*
X110900000Y-59100000D02*
X99900000Y-59100000D01*
%TO.C,SW3*%
X176350000Y-50250000D02*
X183650000Y-50250000D01*
X176350000Y-53750000D02*
X176350000Y-50250000D01*
X183650000Y-50250000D02*
X183650000Y-53750000D01*
X183650000Y-53750000D02*
X176350000Y-53750000D01*
%TO.C,SW2*%
X126350000Y-50250000D02*
X133650000Y-50250000D01*
X126350000Y-53750000D02*
X126350000Y-50250000D01*
X133650000Y-50250000D02*
X133650000Y-53750000D01*
X133650000Y-53750000D02*
X126350000Y-53750000D01*
%TO.C,D2*%
X157650000Y-61600000D02*
X158850000Y-61600000D01*
X157650000Y-62400000D02*
X157650000Y-61600000D01*
X158850000Y-61600000D02*
X158850000Y-62400000D01*
X158850000Y-62400000D02*
X157650000Y-62400000D01*
%TO.C,D6*%
X139150000Y-122100000D02*
X143550000Y-122100000D01*
X139150000Y-125950000D02*
X139150000Y-122100000D01*
X143550000Y-122100000D02*
X143550000Y-125950000D01*
X143550000Y-125950000D02*
X139150000Y-125950000D01*
%TO.C,D4*%
X152325000Y-60150000D02*
X153125000Y-60150000D01*
X152325000Y-61350000D02*
X152325000Y-60150000D01*
X153125000Y-60150000D02*
X153125000Y-61350000D01*
X153125000Y-61350000D02*
X152325000Y-61350000D01*
%TO.C,VR6*%
X101350000Y-62550000D02*
X112650000Y-62550000D01*
X101350000Y-76027000D02*
X101350000Y-62550000D01*
X112650000Y-62550000D02*
X112650000Y-76027000D01*
X112650000Y-76027000D02*
X101350000Y-76027000D01*
%TO.C,L1*%
X150766000Y-55362500D02*
X152766000Y-55362500D01*
X150766000Y-56637500D02*
X150766000Y-55362500D01*
X152766000Y-55362500D02*
X152766000Y-56637500D01*
X152766000Y-56637500D02*
X150766000Y-56637500D01*
%TO.C,U4*%
X183050000Y-75050000D02*
X186950000Y-75050000D01*
X183050000Y-84950000D02*
X183050000Y-75050000D01*
X186950000Y-75050000D02*
X186950000Y-84950000D01*
X186950000Y-84950000D02*
X183050000Y-84950000D01*
%TO.C,VR3*%
X170850000Y-116150000D02*
X182150000Y-116150000D01*
X170850000Y-129627000D02*
X170850000Y-116150000D01*
X182150000Y-116150000D02*
X182150000Y-129627000D01*
X182150000Y-129627000D02*
X170850000Y-129627000D01*
%TO.C,SW4*%
X196350000Y-50250000D02*
X203650000Y-50250000D01*
X196350000Y-53750000D02*
X196350000Y-50250000D01*
X203650000Y-50250000D02*
X203650000Y-53750000D01*
X203650000Y-53750000D02*
X196350000Y-53750000D01*
%TO.C,D1*%
X155600000Y-59350000D02*
X157300000Y-59350000D01*
X155600000Y-60650000D02*
X155600000Y-59350000D01*
X157300000Y-59350000D02*
X157300000Y-60650000D01*
X157300000Y-60650000D02*
X155600000Y-60650000D01*
%TO.C,D3*%
X162150000Y-61600000D02*
X163350000Y-61600000D01*
X162150000Y-62400000D02*
X162150000Y-61600000D01*
X163350000Y-61600000D02*
X163350000Y-62400000D01*
X163350000Y-62400000D02*
X162150000Y-62400000D01*
%TO.C,J2*%
X103000000Y-119100000D02*
X109000000Y-119100000D01*
X103000000Y-130100000D02*
X103000000Y-119100000D01*
X103500000Y-130100000D02*
X103000000Y-130100000D01*
X103500000Y-133100000D02*
X103500000Y-130100000D01*
X108500000Y-130100000D02*
X108500000Y-133100000D01*
X108500000Y-133100000D02*
X103500000Y-133100000D01*
X109000000Y-119100000D02*
X109000000Y-130100000D01*
X109000000Y-130100000D02*
X108500000Y-130100000D01*
%TO.C,VR7*%
X101350000Y-90550000D02*
X112650000Y-90550000D01*
X101350000Y-104027000D02*
X101350000Y-90550000D01*
X112650000Y-90550000D02*
X112650000Y-104027000D01*
X112650000Y-104027000D02*
X101350000Y-104027000D01*
%TO.C,VR4*%
X207350000Y-75122000D02*
X218650000Y-75122000D01*
X207350000Y-88599000D02*
X207350000Y-75122000D01*
X218650000Y-75122000D02*
X218650000Y-88599000D01*
X218650000Y-88599000D02*
X207350000Y-88599000D01*
%TD*%
M02*
