M48
; DRILL file {KiCad 9.0.3} date 2025-08-06T15:24:11+0200
; FORMAT={-:-/ absolute / metric / decimal}
; #@! TF.CreationDate,2025-08-06T15:24:11+02:00
; #@! TF.GenerationSoftware,Kicad,Pcbnew,9.0.3
; #@! TF.FileFunction,Plated,1,2,PTH
FMAT,2
METRIC
; #@! TA.AperFunction,Plated,PTH,ComponentDrill
T1C0.200
; #@! TA.AperFunction,Plated,PTH,ViaDrill
T2C0.300
; #@! TA.AperFunction,Plated,PTH,ComponentDrill
T3C0.300
; #@! TA.AperFunction,Plated,PTH,ViaDrill
T4C0.400
; #@! TA.AperFunction,Plated,PTH,ComponentDrill
T5C0.500
; #@! TA.AperFunction,Plated,PTH,ComponentDrill
T6C1.100
; #@! TA.AperFunction,Plated,PTH,ComponentDrill
T7C1.400
; #@! TA.AperFunction,Plated,PTH,ComponentDrill
T8C1.900
%
G90
G05
T1
X160.025Y-76.84
X160.025Y-78.24
X160.725Y-76.14
X160.725Y-77.54
X160.725Y-78.94
X161.425Y-76.84
X161.425Y-78.24
X162.125Y-76.14
X162.125Y-77.54
X162.125Y-78.94
X162.825Y-76.84
X162.825Y-78.24
T2
X189.94Y-79.365
X189.975Y-83.175
X189.98Y-81.905
X189.985Y-80.635
T3
X142.0Y-57.3
X142.0Y-58.3
X142.0Y-59.3
X158.0Y-50.75
X158.0Y-52.75
X162.0Y-50.75
X162.0Y-52.75
T4
X101.525Y-72.525
X102.0Y-62.675
X102.0Y-90.45
X111.125Y-63.4
X111.35Y-91.4
X112.275Y-124.05
X112.525Y-128.0
X113.25Y-75.45
X113.475Y-98.4
X122.45Y-117.0
X124.525Y-55.25
X125.85Y-52.75
X133.45Y-124.35
X135.0Y-63.95
X135.0Y-78.722
X135.475Y-55.225
X137.4Y-66.55
X137.725Y-85.6
X138.3Y-125.475
X139.644Y-76.819
X139.985Y-80.635
X139.995Y-81.905
X140.0Y-79.375
X140.0Y-83.175
X145.85Y-69.075
X147.6Y-124.0
X148.94Y-85.26
X149.55Y-64.9
X152.725Y-62.525
X153.075Y-69.55
X154.305Y-51.37
X154.345Y-55.57
X155.48Y-66.005
X156.75Y-66.025
X157.5Y-63.1
X158.02Y-66.045
X158.475Y-117.0
X159.0Y-60.925
X159.29Y-69.99
X159.875Y-53.85
X160.56Y-69.985
X160.625Y-124.025
X161.83Y-69.98
X163.1Y-69.975
X163.155Y-59.82
X164.37Y-69.995
X164.5Y-61.8
X165.8Y-55.575
X165.825Y-51.375
X167.525Y-59.925
X167.525Y-61.425
X167.55Y-52.75
X169.975Y-123.95
X170.86Y-85.26
X171.525Y-81.7
X173.775Y-59.925
X174.625Y-55.225
X180.725Y-117.0
X182.975Y-124.0
X185.425Y-55.25
X190.0Y-52.75
X191.75Y-75.55
X194.6Y-55.25
X205.4Y-55.25
X206.475Y-82.925
X206.5Y-108.625
X209.55Y-52.75
X212.5Y-70.85
X215.5Y-74.375
X215.5Y-99.5
X216.025Y-60.0
X217.275Y-101.6
X218.0Y-126.025
T6
X104.5Y-63.4
X104.5Y-91.4
X107.0Y-63.4
X107.0Y-91.4
X109.5Y-63.4
X109.5Y-91.4
X116.05Y-117.0
X118.55Y-117.0
X121.05Y-117.0
X127.75Y-52.75
X132.25Y-52.75
X151.62Y-117.0
X154.12Y-117.0
X156.62Y-117.0
X174.0Y-117.0
X176.5Y-117.0
X177.75Y-52.75
X179.0Y-117.0
X182.25Y-52.75
X197.75Y-52.75
X202.25Y-52.75
X210.5Y-75.972
X210.5Y-101.6
X213.0Y-75.972
X213.0Y-101.6
X215.5Y-75.972
X215.5Y-101.6
T7
X126.4Y-55.25
X133.6Y-55.25
X176.4Y-55.25
X183.6Y-55.25
X196.4Y-55.25
X203.6Y-55.25
T5
G00X155.67Y-51.77
M15
G01X155.67Y-50.97
M16
G05
G00X155.67Y-56.12
M15
G01X155.67Y-55.02
M16
G05
G00X164.33Y-51.77
M15
G01X164.33Y-50.97
M16
G05
G00X164.33Y-56.12
M15
G01X164.33Y-55.02
M16
G05
T8
G00X102.6Y-70.25
M15
G01X102.6Y-70.55
M16
G05
G00X102.6Y-98.25
M15
G01X102.6Y-98.55
M16
G05
G00X111.4Y-70.25
M15
G01X111.4Y-70.55
M16
G05
G00X111.4Y-98.25
M15
G01X111.4Y-98.55
M16
G05
G00X114.15Y-123.85
M15
G01X114.15Y-124.15
M16
G05
G00X122.95Y-123.85
M15
G01X122.95Y-124.15
M16
G05
G00X149.72Y-123.85
M15
G01X149.72Y-124.15
M16
G05
G00X158.52Y-123.85
M15
G01X158.52Y-124.15
M16
G05
G00X172.1Y-123.85
M15
G01X172.1Y-124.15
M16
G05
G00X180.9Y-123.85
M15
G01X180.9Y-124.15
M16
G05
G00X208.6Y-82.822
M15
G01X208.6Y-83.122
M16
G05
G00X208.6Y-108.45
M15
G01X208.6Y-108.75
M16
G05
G00X217.4Y-82.822
M15
G01X217.4Y-83.122
M16
G05
G00X217.4Y-108.45
M15
G01X217.4Y-108.75
M16
G05
M30
