%TF.GenerationSoftware,KiCad,Pcbnew,(6.0.4)*%
%TF.CreationDate,2022-10-21T11:56:49+02:00*%
%TF.ProjectId,Spikeling_V2.2c,5370696b-656c-4696-9e67-5f56322e3263,rev?*%
%TF.SameCoordinates,Original*%
%TF.FileFunction,Copper,L1,Top*%
%TF.FilePolarity,Positive*%
%FSLAX46Y46*%
G04 Gerber Fmt 4.6, Leading zero omitted, Abs format (unit mm)*
G04 Created by KiCad (PCBNEW (6.0.4)) date 2022-10-21 11:56:49*
%MOMM*%
%LPD*%
G01*
G04 APERTURE LIST*
G04 Aperture macros list*
%AMRoundRect*
0 Rectangle with rounded corners*
0 $1 Rounding radius*
0 $2 $3 $4 $5 $6 $7 $8 $9 X,Y pos of 4 corners*
0 Add a 4 corners polygon primitive as box body*
4,1,4,$2,$3,$4,$5,$6,$7,$8,$9,$2,$3,0*
0 Add four circle primitives for the rounded corners*
1,1,$1+$1,$2,$3*
1,1,$1+$1,$4,$5*
1,1,$1+$1,$6,$7*
1,1,$1+$1,$8,$9*
0 Add four rect primitives between the rounded corners*
20,1,$1+$1,$2,$3,$4,$5,0*
20,1,$1+$1,$4,$5,$6,$7,0*
20,1,$1+$1,$6,$7,$8,$9,0*
20,1,$1+$1,$8,$9,$2,$3,0*%
G04 Aperture macros list end*
%TA.AperFunction,ComponentPad*%
%ADD10O,1.800000X1.070000*%
%TD*%
%TA.AperFunction,ComponentPad*%
%ADD11R,1.800000X1.070000*%
%TD*%
%TA.AperFunction,ComponentPad*%
%ADD12C,5.600000*%
%TD*%
%TA.AperFunction,ComponentPad*%
%ADD13R,1.800000X1.800000*%
%TD*%
%TA.AperFunction,ComponentPad*%
%ADD14C,1.800000*%
%TD*%
%TA.AperFunction,ComponentPad*%
%ADD15C,1.600000*%
%TD*%
%TA.AperFunction,ComponentPad*%
%ADD16O,1.600000X1.600000*%
%TD*%
%TA.AperFunction,ComponentPad*%
%ADD17R,1.600000X1.600000*%
%TD*%
%TA.AperFunction,ComponentPad*%
%ADD18RoundRect,0.750000X-0.750000X1.250000X-0.750000X-1.250000X0.750000X-1.250000X0.750000X1.250000X0*%
%TD*%
%TA.AperFunction,ComponentPad*%
%ADD19C,1.300000*%
%TD*%
%TA.AperFunction,ComponentPad*%
%ADD20RoundRect,0.200000X0.550000X0.200000X-0.550000X0.200000X-0.550000X-0.200000X0.550000X-0.200000X0*%
%TD*%
%TA.AperFunction,ComponentPad*%
%ADD21RoundRect,0.200000X-0.200000X0.550000X-0.200000X-0.550000X0.200000X-0.550000X0.200000X0.550000X0*%
%TD*%
%TA.AperFunction,ComponentPad*%
%ADD22RoundRect,0.200000X-0.550000X-0.200000X0.550000X-0.200000X0.550000X0.200000X-0.550000X0.200000X0*%
%TD*%
%TA.AperFunction,ComponentPad*%
%ADD23RoundRect,0.200000X0.200000X-0.550000X0.200000X0.550000X-0.200000X0.550000X-0.200000X-0.550000X0*%
%TD*%
%TA.AperFunction,ComponentPad*%
%ADD24R,1.200000X1.200000*%
%TD*%
%TA.AperFunction,ComponentPad*%
%ADD25C,1.200000*%
%TD*%
%TA.AperFunction,ComponentPad*%
%ADD26C,2.100000*%
%TD*%
%TA.AperFunction,ComponentPad*%
%ADD27C,1.750000*%
%TD*%
%TA.AperFunction,ComponentPad*%
%ADD28R,2.000000X2.000000*%
%TD*%
%TA.AperFunction,ComponentPad*%
%ADD29C,2.000000*%
%TD*%
%TA.AperFunction,ComponentPad*%
%ADD30R,1.560000X1.560000*%
%TD*%
%TA.AperFunction,ComponentPad*%
%ADD31C,1.560000*%
%TD*%
%TA.AperFunction,ViaPad*%
%ADD32C,0.800000*%
%TD*%
%TA.AperFunction,Conductor*%
%ADD33C,0.250000*%
%TD*%
G04 APERTURE END LIST*
D10*
%TO.P,D14,1,RA*%
%TO.N,/27*%
X177000000Y-62230000D03*
D11*
%TO.P,D14,2,K*%
%TO.N,Net-(R4-Pad2)*%
X177000000Y-63500000D03*
D10*
%TO.P,D14,3,GA*%
%TO.N,/14*%
X177000000Y-60960000D03*
%TO.P,D14,4,BA*%
%TO.N,/12*%
X177000000Y-59690000D03*
%TD*%
D12*
%TO.P, ,1*%
%TO.N,N/C*%
X120000000Y-55000000D03*
%TD*%
D13*
%TO.P,D7,1,K*%
%TO.N,Net-(R8-Pad2)*%
X190000000Y-76779000D03*
D14*
%TO.P,D7,2,A*%
%TO.N,Net-(R9-Pad2)*%
X192540000Y-76779000D03*
%TD*%
D13*
%TO.P,D2,1,K*%
%TO.N,Net-(R7-Pad2)*%
X190000000Y-114504000D03*
D14*
%TO.P,D2,2,A*%
%TO.N,Net-(R6-Pad2)*%
X192540000Y-114504000D03*
%TD*%
D15*
%TO.P,R5,1*%
%TO.N,/39*%
X186660000Y-98100000D03*
D16*
%TO.P,R5,2*%
%TO.N,GNDREF*%
X176500000Y-98100000D03*
%TD*%
D17*
%TO.P,U3,1,CH0*%
%TO.N,/200*%
X130500000Y-89125000D03*
D16*
%TO.P,U3,2,CH1*%
%TO.N,/201*%
X130500000Y-91665000D03*
%TO.P,U3,3,CH2*%
%TO.N,/202*%
X130500000Y-94205000D03*
%TO.P,U3,4,CH3*%
%TO.N,/203*%
X130500000Y-96745000D03*
%TO.P,U3,5,CH4*%
%TO.N,/204*%
X130500000Y-99285000D03*
%TO.P,U3,6,CH5*%
%TO.N,/205*%
X130500000Y-101825000D03*
%TO.P,U3,7,CH6*%
%TO.N,/206*%
X130500000Y-104365000D03*
%TO.P,U3,8,CH7*%
%TO.N,/207*%
X130500000Y-106905000D03*
%TO.P,U3,9,DGND*%
%TO.N,GNDREF*%
X138120000Y-106905000D03*
%TO.P,U3,10,~{CS}/SHDN*%
%TO.N,/04*%
X138120000Y-104365000D03*
%TO.P,U3,11,Din*%
%TO.N,/32*%
X138120000Y-101825000D03*
%TO.P,U3,12,Dout*%
%TO.N,/33*%
X138120000Y-99285000D03*
%TO.P,U3,13,CLK*%
%TO.N,/18*%
X138120000Y-96745000D03*
%TO.P,U3,14,AGND*%
%TO.N,GNDREF*%
X138120000Y-94205000D03*
%TO.P,U3,15,Vref*%
%TO.N,VCC*%
X138120000Y-91665000D03*
%TO.P,U3,16,Vdd*%
X138120000Y-89125000D03*
%TD*%
D13*
%TO.P,RV6,1,1*%
%TO.N,GNDREF*%
X215500000Y-101500000D03*
D14*
%TO.P,RV6,2,2*%
%TO.N,/104*%
X213000000Y-101500000D03*
%TO.P,RV6,3,3*%
%TO.N,VCC*%
X210500000Y-101500000D03*
D18*
%TO.P,RV6,MP*%
%TO.N,N/C*%
X208600000Y-108500000D03*
X217400000Y-108500000D03*
%TD*%
D13*
%TO.P,RV4,1,1*%
%TO.N,GNDREF*%
X179000000Y-116900000D03*
D14*
%TO.P,RV4,2,2*%
%TO.N,/106*%
X176500000Y-116900000D03*
%TO.P,RV4,3,3*%
%TO.N,VCC*%
X174000000Y-116900000D03*
D18*
%TO.P,RV4,MP*%
%TO.N,N/C*%
X180900000Y-123900000D03*
X172100000Y-123900000D03*
%TD*%
D19*
%TO.P,J2,*%
%TO.N,*%
X101882500Y-51100000D03*
X104382500Y-51100000D03*
X109382500Y-56100000D03*
X101882500Y-61100000D03*
X104382500Y-61100000D03*
D20*
%TO.P,J2,R*%
%TO.N,/200*%
X109382500Y-61100000D03*
D21*
%TO.P,J2,S*%
%TO.N,GNDREF*%
X104382500Y-56100000D03*
D20*
%TO.P,J2,T*%
%TO.N,/35*%
X109382500Y-51100000D03*
%TD*%
D19*
%TO.P,J1,*%
%TO.N,*%
X215600000Y-59000000D03*
X215600000Y-69000000D03*
X218100000Y-59000000D03*
X210600000Y-64000000D03*
X218100000Y-69000000D03*
D22*
%TO.P,J1,R*%
%TO.N,Net-(R1-Pad2)*%
X210600000Y-59000000D03*
D23*
%TO.P,J1,S*%
%TO.N,GNDREF*%
X215600000Y-64000000D03*
D22*
%TO.P,J1,T*%
%TO.N,/15*%
X210600000Y-69000000D03*
%TD*%
D13*
%TO.P,RV1,1,1*%
%TO.N,GNDREF*%
X109500000Y-63300000D03*
D14*
%TO.P,RV1,2,2*%
%TO.N,/101*%
X107000000Y-63300000D03*
%TO.P,RV1,3,3*%
%TO.N,VCC*%
X104500000Y-63300000D03*
D18*
%TO.P,RV1,MP*%
%TO.N,N/C*%
X102600000Y-70300000D03*
X111400000Y-70300000D03*
%TD*%
D13*
%TO.P,D4,1,K*%
%TO.N,Net-(R8-Pad2)*%
X190000000Y-99414000D03*
D14*
%TO.P,D4,2,A*%
%TO.N,Net-(R7-Pad2)*%
X192540000Y-99414000D03*
%TD*%
D13*
%TO.P,RV3,1,1*%
%TO.N,GNDREF*%
X121100000Y-116900000D03*
D14*
%TO.P,RV3,2,2*%
%TO.N,/100*%
X118600000Y-116900000D03*
%TO.P,RV3,3,3*%
%TO.N,VCC*%
X116100000Y-116900000D03*
D18*
%TO.P,RV3,MP*%
%TO.N,N/C*%
X123000000Y-123900000D03*
X114200000Y-123900000D03*
%TD*%
D15*
%TO.P,R3,1*%
%TO.N,/22*%
X176600000Y-102600000D03*
D16*
%TO.P,R3,2*%
%TO.N,Net-(R3-Pad2)*%
X186760000Y-102600000D03*
%TD*%
D12*
%TO.P, ,1*%
%TO.N,N/C*%
X204000000Y-55000000D03*
%TD*%
D17*
%TO.P,U2,1,CH0*%
%TO.N,/100*%
X130500000Y-65000000D03*
D16*
%TO.P,U2,2,CH1*%
%TO.N,/101*%
X130500000Y-67540000D03*
%TO.P,U2,3,CH2*%
%TO.N,/102*%
X130500000Y-70080000D03*
%TO.P,U2,4,CH3*%
%TO.N,/103*%
X130500000Y-72620000D03*
%TO.P,U2,5,CH4*%
%TO.N,/104*%
X130500000Y-75160000D03*
%TO.P,U2,6,CH5*%
%TO.N,/105*%
X130500000Y-77700000D03*
%TO.P,U2,7,CH6*%
%TO.N,/106*%
X130500000Y-80240000D03*
%TO.P,U2,8,CH7*%
%TO.N,/107*%
X130500000Y-82780000D03*
%TO.P,U2,9,DGND*%
%TO.N,GNDREF*%
X138120000Y-82780000D03*
%TO.P,U2,10,~{CS}/SHDN*%
%TO.N,/00*%
X138120000Y-80240000D03*
%TO.P,U2,11,Din*%
%TO.N,/32*%
X138120000Y-77700000D03*
%TO.P,U2,12,Dout*%
%TO.N,/33*%
X138120000Y-75160000D03*
%TO.P,U2,13,CLK*%
%TO.N,/18*%
X138120000Y-72620000D03*
%TO.P,U2,14,AGND*%
%TO.N,GNDREF*%
X138120000Y-70080000D03*
%TO.P,U2,15,Vref*%
%TO.N,VCC*%
X138120000Y-67540000D03*
%TO.P,U2,16,Vdd*%
X138120000Y-65000000D03*
%TD*%
D24*
%TO.P,C2,1*%
%TO.N,GNDREF*%
X143472600Y-91750000D03*
D25*
%TO.P,C2,2*%
%TO.N,VCC*%
X141472600Y-91750000D03*
%TD*%
D19*
%TO.P,J5,*%
%TO.N,*%
X219000000Y-125617500D03*
X219000000Y-128117500D03*
X209000000Y-128117500D03*
X214000000Y-120617500D03*
X209000000Y-125617500D03*
D21*
%TO.P,J5,R*%
%TO.N,/26*%
X219000000Y-120617500D03*
D22*
%TO.P,J5,S*%
%TO.N,GNDREF*%
X214000000Y-125617500D03*
D21*
%TO.P,J5,T*%
%TO.N,Net-(R3-Pad2)*%
X209000000Y-120617500D03*
%TD*%
D26*
%TO.P,SW2,*%
%TO.N,*%
X137760000Y-56930000D03*
X130750000Y-56930000D03*
D27*
%TO.P,SW2,1,1*%
%TO.N,GNDREF*%
X132000000Y-54440000D03*
%TO.P,SW2,2,2*%
%TO.N,Net-(SW2-Pad2)*%
X136500000Y-54440000D03*
%TD*%
D13*
%TO.P,D11,1,K*%
%TO.N,Net-(R7-Pad2)*%
X196000000Y-91869000D03*
D14*
%TO.P,D11,2,A*%
%TO.N,Net-(R9-Pad2)*%
X198540000Y-91869000D03*
%TD*%
D13*
%TO.P,D9,1,K*%
%TO.N,Net-(R6-Pad2)*%
X196000000Y-106959000D03*
D14*
%TO.P,D9,2,A*%
%TO.N,Net-(R8-Pad2)*%
X198540000Y-106959000D03*
%TD*%
D24*
%TO.P,C1,1*%
%TO.N,GNDREF*%
X143472600Y-67500000D03*
D25*
%TO.P,C1,2*%
%TO.N,VCC*%
X141472600Y-67500000D03*
%TD*%
D15*
%TO.P,R9,1*%
%TO.N,/21*%
X176500000Y-93600000D03*
D16*
%TO.P,R9,2*%
%TO.N,Net-(R9-Pad2)*%
X186660000Y-93600000D03*
%TD*%
D13*
%TO.P,D13,1,K*%
%TO.N,Net-(R6-Pad2)*%
X196000000Y-76779000D03*
D14*
%TO.P,D13,2,A*%
%TO.N,Net-(R9-Pad2)*%
X198540000Y-76779000D03*
%TD*%
D13*
%TO.P,D12,1,K*%
%TO.N,Net-(R9-Pad2)*%
X196000000Y-84324000D03*
D14*
%TO.P,D12,2,A*%
%TO.N,Net-(R6-Pad2)*%
X198540000Y-84324000D03*
%TD*%
D13*
%TO.P,D10,1,K*%
%TO.N,Net-(R9-Pad2)*%
X196000000Y-99414000D03*
D14*
%TO.P,D10,2,A*%
%TO.N,Net-(R7-Pad2)*%
X198540000Y-99414000D03*
%TD*%
D15*
%TO.P,R1,1*%
%TO.N,/25*%
X194720000Y-67300000D03*
D16*
%TO.P,R1,2*%
%TO.N,Net-(R1-Pad2)*%
X204880000Y-67300000D03*
%TD*%
D13*
%TO.P,D1,1,K*%
%TO.N,GNDREF*%
X138688000Y-124400000D03*
D14*
%TO.P,D1,2,A*%
%TO.N,/202*%
X141228000Y-124400000D03*
%TD*%
D13*
%TO.P,RV7,1,1*%
%TO.N,GNDREF*%
X215500000Y-75872000D03*
D14*
%TO.P,RV7,2,2*%
%TO.N,/105*%
X213000000Y-75872000D03*
%TO.P,RV7,3,3*%
%TO.N,VCC*%
X210500000Y-75872000D03*
D18*
%TO.P,RV7,MP*%
%TO.N,N/C*%
X208600000Y-82872000D03*
X217400000Y-82872000D03*
%TD*%
D13*
%TO.P,RV2,1,1*%
%TO.N,GNDREF*%
X109500000Y-91300000D03*
D14*
%TO.P,RV2,2,2*%
%TO.N,/102*%
X107000000Y-91300000D03*
%TO.P,RV2,3,3*%
%TO.N,VCC*%
X104500000Y-91300000D03*
D18*
%TO.P,RV2,MP*%
%TO.N,N/C*%
X111400000Y-98300000D03*
X102600000Y-98300000D03*
%TD*%
D19*
%TO.P,e,*%
%TO.N,*%
X104382500Y-79000000D03*
X101882500Y-89000000D03*
X101882500Y-79000000D03*
X109382500Y-84000000D03*
X104382500Y-89000000D03*
D20*
%TO.P,e,R*%
%TO.N,/201*%
X109382500Y-89000000D03*
D21*
%TO.P,e,S*%
%TO.N,GNDREF*%
X104382500Y-84000000D03*
D20*
%TO.P,e,T*%
%TO.N,/34*%
X109382500Y-79000000D03*
%TD*%
D13*
%TO.P,D3,1,K*%
%TO.N,Net-(R6-Pad2)*%
X190000000Y-106959000D03*
D14*
%TO.P,D3,2,A*%
%TO.N,Net-(R7-Pad2)*%
X192540000Y-106959000D03*
%TD*%
D12*
%TO.P, ,1*%
%TO.N,N/C*%
X204000000Y-112000000D03*
%TD*%
D13*
%TO.P,D5,1,K*%
%TO.N,Net-(R7-Pad2)*%
X190000000Y-91869000D03*
D14*
%TO.P,D5,2,A*%
%TO.N,Net-(R8-Pad2)*%
X192540000Y-91869000D03*
%TD*%
D19*
%TO.P,J4,*%
%TO.N,*%
X101000000Y-128117500D03*
X111000000Y-125617500D03*
X101000000Y-125617500D03*
X111000000Y-128117500D03*
X106000000Y-120617500D03*
D21*
%TO.P,J4,R*%
%TO.N,/203*%
X111000000Y-120617500D03*
D22*
%TO.P,J4,S*%
%TO.N,GNDREF*%
X106000000Y-125617500D03*
D21*
%TO.P,J4,T*%
%TO.N,unconnected-(J4-PadT)*%
X101000000Y-120617500D03*
%TD*%
D15*
%TO.P,R8,1*%
%TO.N,/19*%
X176500000Y-89100000D03*
D16*
%TO.P,R8,2*%
%TO.N,Net-(R8-Pad2)*%
X186660000Y-89100000D03*
%TD*%
D15*
%TO.P,R2,1*%
%TO.N,/202*%
X176600000Y-107100000D03*
D16*
%TO.P,R2,2*%
%TO.N,GNDREF*%
X186760000Y-107100000D03*
%TD*%
D13*
%TO.P,RV5,1,1*%
%TO.N,GNDREF*%
X156619000Y-116900000D03*
D14*
%TO.P,RV5,2,2*%
%TO.N,/103*%
X154119000Y-116900000D03*
%TO.P,RV5,3,3*%
%TO.N,VCC*%
X151619000Y-116900000D03*
D18*
%TO.P,RV5,MP*%
%TO.N,N/C*%
X149719000Y-123900000D03*
X158519000Y-123900000D03*
%TD*%
D15*
%TO.P,C3,1*%
%TO.N,Net-(R1-Pad2)*%
X204860000Y-61350000D03*
%TO.P,C3,2*%
%TO.N,GNDREF*%
X194830000Y-61350000D03*
%TD*%
%TO.P,R7,1*%
%TO.N,/05*%
X176500000Y-84600000D03*
D16*
%TO.P,R7,2*%
%TO.N,Net-(R7-Pad2)*%
X186660000Y-84600000D03*
%TD*%
D15*
%TO.P,R4,1*%
%TO.N,GNDREF*%
X186680000Y-75600000D03*
D16*
%TO.P,R4,2*%
%TO.N,Net-(R4-Pad2)*%
X176520000Y-75600000D03*
%TD*%
D28*
%TO.P,BZ1,1,-*%
%TO.N,/13*%
X186500000Y-58000000D03*
D29*
%TO.P,BZ1,2,+*%
%TO.N,GNDREF*%
X186500000Y-65000000D03*
%TD*%
D12*
%TO.P, ,1*%
%TO.N,N/C*%
X120000000Y-112000000D03*
%TD*%
D15*
%TO.P,R6,1*%
%TO.N,/02*%
X176500000Y-80100000D03*
D16*
%TO.P,R6,2*%
%TO.N,Net-(R6-Pad2)*%
X186660000Y-80100000D03*
%TD*%
D29*
%TO.P,SW1,1,1*%
%TO.N,/39*%
X190860000Y-119250000D03*
X197360000Y-119250000D03*
%TO.P,SW1,2,2*%
%TO.N,VCC*%
X197360000Y-123750000D03*
X190860000Y-123750000D03*
%TD*%
D30*
%TO.P,U1,1,3V3*%
%TO.N,+3V3*%
X172450000Y-100760000D03*
D31*
%TO.P,U1,2,EN*%
%TO.N,Net-(SW2-Pad2)*%
X172450000Y-98220000D03*
%TO.P,U1,3,SENSOR_VP*%
%TO.N,unconnected-(U1-Pad3)*%
X172450000Y-95680000D03*
%TO.P,U1,4,SENSOR_VN*%
%TO.N,/39*%
X172450000Y-93140000D03*
%TO.P,U1,5,IO34*%
%TO.N,/34*%
X172450000Y-90600000D03*
%TO.P,U1,6,IO35*%
%TO.N,/35*%
X172450000Y-88060000D03*
%TO.P,U1,7,IO32*%
%TO.N,/32*%
X172450000Y-85520000D03*
%TO.P,U1,8,IO33*%
%TO.N,/33*%
X172450000Y-82980000D03*
%TO.P,U1,9,IO25*%
%TO.N,/25*%
X172450000Y-80440000D03*
%TO.P,U1,10,IO26*%
%TO.N,/26*%
X172450000Y-77900000D03*
%TO.P,U1,11,IO27*%
%TO.N,/27*%
X172450000Y-75360000D03*
%TO.P,U1,12,IO14*%
%TO.N,/14*%
X172450000Y-72820000D03*
%TO.P,U1,13,IO12*%
%TO.N,/12*%
X172450000Y-70280000D03*
%TO.P,U1,14,GND1*%
%TO.N,GNDREF*%
X172450000Y-67740000D03*
%TO.P,U1,15,IO13*%
%TO.N,/13*%
X172450000Y-65200000D03*
%TO.P,U1,16,SD2*%
%TO.N,unconnected-(U1-Pad16)*%
X172450000Y-62660000D03*
%TO.P,U1,17,SD3*%
%TO.N,unconnected-(U1-Pad17)*%
X172450000Y-60120000D03*
%TO.P,U1,18,CMD*%
%TO.N,unconnected-(U1-Pad18)*%
X172450000Y-57580000D03*
%TO.P,U1,19,EXT_5V*%
%TO.N,VCC*%
X172450000Y-55040000D03*
%TO.P,U1,20,GND3*%
%TO.N,GNDREF*%
X147050000Y-100760000D03*
%TO.P,U1,21,IO23*%
%TO.N,/23*%
X147050000Y-98220000D03*
%TO.P,U1,22,IO22*%
%TO.N,/22*%
X147050000Y-95680000D03*
%TO.P,U1,23,TXD0*%
%TO.N,unconnected-(U1-Pad23)*%
X147050000Y-93140000D03*
%TO.P,U1,24,RXD0*%
%TO.N,unconnected-(U1-Pad24)*%
X147050000Y-90600000D03*
%TO.P,U1,25,IO21*%
%TO.N,/21*%
X147050000Y-88060000D03*
%TO.P,U1,26,GND2*%
%TO.N,GNDREF*%
X147050000Y-85520000D03*
%TO.P,U1,27,IO19*%
%TO.N,/19*%
X147050000Y-82980000D03*
%TO.P,U1,28,IO18*%
%TO.N,/18*%
X147050000Y-80440000D03*
%TO.P,U1,29,IO5*%
%TO.N,/05*%
X147050000Y-77900000D03*
%TO.P,U1,30,IO17*%
%TO.N,/17*%
X147050000Y-75360000D03*
%TO.P,U1,31,IO16*%
%TO.N,/16*%
X147050000Y-72820000D03*
%TO.P,U1,32,IO4*%
%TO.N,/04*%
X147050000Y-70280000D03*
%TO.P,U1,33,IO0*%
%TO.N,/00*%
X147050000Y-67740000D03*
%TO.P,U1,34,IO2*%
%TO.N,/02*%
X147050000Y-65200000D03*
%TO.P,U1,35,IO15*%
%TO.N,/15*%
X147050000Y-62660000D03*
%TO.P,U1,36,SD1*%
%TO.N,unconnected-(U1-Pad36)*%
X147050000Y-60120000D03*
%TO.P,U1,37,SD0*%
%TO.N,unconnected-(U1-Pad37)*%
X147050000Y-57580000D03*
%TO.P,U1,38,CLK*%
%TO.N,unconnected-(U1-Pad38)*%
X147050000Y-55040000D03*
%TD*%
D13*
%TO.P,D8,1,K*%
%TO.N,Net-(R8-Pad2)*%
X196000000Y-114504000D03*
D14*
%TO.P,D8,2,A*%
%TO.N,Net-(R6-Pad2)*%
X198540000Y-114504000D03*
%TD*%
D13*
%TO.P,D6,1,K*%
%TO.N,Net-(R9-Pad2)*%
X190000000Y-84324000D03*
D14*
%TO.P,D6,2,A*%
%TO.N,Net-(R8-Pad2)*%
X192540000Y-84324000D03*
%TD*%
D32*
%TO.N,/34*%
X136550000Y-110950000D03*
%TO.N,/35*%
X136550000Y-109950000D03*
%TO.N,/22*%
X168250000Y-102600000D03*
%TO.N,/21*%
X167804511Y-91704511D03*
%TO.N,/15*%
X175400000Y-72600000D03*
X169744511Y-74255489D03*
%TO.N,VCC*%
X167900000Y-53000000D03*
%TO.N,/202*%
X132200000Y-120600000D03*
X132200000Y-115400000D03*
X169550000Y-121550000D03*
%TO.N,/203*%
X114900000Y-110900000D03*
%TO.N,/103*%
X134480000Y-76600000D03*
%TO.N,/105*%
X132950000Y-122550000D03*
X132950000Y-117000000D03*
X132950000Y-80150000D03*
%TO.N,/104*%
X133700000Y-78350000D03*
X133700000Y-118350000D03*
X133700000Y-120600000D03*
%TO.N,/201*%
X114965000Y-91665000D03*
%TO.N,/33*%
X145000000Y-76750000D03*
%TO.N,/18*%
X142800000Y-72650000D03*
%TO.N,/04*%
X140195489Y-71204511D03*
%TO.N,/100*%
X115850000Y-72150000D03*
%TO.N,Net-(SW2-Pad2)*%
X160474511Y-52275489D03*
%TD*%
D33*
%TO.N,/27*%
X180400000Y-53700000D02*
X180400000Y-59140544D01*
X178500000Y-51800000D02*
X180400000Y-53700000D01*
X172450000Y-75360000D02*
X168300000Y-71210000D01*
X177310544Y-62230000D02*
X177000000Y-62230000D01*
X172450000Y-75360000D02*
X172450000Y-74879700D01*
X168300000Y-54600000D02*
X171100000Y-51800000D01*
X176600000Y-62140000D02*
X177750000Y-62140000D01*
X180400000Y-59140544D02*
X177310544Y-62230000D01*
X168300000Y-71210000D02*
X168300000Y-54600000D01*
X171100000Y-51800000D02*
X178500000Y-51800000D01*
%TO.N,/26*%
X216200000Y-73000000D02*
X217600000Y-74400000D01*
X219000000Y-115050000D02*
X214800000Y-110850000D01*
X219000000Y-120617500D02*
X219000000Y-115050000D01*
X214800000Y-106300000D02*
X218100000Y-103000000D01*
X217600000Y-76900000D02*
X217600000Y-74400000D01*
X180750000Y-77900000D02*
X185650000Y-73000000D01*
X218100000Y-99800000D02*
X214100000Y-95800000D01*
X214100000Y-80400000D02*
X217600000Y-76900000D01*
X214100000Y-95800000D02*
X214100000Y-80400000D01*
X185650000Y-73000000D02*
X216200000Y-73000000D01*
X218100000Y-103000000D02*
X218100000Y-99800000D01*
X172450000Y-77900000D02*
X180750000Y-77900000D01*
X214800000Y-110850000D02*
X214800000Y-106300000D01*
%TO.N,/34*%
X172450000Y-90600000D02*
X170550000Y-92500000D01*
X170550000Y-92500000D02*
X170550000Y-107800000D01*
X136550000Y-110950000D02*
X136500000Y-110950000D01*
X167400000Y-110950000D02*
X136550000Y-110950000D01*
X170550000Y-107800000D02*
X167400000Y-110950000D01*
%TO.N,/35*%
X169350000Y-91160000D02*
X169350000Y-107600000D01*
X167000000Y-109950000D02*
X136550000Y-109950000D01*
X169350000Y-107600000D02*
X167000000Y-109950000D01*
X172450000Y-88060000D02*
X169350000Y-91160000D01*
%TO.N,/25*%
X174450000Y-71550000D02*
X178700000Y-67300000D01*
X172450000Y-80440000D02*
X171200000Y-79190000D01*
X172237984Y-76550000D02*
X173900000Y-76550000D01*
X171200000Y-79190000D02*
X171200000Y-77587984D01*
X171200000Y-77587984D02*
X172237984Y-76550000D01*
X173900000Y-76550000D02*
X174450000Y-76000000D01*
X178700000Y-67300000D02*
X194720000Y-67300000D01*
X174450000Y-76000000D02*
X174450000Y-71550000D01*
%TO.N,/14*%
X168749520Y-69119520D02*
X172450000Y-72820000D01*
X179950480Y-53886198D02*
X179950480Y-58320064D01*
X179950480Y-53886198D02*
X178313802Y-52249520D01*
X171286198Y-52249520D02*
X168749520Y-54786198D01*
X168749520Y-54786198D02*
X168749520Y-69119520D01*
X179950480Y-58320064D02*
X177310544Y-60960000D01*
X177310544Y-60960000D02*
X177000000Y-60960000D01*
X178313802Y-52249520D02*
X171286198Y-52249520D01*
%TO.N,/12*%
X177000000Y-59690000D02*
X179500000Y-57190000D01*
X169300000Y-67130000D02*
X172450000Y-70280000D01*
X178127604Y-52699040D02*
X171472396Y-52699040D01*
X179500000Y-57190000D02*
X179500000Y-54071436D01*
X171472396Y-52699040D02*
X169300000Y-54871436D01*
X179500000Y-54071436D02*
X178127604Y-52699040D01*
X169300000Y-54871436D02*
X169300000Y-67130000D01*
%TO.N,/13*%
X181500000Y-65200000D02*
X186500000Y-60200000D01*
X172450000Y-65200000D02*
X172450000Y-64800000D01*
X172450000Y-65200000D02*
X181500000Y-65200000D01*
X186500000Y-58000000D02*
X186500000Y-60200000D01*
%TO.N,/22*%
X147050000Y-95680000D02*
X153970000Y-102600000D01*
X153970000Y-102600000D02*
X168250000Y-102600000D01*
%TO.N,/21*%
X150694511Y-91704511D02*
X147050000Y-88060000D01*
X167804511Y-91704511D02*
X150694511Y-91704511D01*
%TO.N,/19*%
X150694511Y-86624511D02*
X147050000Y-82980000D01*
X176500000Y-89100000D02*
X174024511Y-86624511D01*
X174024511Y-86624511D02*
X150694511Y-86624511D01*
%TO.N,/05*%
X153565489Y-84415489D02*
X147050000Y-77900000D01*
X176315489Y-84415489D02*
X153565489Y-84415489D01*
X176500000Y-84600000D02*
X176315489Y-84415489D01*
%TO.N,/02*%
X163725489Y-81875489D02*
X147050000Y-65200000D01*
X176500000Y-80100000D02*
X174724511Y-81875489D01*
X174724511Y-81875489D02*
X163725489Y-81875489D01*
%TO.N,/15*%
X158645489Y-74255489D02*
X169744511Y-74255489D01*
X179000000Y-69000000D02*
X175400000Y-72600000D01*
X211600000Y-69000000D02*
X179000000Y-69000000D01*
X147050000Y-62660000D02*
X158645489Y-74255489D01*
%TO.N,Net-(R1-Pad2)*%
X211600000Y-59000000D02*
X209250000Y-61350000D01*
X204880000Y-61370000D02*
X204860000Y-61350000D01*
X204880000Y-67300000D02*
X204880000Y-61370000D01*
X209250000Y-61350000D02*
X204860000Y-61350000D01*
%TO.N,Net-(R7-Pad2)*%
X190000000Y-87940000D02*
X190000000Y-91869000D01*
X186660000Y-84600000D02*
X189880000Y-87820000D01*
X192540000Y-106959000D02*
X192540000Y-111964000D01*
X189880000Y-87820000D02*
X190000000Y-87940000D01*
X196000000Y-91869000D02*
X191951000Y-87820000D01*
X196000000Y-96874000D02*
X198540000Y-99414000D01*
X192540000Y-111964000D02*
X190000000Y-114504000D01*
X190000000Y-91869000D02*
X190000000Y-96874000D01*
X190000000Y-96874000D02*
X192540000Y-99414000D01*
X192540000Y-99414000D02*
X192540000Y-106959000D01*
X196000000Y-91869000D02*
X196000000Y-96874000D01*
X191951000Y-87820000D02*
X189880000Y-87820000D01*
%TO.N,Net-(R6-Pad2)*%
X186660000Y-80100000D02*
X192679000Y-80100000D01*
X192679000Y-80100000D02*
X196000000Y-76779000D01*
X198540000Y-84324000D02*
X194316000Y-80100000D01*
X196000000Y-110850000D02*
X196000000Y-106959000D01*
X196000000Y-106959000D02*
X196000000Y-104750000D01*
X196000000Y-111964000D02*
X196000000Y-110850000D01*
X196000000Y-104750000D02*
X200400000Y-100350000D01*
X198540000Y-114504000D02*
X196000000Y-111964000D01*
X200400000Y-100350000D02*
X200400000Y-86184000D01*
X189250000Y-116750000D02*
X190294000Y-116750000D01*
X190294000Y-116750000D02*
X192540000Y-114504000D01*
X188100000Y-108859000D02*
X188100000Y-115600000D01*
X188100000Y-115600000D02*
X189250000Y-116750000D01*
X200400000Y-86184000D02*
X198540000Y-84324000D01*
X190000000Y-106959000D02*
X188100000Y-108859000D01*
X196000000Y-111044000D02*
X196000000Y-110850000D01*
X192540000Y-114504000D02*
X196000000Y-111044000D01*
X194316000Y-80100000D02*
X192679000Y-80100000D01*
%TO.N,Net-(R8-Pad2)*%
X196000000Y-114504000D02*
X197896000Y-116400000D01*
X200200000Y-108619000D02*
X198540000Y-106959000D01*
X196000000Y-114504000D02*
X196004000Y-114504000D01*
X200200000Y-115600000D02*
X200200000Y-108619000D01*
X199400000Y-116400000D02*
X200200000Y-115600000D01*
X197896000Y-116400000D02*
X199400000Y-116400000D01*
%TO.N,Net-(R9-Pad2)*%
X185750000Y-82450000D02*
X188126000Y-82450000D01*
X196000000Y-89329000D02*
X198540000Y-91869000D01*
X196000000Y-84324000D02*
X196000000Y-89329000D01*
X195511000Y-73750000D02*
X189511000Y-73750000D01*
X186000000Y-73750000D02*
X189511000Y-73750000D01*
X184700000Y-83500000D02*
X184700000Y-75050000D01*
X194126000Y-82450000D02*
X188126000Y-82450000D01*
X186660000Y-93600000D02*
X184700000Y-91640000D01*
X184700000Y-91640000D02*
X184700000Y-83500000D01*
X188126000Y-82450000D02*
X190000000Y-84324000D01*
X189511000Y-73750000D02*
X192540000Y-76779000D01*
X184700000Y-75050000D02*
X186000000Y-73750000D01*
X184700000Y-83500000D02*
X185750000Y-82450000D01*
X198540000Y-76779000D02*
X195511000Y-73750000D01*
X196000000Y-84324000D02*
X194126000Y-82450000D01*
%TO.N,Net-(R4-Pad2)*%
X176600000Y-63410000D02*
X177750000Y-63410000D01*
%TO.N,/39*%
X184650000Y-100110000D02*
X184650000Y-113040000D01*
X172450000Y-93140000D02*
X175210000Y-95900000D01*
X186660000Y-98100000D02*
X184650000Y-100110000D01*
X190860000Y-119250000D02*
X197360000Y-119250000D01*
X175210000Y-95900000D02*
X184460000Y-95900000D01*
X184650000Y-113040000D02*
X190860000Y-119250000D01*
X184460000Y-95900000D02*
X186660000Y-98100000D01*
%TO.N,VCC*%
X156649982Y-53000000D02*
X164550000Y-53000000D01*
X156374991Y-52725009D02*
X156649982Y-53000000D01*
X186860000Y-119750000D02*
X176850000Y-119750000D01*
X104500000Y-63300000D02*
X100650000Y-67150000D01*
X138120000Y-89125000D02*
X138120000Y-91665000D01*
X210149040Y-123350960D02*
X197759040Y-123350960D01*
X156350000Y-53000000D02*
X156350000Y-52750000D01*
X102740678Y-91300000D02*
X104500000Y-91300000D01*
X144650000Y-53000000D02*
X156350000Y-53000000D01*
X197759040Y-123350960D02*
X197360000Y-123750000D01*
X154469000Y-119750000D02*
X171150000Y-119750000D01*
X116100000Y-116900000D02*
X100650000Y-101450000D01*
X171150000Y-119750000D02*
X174000000Y-116900000D01*
X141472600Y-57277400D02*
X141472600Y-56177400D01*
X138600000Y-60150000D02*
X141472600Y-57277400D01*
X164550000Y-53000000D02*
X164700000Y-53000000D01*
X138120000Y-67540000D02*
X141432600Y-67540000D01*
X141472600Y-67500000D02*
X141472600Y-56177400D01*
X148769000Y-119750000D02*
X151619000Y-116900000D01*
X100650000Y-67150000D02*
X100650000Y-89209322D01*
X100650000Y-89209322D02*
X102740678Y-91300000D01*
X100650000Y-101450000D02*
X100650000Y-89209322D01*
X210500000Y-101500000D02*
X210500000Y-123000000D01*
X156350000Y-53000000D02*
X167900000Y-53000000D01*
X107650000Y-60150000D02*
X138600000Y-60150000D01*
X176850000Y-119750000D02*
X174000000Y-116900000D01*
X104500000Y-63300000D02*
X107650000Y-60150000D01*
X138120000Y-91665000D02*
X141387600Y-91665000D01*
X141432600Y-67540000D02*
X141472600Y-67500000D01*
X190860000Y-123750000D02*
X197360000Y-123750000D01*
X210500000Y-75872000D02*
X210500000Y-101500000D01*
X156350000Y-52750000D02*
X156374991Y-52725009D01*
X190860000Y-123750000D02*
X186860000Y-119750000D01*
X116100000Y-116900000D02*
X118950000Y-119750000D01*
X141387600Y-91665000D02*
X141472600Y-91750000D01*
X210500000Y-123000000D02*
X210149040Y-123350960D01*
X138120000Y-65000000D02*
X138120000Y-67540000D01*
X118950000Y-119750000D02*
X148769000Y-119750000D01*
X141472600Y-56177400D02*
X144650000Y-53000000D01*
X151619000Y-116900000D02*
X154469000Y-119750000D01*
X141472600Y-67500000D02*
X141472600Y-91750000D01*
%TO.N,/202*%
X132200000Y-125250000D02*
X133950000Y-127000000D01*
X144078000Y-121550000D02*
X141228000Y-124400000D01*
X169550000Y-121550000D02*
X144078000Y-121550000D01*
X132200000Y-95905000D02*
X132200000Y-115400000D01*
X138628000Y-127000000D02*
X141228000Y-124400000D01*
X133950000Y-127000000D02*
X138628000Y-127000000D01*
X130500000Y-94205000D02*
X132200000Y-95905000D01*
X132200000Y-120600000D02*
X132200000Y-125250000D01*
%TO.N,/203*%
X130500000Y-96745000D02*
X117855000Y-96745000D01*
X114900000Y-99700000D02*
X114900000Y-110900000D01*
X117855000Y-96745000D02*
X114900000Y-99700000D01*
%TO.N,/103*%
X154119000Y-116900000D02*
X152269000Y-115050000D01*
X152269000Y-115050000D02*
X138550000Y-115050000D01*
X134480000Y-110980000D02*
X134575000Y-111075000D01*
X138550000Y-115050000D02*
X134575000Y-111075000D01*
X134480000Y-76600000D02*
X134480000Y-110980000D01*
%TO.N,/105*%
X217300000Y-102550000D02*
X217300000Y-100350000D01*
X213000000Y-96050000D02*
X213000000Y-75872000D01*
X134750000Y-120750000D02*
X184400000Y-120750000D01*
X132950000Y-122550000D02*
X134750000Y-120750000D01*
X210585717Y-124250000D02*
X211550000Y-123285717D01*
X200100000Y-124250000D02*
X210585717Y-124250000D01*
X132950000Y-80150000D02*
X132950000Y-117000000D01*
X184400000Y-120750000D02*
X189750000Y-126100000D01*
X189750000Y-126100000D02*
X198250000Y-126100000D01*
X211550000Y-108300000D02*
X217300000Y-102550000D01*
X217300000Y-100350000D02*
X213000000Y-96050000D01*
X211550000Y-123285717D02*
X211550000Y-108300000D01*
X198250000Y-126100000D02*
X200100000Y-124250000D01*
%TO.N,/104*%
X133700000Y-120600000D02*
X134100480Y-120199520D01*
X210949520Y-103550480D02*
X210949520Y-123250480D01*
X210949520Y-123250480D02*
X210399520Y-123800480D01*
X134100480Y-120199520D02*
X184749520Y-120199520D01*
X198150000Y-125500000D02*
X190050000Y-125500000D01*
X133700000Y-78350000D02*
X133700000Y-118350000D01*
X190050000Y-125500000D02*
X184749520Y-120199520D01*
X213000000Y-101500000D02*
X210949520Y-103550480D01*
X198150000Y-125500000D02*
X199849520Y-123800480D01*
X210399520Y-123800480D02*
X199849520Y-123800480D01*
%TO.N,/101*%
X111240000Y-67540000D02*
X130500000Y-67540000D01*
X107000000Y-63300000D02*
X111240000Y-67540000D01*
%TO.N,/102*%
X107000000Y-91300000D02*
X107000000Y-78890717D01*
X115810717Y-70080000D02*
X130500000Y-70080000D01*
X107000000Y-78890717D02*
X115810717Y-70080000D01*
%TO.N,/200*%
X132000000Y-63250000D02*
X129850000Y-61100000D01*
X109382500Y-61100000D02*
X129850000Y-61100000D01*
X130500000Y-89125000D02*
X132000000Y-87625000D01*
X132000000Y-87625000D02*
X132000000Y-63250000D01*
%TO.N,/201*%
X130500000Y-91665000D02*
X114965000Y-91665000D01*
%TO.N,/32*%
X138120000Y-101825000D02*
X136250000Y-99955000D01*
X136250000Y-99955000D02*
X136250000Y-79570000D01*
X136250000Y-79570000D02*
X138120000Y-77700000D01*
%TO.N,/33*%
X139700000Y-76800000D02*
X139700000Y-84950000D01*
X138120000Y-75160000D02*
X139700000Y-76740000D01*
X153692016Y-82980000D02*
X147462016Y-76750000D01*
X147462016Y-76750000D02*
X145000000Y-76750000D01*
X139700000Y-84950000D02*
X136700000Y-87950000D01*
X136700000Y-87950000D02*
X136700000Y-97865000D01*
X139700000Y-76740000D02*
X139700000Y-76800000D01*
X136700000Y-97865000D02*
X138120000Y-99285000D01*
X172450000Y-82980000D02*
X153692016Y-82980000D01*
%TO.N,/18*%
X142800000Y-76190000D02*
X142800000Y-72650000D01*
X147050000Y-80440000D02*
X142800000Y-76190000D01*
X144700000Y-93000000D02*
X144700000Y-82790000D01*
X144700000Y-82790000D02*
X147050000Y-80440000D01*
X138120000Y-96745000D02*
X140955000Y-96745000D01*
X140955000Y-96745000D02*
X144700000Y-93000000D01*
%TO.N,/04*%
X135400000Y-101645000D02*
X135400000Y-73749700D01*
X135400000Y-73749700D02*
X137945189Y-71204511D01*
X137945189Y-71204511D02*
X140195489Y-71204511D01*
X138120000Y-104365000D02*
X135400000Y-101645000D01*
%TO.N,/100*%
X113600000Y-74400000D02*
X115850000Y-72150000D01*
X113600000Y-111900000D02*
X113600000Y-74400000D01*
X118600000Y-116900000D02*
X113600000Y-111900000D01*
%TO.N,Net-(SW2-Pad2)*%
X142110000Y-54440000D02*
X136500000Y-54440000D01*
X160474511Y-52275489D02*
X144274511Y-52275489D01*
X144274511Y-52275489D02*
X142110000Y-54440000D01*
%TD*%
M02*
