%TF.GenerationSoftware,KiCad,Pcbnew,(6.0.4)*%
%TF.CreationDate,2022-10-21T11:56:49+02:00*%
%TF.ProjectId,Spikeling_V2.2c,5370696b-656c-4696-9e67-5f56322e3263,rev?*%
%TF.SameCoordinates,Original*%
%TF.FileFunction,AssemblyDrawing,Top*%
%FSLAX46Y46*%
G04 Gerber Fmt 4.6, Leading zero omitted, Abs format (unit mm)*
G04 Created by KiCad (PCBNEW (6.0.4)) date 2022-10-21 11:56:49*
%MOMM*%
%LPD*%
G01*
G04 APERTURE LIST*
%ADD10C,0.100000*%
%ADD11C,0.150000*%
%ADD12C,0.120000*%
%ADD13C,0.127000*%
%ADD14C,0.280000*%
G04 APERTURE END LIST*
D10*
%TO.C,D14*%
X176089285Y-65889285D02*
X176089285Y-65139285D01*
X176267857Y-65139285D01*
X176375000Y-65175000D01*
X176446428Y-65246428D01*
X176482142Y-65317857D01*
X176517857Y-65460714D01*
X176517857Y-65567857D01*
X176482142Y-65710714D01*
X176446428Y-65782142D01*
X176375000Y-65853571D01*
X176267857Y-65889285D01*
X176089285Y-65889285D01*
X177232142Y-65889285D02*
X176803571Y-65889285D01*
X177017857Y-65889285D02*
X177017857Y-65139285D01*
X176946428Y-65246428D01*
X176875000Y-65317857D01*
X176803571Y-65353571D01*
X177875000Y-65389285D02*
X177875000Y-65889285D01*
X177696428Y-65103571D02*
X177517857Y-65639285D01*
X177982142Y-65639285D01*
D11*
%TO.C, *%
X106023809Y-59252380D02*
X106023809Y-58252380D01*
X106357142Y-58966666D01*
X106690476Y-58252380D01*
X106690476Y-59252380D01*
X107309523Y-59252380D02*
X107214285Y-59204761D01*
X107166666Y-59157142D01*
X107119047Y-59061904D01*
X107119047Y-58776190D01*
X107166666Y-58680952D01*
X107214285Y-58633333D01*
X107309523Y-58585714D01*
X107452380Y-58585714D01*
X107547619Y-58633333D01*
X107595238Y-58680952D01*
X107642857Y-58776190D01*
X107642857Y-59061904D01*
X107595238Y-59157142D01*
X107547619Y-59204761D01*
X107452380Y-59252380D01*
X107309523Y-59252380D01*
X108500000Y-58585714D02*
X108500000Y-59252380D01*
X108071428Y-58585714D02*
X108071428Y-59109523D01*
X108119047Y-59204761D01*
X108214285Y-59252380D01*
X108357142Y-59252380D01*
X108452380Y-59204761D01*
X108500000Y-59157142D01*
X108976190Y-58585714D02*
X108976190Y-59252380D01*
X108976190Y-58680952D02*
X109023809Y-58633333D01*
X109119047Y-58585714D01*
X109261904Y-58585714D01*
X109357142Y-58633333D01*
X109404761Y-58728571D01*
X109404761Y-59252380D01*
X109738095Y-58585714D02*
X110119047Y-58585714D01*
X109880952Y-58252380D02*
X109880952Y-59109523D01*
X109928571Y-59204761D01*
X110023809Y-59252380D01*
X110119047Y-59252380D01*
X110452380Y-59252380D02*
X110452380Y-58585714D01*
X110452380Y-58252380D02*
X110404761Y-58300000D01*
X110452380Y-58347619D01*
X110500000Y-58300000D01*
X110452380Y-58252380D01*
X110452380Y-58347619D01*
X110928571Y-58585714D02*
X110928571Y-59252380D01*
X110928571Y-58680952D02*
X110976190Y-58633333D01*
X111071428Y-58585714D01*
X111214285Y-58585714D01*
X111309523Y-58633333D01*
X111357142Y-58728571D01*
X111357142Y-59252380D01*
X112261904Y-58585714D02*
X112261904Y-59395238D01*
X112214285Y-59490476D01*
X112166666Y-59538095D01*
X112071428Y-59585714D01*
X111928571Y-59585714D01*
X111833333Y-59538095D01*
X112261904Y-59204761D02*
X112166666Y-59252380D01*
X111976190Y-59252380D01*
X111880952Y-59204761D01*
X111833333Y-59157142D01*
X111785714Y-59061904D01*
X111785714Y-58776190D01*
X111833333Y-58680952D01*
X111880952Y-58633333D01*
X111976190Y-58585714D01*
X112166666Y-58585714D01*
X112261904Y-58633333D01*
X112738095Y-59252380D02*
X112738095Y-58252380D01*
X112738095Y-58728571D02*
X113309523Y-58728571D01*
X113309523Y-59252380D02*
X113309523Y-58252380D01*
X113928571Y-59252380D02*
X113833333Y-59204761D01*
X113785714Y-59157142D01*
X113738095Y-59061904D01*
X113738095Y-58776190D01*
X113785714Y-58680952D01*
X113833333Y-58633333D01*
X113928571Y-58585714D01*
X114071428Y-58585714D01*
X114166666Y-58633333D01*
X114214285Y-58680952D01*
X114261904Y-58776190D01*
X114261904Y-59061904D01*
X114214285Y-59157142D01*
X114166666Y-59204761D01*
X114071428Y-59252380D01*
X113928571Y-59252380D01*
X114833333Y-59252380D02*
X114738095Y-59204761D01*
X114690476Y-59109523D01*
X114690476Y-58252380D01*
X115595238Y-59204761D02*
X115500000Y-59252380D01*
X115309523Y-59252380D01*
X115214285Y-59204761D01*
X115166666Y-59109523D01*
X115166666Y-58728571D01*
X115214285Y-58633333D01*
X115309523Y-58585714D01*
X115500000Y-58585714D01*
X115595238Y-58633333D01*
X115642857Y-58728571D01*
X115642857Y-58823809D01*
X115166666Y-58919047D01*
X115833333Y-59347619D02*
X116595238Y-59347619D01*
X116738095Y-58252380D02*
X117357142Y-58252380D01*
X117023809Y-58633333D01*
X117166666Y-58633333D01*
X117261904Y-58680952D01*
X117309523Y-58728571D01*
X117357142Y-58823809D01*
X117357142Y-59061904D01*
X117309523Y-59157142D01*
X117261904Y-59204761D01*
X117166666Y-59252380D01*
X116880952Y-59252380D01*
X116785714Y-59204761D01*
X116738095Y-59157142D01*
X117785714Y-59157142D02*
X117833333Y-59204761D01*
X117785714Y-59252380D01*
X117738095Y-59204761D01*
X117785714Y-59157142D01*
X117785714Y-59252380D01*
X118214285Y-58347619D02*
X118261904Y-58300000D01*
X118357142Y-58252380D01*
X118595238Y-58252380D01*
X118690476Y-58300000D01*
X118738095Y-58347619D01*
X118785714Y-58442857D01*
X118785714Y-58538095D01*
X118738095Y-58680952D01*
X118166666Y-59252380D01*
X118785714Y-59252380D01*
X119214285Y-59252380D02*
X119214285Y-58585714D01*
X119214285Y-58680952D02*
X119261904Y-58633333D01*
X119357142Y-58585714D01*
X119500000Y-58585714D01*
X119595238Y-58633333D01*
X119642857Y-58728571D01*
X119642857Y-59252380D01*
X119642857Y-58728571D02*
X119690476Y-58633333D01*
X119785714Y-58585714D01*
X119928571Y-58585714D01*
X120023809Y-58633333D01*
X120071428Y-58728571D01*
X120071428Y-59252380D01*
X120547619Y-59252380D02*
X120547619Y-58585714D01*
X120547619Y-58680952D02*
X120595238Y-58633333D01*
X120690476Y-58585714D01*
X120833333Y-58585714D01*
X120928571Y-58633333D01*
X120976190Y-58728571D01*
X120976190Y-59252380D01*
X120976190Y-58728571D02*
X121023809Y-58633333D01*
X121119047Y-58585714D01*
X121261904Y-58585714D01*
X121357142Y-58633333D01*
X121404761Y-58728571D01*
X121404761Y-59252380D01*
X121642857Y-59347619D02*
X122404761Y-59347619D01*
X122642857Y-59252380D02*
X122642857Y-58252380D01*
X122976190Y-58966666D01*
X123309523Y-58252380D01*
X123309523Y-59252380D01*
X123690476Y-58252380D02*
X124309523Y-58252380D01*
X123976190Y-58633333D01*
X124119047Y-58633333D01*
X124214285Y-58680952D01*
X124261904Y-58728571D01*
X124309523Y-58823809D01*
X124309523Y-59061904D01*
X124261904Y-59157142D01*
X124214285Y-59204761D01*
X124119047Y-59252380D01*
X123833333Y-59252380D01*
X123738095Y-59204761D01*
X123690476Y-59157142D01*
X124500000Y-59347619D02*
X125261904Y-59347619D01*
X125500000Y-59252380D02*
X125500000Y-58252380D01*
X125738095Y-58252380D01*
X125880952Y-58300000D01*
X125976190Y-58395238D01*
X126023809Y-58490476D01*
X126071428Y-58680952D01*
X126071428Y-58823809D01*
X126023809Y-59014285D01*
X125976190Y-59109523D01*
X125880952Y-59204761D01*
X125738095Y-59252380D01*
X125500000Y-59252380D01*
X126500000Y-59252380D02*
X126500000Y-58252380D01*
X126976190Y-59252380D02*
X126976190Y-58252380D01*
X127547619Y-59252380D01*
X127547619Y-58252380D01*
X128071428Y-59252380D02*
X128261904Y-59252380D01*
X128357142Y-59204761D01*
X128404761Y-59157142D01*
X128500000Y-59014285D01*
X128547619Y-58823809D01*
X128547619Y-58442857D01*
X128500000Y-58347619D01*
X128452380Y-58300000D01*
X128357142Y-58252380D01*
X128166666Y-58252380D01*
X128071428Y-58300000D01*
X128023809Y-58347619D01*
X127976190Y-58442857D01*
X127976190Y-58680952D01*
X128023809Y-58776190D01*
X128071428Y-58823809D01*
X128166666Y-58871428D01*
X128357142Y-58871428D01*
X128452380Y-58823809D01*
X128500000Y-58776190D01*
X128547619Y-58680952D01*
X129404761Y-58252380D02*
X129214285Y-58252380D01*
X129119047Y-58300000D01*
X129071428Y-58347619D01*
X128976190Y-58490476D01*
X128928571Y-58680952D01*
X128928571Y-59061904D01*
X128976190Y-59157142D01*
X129023809Y-59204761D01*
X129119047Y-59252380D01*
X129309523Y-59252380D01*
X129404761Y-59204761D01*
X129452380Y-59157142D01*
X129500000Y-59061904D01*
X129500000Y-58823809D01*
X129452380Y-58728571D01*
X129404761Y-58680952D01*
X129309523Y-58633333D01*
X129119047Y-58633333D01*
X129023809Y-58680952D01*
X128976190Y-58728571D01*
X128928571Y-58823809D01*
X130404761Y-58252380D02*
X129928571Y-58252380D01*
X129880952Y-58728571D01*
X129928571Y-58680952D01*
X130023809Y-58633333D01*
X130261904Y-58633333D01*
X130357142Y-58680952D01*
X130404761Y-58728571D01*
X130452380Y-58823809D01*
X130452380Y-59061904D01*
X130404761Y-59157142D01*
X130357142Y-59204761D01*
X130261904Y-59252380D01*
X130023809Y-59252380D01*
X129928571Y-59204761D01*
X129880952Y-59157142D01*
X130642857Y-59347619D02*
X131404761Y-59347619D01*
X131642857Y-59252380D02*
X131642857Y-58252380D01*
X132023809Y-58252380D01*
X132119047Y-58300000D01*
X132166666Y-58347619D01*
X132214285Y-58442857D01*
X132214285Y-58585714D01*
X132166666Y-58680952D01*
X132119047Y-58728571D01*
X132023809Y-58776190D01*
X131642857Y-58776190D01*
X133071428Y-59252380D02*
X133071428Y-58728571D01*
X133023809Y-58633333D01*
X132928571Y-58585714D01*
X132738095Y-58585714D01*
X132642857Y-58633333D01*
X133071428Y-59204761D02*
X132976190Y-59252380D01*
X132738095Y-59252380D01*
X132642857Y-59204761D01*
X132595238Y-59109523D01*
X132595238Y-59014285D01*
X132642857Y-58919047D01*
X132738095Y-58871428D01*
X132976190Y-58871428D01*
X133071428Y-58823809D01*
X133976190Y-59252380D02*
X133976190Y-58252380D01*
X133976190Y-59204761D02*
X133880952Y-59252380D01*
X133690476Y-59252380D01*
X133595238Y-59204761D01*
X133547619Y-59157142D01*
X133499999Y-59061904D01*
X133499999Y-58776190D01*
X133547619Y-58680952D01*
X133595238Y-58633333D01*
X133690476Y-58585714D01*
X133880952Y-58585714D01*
X133976190Y-58633333D01*
D10*
%TO.C,D7*%
X190716428Y-74158285D02*
X190716428Y-73408285D01*
X190895000Y-73408285D01*
X191002142Y-73444000D01*
X191073571Y-73515428D01*
X191109285Y-73586857D01*
X191145000Y-73729714D01*
X191145000Y-73836857D01*
X191109285Y-73979714D01*
X191073571Y-74051142D01*
X191002142Y-74122571D01*
X190895000Y-74158285D01*
X190716428Y-74158285D01*
X191395000Y-73408285D02*
X191895000Y-73408285D01*
X191573571Y-74158285D01*
%TO.C,D2*%
X190716428Y-111883285D02*
X190716428Y-111133285D01*
X190895000Y-111133285D01*
X191002142Y-111169000D01*
X191073571Y-111240428D01*
X191109285Y-111311857D01*
X191145000Y-111454714D01*
X191145000Y-111561857D01*
X191109285Y-111704714D01*
X191073571Y-111776142D01*
X191002142Y-111847571D01*
X190895000Y-111883285D01*
X190716428Y-111883285D01*
X191430714Y-111204714D02*
X191466428Y-111169000D01*
X191537857Y-111133285D01*
X191716428Y-111133285D01*
X191787857Y-111169000D01*
X191823571Y-111204714D01*
X191859285Y-111276142D01*
X191859285Y-111347571D01*
X191823571Y-111454714D01*
X191395000Y-111883285D01*
X191859285Y-111883285D01*
%TO.C,R5*%
X181455000Y-98439285D02*
X181205000Y-98082142D01*
X181026428Y-98439285D02*
X181026428Y-97689285D01*
X181312142Y-97689285D01*
X181383571Y-97725000D01*
X181419285Y-97760714D01*
X181455000Y-97832142D01*
X181455000Y-97939285D01*
X181419285Y-98010714D01*
X181383571Y-98046428D01*
X181312142Y-98082142D01*
X181026428Y-98082142D01*
X182133571Y-97689285D02*
X181776428Y-97689285D01*
X181740714Y-98046428D01*
X181776428Y-98010714D01*
X181847857Y-97975000D01*
X182026428Y-97975000D01*
X182097857Y-98010714D01*
X182133571Y-98046428D01*
X182169285Y-98117857D01*
X182169285Y-98296428D01*
X182133571Y-98367857D01*
X182097857Y-98403571D01*
X182026428Y-98439285D01*
X181847857Y-98439285D01*
X181776428Y-98403571D01*
X181740714Y-98367857D01*
D11*
X181413333Y-98552380D02*
X181080000Y-98076190D01*
X180841904Y-98552380D02*
X180841904Y-97552380D01*
X181222857Y-97552380D01*
X181318095Y-97600000D01*
X181365714Y-97647619D01*
X181413333Y-97742857D01*
X181413333Y-97885714D01*
X181365714Y-97980952D01*
X181318095Y-98028571D01*
X181222857Y-98076190D01*
X180841904Y-98076190D01*
X182318095Y-97552380D02*
X181841904Y-97552380D01*
X181794285Y-98028571D01*
X181841904Y-97980952D01*
X181937142Y-97933333D01*
X182175238Y-97933333D01*
X182270476Y-97980952D01*
X182318095Y-98028571D01*
X182365714Y-98123809D01*
X182365714Y-98361904D01*
X182318095Y-98457142D01*
X182270476Y-98504761D01*
X182175238Y-98552380D01*
X181937142Y-98552380D01*
X181841904Y-98504761D01*
X181794285Y-98457142D01*
D10*
%TO.C,U3*%
X133738571Y-86384285D02*
X133738571Y-86991428D01*
X133774285Y-87062857D01*
X133810000Y-87098571D01*
X133881428Y-87134285D01*
X134024285Y-87134285D01*
X134095714Y-87098571D01*
X134131428Y-87062857D01*
X134167142Y-86991428D01*
X134167142Y-86384285D01*
X134452857Y-86384285D02*
X134917142Y-86384285D01*
X134667142Y-86670000D01*
X134774285Y-86670000D01*
X134845714Y-86705714D01*
X134881428Y-86741428D01*
X134917142Y-86812857D01*
X134917142Y-86991428D01*
X134881428Y-87062857D01*
X134845714Y-87098571D01*
X134774285Y-87134285D01*
X134560000Y-87134285D01*
X134488571Y-87098571D01*
X134452857Y-87062857D01*
D11*
X133548095Y-97467380D02*
X133548095Y-98276904D01*
X133595714Y-98372142D01*
X133643333Y-98419761D01*
X133738571Y-98467380D01*
X133929047Y-98467380D01*
X134024285Y-98419761D01*
X134071904Y-98372142D01*
X134119523Y-98276904D01*
X134119523Y-97467380D01*
X134500476Y-97467380D02*
X135119523Y-97467380D01*
X134786190Y-97848333D01*
X134929047Y-97848333D01*
X135024285Y-97895952D01*
X135071904Y-97943571D01*
X135119523Y-98038809D01*
X135119523Y-98276904D01*
X135071904Y-98372142D01*
X135024285Y-98419761D01*
X134929047Y-98467380D01*
X134643333Y-98467380D01*
X134548095Y-98419761D01*
X134500476Y-98372142D01*
%TO.C,RV6*%
X212204761Y-117252380D02*
X211871428Y-116776190D01*
X211633333Y-117252380D02*
X211633333Y-116252380D01*
X212014285Y-116252380D01*
X212109523Y-116300000D01*
X212157142Y-116347619D01*
X212204761Y-116442857D01*
X212204761Y-116585714D01*
X212157142Y-116680952D01*
X212109523Y-116728571D01*
X212014285Y-116776190D01*
X211633333Y-116776190D01*
X212490476Y-116252380D02*
X212823809Y-117252380D01*
X213157142Y-116252380D01*
X213919047Y-116252380D02*
X213728571Y-116252380D01*
X213633333Y-116300000D01*
X213585714Y-116347619D01*
X213490476Y-116490476D01*
X213442857Y-116680952D01*
X213442857Y-117061904D01*
X213490476Y-117157142D01*
X213538095Y-117204761D01*
X213633333Y-117252380D01*
X213823809Y-117252380D01*
X213919047Y-117204761D01*
X213966666Y-117157142D01*
X214014285Y-117061904D01*
X214014285Y-116823809D01*
X213966666Y-116728571D01*
X213919047Y-116680952D01*
X213823809Y-116633333D01*
X213633333Y-116633333D01*
X213538095Y-116680952D01*
X213490476Y-116728571D01*
X213442857Y-116823809D01*
X212404761Y-103952380D02*
X212071428Y-103476190D01*
X211833333Y-103952380D02*
X211833333Y-102952380D01*
X212214285Y-102952380D01*
X212309523Y-103000000D01*
X212357142Y-103047619D01*
X212404761Y-103142857D01*
X212404761Y-103285714D01*
X212357142Y-103380952D01*
X212309523Y-103428571D01*
X212214285Y-103476190D01*
X211833333Y-103476190D01*
X212690476Y-102952380D02*
X213023809Y-103952380D01*
X213357142Y-102952380D01*
X214119047Y-102952380D02*
X213928571Y-102952380D01*
X213833333Y-103000000D01*
X213785714Y-103047619D01*
X213690476Y-103190476D01*
X213642857Y-103380952D01*
X213642857Y-103761904D01*
X213690476Y-103857142D01*
X213738095Y-103904761D01*
X213833333Y-103952380D01*
X214023809Y-103952380D01*
X214119047Y-103904761D01*
X214166666Y-103857142D01*
X214214285Y-103761904D01*
X214214285Y-103523809D01*
X214166666Y-103428571D01*
X214119047Y-103380952D01*
X214023809Y-103333333D01*
X213833333Y-103333333D01*
X213738095Y-103380952D01*
X213690476Y-103428571D01*
X213642857Y-103523809D01*
%TO.C,RV4*%
X175904761Y-131602380D02*
X175571428Y-131126190D01*
X175333333Y-131602380D02*
X175333333Y-130602380D01*
X175714285Y-130602380D01*
X175809523Y-130650000D01*
X175857142Y-130697619D01*
X175904761Y-130792857D01*
X175904761Y-130935714D01*
X175857142Y-131030952D01*
X175809523Y-131078571D01*
X175714285Y-131126190D01*
X175333333Y-131126190D01*
X176190476Y-130602380D02*
X176523809Y-131602380D01*
X176857142Y-130602380D01*
X177619047Y-130935714D02*
X177619047Y-131602380D01*
X177380952Y-130554761D02*
X177142857Y-131269047D01*
X177761904Y-131269047D01*
X175904761Y-119352380D02*
X175571428Y-118876190D01*
X175333333Y-119352380D02*
X175333333Y-118352380D01*
X175714285Y-118352380D01*
X175809523Y-118400000D01*
X175857142Y-118447619D01*
X175904761Y-118542857D01*
X175904761Y-118685714D01*
X175857142Y-118780952D01*
X175809523Y-118828571D01*
X175714285Y-118876190D01*
X175333333Y-118876190D01*
X176190476Y-118352380D02*
X176523809Y-119352380D01*
X176857142Y-118352380D01*
X177619047Y-118685714D02*
X177619047Y-119352380D01*
X177380952Y-118304761D02*
X177142857Y-119019047D01*
X177761904Y-119019047D01*
%TO.C,.*%
X153457142Y-124304761D02*
X153600000Y-124352380D01*
X153838095Y-124352380D01*
X153933333Y-124304761D01*
X153980952Y-124257142D01*
X154028571Y-124161904D01*
X154028571Y-124066666D01*
X153980952Y-123971428D01*
X153933333Y-123923809D01*
X153838095Y-123876190D01*
X153647619Y-123828571D01*
X153552380Y-123780952D01*
X153504761Y-123733333D01*
X153457142Y-123638095D01*
X153457142Y-123542857D01*
X153504761Y-123447619D01*
X153552380Y-123400000D01*
X153647619Y-123352380D01*
X153885714Y-123352380D01*
X154028571Y-123400000D01*
X154457142Y-123685714D02*
X154457142Y-124685714D01*
X154457142Y-123733333D02*
X154552380Y-123685714D01*
X154742857Y-123685714D01*
X154838095Y-123733333D01*
X154885714Y-123780952D01*
X154933333Y-123876190D01*
X154933333Y-124161904D01*
X154885714Y-124257142D01*
X154838095Y-124304761D01*
X154742857Y-124352380D01*
X154552380Y-124352380D01*
X154457142Y-124304761D01*
X155361904Y-124352380D02*
X155361904Y-123685714D01*
X155361904Y-123352380D02*
X155314285Y-123400000D01*
X155361904Y-123447619D01*
X155409523Y-123400000D01*
X155361904Y-123352380D01*
X155361904Y-123447619D01*
X155838095Y-124352380D02*
X155838095Y-123352380D01*
X155933333Y-123971428D02*
X156219047Y-124352380D01*
X156219047Y-123685714D02*
X155838095Y-124066666D01*
X157028571Y-124304761D02*
X156933333Y-124352380D01*
X156742857Y-124352380D01*
X156647619Y-124304761D01*
X156600000Y-124209523D01*
X156600000Y-123828571D01*
X156647619Y-123733333D01*
X156742857Y-123685714D01*
X156933333Y-123685714D01*
X157028571Y-123733333D01*
X157076190Y-123828571D01*
X157076190Y-123923809D01*
X156600000Y-124019047D01*
X157647619Y-124352380D02*
X157552380Y-124304761D01*
X157504761Y-124209523D01*
X157504761Y-123352380D01*
X158028571Y-124352380D02*
X158028571Y-123685714D01*
X158028571Y-123352380D02*
X157980952Y-123400000D01*
X158028571Y-123447619D01*
X158076190Y-123400000D01*
X158028571Y-123352380D01*
X158028571Y-123447619D01*
X158504761Y-123685714D02*
X158504761Y-124352380D01*
X158504761Y-123780952D02*
X158552380Y-123733333D01*
X158647619Y-123685714D01*
X158790476Y-123685714D01*
X158885714Y-123733333D01*
X158933333Y-123828571D01*
X158933333Y-124352380D01*
X159838095Y-123685714D02*
X159838095Y-124495238D01*
X159790476Y-124590476D01*
X159742857Y-124638095D01*
X159647619Y-124685714D01*
X159504761Y-124685714D01*
X159409523Y-124638095D01*
X159838095Y-124304761D02*
X159742857Y-124352380D01*
X159552380Y-124352380D01*
X159457142Y-124304761D01*
X159409523Y-124257142D01*
X159361904Y-124161904D01*
X159361904Y-123876190D01*
X159409523Y-123780952D01*
X159457142Y-123733333D01*
X159552380Y-123685714D01*
X159742857Y-123685714D01*
X159838095Y-123733333D01*
X160076190Y-124447619D02*
X160838095Y-124447619D01*
X161076190Y-123685714D02*
X161076190Y-124352380D01*
X161076190Y-123780952D02*
X161123809Y-123733333D01*
X161219047Y-123685714D01*
X161361904Y-123685714D01*
X161457142Y-123733333D01*
X161504761Y-123828571D01*
X161504761Y-124352380D01*
X162361904Y-124304761D02*
X162266666Y-124352380D01*
X162076190Y-124352380D01*
X161980952Y-124304761D01*
X161933333Y-124209523D01*
X161933333Y-123828571D01*
X161980952Y-123733333D01*
X162076190Y-123685714D01*
X162266666Y-123685714D01*
X162361904Y-123733333D01*
X162409523Y-123828571D01*
X162409523Y-123923809D01*
X161933333Y-124019047D01*
X163266666Y-123685714D02*
X163266666Y-124352380D01*
X162838095Y-123685714D02*
X162838095Y-124209523D01*
X162885714Y-124304761D01*
X162980952Y-124352380D01*
X163123809Y-124352380D01*
X163219047Y-124304761D01*
X163266666Y-124257142D01*
X163742857Y-124352380D02*
X163742857Y-123685714D01*
X163742857Y-123876190D02*
X163790476Y-123780952D01*
X163838095Y-123733333D01*
X163933333Y-123685714D01*
X164028571Y-123685714D01*
X164504761Y-124352380D02*
X164409523Y-124304761D01*
X164361904Y-124257142D01*
X164314285Y-124161904D01*
X164314285Y-123876190D01*
X164361904Y-123780952D01*
X164409523Y-123733333D01*
X164504761Y-123685714D01*
X164647619Y-123685714D01*
X164742857Y-123733333D01*
X164790476Y-123780952D01*
X164838095Y-123876190D01*
X164838095Y-124161904D01*
X164790476Y-124257142D01*
X164742857Y-124304761D01*
X164647619Y-124352380D01*
X164504761Y-124352380D01*
X165266666Y-123685714D02*
X165266666Y-124352380D01*
X165266666Y-123780952D02*
X165314285Y-123733333D01*
X165409523Y-123685714D01*
X165552380Y-123685714D01*
X165647619Y-123733333D01*
X165695238Y-123828571D01*
X165695238Y-124352380D01*
%TO.C,J2*%
X117149166Y-60552380D02*
X117149166Y-61266666D01*
X117101547Y-61409523D01*
X117006309Y-61504761D01*
X116863452Y-61552380D01*
X116768214Y-61552380D01*
X117577738Y-60647619D02*
X117625357Y-60600000D01*
X117720595Y-60552380D01*
X117958690Y-60552380D01*
X118053928Y-60600000D01*
X118101547Y-60647619D01*
X118149166Y-60742857D01*
X118149166Y-60838095D01*
X118101547Y-60980952D01*
X117530119Y-61552380D01*
X118149166Y-61552380D01*
X112034880Y-56433333D02*
X112749166Y-56433333D01*
X112892023Y-56480952D01*
X112987261Y-56576190D01*
X113034880Y-56719047D01*
X113034880Y-56814285D01*
X112130119Y-56004761D02*
X112082500Y-55957142D01*
X112034880Y-55861904D01*
X112034880Y-55623809D01*
X112082500Y-55528571D01*
X112130119Y-55480952D01*
X112225357Y-55433333D01*
X112320595Y-55433333D01*
X112463452Y-55480952D01*
X113034880Y-56052380D01*
X113034880Y-55433333D01*
%TO.C,J1*%
X213766666Y-56452380D02*
X213766666Y-57166666D01*
X213719047Y-57309523D01*
X213623809Y-57404761D01*
X213480952Y-57452380D01*
X213385714Y-57452380D01*
X214766666Y-57452380D02*
X214195238Y-57452380D01*
X214480952Y-57452380D02*
X214480952Y-56452380D01*
X214385714Y-56595238D01*
X214290476Y-56690476D01*
X214195238Y-56738095D01*
X206852380Y-64333333D02*
X207566666Y-64333333D01*
X207709523Y-64380952D01*
X207804761Y-64476190D01*
X207852380Y-64619047D01*
X207852380Y-64714285D01*
X207852380Y-63333333D02*
X207852380Y-63904761D01*
X207852380Y-63619047D02*
X206852380Y-63619047D01*
X206995238Y-63714285D01*
X207090476Y-63809523D01*
X207138095Y-63904761D01*
%TO.C,RV1*%
X94754761Y-71052380D02*
X94421428Y-70576190D01*
X94183333Y-71052380D02*
X94183333Y-70052380D01*
X94564285Y-70052380D01*
X94659523Y-70100000D01*
X94707142Y-70147619D01*
X94754761Y-70242857D01*
X94754761Y-70385714D01*
X94707142Y-70480952D01*
X94659523Y-70528571D01*
X94564285Y-70576190D01*
X94183333Y-70576190D01*
X95040476Y-70052380D02*
X95373809Y-71052380D01*
X95707142Y-70052380D01*
X96564285Y-71052380D02*
X95992857Y-71052380D01*
X96278571Y-71052380D02*
X96278571Y-70052380D01*
X96183333Y-70195238D01*
X96088095Y-70290476D01*
X95992857Y-70338095D01*
X106404761Y-65752380D02*
X106071428Y-65276190D01*
X105833333Y-65752380D02*
X105833333Y-64752380D01*
X106214285Y-64752380D01*
X106309523Y-64800000D01*
X106357142Y-64847619D01*
X106404761Y-64942857D01*
X106404761Y-65085714D01*
X106357142Y-65180952D01*
X106309523Y-65228571D01*
X106214285Y-65276190D01*
X105833333Y-65276190D01*
X106690476Y-64752380D02*
X107023809Y-65752380D01*
X107357142Y-64752380D01*
X108214285Y-65752380D02*
X107642857Y-65752380D01*
X107928571Y-65752380D02*
X107928571Y-64752380D01*
X107833333Y-64895238D01*
X107738095Y-64990476D01*
X107642857Y-65038095D01*
%TO.C,REF\u002A\u002A*%
X119766666Y-102652380D02*
X119433333Y-102176190D01*
X119195238Y-102652380D02*
X119195238Y-101652380D01*
X119576190Y-101652380D01*
X119671428Y-101700000D01*
X119719047Y-101747619D01*
X119766666Y-101842857D01*
X119766666Y-101985714D01*
X119719047Y-102080952D01*
X119671428Y-102128571D01*
X119576190Y-102176190D01*
X119195238Y-102176190D01*
X120195238Y-102128571D02*
X120528571Y-102128571D01*
X120671428Y-102652380D02*
X120195238Y-102652380D01*
X120195238Y-101652380D01*
X120671428Y-101652380D01*
X121433333Y-102128571D02*
X121100000Y-102128571D01*
X121100000Y-102652380D02*
X121100000Y-101652380D01*
X121576190Y-101652380D01*
X122100000Y-101652380D02*
X122100000Y-101890476D01*
X121861904Y-101795238D02*
X122100000Y-101890476D01*
X122338095Y-101795238D01*
X121957142Y-102080952D02*
X122100000Y-101890476D01*
X122242857Y-102080952D01*
X122861904Y-101652380D02*
X122861904Y-101890476D01*
X122623809Y-101795238D02*
X122861904Y-101890476D01*
X123100000Y-101795238D01*
X122719047Y-102080952D02*
X122861904Y-101890476D01*
X123004761Y-102080952D01*
X119757142Y-108704761D02*
X119900000Y-108752380D01*
X120138095Y-108752380D01*
X120233333Y-108704761D01*
X120280952Y-108657142D01*
X120328571Y-108561904D01*
X120328571Y-108466666D01*
X120280952Y-108371428D01*
X120233333Y-108323809D01*
X120138095Y-108276190D01*
X119947619Y-108228571D01*
X119852380Y-108180952D01*
X119804761Y-108133333D01*
X119757142Y-108038095D01*
X119757142Y-107942857D01*
X119804761Y-107847619D01*
X119852380Y-107800000D01*
X119947619Y-107752380D01*
X120185714Y-107752380D01*
X120328571Y-107800000D01*
X120757142Y-108085714D02*
X120757142Y-109085714D01*
X120757142Y-108133333D02*
X120852380Y-108085714D01*
X121042857Y-108085714D01*
X121138095Y-108133333D01*
X121185714Y-108180952D01*
X121233333Y-108276190D01*
X121233333Y-108561904D01*
X121185714Y-108657142D01*
X121138095Y-108704761D01*
X121042857Y-108752380D01*
X120852380Y-108752380D01*
X120757142Y-108704761D01*
X121661904Y-108752380D02*
X121661904Y-108085714D01*
X121661904Y-107752380D02*
X121614285Y-107800000D01*
X121661904Y-107847619D01*
X121709523Y-107800000D01*
X121661904Y-107752380D01*
X121661904Y-107847619D01*
X122138095Y-108752380D02*
X122138095Y-107752380D01*
X122233333Y-108371428D02*
X122519047Y-108752380D01*
X122519047Y-108085714D02*
X122138095Y-108466666D01*
X123328571Y-108704761D02*
X123233333Y-108752380D01*
X123042857Y-108752380D01*
X122947619Y-108704761D01*
X122900000Y-108609523D01*
X122900000Y-108228571D01*
X122947619Y-108133333D01*
X123042857Y-108085714D01*
X123233333Y-108085714D01*
X123328571Y-108133333D01*
X123376190Y-108228571D01*
X123376190Y-108323809D01*
X122900000Y-108419047D01*
X123947619Y-108752380D02*
X123852380Y-108704761D01*
X123804761Y-108609523D01*
X123804761Y-107752380D01*
X124328571Y-108752380D02*
X124328571Y-108085714D01*
X124328571Y-107752380D02*
X124280952Y-107800000D01*
X124328571Y-107847619D01*
X124376190Y-107800000D01*
X124328571Y-107752380D01*
X124328571Y-107847619D01*
X124804761Y-108085714D02*
X124804761Y-108752380D01*
X124804761Y-108180952D02*
X124852380Y-108133333D01*
X124947619Y-108085714D01*
X125090476Y-108085714D01*
X125185714Y-108133333D01*
X125233333Y-108228571D01*
X125233333Y-108752380D01*
X126138095Y-108085714D02*
X126138095Y-108895238D01*
X126090476Y-108990476D01*
X126042857Y-109038095D01*
X125947619Y-109085714D01*
X125804761Y-109085714D01*
X125709523Y-109038095D01*
X126138095Y-108704761D02*
X126042857Y-108752380D01*
X125852380Y-108752380D01*
X125757142Y-108704761D01*
X125709523Y-108657142D01*
X125661904Y-108561904D01*
X125661904Y-108276190D01*
X125709523Y-108180952D01*
X125757142Y-108133333D01*
X125852380Y-108085714D01*
X126042857Y-108085714D01*
X126138095Y-108133333D01*
X126376190Y-108847619D02*
X127138095Y-108847619D01*
X127376190Y-108085714D02*
X127376190Y-108752380D01*
X127376190Y-108180952D02*
X127423809Y-108133333D01*
X127519047Y-108085714D01*
X127661904Y-108085714D01*
X127757142Y-108133333D01*
X127804761Y-108228571D01*
X127804761Y-108752380D01*
X128661904Y-108704761D02*
X128566666Y-108752380D01*
X128376190Y-108752380D01*
X128280952Y-108704761D01*
X128233333Y-108609523D01*
X128233333Y-108228571D01*
X128280952Y-108133333D01*
X128376190Y-108085714D01*
X128566666Y-108085714D01*
X128661904Y-108133333D01*
X128709523Y-108228571D01*
X128709523Y-108323809D01*
X128233333Y-108419047D01*
X129566666Y-108085714D02*
X129566666Y-108752380D01*
X129138095Y-108085714D02*
X129138095Y-108609523D01*
X129185714Y-108704761D01*
X129280952Y-108752380D01*
X129423809Y-108752380D01*
X129519047Y-108704761D01*
X129566666Y-108657142D01*
X130042857Y-108752380D02*
X130042857Y-108085714D01*
X130042857Y-108276190D02*
X130090476Y-108180952D01*
X130138095Y-108133333D01*
X130233333Y-108085714D01*
X130328571Y-108085714D01*
X130804761Y-108752380D02*
X130709523Y-108704761D01*
X130661904Y-108657142D01*
X130614285Y-108561904D01*
X130614285Y-108276190D01*
X130661904Y-108180952D01*
X130709523Y-108133333D01*
X130804761Y-108085714D01*
X130947619Y-108085714D01*
X131042857Y-108133333D01*
X131090476Y-108180952D01*
X131138095Y-108276190D01*
X131138095Y-108561904D01*
X131090476Y-108657142D01*
X131042857Y-108704761D01*
X130947619Y-108752380D01*
X130804761Y-108752380D01*
X131566666Y-108085714D02*
X131566666Y-108752380D01*
X131566666Y-108180952D02*
X131614285Y-108133333D01*
X131709523Y-108085714D01*
X131852380Y-108085714D01*
X131947619Y-108133333D01*
X131995238Y-108228571D01*
X131995238Y-108752380D01*
D10*
%TO.C,D4*%
X190716428Y-96793285D02*
X190716428Y-96043285D01*
X190895000Y-96043285D01*
X191002142Y-96079000D01*
X191073571Y-96150428D01*
X191109285Y-96221857D01*
X191145000Y-96364714D01*
X191145000Y-96471857D01*
X191109285Y-96614714D01*
X191073571Y-96686142D01*
X191002142Y-96757571D01*
X190895000Y-96793285D01*
X190716428Y-96793285D01*
X191787857Y-96293285D02*
X191787857Y-96793285D01*
X191609285Y-96007571D02*
X191430714Y-96543285D01*
X191895000Y-96543285D01*
D11*
%TO.C,RV3*%
X118004761Y-131602380D02*
X117671428Y-131126190D01*
X117433333Y-131602380D02*
X117433333Y-130602380D01*
X117814285Y-130602380D01*
X117909523Y-130650000D01*
X117957142Y-130697619D01*
X118004761Y-130792857D01*
X118004761Y-130935714D01*
X117957142Y-131030952D01*
X117909523Y-131078571D01*
X117814285Y-131126190D01*
X117433333Y-131126190D01*
X118290476Y-130602380D02*
X118623809Y-131602380D01*
X118957142Y-130602380D01*
X119195238Y-130602380D02*
X119814285Y-130602380D01*
X119480952Y-130983333D01*
X119623809Y-130983333D01*
X119719047Y-131030952D01*
X119766666Y-131078571D01*
X119814285Y-131173809D01*
X119814285Y-131411904D01*
X119766666Y-131507142D01*
X119719047Y-131554761D01*
X119623809Y-131602380D01*
X119338095Y-131602380D01*
X119242857Y-131554761D01*
X119195238Y-131507142D01*
X118004761Y-119352380D02*
X117671428Y-118876190D01*
X117433333Y-119352380D02*
X117433333Y-118352380D01*
X117814285Y-118352380D01*
X117909523Y-118400000D01*
X117957142Y-118447619D01*
X118004761Y-118542857D01*
X118004761Y-118685714D01*
X117957142Y-118780952D01*
X117909523Y-118828571D01*
X117814285Y-118876190D01*
X117433333Y-118876190D01*
X118290476Y-118352380D02*
X118623809Y-119352380D01*
X118957142Y-118352380D01*
X119195238Y-118352380D02*
X119814285Y-118352380D01*
X119480952Y-118733333D01*
X119623809Y-118733333D01*
X119719047Y-118780952D01*
X119766666Y-118828571D01*
X119814285Y-118923809D01*
X119814285Y-119161904D01*
X119766666Y-119257142D01*
X119719047Y-119304761D01*
X119623809Y-119352380D01*
X119338095Y-119352380D01*
X119242857Y-119304761D01*
X119195238Y-119257142D01*
D10*
%TO.C,R3*%
X181555000Y-102939285D02*
X181305000Y-102582142D01*
X181126428Y-102939285D02*
X181126428Y-102189285D01*
X181412142Y-102189285D01*
X181483571Y-102225000D01*
X181519285Y-102260714D01*
X181555000Y-102332142D01*
X181555000Y-102439285D01*
X181519285Y-102510714D01*
X181483571Y-102546428D01*
X181412142Y-102582142D01*
X181126428Y-102582142D01*
X181805000Y-102189285D02*
X182269285Y-102189285D01*
X182019285Y-102475000D01*
X182126428Y-102475000D01*
X182197857Y-102510714D01*
X182233571Y-102546428D01*
X182269285Y-102617857D01*
X182269285Y-102796428D01*
X182233571Y-102867857D01*
X182197857Y-102903571D01*
X182126428Y-102939285D01*
X181912142Y-102939285D01*
X181840714Y-102903571D01*
X181805000Y-102867857D01*
D11*
X181513333Y-103052380D02*
X181180000Y-102576190D01*
X180941904Y-103052380D02*
X180941904Y-102052380D01*
X181322857Y-102052380D01*
X181418095Y-102100000D01*
X181465714Y-102147619D01*
X181513333Y-102242857D01*
X181513333Y-102385714D01*
X181465714Y-102480952D01*
X181418095Y-102528571D01*
X181322857Y-102576190D01*
X180941904Y-102576190D01*
X181846666Y-102052380D02*
X182465714Y-102052380D01*
X182132380Y-102433333D01*
X182275238Y-102433333D01*
X182370476Y-102480952D01*
X182418095Y-102528571D01*
X182465714Y-102623809D01*
X182465714Y-102861904D01*
X182418095Y-102957142D01*
X182370476Y-103004761D01*
X182275238Y-103052380D01*
X181989523Y-103052380D01*
X181894285Y-103004761D01*
X181846666Y-102957142D01*
%TO.C, *%
X197285714Y-51452380D02*
X197285714Y-50452380D01*
X197619047Y-51166666D01*
X197952380Y-50452380D01*
X197952380Y-51452380D01*
X198571428Y-51452380D02*
X198476190Y-51404761D01*
X198428571Y-51357142D01*
X198380952Y-51261904D01*
X198380952Y-50976190D01*
X198428571Y-50880952D01*
X198476190Y-50833333D01*
X198571428Y-50785714D01*
X198714285Y-50785714D01*
X198809523Y-50833333D01*
X198857142Y-50880952D01*
X198904761Y-50976190D01*
X198904761Y-51261904D01*
X198857142Y-51357142D01*
X198809523Y-51404761D01*
X198714285Y-51452380D01*
X198571428Y-51452380D01*
X199761904Y-50785714D02*
X199761904Y-51452380D01*
X199333333Y-50785714D02*
X199333333Y-51309523D01*
X199380952Y-51404761D01*
X199476190Y-51452380D01*
X199619047Y-51452380D01*
X199714285Y-51404761D01*
X199761904Y-51357142D01*
X200238095Y-50785714D02*
X200238095Y-51452380D01*
X200238095Y-50880952D02*
X200285714Y-50833333D01*
X200380952Y-50785714D01*
X200523809Y-50785714D01*
X200619047Y-50833333D01*
X200666666Y-50928571D01*
X200666666Y-51452380D01*
X201000000Y-50785714D02*
X201380952Y-50785714D01*
X201142857Y-50452380D02*
X201142857Y-51309523D01*
X201190476Y-51404761D01*
X201285714Y-51452380D01*
X201380952Y-51452380D01*
X201714285Y-51452380D02*
X201714285Y-50785714D01*
X201714285Y-50452380D02*
X201666666Y-50500000D01*
X201714285Y-50547619D01*
X201761904Y-50500000D01*
X201714285Y-50452380D01*
X201714285Y-50547619D01*
X202190476Y-50785714D02*
X202190476Y-51452380D01*
X202190476Y-50880952D02*
X202238095Y-50833333D01*
X202333333Y-50785714D01*
X202476190Y-50785714D01*
X202571428Y-50833333D01*
X202619047Y-50928571D01*
X202619047Y-51452380D01*
X203523809Y-50785714D02*
X203523809Y-51595238D01*
X203476190Y-51690476D01*
X203428571Y-51738095D01*
X203333333Y-51785714D01*
X203190476Y-51785714D01*
X203095238Y-51738095D01*
X203523809Y-51404761D02*
X203428571Y-51452380D01*
X203238095Y-51452380D01*
X203142857Y-51404761D01*
X203095238Y-51357142D01*
X203047619Y-51261904D01*
X203047619Y-50976190D01*
X203095238Y-50880952D01*
X203142857Y-50833333D01*
X203238095Y-50785714D01*
X203428571Y-50785714D01*
X203523809Y-50833333D01*
X204000000Y-51452380D02*
X204000000Y-50452380D01*
X204000000Y-50928571D02*
X204571428Y-50928571D01*
X204571428Y-51452380D02*
X204571428Y-50452380D01*
X205190476Y-51452380D02*
X205095238Y-51404761D01*
X205047619Y-51357142D01*
X205000000Y-51261904D01*
X205000000Y-50976190D01*
X205047619Y-50880952D01*
X205095238Y-50833333D01*
X205190476Y-50785714D01*
X205333333Y-50785714D01*
X205428571Y-50833333D01*
X205476190Y-50880952D01*
X205523809Y-50976190D01*
X205523809Y-51261904D01*
X205476190Y-51357142D01*
X205428571Y-51404761D01*
X205333333Y-51452380D01*
X205190476Y-51452380D01*
X206095238Y-51452380D02*
X206000000Y-51404761D01*
X205952380Y-51309523D01*
X205952380Y-50452380D01*
X206857142Y-51404761D02*
X206761904Y-51452380D01*
X206571428Y-51452380D01*
X206476190Y-51404761D01*
X206428571Y-51309523D01*
X206428571Y-50928571D01*
X206476190Y-50833333D01*
X206571428Y-50785714D01*
X206761904Y-50785714D01*
X206857142Y-50833333D01*
X206904761Y-50928571D01*
X206904761Y-51023809D01*
X206428571Y-51119047D01*
X207095238Y-51547619D02*
X207857142Y-51547619D01*
X208095238Y-51452380D02*
X208095238Y-50452380D01*
X208428571Y-51166666D01*
X208761904Y-50452380D01*
X208761904Y-51452380D01*
X209142857Y-50452380D02*
X209761904Y-50452380D01*
X209428571Y-50833333D01*
X209571428Y-50833333D01*
X209666666Y-50880952D01*
X209714285Y-50928571D01*
X209761904Y-51023809D01*
X209761904Y-51261904D01*
X209714285Y-51357142D01*
X209666666Y-51404761D01*
X209571428Y-51452380D01*
X209285714Y-51452380D01*
X209190476Y-51404761D01*
X209142857Y-51357142D01*
D10*
%TO.C,U2*%
X133738571Y-62259285D02*
X133738571Y-62866428D01*
X133774285Y-62937857D01*
X133810000Y-62973571D01*
X133881428Y-63009285D01*
X134024285Y-63009285D01*
X134095714Y-62973571D01*
X134131428Y-62937857D01*
X134167142Y-62866428D01*
X134167142Y-62259285D01*
X134488571Y-62330714D02*
X134524285Y-62295000D01*
X134595714Y-62259285D01*
X134774285Y-62259285D01*
X134845714Y-62295000D01*
X134881428Y-62330714D01*
X134917142Y-62402142D01*
X134917142Y-62473571D01*
X134881428Y-62580714D01*
X134452857Y-63009285D01*
X134917142Y-63009285D01*
D11*
X133548095Y-73342380D02*
X133548095Y-74151904D01*
X133595714Y-74247142D01*
X133643333Y-74294761D01*
X133738571Y-74342380D01*
X133929047Y-74342380D01*
X134024285Y-74294761D01*
X134071904Y-74247142D01*
X134119523Y-74151904D01*
X134119523Y-73342380D01*
X134548095Y-73437619D02*
X134595714Y-73390000D01*
X134690952Y-73342380D01*
X134929047Y-73342380D01*
X135024285Y-73390000D01*
X135071904Y-73437619D01*
X135119523Y-73532857D01*
X135119523Y-73628095D01*
X135071904Y-73770952D01*
X134500476Y-74342380D01*
X135119523Y-74342380D01*
D10*
%TO.C,C2*%
X144075000Y-89067857D02*
X144039285Y-89103571D01*
X143932142Y-89139285D01*
X143860714Y-89139285D01*
X143753571Y-89103571D01*
X143682142Y-89032142D01*
X143646428Y-88960714D01*
X143610714Y-88817857D01*
X143610714Y-88710714D01*
X143646428Y-88567857D01*
X143682142Y-88496428D01*
X143753571Y-88425000D01*
X143860714Y-88389285D01*
X143932142Y-88389285D01*
X144039285Y-88425000D01*
X144075000Y-88460714D01*
X144360714Y-88460714D02*
X144396428Y-88425000D01*
X144467857Y-88389285D01*
X144646428Y-88389285D01*
X144717857Y-88425000D01*
X144753571Y-88460714D01*
X144789285Y-88532142D01*
X144789285Y-88603571D01*
X144753571Y-88710714D01*
X144325000Y-89139285D01*
X144789285Y-89139285D01*
D12*
X142339266Y-92035714D02*
X142301171Y-92073809D01*
X142186885Y-92111904D01*
X142110695Y-92111904D01*
X141996409Y-92073809D01*
X141920219Y-91997619D01*
X141882123Y-91921428D01*
X141844028Y-91769047D01*
X141844028Y-91654761D01*
X141882123Y-91502380D01*
X141920219Y-91426190D01*
X141996409Y-91350000D01*
X142110695Y-91311904D01*
X142186885Y-91311904D01*
X142301171Y-91350000D01*
X142339266Y-91388095D01*
X142644028Y-91388095D02*
X142682123Y-91350000D01*
X142758314Y-91311904D01*
X142948790Y-91311904D01*
X143024980Y-91350000D01*
X143063076Y-91388095D01*
X143101171Y-91464285D01*
X143101171Y-91540476D01*
X143063076Y-91654761D01*
X142605933Y-92111904D01*
X143101171Y-92111904D01*
D11*
%TO.C,J5*%
X213816666Y-116752380D02*
X213816666Y-117466666D01*
X213769047Y-117609523D01*
X213673809Y-117704761D01*
X213530952Y-117752380D01*
X213435714Y-117752380D01*
X214769047Y-116752380D02*
X214292857Y-116752380D01*
X214245238Y-117228571D01*
X214292857Y-117180952D01*
X214388095Y-117133333D01*
X214626190Y-117133333D01*
X214721428Y-117180952D01*
X214769047Y-117228571D01*
X214816666Y-117323809D01*
X214816666Y-117561904D01*
X214769047Y-117657142D01*
X214721428Y-117704761D01*
X214626190Y-117752380D01*
X214388095Y-117752380D01*
X214292857Y-117704761D01*
X214245238Y-117657142D01*
X213666666Y-116869880D02*
X213666666Y-117584166D01*
X213619047Y-117727023D01*
X213523809Y-117822261D01*
X213380952Y-117869880D01*
X213285714Y-117869880D01*
X214619047Y-116869880D02*
X214142857Y-116869880D01*
X214095238Y-117346071D01*
X214142857Y-117298452D01*
X214238095Y-117250833D01*
X214476190Y-117250833D01*
X214571428Y-117298452D01*
X214619047Y-117346071D01*
X214666666Y-117441309D01*
X214666666Y-117679404D01*
X214619047Y-117774642D01*
X214571428Y-117822261D01*
X214476190Y-117869880D01*
X214238095Y-117869880D01*
X214142857Y-117822261D01*
X214095238Y-117774642D01*
D10*
%TO.C,SW2*%
X133250000Y-51103571D02*
X133357142Y-51139285D01*
X133535714Y-51139285D01*
X133607142Y-51103571D01*
X133642857Y-51067857D01*
X133678571Y-50996428D01*
X133678571Y-50925000D01*
X133642857Y-50853571D01*
X133607142Y-50817857D01*
X133535714Y-50782142D01*
X133392857Y-50746428D01*
X133321428Y-50710714D01*
X133285714Y-50675000D01*
X133250000Y-50603571D01*
X133250000Y-50532142D01*
X133285714Y-50460714D01*
X133321428Y-50425000D01*
X133392857Y-50389285D01*
X133571428Y-50389285D01*
X133678571Y-50425000D01*
X133928571Y-50389285D02*
X134107142Y-51139285D01*
X134250000Y-50603571D01*
X134392857Y-51139285D01*
X134571428Y-50389285D01*
X134821428Y-50460714D02*
X134857142Y-50425000D01*
X134928571Y-50389285D01*
X135107142Y-50389285D01*
X135178571Y-50425000D01*
X135214285Y-50460714D01*
X135250000Y-50532142D01*
X135250000Y-50603571D01*
X135214285Y-50710714D01*
X134785714Y-51139285D01*
X135250000Y-51139285D01*
D11*
X132916666Y-56524761D02*
X133059523Y-56572380D01*
X133297619Y-56572380D01*
X133392857Y-56524761D01*
X133440476Y-56477142D01*
X133488095Y-56381904D01*
X133488095Y-56286666D01*
X133440476Y-56191428D01*
X133392857Y-56143809D01*
X133297619Y-56096190D01*
X133107142Y-56048571D01*
X133011904Y-56000952D01*
X132964285Y-55953333D01*
X132916666Y-55858095D01*
X132916666Y-55762857D01*
X132964285Y-55667619D01*
X133011904Y-55620000D01*
X133107142Y-55572380D01*
X133345238Y-55572380D01*
X133488095Y-55620000D01*
X133821428Y-55572380D02*
X134059523Y-56572380D01*
X134250000Y-55858095D01*
X134440476Y-56572380D01*
X134678571Y-55572380D01*
X135011904Y-55667619D02*
X135059523Y-55620000D01*
X135154761Y-55572380D01*
X135392857Y-55572380D01*
X135488095Y-55620000D01*
X135535714Y-55667619D01*
X135583333Y-55762857D01*
X135583333Y-55858095D01*
X135535714Y-56000952D01*
X134964285Y-56572380D01*
X135583333Y-56572380D01*
D10*
%TO.C,D11*%
X196359285Y-89248285D02*
X196359285Y-88498285D01*
X196537857Y-88498285D01*
X196645000Y-88534000D01*
X196716428Y-88605428D01*
X196752142Y-88676857D01*
X196787857Y-88819714D01*
X196787857Y-88926857D01*
X196752142Y-89069714D01*
X196716428Y-89141142D01*
X196645000Y-89212571D01*
X196537857Y-89248285D01*
X196359285Y-89248285D01*
X197502142Y-89248285D02*
X197073571Y-89248285D01*
X197287857Y-89248285D02*
X197287857Y-88498285D01*
X197216428Y-88605428D01*
X197145000Y-88676857D01*
X197073571Y-88712571D01*
X198216428Y-89248285D02*
X197787857Y-89248285D01*
X198002142Y-89248285D02*
X198002142Y-88498285D01*
X197930714Y-88605428D01*
X197859285Y-88676857D01*
X197787857Y-88712571D01*
%TO.C,D9*%
X196716428Y-104338285D02*
X196716428Y-103588285D01*
X196895000Y-103588285D01*
X197002142Y-103624000D01*
X197073571Y-103695428D01*
X197109285Y-103766857D01*
X197145000Y-103909714D01*
X197145000Y-104016857D01*
X197109285Y-104159714D01*
X197073571Y-104231142D01*
X197002142Y-104302571D01*
X196895000Y-104338285D01*
X196716428Y-104338285D01*
X197502142Y-104338285D02*
X197645000Y-104338285D01*
X197716428Y-104302571D01*
X197752142Y-104266857D01*
X197823571Y-104159714D01*
X197859285Y-104016857D01*
X197859285Y-103731142D01*
X197823571Y-103659714D01*
X197787857Y-103624000D01*
X197716428Y-103588285D01*
X197573571Y-103588285D01*
X197502142Y-103624000D01*
X197466428Y-103659714D01*
X197430714Y-103731142D01*
X197430714Y-103909714D01*
X197466428Y-103981142D01*
X197502142Y-104016857D01*
X197573571Y-104052571D01*
X197716428Y-104052571D01*
X197787857Y-104016857D01*
X197823571Y-103981142D01*
X197859285Y-103909714D01*
%TO.C,C1*%
X143875000Y-64867857D02*
X143839285Y-64903571D01*
X143732142Y-64939285D01*
X143660714Y-64939285D01*
X143553571Y-64903571D01*
X143482142Y-64832142D01*
X143446428Y-64760714D01*
X143410714Y-64617857D01*
X143410714Y-64510714D01*
X143446428Y-64367857D01*
X143482142Y-64296428D01*
X143553571Y-64225000D01*
X143660714Y-64189285D01*
X143732142Y-64189285D01*
X143839285Y-64225000D01*
X143875000Y-64260714D01*
X144589285Y-64939285D02*
X144160714Y-64939285D01*
X144375000Y-64939285D02*
X144375000Y-64189285D01*
X144303571Y-64296428D01*
X144232142Y-64367857D01*
X144160714Y-64403571D01*
D12*
X142339266Y-67785714D02*
X142301171Y-67823809D01*
X142186885Y-67861904D01*
X142110695Y-67861904D01*
X141996409Y-67823809D01*
X141920219Y-67747619D01*
X141882123Y-67671428D01*
X141844028Y-67519047D01*
X141844028Y-67404761D01*
X141882123Y-67252380D01*
X141920219Y-67176190D01*
X141996409Y-67100000D01*
X142110695Y-67061904D01*
X142186885Y-67061904D01*
X142301171Y-67100000D01*
X142339266Y-67138095D01*
X143101171Y-67861904D02*
X142644028Y-67861904D01*
X142872600Y-67861904D02*
X142872600Y-67061904D01*
X142796409Y-67176190D01*
X142720219Y-67252380D01*
X142644028Y-67290476D01*
D10*
%TO.C,R9*%
X181455000Y-93939285D02*
X181205000Y-93582142D01*
X181026428Y-93939285D02*
X181026428Y-93189285D01*
X181312142Y-93189285D01*
X181383571Y-93225000D01*
X181419285Y-93260714D01*
X181455000Y-93332142D01*
X181455000Y-93439285D01*
X181419285Y-93510714D01*
X181383571Y-93546428D01*
X181312142Y-93582142D01*
X181026428Y-93582142D01*
X181812142Y-93939285D02*
X181955000Y-93939285D01*
X182026428Y-93903571D01*
X182062142Y-93867857D01*
X182133571Y-93760714D01*
X182169285Y-93617857D01*
X182169285Y-93332142D01*
X182133571Y-93260714D01*
X182097857Y-93225000D01*
X182026428Y-93189285D01*
X181883571Y-93189285D01*
X181812142Y-93225000D01*
X181776428Y-93260714D01*
X181740714Y-93332142D01*
X181740714Y-93510714D01*
X181776428Y-93582142D01*
X181812142Y-93617857D01*
X181883571Y-93653571D01*
X182026428Y-93653571D01*
X182097857Y-93617857D01*
X182133571Y-93582142D01*
X182169285Y-93510714D01*
D11*
X181413333Y-94052380D02*
X181080000Y-93576190D01*
X180841904Y-94052380D02*
X180841904Y-93052380D01*
X181222857Y-93052380D01*
X181318095Y-93100000D01*
X181365714Y-93147619D01*
X181413333Y-93242857D01*
X181413333Y-93385714D01*
X181365714Y-93480952D01*
X181318095Y-93528571D01*
X181222857Y-93576190D01*
X180841904Y-93576190D01*
X181889523Y-94052380D02*
X182080000Y-94052380D01*
X182175238Y-94004761D01*
X182222857Y-93957142D01*
X182318095Y-93814285D01*
X182365714Y-93623809D01*
X182365714Y-93242857D01*
X182318095Y-93147619D01*
X182270476Y-93100000D01*
X182175238Y-93052380D01*
X181984761Y-93052380D01*
X181889523Y-93100000D01*
X181841904Y-93147619D01*
X181794285Y-93242857D01*
X181794285Y-93480952D01*
X181841904Y-93576190D01*
X181889523Y-93623809D01*
X181984761Y-93671428D01*
X182175238Y-93671428D01*
X182270476Y-93623809D01*
X182318095Y-93576190D01*
X182365714Y-93480952D01*
D10*
%TO.C,D13*%
X196359285Y-74158285D02*
X196359285Y-73408285D01*
X196537857Y-73408285D01*
X196645000Y-73444000D01*
X196716428Y-73515428D01*
X196752142Y-73586857D01*
X196787857Y-73729714D01*
X196787857Y-73836857D01*
X196752142Y-73979714D01*
X196716428Y-74051142D01*
X196645000Y-74122571D01*
X196537857Y-74158285D01*
X196359285Y-74158285D01*
X197502142Y-74158285D02*
X197073571Y-74158285D01*
X197287857Y-74158285D02*
X197287857Y-73408285D01*
X197216428Y-73515428D01*
X197145000Y-73586857D01*
X197073571Y-73622571D01*
X197752142Y-73408285D02*
X198216428Y-73408285D01*
X197966428Y-73694000D01*
X198073571Y-73694000D01*
X198145000Y-73729714D01*
X198180714Y-73765428D01*
X198216428Y-73836857D01*
X198216428Y-74015428D01*
X198180714Y-74086857D01*
X198145000Y-74122571D01*
X198073571Y-74158285D01*
X197859285Y-74158285D01*
X197787857Y-74122571D01*
X197752142Y-74086857D01*
%TO.C,D12*%
X196359285Y-81703285D02*
X196359285Y-80953285D01*
X196537857Y-80953285D01*
X196645000Y-80989000D01*
X196716428Y-81060428D01*
X196752142Y-81131857D01*
X196787857Y-81274714D01*
X196787857Y-81381857D01*
X196752142Y-81524714D01*
X196716428Y-81596142D01*
X196645000Y-81667571D01*
X196537857Y-81703285D01*
X196359285Y-81703285D01*
X197502142Y-81703285D02*
X197073571Y-81703285D01*
X197287857Y-81703285D02*
X197287857Y-80953285D01*
X197216428Y-81060428D01*
X197145000Y-81131857D01*
X197073571Y-81167571D01*
X197787857Y-81024714D02*
X197823571Y-80989000D01*
X197895000Y-80953285D01*
X198073571Y-80953285D01*
X198145000Y-80989000D01*
X198180714Y-81024714D01*
X198216428Y-81096142D01*
X198216428Y-81167571D01*
X198180714Y-81274714D01*
X197752142Y-81703285D01*
X198216428Y-81703285D01*
%TO.C,D10*%
X196359285Y-96793285D02*
X196359285Y-96043285D01*
X196537857Y-96043285D01*
X196645000Y-96079000D01*
X196716428Y-96150428D01*
X196752142Y-96221857D01*
X196787857Y-96364714D01*
X196787857Y-96471857D01*
X196752142Y-96614714D01*
X196716428Y-96686142D01*
X196645000Y-96757571D01*
X196537857Y-96793285D01*
X196359285Y-96793285D01*
X197502142Y-96793285D02*
X197073571Y-96793285D01*
X197287857Y-96793285D02*
X197287857Y-96043285D01*
X197216428Y-96150428D01*
X197145000Y-96221857D01*
X197073571Y-96257571D01*
X197966428Y-96043285D02*
X198037857Y-96043285D01*
X198109285Y-96079000D01*
X198145000Y-96114714D01*
X198180714Y-96186142D01*
X198216428Y-96329000D01*
X198216428Y-96507571D01*
X198180714Y-96650428D01*
X198145000Y-96721857D01*
X198109285Y-96757571D01*
X198037857Y-96793285D01*
X197966428Y-96793285D01*
X197895000Y-96757571D01*
X197859285Y-96721857D01*
X197823571Y-96650428D01*
X197787857Y-96507571D01*
X197787857Y-96329000D01*
X197823571Y-96186142D01*
X197859285Y-96114714D01*
X197895000Y-96079000D01*
X197966428Y-96043285D01*
%TO.C,R1*%
X199925000Y-67639285D02*
X199675000Y-67282142D01*
X199496428Y-67639285D02*
X199496428Y-66889285D01*
X199782142Y-66889285D01*
X199853571Y-66925000D01*
X199889285Y-66960714D01*
X199925000Y-67032142D01*
X199925000Y-67139285D01*
X199889285Y-67210714D01*
X199853571Y-67246428D01*
X199782142Y-67282142D01*
X199496428Y-67282142D01*
X200639285Y-67639285D02*
X200210714Y-67639285D01*
X200425000Y-67639285D02*
X200425000Y-66889285D01*
X200353571Y-66996428D01*
X200282142Y-67067857D01*
X200210714Y-67103571D01*
%TO.C,D1*%
X139404428Y-120489285D02*
X139404428Y-119739285D01*
X139583000Y-119739285D01*
X139690142Y-119775000D01*
X139761571Y-119846428D01*
X139797285Y-119917857D01*
X139833000Y-120060714D01*
X139833000Y-120167857D01*
X139797285Y-120310714D01*
X139761571Y-120382142D01*
X139690142Y-120453571D01*
X139583000Y-120489285D01*
X139404428Y-120489285D01*
X140547285Y-120489285D02*
X140118714Y-120489285D01*
X140333000Y-120489285D02*
X140333000Y-119739285D01*
X140261571Y-119846428D01*
X140190142Y-119917857D01*
X140118714Y-119953571D01*
D11*
%TO.C,RV7*%
X212404761Y-91924380D02*
X212071428Y-91448190D01*
X211833333Y-91924380D02*
X211833333Y-90924380D01*
X212214285Y-90924380D01*
X212309523Y-90972000D01*
X212357142Y-91019619D01*
X212404761Y-91114857D01*
X212404761Y-91257714D01*
X212357142Y-91352952D01*
X212309523Y-91400571D01*
X212214285Y-91448190D01*
X211833333Y-91448190D01*
X212690476Y-90924380D02*
X213023809Y-91924380D01*
X213357142Y-90924380D01*
X213595238Y-90924380D02*
X214261904Y-90924380D01*
X213833333Y-91924380D01*
X212404761Y-78324380D02*
X212071428Y-77848190D01*
X211833333Y-78324380D02*
X211833333Y-77324380D01*
X212214285Y-77324380D01*
X212309523Y-77372000D01*
X212357142Y-77419619D01*
X212404761Y-77514857D01*
X212404761Y-77657714D01*
X212357142Y-77752952D01*
X212309523Y-77800571D01*
X212214285Y-77848190D01*
X211833333Y-77848190D01*
X212690476Y-77324380D02*
X213023809Y-78324380D01*
X213357142Y-77324380D01*
X213595238Y-77324380D02*
X214261904Y-77324380D01*
X213833333Y-78324380D01*
%TO.C,RV2*%
X94804761Y-99202380D02*
X94471428Y-98726190D01*
X94233333Y-99202380D02*
X94233333Y-98202380D01*
X94614285Y-98202380D01*
X94709523Y-98250000D01*
X94757142Y-98297619D01*
X94804761Y-98392857D01*
X94804761Y-98535714D01*
X94757142Y-98630952D01*
X94709523Y-98678571D01*
X94614285Y-98726190D01*
X94233333Y-98726190D01*
X95090476Y-98202380D02*
X95423809Y-99202380D01*
X95757142Y-98202380D01*
X96042857Y-98297619D02*
X96090476Y-98250000D01*
X96185714Y-98202380D01*
X96423809Y-98202380D01*
X96519047Y-98250000D01*
X96566666Y-98297619D01*
X96614285Y-98392857D01*
X96614285Y-98488095D01*
X96566666Y-98630952D01*
X95995238Y-99202380D01*
X96614285Y-99202380D01*
X106404761Y-93752380D02*
X106071428Y-93276190D01*
X105833333Y-93752380D02*
X105833333Y-92752380D01*
X106214285Y-92752380D01*
X106309523Y-92800000D01*
X106357142Y-92847619D01*
X106404761Y-92942857D01*
X106404761Y-93085714D01*
X106357142Y-93180952D01*
X106309523Y-93228571D01*
X106214285Y-93276190D01*
X105833333Y-93276190D01*
X106690476Y-92752380D02*
X107023809Y-93752380D01*
X107357142Y-92752380D01*
X107642857Y-92847619D02*
X107690476Y-92800000D01*
X107785714Y-92752380D01*
X108023809Y-92752380D01*
X108119047Y-92800000D01*
X108166666Y-92847619D01*
X108214285Y-92942857D01*
X108214285Y-93038095D01*
X108166666Y-93180952D01*
X107595238Y-93752380D01*
X108214285Y-93752380D01*
%TO.C,e*%
X117372976Y-89304761D02*
X117277738Y-89352380D01*
X117087261Y-89352380D01*
X116992023Y-89304761D01*
X116944404Y-89209523D01*
X116944404Y-88828571D01*
X116992023Y-88733333D01*
X117087261Y-88685714D01*
X117277738Y-88685714D01*
X117372976Y-88733333D01*
X117420595Y-88828571D01*
X117420595Y-88923809D01*
X116944404Y-89019047D01*
X112987261Y-83809523D02*
X113034880Y-83904761D01*
X113034880Y-84095238D01*
X112987261Y-84190476D01*
X112892023Y-84238095D01*
X112511071Y-84238095D01*
X112415833Y-84190476D01*
X112368214Y-84095238D01*
X112368214Y-83904761D01*
X112415833Y-83809523D01*
X112511071Y-83761904D01*
X112606309Y-83761904D01*
X112701547Y-84238095D01*
D10*
%TO.C,D3*%
X190716428Y-104338285D02*
X190716428Y-103588285D01*
X190895000Y-103588285D01*
X191002142Y-103624000D01*
X191073571Y-103695428D01*
X191109285Y-103766857D01*
X191145000Y-103909714D01*
X191145000Y-104016857D01*
X191109285Y-104159714D01*
X191073571Y-104231142D01*
X191002142Y-104302571D01*
X190895000Y-104338285D01*
X190716428Y-104338285D01*
X191395000Y-103588285D02*
X191859285Y-103588285D01*
X191609285Y-103874000D01*
X191716428Y-103874000D01*
X191787857Y-103909714D01*
X191823571Y-103945428D01*
X191859285Y-104016857D01*
X191859285Y-104195428D01*
X191823571Y-104266857D01*
X191787857Y-104302571D01*
X191716428Y-104338285D01*
X191502142Y-104338285D01*
X191430714Y-104302571D01*
X191395000Y-104266857D01*
D11*
%TO.C, *%
X190023809Y-116252380D02*
X190023809Y-115252380D01*
X190357142Y-115966666D01*
X190690476Y-115252380D01*
X190690476Y-116252380D01*
X191309523Y-116252380D02*
X191214285Y-116204761D01*
X191166666Y-116157142D01*
X191119047Y-116061904D01*
X191119047Y-115776190D01*
X191166666Y-115680952D01*
X191214285Y-115633333D01*
X191309523Y-115585714D01*
X191452380Y-115585714D01*
X191547619Y-115633333D01*
X191595238Y-115680952D01*
X191642857Y-115776190D01*
X191642857Y-116061904D01*
X191595238Y-116157142D01*
X191547619Y-116204761D01*
X191452380Y-116252380D01*
X191309523Y-116252380D01*
X192500000Y-115585714D02*
X192500000Y-116252380D01*
X192071428Y-115585714D02*
X192071428Y-116109523D01*
X192119047Y-116204761D01*
X192214285Y-116252380D01*
X192357142Y-116252380D01*
X192452380Y-116204761D01*
X192500000Y-116157142D01*
X192976190Y-115585714D02*
X192976190Y-116252380D01*
X192976190Y-115680952D02*
X193023809Y-115633333D01*
X193119047Y-115585714D01*
X193261904Y-115585714D01*
X193357142Y-115633333D01*
X193404761Y-115728571D01*
X193404761Y-116252380D01*
X193738095Y-115585714D02*
X194119047Y-115585714D01*
X193880952Y-115252380D02*
X193880952Y-116109523D01*
X193928571Y-116204761D01*
X194023809Y-116252380D01*
X194119047Y-116252380D01*
X194452380Y-116252380D02*
X194452380Y-115585714D01*
X194452380Y-115252380D02*
X194404761Y-115300000D01*
X194452380Y-115347619D01*
X194500000Y-115300000D01*
X194452380Y-115252380D01*
X194452380Y-115347619D01*
X194928571Y-115585714D02*
X194928571Y-116252380D01*
X194928571Y-115680952D02*
X194976190Y-115633333D01*
X195071428Y-115585714D01*
X195214285Y-115585714D01*
X195309523Y-115633333D01*
X195357142Y-115728571D01*
X195357142Y-116252380D01*
X196261904Y-115585714D02*
X196261904Y-116395238D01*
X196214285Y-116490476D01*
X196166666Y-116538095D01*
X196071428Y-116585714D01*
X195928571Y-116585714D01*
X195833333Y-116538095D01*
X196261904Y-116204761D02*
X196166666Y-116252380D01*
X195976190Y-116252380D01*
X195880952Y-116204761D01*
X195833333Y-116157142D01*
X195785714Y-116061904D01*
X195785714Y-115776190D01*
X195833333Y-115680952D01*
X195880952Y-115633333D01*
X195976190Y-115585714D01*
X196166666Y-115585714D01*
X196261904Y-115633333D01*
X196738095Y-116252380D02*
X196738095Y-115252380D01*
X196738095Y-115728571D02*
X197309523Y-115728571D01*
X197309523Y-116252380D02*
X197309523Y-115252380D01*
X197928571Y-116252380D02*
X197833333Y-116204761D01*
X197785714Y-116157142D01*
X197738095Y-116061904D01*
X197738095Y-115776190D01*
X197785714Y-115680952D01*
X197833333Y-115633333D01*
X197928571Y-115585714D01*
X198071428Y-115585714D01*
X198166666Y-115633333D01*
X198214285Y-115680952D01*
X198261904Y-115776190D01*
X198261904Y-116061904D01*
X198214285Y-116157142D01*
X198166666Y-116204761D01*
X198071428Y-116252380D01*
X197928571Y-116252380D01*
X198833333Y-116252380D02*
X198738095Y-116204761D01*
X198690476Y-116109523D01*
X198690476Y-115252380D01*
X199595238Y-116204761D02*
X199500000Y-116252380D01*
X199309523Y-116252380D01*
X199214285Y-116204761D01*
X199166666Y-116109523D01*
X199166666Y-115728571D01*
X199214285Y-115633333D01*
X199309523Y-115585714D01*
X199500000Y-115585714D01*
X199595238Y-115633333D01*
X199642857Y-115728571D01*
X199642857Y-115823809D01*
X199166666Y-115919047D01*
X199833333Y-116347619D02*
X200595238Y-116347619D01*
X200738095Y-115252380D02*
X201357142Y-115252380D01*
X201023809Y-115633333D01*
X201166666Y-115633333D01*
X201261904Y-115680952D01*
X201309523Y-115728571D01*
X201357142Y-115823809D01*
X201357142Y-116061904D01*
X201309523Y-116157142D01*
X201261904Y-116204761D01*
X201166666Y-116252380D01*
X200880952Y-116252380D01*
X200785714Y-116204761D01*
X200738095Y-116157142D01*
X201785714Y-116157142D02*
X201833333Y-116204761D01*
X201785714Y-116252380D01*
X201738095Y-116204761D01*
X201785714Y-116157142D01*
X201785714Y-116252380D01*
X202214285Y-115347619D02*
X202261904Y-115300000D01*
X202357142Y-115252380D01*
X202595238Y-115252380D01*
X202690476Y-115300000D01*
X202738095Y-115347619D01*
X202785714Y-115442857D01*
X202785714Y-115538095D01*
X202738095Y-115680952D01*
X202166666Y-116252380D01*
X202785714Y-116252380D01*
X203214285Y-116252380D02*
X203214285Y-115585714D01*
X203214285Y-115680952D02*
X203261904Y-115633333D01*
X203357142Y-115585714D01*
X203500000Y-115585714D01*
X203595238Y-115633333D01*
X203642857Y-115728571D01*
X203642857Y-116252380D01*
X203642857Y-115728571D02*
X203690476Y-115633333D01*
X203785714Y-115585714D01*
X203928571Y-115585714D01*
X204023809Y-115633333D01*
X204071428Y-115728571D01*
X204071428Y-116252380D01*
X204547619Y-116252380D02*
X204547619Y-115585714D01*
X204547619Y-115680952D02*
X204595238Y-115633333D01*
X204690476Y-115585714D01*
X204833333Y-115585714D01*
X204928571Y-115633333D01*
X204976190Y-115728571D01*
X204976190Y-116252380D01*
X204976190Y-115728571D02*
X205023809Y-115633333D01*
X205119047Y-115585714D01*
X205261904Y-115585714D01*
X205357142Y-115633333D01*
X205404761Y-115728571D01*
X205404761Y-116252380D01*
X205642857Y-116347619D02*
X206404761Y-116347619D01*
X206642857Y-116252380D02*
X206642857Y-115252380D01*
X206976190Y-115966666D01*
X207309523Y-115252380D01*
X207309523Y-116252380D01*
X207690476Y-115252380D02*
X208309523Y-115252380D01*
X207976190Y-115633333D01*
X208119047Y-115633333D01*
X208214285Y-115680952D01*
X208261904Y-115728571D01*
X208309523Y-115823809D01*
X208309523Y-116061904D01*
X208261904Y-116157142D01*
X208214285Y-116204761D01*
X208119047Y-116252380D01*
X207833333Y-116252380D01*
X207738095Y-116204761D01*
X207690476Y-116157142D01*
X208500000Y-116347619D02*
X209261904Y-116347619D01*
X209500000Y-116252380D02*
X209500000Y-115252380D01*
X209738095Y-115252380D01*
X209880952Y-115300000D01*
X209976190Y-115395238D01*
X210023809Y-115490476D01*
X210071428Y-115680952D01*
X210071428Y-115823809D01*
X210023809Y-116014285D01*
X209976190Y-116109523D01*
X209880952Y-116204761D01*
X209738095Y-116252380D01*
X209500000Y-116252380D01*
X210500000Y-116252380D02*
X210500000Y-115252380D01*
X210976190Y-116252380D02*
X210976190Y-115252380D01*
X211547619Y-116252380D01*
X211547619Y-115252380D01*
X212071428Y-116252380D02*
X212261904Y-116252380D01*
X212357142Y-116204761D01*
X212404761Y-116157142D01*
X212500000Y-116014285D01*
X212547619Y-115823809D01*
X212547619Y-115442857D01*
X212500000Y-115347619D01*
X212452380Y-115300000D01*
X212357142Y-115252380D01*
X212166666Y-115252380D01*
X212071428Y-115300000D01*
X212023809Y-115347619D01*
X211976190Y-115442857D01*
X211976190Y-115680952D01*
X212023809Y-115776190D01*
X212071428Y-115823809D01*
X212166666Y-115871428D01*
X212357142Y-115871428D01*
X212452380Y-115823809D01*
X212500000Y-115776190D01*
X212547619Y-115680952D01*
X213404761Y-115252380D02*
X213214285Y-115252380D01*
X213119047Y-115300000D01*
X213071428Y-115347619D01*
X212976190Y-115490476D01*
X212928571Y-115680952D01*
X212928571Y-116061904D01*
X212976190Y-116157142D01*
X213023809Y-116204761D01*
X213119047Y-116252380D01*
X213309523Y-116252380D01*
X213404761Y-116204761D01*
X213452380Y-116157142D01*
X213500000Y-116061904D01*
X213500000Y-115823809D01*
X213452380Y-115728571D01*
X213404761Y-115680952D01*
X213309523Y-115633333D01*
X213119047Y-115633333D01*
X213023809Y-115680952D01*
X212976190Y-115728571D01*
X212928571Y-115823809D01*
X214404761Y-115252380D02*
X213928571Y-115252380D01*
X213880952Y-115728571D01*
X213928571Y-115680952D01*
X214023809Y-115633333D01*
X214261904Y-115633333D01*
X214357142Y-115680952D01*
X214404761Y-115728571D01*
X214452380Y-115823809D01*
X214452380Y-116061904D01*
X214404761Y-116157142D01*
X214357142Y-116204761D01*
X214261904Y-116252380D01*
X214023809Y-116252380D01*
X213928571Y-116204761D01*
X213880952Y-116157142D01*
X214642857Y-116347619D02*
X215404761Y-116347619D01*
X215642857Y-116252380D02*
X215642857Y-115252380D01*
X216023809Y-115252380D01*
X216119047Y-115300000D01*
X216166666Y-115347619D01*
X216214285Y-115442857D01*
X216214285Y-115585714D01*
X216166666Y-115680952D01*
X216119047Y-115728571D01*
X216023809Y-115776190D01*
X215642857Y-115776190D01*
X217071428Y-116252380D02*
X217071428Y-115728571D01*
X217023809Y-115633333D01*
X216928571Y-115585714D01*
X216738095Y-115585714D01*
X216642857Y-115633333D01*
X217071428Y-116204761D02*
X216976190Y-116252380D01*
X216738095Y-116252380D01*
X216642857Y-116204761D01*
X216595238Y-116109523D01*
X216595238Y-116014285D01*
X216642857Y-115919047D01*
X216738095Y-115871428D01*
X216976190Y-115871428D01*
X217071428Y-115823809D01*
X217976190Y-116252380D02*
X217976190Y-115252380D01*
X217976190Y-116204761D02*
X217880952Y-116252380D01*
X217690476Y-116252380D01*
X217595238Y-116204761D01*
X217547619Y-116157142D01*
X217500000Y-116061904D01*
X217500000Y-115776190D01*
X217547619Y-115680952D01*
X217595238Y-115633333D01*
X217690476Y-115585714D01*
X217880952Y-115585714D01*
X217976190Y-115633333D01*
D10*
%TO.C,D5*%
X190716428Y-89248285D02*
X190716428Y-88498285D01*
X190895000Y-88498285D01*
X191002142Y-88534000D01*
X191073571Y-88605428D01*
X191109285Y-88676857D01*
X191145000Y-88819714D01*
X191145000Y-88926857D01*
X191109285Y-89069714D01*
X191073571Y-89141142D01*
X191002142Y-89212571D01*
X190895000Y-89248285D01*
X190716428Y-89248285D01*
X191823571Y-88498285D02*
X191466428Y-88498285D01*
X191430714Y-88855428D01*
X191466428Y-88819714D01*
X191537857Y-88784000D01*
X191716428Y-88784000D01*
X191787857Y-88819714D01*
X191823571Y-88855428D01*
X191859285Y-88926857D01*
X191859285Y-89105428D01*
X191823571Y-89176857D01*
X191787857Y-89212571D01*
X191716428Y-89248285D01*
X191537857Y-89248285D01*
X191466428Y-89212571D01*
X191430714Y-89176857D01*
D11*
%TO.C,J4*%
X105066666Y-116501380D02*
X105066666Y-117215666D01*
X105019047Y-117358523D01*
X104923809Y-117453761D01*
X104780952Y-117501380D01*
X104685714Y-117501380D01*
X105971428Y-116834714D02*
X105971428Y-117501380D01*
X105733333Y-116453761D02*
X105495238Y-117168047D01*
X106114285Y-117168047D01*
X105666666Y-116869880D02*
X105666666Y-117584166D01*
X105619047Y-117727023D01*
X105523809Y-117822261D01*
X105380952Y-117869880D01*
X105285714Y-117869880D01*
X106571428Y-117203214D02*
X106571428Y-117869880D01*
X106333333Y-116822261D02*
X106095238Y-117536547D01*
X106714285Y-117536547D01*
D10*
%TO.C,R8*%
X181455000Y-89439285D02*
X181205000Y-89082142D01*
X181026428Y-89439285D02*
X181026428Y-88689285D01*
X181312142Y-88689285D01*
X181383571Y-88725000D01*
X181419285Y-88760714D01*
X181455000Y-88832142D01*
X181455000Y-88939285D01*
X181419285Y-89010714D01*
X181383571Y-89046428D01*
X181312142Y-89082142D01*
X181026428Y-89082142D01*
X181883571Y-89010714D02*
X181812142Y-88975000D01*
X181776428Y-88939285D01*
X181740714Y-88867857D01*
X181740714Y-88832142D01*
X181776428Y-88760714D01*
X181812142Y-88725000D01*
X181883571Y-88689285D01*
X182026428Y-88689285D01*
X182097857Y-88725000D01*
X182133571Y-88760714D01*
X182169285Y-88832142D01*
X182169285Y-88867857D01*
X182133571Y-88939285D01*
X182097857Y-88975000D01*
X182026428Y-89010714D01*
X181883571Y-89010714D01*
X181812142Y-89046428D01*
X181776428Y-89082142D01*
X181740714Y-89153571D01*
X181740714Y-89296428D01*
X181776428Y-89367857D01*
X181812142Y-89403571D01*
X181883571Y-89439285D01*
X182026428Y-89439285D01*
X182097857Y-89403571D01*
X182133571Y-89367857D01*
X182169285Y-89296428D01*
X182169285Y-89153571D01*
X182133571Y-89082142D01*
X182097857Y-89046428D01*
X182026428Y-89010714D01*
D11*
X181413333Y-89552380D02*
X181080000Y-89076190D01*
X180841904Y-89552380D02*
X180841904Y-88552380D01*
X181222857Y-88552380D01*
X181318095Y-88600000D01*
X181365714Y-88647619D01*
X181413333Y-88742857D01*
X181413333Y-88885714D01*
X181365714Y-88980952D01*
X181318095Y-89028571D01*
X181222857Y-89076190D01*
X180841904Y-89076190D01*
X181984761Y-88980952D02*
X181889523Y-88933333D01*
X181841904Y-88885714D01*
X181794285Y-88790476D01*
X181794285Y-88742857D01*
X181841904Y-88647619D01*
X181889523Y-88600000D01*
X181984761Y-88552380D01*
X182175238Y-88552380D01*
X182270476Y-88600000D01*
X182318095Y-88647619D01*
X182365714Y-88742857D01*
X182365714Y-88790476D01*
X182318095Y-88885714D01*
X182270476Y-88933333D01*
X182175238Y-88980952D01*
X181984761Y-88980952D01*
X181889523Y-89028571D01*
X181841904Y-89076190D01*
X181794285Y-89171428D01*
X181794285Y-89361904D01*
X181841904Y-89457142D01*
X181889523Y-89504761D01*
X181984761Y-89552380D01*
X182175238Y-89552380D01*
X182270476Y-89504761D01*
X182318095Y-89457142D01*
X182365714Y-89361904D01*
X182365714Y-89171428D01*
X182318095Y-89076190D01*
X182270476Y-89028571D01*
X182175238Y-88980952D01*
D10*
%TO.C,R2*%
X181555000Y-107439285D02*
X181305000Y-107082142D01*
X181126428Y-107439285D02*
X181126428Y-106689285D01*
X181412142Y-106689285D01*
X181483571Y-106725000D01*
X181519285Y-106760714D01*
X181555000Y-106832142D01*
X181555000Y-106939285D01*
X181519285Y-107010714D01*
X181483571Y-107046428D01*
X181412142Y-107082142D01*
X181126428Y-107082142D01*
X181840714Y-106760714D02*
X181876428Y-106725000D01*
X181947857Y-106689285D01*
X182126428Y-106689285D01*
X182197857Y-106725000D01*
X182233571Y-106760714D01*
X182269285Y-106832142D01*
X182269285Y-106903571D01*
X182233571Y-107010714D01*
X181805000Y-107439285D01*
X182269285Y-107439285D01*
D11*
X181513333Y-107552380D02*
X181180000Y-107076190D01*
X180941904Y-107552380D02*
X180941904Y-106552380D01*
X181322857Y-106552380D01*
X181418095Y-106600000D01*
X181465714Y-106647619D01*
X181513333Y-106742857D01*
X181513333Y-106885714D01*
X181465714Y-106980952D01*
X181418095Y-107028571D01*
X181322857Y-107076190D01*
X180941904Y-107076190D01*
X181894285Y-106647619D02*
X181941904Y-106600000D01*
X182037142Y-106552380D01*
X182275238Y-106552380D01*
X182370476Y-106600000D01*
X182418095Y-106647619D01*
X182465714Y-106742857D01*
X182465714Y-106838095D01*
X182418095Y-106980952D01*
X181846666Y-107552380D01*
X182465714Y-107552380D01*
%TO.C,RV5*%
X153523761Y-131852380D02*
X153190428Y-131376190D01*
X152952333Y-131852380D02*
X152952333Y-130852380D01*
X153333285Y-130852380D01*
X153428523Y-130900000D01*
X153476142Y-130947619D01*
X153523761Y-131042857D01*
X153523761Y-131185714D01*
X153476142Y-131280952D01*
X153428523Y-131328571D01*
X153333285Y-131376190D01*
X152952333Y-131376190D01*
X153809476Y-130852380D02*
X154142809Y-131852380D01*
X154476142Y-130852380D01*
X155285666Y-130852380D02*
X154809476Y-130852380D01*
X154761857Y-131328571D01*
X154809476Y-131280952D01*
X154904714Y-131233333D01*
X155142809Y-131233333D01*
X155238047Y-131280952D01*
X155285666Y-131328571D01*
X155333285Y-131423809D01*
X155333285Y-131661904D01*
X155285666Y-131757142D01*
X155238047Y-131804761D01*
X155142809Y-131852380D01*
X154904714Y-131852380D01*
X154809476Y-131804761D01*
X154761857Y-131757142D01*
X153523761Y-119352380D02*
X153190428Y-118876190D01*
X152952333Y-119352380D02*
X152952333Y-118352380D01*
X153333285Y-118352380D01*
X153428523Y-118400000D01*
X153476142Y-118447619D01*
X153523761Y-118542857D01*
X153523761Y-118685714D01*
X153476142Y-118780952D01*
X153428523Y-118828571D01*
X153333285Y-118876190D01*
X152952333Y-118876190D01*
X153809476Y-118352380D02*
X154142809Y-119352380D01*
X154476142Y-118352380D01*
X155285666Y-118352380D02*
X154809476Y-118352380D01*
X154761857Y-118828571D01*
X154809476Y-118780952D01*
X154904714Y-118733333D01*
X155142809Y-118733333D01*
X155238047Y-118780952D01*
X155285666Y-118828571D01*
X155333285Y-118923809D01*
X155333285Y-119161904D01*
X155285666Y-119257142D01*
X155238047Y-119304761D01*
X155142809Y-119352380D01*
X154904714Y-119352380D01*
X154809476Y-119304761D01*
X154761857Y-119257142D01*
%TO.C,C3*%
X199683333Y-64207142D02*
X199635714Y-64254761D01*
X199492857Y-64302380D01*
X199397619Y-64302380D01*
X199254761Y-64254761D01*
X199159523Y-64159523D01*
X199111904Y-64064285D01*
X199064285Y-63873809D01*
X199064285Y-63730952D01*
X199111904Y-63540476D01*
X199159523Y-63445238D01*
X199254761Y-63350000D01*
X199397619Y-63302380D01*
X199492857Y-63302380D01*
X199635714Y-63350000D01*
X199683333Y-63397619D01*
X200016666Y-63302380D02*
X200635714Y-63302380D01*
X200302380Y-63683333D01*
X200445238Y-63683333D01*
X200540476Y-63730952D01*
X200588095Y-63778571D01*
X200635714Y-63873809D01*
X200635714Y-64111904D01*
X200588095Y-64207142D01*
X200540476Y-64254761D01*
X200445238Y-64302380D01*
X200159523Y-64302380D01*
X200064285Y-64254761D01*
X200016666Y-64207142D01*
X199683333Y-61707142D02*
X199635714Y-61754761D01*
X199492857Y-61802380D01*
X199397619Y-61802380D01*
X199254761Y-61754761D01*
X199159523Y-61659523D01*
X199111904Y-61564285D01*
X199064285Y-61373809D01*
X199064285Y-61230952D01*
X199111904Y-61040476D01*
X199159523Y-60945238D01*
X199254761Y-60850000D01*
X199397619Y-60802380D01*
X199492857Y-60802380D01*
X199635714Y-60850000D01*
X199683333Y-60897619D01*
X200016666Y-60802380D02*
X200635714Y-60802380D01*
X200302380Y-61183333D01*
X200445238Y-61183333D01*
X200540476Y-61230952D01*
X200588095Y-61278571D01*
X200635714Y-61373809D01*
X200635714Y-61611904D01*
X200588095Y-61707142D01*
X200540476Y-61754761D01*
X200445238Y-61802380D01*
X200159523Y-61802380D01*
X200064285Y-61754761D01*
X200016666Y-61707142D01*
D10*
%TO.C,R7*%
X181455000Y-84939285D02*
X181205000Y-84582142D01*
X181026428Y-84939285D02*
X181026428Y-84189285D01*
X181312142Y-84189285D01*
X181383571Y-84225000D01*
X181419285Y-84260714D01*
X181455000Y-84332142D01*
X181455000Y-84439285D01*
X181419285Y-84510714D01*
X181383571Y-84546428D01*
X181312142Y-84582142D01*
X181026428Y-84582142D01*
X181705000Y-84189285D02*
X182205000Y-84189285D01*
X181883571Y-84939285D01*
D11*
X181413333Y-85052380D02*
X181080000Y-84576190D01*
X180841904Y-85052380D02*
X180841904Y-84052380D01*
X181222857Y-84052380D01*
X181318095Y-84100000D01*
X181365714Y-84147619D01*
X181413333Y-84242857D01*
X181413333Y-84385714D01*
X181365714Y-84480952D01*
X181318095Y-84528571D01*
X181222857Y-84576190D01*
X180841904Y-84576190D01*
X181746666Y-84052380D02*
X182413333Y-84052380D01*
X181984761Y-85052380D01*
D10*
%TO.C,R4*%
X181425000Y-75939285D02*
X181175000Y-75582142D01*
X180996428Y-75939285D02*
X180996428Y-75189285D01*
X181282142Y-75189285D01*
X181353571Y-75225000D01*
X181389285Y-75260714D01*
X181425000Y-75332142D01*
X181425000Y-75439285D01*
X181389285Y-75510714D01*
X181353571Y-75546428D01*
X181282142Y-75582142D01*
X180996428Y-75582142D01*
X182067857Y-75439285D02*
X182067857Y-75939285D01*
X181889285Y-75153571D02*
X181710714Y-75689285D01*
X182175000Y-75689285D01*
%TO.C,BZ1*%
X185839285Y-68146428D02*
X185946428Y-68182142D01*
X185982142Y-68217857D01*
X186017857Y-68289285D01*
X186017857Y-68396428D01*
X185982142Y-68467857D01*
X185946428Y-68503571D01*
X185875000Y-68539285D01*
X185589285Y-68539285D01*
X185589285Y-67789285D01*
X185839285Y-67789285D01*
X185910714Y-67825000D01*
X185946428Y-67860714D01*
X185982142Y-67932142D01*
X185982142Y-68003571D01*
X185946428Y-68075000D01*
X185910714Y-68110714D01*
X185839285Y-68146428D01*
X185589285Y-68146428D01*
X186267857Y-67789285D02*
X186767857Y-67789285D01*
X186267857Y-68539285D01*
X186767857Y-68539285D01*
X187446428Y-68539285D02*
X187017857Y-68539285D01*
X187232142Y-68539285D02*
X187232142Y-67789285D01*
X187160714Y-67896428D01*
X187089285Y-67967857D01*
X187017857Y-68003571D01*
D11*
X188371428Y-59380952D02*
X188371428Y-58619047D01*
X188752380Y-59000000D02*
X187990476Y-59000000D01*
%TO.C, *%
X106023809Y-116252380D02*
X106023809Y-115252380D01*
X106357142Y-115966666D01*
X106690476Y-115252380D01*
X106690476Y-116252380D01*
X107309523Y-116252380D02*
X107214285Y-116204761D01*
X107166666Y-116157142D01*
X107119047Y-116061904D01*
X107119047Y-115776190D01*
X107166666Y-115680952D01*
X107214285Y-115633333D01*
X107309523Y-115585714D01*
X107452380Y-115585714D01*
X107547619Y-115633333D01*
X107595238Y-115680952D01*
X107642857Y-115776190D01*
X107642857Y-116061904D01*
X107595238Y-116157142D01*
X107547619Y-116204761D01*
X107452380Y-116252380D01*
X107309523Y-116252380D01*
X108500000Y-115585714D02*
X108500000Y-116252380D01*
X108071428Y-115585714D02*
X108071428Y-116109523D01*
X108119047Y-116204761D01*
X108214285Y-116252380D01*
X108357142Y-116252380D01*
X108452380Y-116204761D01*
X108500000Y-116157142D01*
X108976190Y-115585714D02*
X108976190Y-116252380D01*
X108976190Y-115680952D02*
X109023809Y-115633333D01*
X109119047Y-115585714D01*
X109261904Y-115585714D01*
X109357142Y-115633333D01*
X109404761Y-115728571D01*
X109404761Y-116252380D01*
X109738095Y-115585714D02*
X110119047Y-115585714D01*
X109880952Y-115252380D02*
X109880952Y-116109523D01*
X109928571Y-116204761D01*
X110023809Y-116252380D01*
X110119047Y-116252380D01*
X110452380Y-116252380D02*
X110452380Y-115585714D01*
X110452380Y-115252380D02*
X110404761Y-115300000D01*
X110452380Y-115347619D01*
X110500000Y-115300000D01*
X110452380Y-115252380D01*
X110452380Y-115347619D01*
X110928571Y-115585714D02*
X110928571Y-116252380D01*
X110928571Y-115680952D02*
X110976190Y-115633333D01*
X111071428Y-115585714D01*
X111214285Y-115585714D01*
X111309523Y-115633333D01*
X111357142Y-115728571D01*
X111357142Y-116252380D01*
X112261904Y-115585714D02*
X112261904Y-116395238D01*
X112214285Y-116490476D01*
X112166666Y-116538095D01*
X112071428Y-116585714D01*
X111928571Y-116585714D01*
X111833333Y-116538095D01*
X112261904Y-116204761D02*
X112166666Y-116252380D01*
X111976190Y-116252380D01*
X111880952Y-116204761D01*
X111833333Y-116157142D01*
X111785714Y-116061904D01*
X111785714Y-115776190D01*
X111833333Y-115680952D01*
X111880952Y-115633333D01*
X111976190Y-115585714D01*
X112166666Y-115585714D01*
X112261904Y-115633333D01*
X112738095Y-116252380D02*
X112738095Y-115252380D01*
X112738095Y-115728571D02*
X113309523Y-115728571D01*
X113309523Y-116252380D02*
X113309523Y-115252380D01*
X113928571Y-116252380D02*
X113833333Y-116204761D01*
X113785714Y-116157142D01*
X113738095Y-116061904D01*
X113738095Y-115776190D01*
X113785714Y-115680952D01*
X113833333Y-115633333D01*
X113928571Y-115585714D01*
X114071428Y-115585714D01*
X114166666Y-115633333D01*
X114214285Y-115680952D01*
X114261904Y-115776190D01*
X114261904Y-116061904D01*
X114214285Y-116157142D01*
X114166666Y-116204761D01*
X114071428Y-116252380D01*
X113928571Y-116252380D01*
X114833333Y-116252380D02*
X114738095Y-116204761D01*
X114690476Y-116109523D01*
X114690476Y-115252380D01*
X115595238Y-116204761D02*
X115500000Y-116252380D01*
X115309523Y-116252380D01*
X115214285Y-116204761D01*
X115166666Y-116109523D01*
X115166666Y-115728571D01*
X115214285Y-115633333D01*
X115309523Y-115585714D01*
X115500000Y-115585714D01*
X115595238Y-115633333D01*
X115642857Y-115728571D01*
X115642857Y-115823809D01*
X115166666Y-115919047D01*
X115833333Y-116347619D02*
X116595238Y-116347619D01*
X116738095Y-115252380D02*
X117357142Y-115252380D01*
X117023809Y-115633333D01*
X117166666Y-115633333D01*
X117261904Y-115680952D01*
X117309523Y-115728571D01*
X117357142Y-115823809D01*
X117357142Y-116061904D01*
X117309523Y-116157142D01*
X117261904Y-116204761D01*
X117166666Y-116252380D01*
X116880952Y-116252380D01*
X116785714Y-116204761D01*
X116738095Y-116157142D01*
X117785714Y-116157142D02*
X117833333Y-116204761D01*
X117785714Y-116252380D01*
X117738095Y-116204761D01*
X117785714Y-116157142D01*
X117785714Y-116252380D01*
X118214285Y-115347619D02*
X118261904Y-115300000D01*
X118357142Y-115252380D01*
X118595238Y-115252380D01*
X118690476Y-115300000D01*
X118738095Y-115347619D01*
X118785714Y-115442857D01*
X118785714Y-115538095D01*
X118738095Y-115680952D01*
X118166666Y-116252380D01*
X118785714Y-116252380D01*
X119214285Y-116252380D02*
X119214285Y-115585714D01*
X119214285Y-115680952D02*
X119261904Y-115633333D01*
X119357142Y-115585714D01*
X119500000Y-115585714D01*
X119595238Y-115633333D01*
X119642857Y-115728571D01*
X119642857Y-116252380D01*
X119642857Y-115728571D02*
X119690476Y-115633333D01*
X119785714Y-115585714D01*
X119928571Y-115585714D01*
X120023809Y-115633333D01*
X120071428Y-115728571D01*
X120071428Y-116252380D01*
X120547619Y-116252380D02*
X120547619Y-115585714D01*
X120547619Y-115680952D02*
X120595238Y-115633333D01*
X120690476Y-115585714D01*
X120833333Y-115585714D01*
X120928571Y-115633333D01*
X120976190Y-115728571D01*
X120976190Y-116252380D01*
X120976190Y-115728571D02*
X121023809Y-115633333D01*
X121119047Y-115585714D01*
X121261904Y-115585714D01*
X121357142Y-115633333D01*
X121404761Y-115728571D01*
X121404761Y-116252380D01*
X121642857Y-116347619D02*
X122404761Y-116347619D01*
X122642857Y-116252380D02*
X122642857Y-115252380D01*
X122976190Y-115966666D01*
X123309523Y-115252380D01*
X123309523Y-116252380D01*
X123690476Y-115252380D02*
X124309523Y-115252380D01*
X123976190Y-115633333D01*
X124119047Y-115633333D01*
X124214285Y-115680952D01*
X124261904Y-115728571D01*
X124309523Y-115823809D01*
X124309523Y-116061904D01*
X124261904Y-116157142D01*
X124214285Y-116204761D01*
X124119047Y-116252380D01*
X123833333Y-116252380D01*
X123738095Y-116204761D01*
X123690476Y-116157142D01*
X124500000Y-116347619D02*
X125261904Y-116347619D01*
X125500000Y-116252380D02*
X125500000Y-115252380D01*
X125738095Y-115252380D01*
X125880952Y-115300000D01*
X125976190Y-115395238D01*
X126023809Y-115490476D01*
X126071428Y-115680952D01*
X126071428Y-115823809D01*
X126023809Y-116014285D01*
X125976190Y-116109523D01*
X125880952Y-116204761D01*
X125738095Y-116252380D01*
X125500000Y-116252380D01*
X126500000Y-116252380D02*
X126500000Y-115252380D01*
X126976190Y-116252380D02*
X126976190Y-115252380D01*
X127547619Y-116252380D01*
X127547619Y-115252380D01*
X128071428Y-116252380D02*
X128261904Y-116252380D01*
X128357142Y-116204761D01*
X128404761Y-116157142D01*
X128500000Y-116014285D01*
X128547619Y-115823809D01*
X128547619Y-115442857D01*
X128500000Y-115347619D01*
X128452380Y-115300000D01*
X128357142Y-115252380D01*
X128166666Y-115252380D01*
X128071428Y-115300000D01*
X128023809Y-115347619D01*
X127976190Y-115442857D01*
X127976190Y-115680952D01*
X128023809Y-115776190D01*
X128071428Y-115823809D01*
X128166666Y-115871428D01*
X128357142Y-115871428D01*
X128452380Y-115823809D01*
X128500000Y-115776190D01*
X128547619Y-115680952D01*
X129404761Y-115252380D02*
X129214285Y-115252380D01*
X129119047Y-115300000D01*
X129071428Y-115347619D01*
X128976190Y-115490476D01*
X128928571Y-115680952D01*
X128928571Y-116061904D01*
X128976190Y-116157142D01*
X129023809Y-116204761D01*
X129119047Y-116252380D01*
X129309523Y-116252380D01*
X129404761Y-116204761D01*
X129452380Y-116157142D01*
X129500000Y-116061904D01*
X129500000Y-115823809D01*
X129452380Y-115728571D01*
X129404761Y-115680952D01*
X129309523Y-115633333D01*
X129119047Y-115633333D01*
X129023809Y-115680952D01*
X128976190Y-115728571D01*
X128928571Y-115823809D01*
X130404761Y-115252380D02*
X129928571Y-115252380D01*
X129880952Y-115728571D01*
X129928571Y-115680952D01*
X130023809Y-115633333D01*
X130261904Y-115633333D01*
X130357142Y-115680952D01*
X130404761Y-115728571D01*
X130452380Y-115823809D01*
X130452380Y-116061904D01*
X130404761Y-116157142D01*
X130357142Y-116204761D01*
X130261904Y-116252380D01*
X130023809Y-116252380D01*
X129928571Y-116204761D01*
X129880952Y-116157142D01*
X130642857Y-116347619D02*
X131404761Y-116347619D01*
X131642857Y-116252380D02*
X131642857Y-115252380D01*
X132023809Y-115252380D01*
X132119047Y-115300000D01*
X132166666Y-115347619D01*
X132214285Y-115442857D01*
X132214285Y-115585714D01*
X132166666Y-115680952D01*
X132119047Y-115728571D01*
X132023809Y-115776190D01*
X131642857Y-115776190D01*
X133071428Y-116252380D02*
X133071428Y-115728571D01*
X133023809Y-115633333D01*
X132928571Y-115585714D01*
X132738095Y-115585714D01*
X132642857Y-115633333D01*
X133071428Y-116204761D02*
X132976190Y-116252380D01*
X132738095Y-116252380D01*
X132642857Y-116204761D01*
X132595238Y-116109523D01*
X132595238Y-116014285D01*
X132642857Y-115919047D01*
X132738095Y-115871428D01*
X132976190Y-115871428D01*
X133071428Y-115823809D01*
X133976190Y-116252380D02*
X133976190Y-115252380D01*
X133976190Y-116204761D02*
X133880952Y-116252380D01*
X133690476Y-116252380D01*
X133595238Y-116204761D01*
X133547619Y-116157142D01*
X133499999Y-116061904D01*
X133499999Y-115776190D01*
X133547619Y-115680952D01*
X133595238Y-115633333D01*
X133690476Y-115585714D01*
X133880952Y-115585714D01*
X133976190Y-115633333D01*
%TO.C,.*%
X149757142Y-67004761D02*
X149900000Y-67052380D01*
X150138095Y-67052380D01*
X150233333Y-67004761D01*
X150280952Y-66957142D01*
X150328571Y-66861904D01*
X150328571Y-66766666D01*
X150280952Y-66671428D01*
X150233333Y-66623809D01*
X150138095Y-66576190D01*
X149947619Y-66528571D01*
X149852380Y-66480952D01*
X149804761Y-66433333D01*
X149757142Y-66338095D01*
X149757142Y-66242857D01*
X149804761Y-66147619D01*
X149852380Y-66100000D01*
X149947619Y-66052380D01*
X150185714Y-66052380D01*
X150328571Y-66100000D01*
X150757142Y-66385714D02*
X150757142Y-67385714D01*
X150757142Y-66433333D02*
X150852380Y-66385714D01*
X151042857Y-66385714D01*
X151138095Y-66433333D01*
X151185714Y-66480952D01*
X151233333Y-66576190D01*
X151233333Y-66861904D01*
X151185714Y-66957142D01*
X151138095Y-67004761D01*
X151042857Y-67052380D01*
X150852380Y-67052380D01*
X150757142Y-67004761D01*
X151661904Y-67052380D02*
X151661904Y-66385714D01*
X151661904Y-66052380D02*
X151614285Y-66100000D01*
X151661904Y-66147619D01*
X151709523Y-66100000D01*
X151661904Y-66052380D01*
X151661904Y-66147619D01*
X152138095Y-67052380D02*
X152138095Y-66052380D01*
X152233333Y-66671428D02*
X152519047Y-67052380D01*
X152519047Y-66385714D02*
X152138095Y-66766666D01*
X153328571Y-67004761D02*
X153233333Y-67052380D01*
X153042857Y-67052380D01*
X152947619Y-67004761D01*
X152900000Y-66909523D01*
X152900000Y-66528571D01*
X152947619Y-66433333D01*
X153042857Y-66385714D01*
X153233333Y-66385714D01*
X153328571Y-66433333D01*
X153376190Y-66528571D01*
X153376190Y-66623809D01*
X152900000Y-66719047D01*
X153947619Y-67052380D02*
X153852380Y-67004761D01*
X153804761Y-66909523D01*
X153804761Y-66052380D01*
X154328571Y-67052380D02*
X154328571Y-66385714D01*
X154328571Y-66052380D02*
X154280952Y-66100000D01*
X154328571Y-66147619D01*
X154376190Y-66100000D01*
X154328571Y-66052380D01*
X154328571Y-66147619D01*
X154804761Y-66385714D02*
X154804761Y-67052380D01*
X154804761Y-66480952D02*
X154852380Y-66433333D01*
X154947619Y-66385714D01*
X155090476Y-66385714D01*
X155185714Y-66433333D01*
X155233333Y-66528571D01*
X155233333Y-67052380D01*
X156138095Y-66385714D02*
X156138095Y-67195238D01*
X156090476Y-67290476D01*
X156042857Y-67338095D01*
X155947619Y-67385714D01*
X155804761Y-67385714D01*
X155709523Y-67338095D01*
X156138095Y-67004761D02*
X156042857Y-67052380D01*
X155852380Y-67052380D01*
X155757142Y-67004761D01*
X155709523Y-66957142D01*
X155661904Y-66861904D01*
X155661904Y-66576190D01*
X155709523Y-66480952D01*
X155757142Y-66433333D01*
X155852380Y-66385714D01*
X156042857Y-66385714D01*
X156138095Y-66433333D01*
X156376190Y-67147619D02*
X157138095Y-67147619D01*
X157376190Y-66385714D02*
X157376190Y-67052380D01*
X157376190Y-66480952D02*
X157423809Y-66433333D01*
X157519047Y-66385714D01*
X157661904Y-66385714D01*
X157757142Y-66433333D01*
X157804761Y-66528571D01*
X157804761Y-67052380D01*
X158661904Y-67004761D02*
X158566666Y-67052380D01*
X158376190Y-67052380D01*
X158280952Y-67004761D01*
X158233333Y-66909523D01*
X158233333Y-66528571D01*
X158280952Y-66433333D01*
X158376190Y-66385714D01*
X158566666Y-66385714D01*
X158661904Y-66433333D01*
X158709523Y-66528571D01*
X158709523Y-66623809D01*
X158233333Y-66719047D01*
X159566666Y-66385714D02*
X159566666Y-67052380D01*
X159138095Y-66385714D02*
X159138095Y-66909523D01*
X159185714Y-67004761D01*
X159280952Y-67052380D01*
X159423809Y-67052380D01*
X159519047Y-67004761D01*
X159566666Y-66957142D01*
X160042857Y-67052380D02*
X160042857Y-66385714D01*
X160042857Y-66576190D02*
X160090476Y-66480952D01*
X160138095Y-66433333D01*
X160233333Y-66385714D01*
X160328571Y-66385714D01*
X160804761Y-67052380D02*
X160709523Y-67004761D01*
X160661904Y-66957142D01*
X160614285Y-66861904D01*
X160614285Y-66576190D01*
X160661904Y-66480952D01*
X160709523Y-66433333D01*
X160804761Y-66385714D01*
X160947619Y-66385714D01*
X161042857Y-66433333D01*
X161090476Y-66480952D01*
X161138095Y-66576190D01*
X161138095Y-66861904D01*
X161090476Y-66957142D01*
X161042857Y-67004761D01*
X160947619Y-67052380D01*
X160804761Y-67052380D01*
X161566666Y-66385714D02*
X161566666Y-67052380D01*
X161566666Y-66480952D02*
X161614285Y-66433333D01*
X161709523Y-66385714D01*
X161852380Y-66385714D01*
X161947619Y-66433333D01*
X161995238Y-66528571D01*
X161995238Y-67052380D01*
D10*
%TO.C,R6*%
X181455000Y-80439285D02*
X181205000Y-80082142D01*
X181026428Y-80439285D02*
X181026428Y-79689285D01*
X181312142Y-79689285D01*
X181383571Y-79725000D01*
X181419285Y-79760714D01*
X181455000Y-79832142D01*
X181455000Y-79939285D01*
X181419285Y-80010714D01*
X181383571Y-80046428D01*
X181312142Y-80082142D01*
X181026428Y-80082142D01*
X182097857Y-79689285D02*
X181955000Y-79689285D01*
X181883571Y-79725000D01*
X181847857Y-79760714D01*
X181776428Y-79867857D01*
X181740714Y-80010714D01*
X181740714Y-80296428D01*
X181776428Y-80367857D01*
X181812142Y-80403571D01*
X181883571Y-80439285D01*
X182026428Y-80439285D01*
X182097857Y-80403571D01*
X182133571Y-80367857D01*
X182169285Y-80296428D01*
X182169285Y-80117857D01*
X182133571Y-80046428D01*
X182097857Y-80010714D01*
X182026428Y-79975000D01*
X181883571Y-79975000D01*
X181812142Y-80010714D01*
X181776428Y-80046428D01*
X181740714Y-80117857D01*
D11*
X181413333Y-80552380D02*
X181080000Y-80076190D01*
X180841904Y-80552380D02*
X180841904Y-79552380D01*
X181222857Y-79552380D01*
X181318095Y-79600000D01*
X181365714Y-79647619D01*
X181413333Y-79742857D01*
X181413333Y-79885714D01*
X181365714Y-79980952D01*
X181318095Y-80028571D01*
X181222857Y-80076190D01*
X180841904Y-80076190D01*
X182270476Y-79552380D02*
X182080000Y-79552380D01*
X181984761Y-79600000D01*
X181937142Y-79647619D01*
X181841904Y-79790476D01*
X181794285Y-79980952D01*
X181794285Y-80361904D01*
X181841904Y-80457142D01*
X181889523Y-80504761D01*
X181984761Y-80552380D01*
X182175238Y-80552380D01*
X182270476Y-80504761D01*
X182318095Y-80457142D01*
X182365714Y-80361904D01*
X182365714Y-80123809D01*
X182318095Y-80028571D01*
X182270476Y-79980952D01*
X182175238Y-79933333D01*
X181984761Y-79933333D01*
X181889523Y-79980952D01*
X181841904Y-80028571D01*
X181794285Y-80123809D01*
%TO.C,SW1*%
X192776666Y-126654761D02*
X192919523Y-126702380D01*
X193157619Y-126702380D01*
X193252857Y-126654761D01*
X193300476Y-126607142D01*
X193348095Y-126511904D01*
X193348095Y-126416666D01*
X193300476Y-126321428D01*
X193252857Y-126273809D01*
X193157619Y-126226190D01*
X192967142Y-126178571D01*
X192871904Y-126130952D01*
X192824285Y-126083333D01*
X192776666Y-125988095D01*
X192776666Y-125892857D01*
X192824285Y-125797619D01*
X192871904Y-125750000D01*
X192967142Y-125702380D01*
X193205238Y-125702380D01*
X193348095Y-125750000D01*
X193681428Y-125702380D02*
X193919523Y-126702380D01*
X194110000Y-125988095D01*
X194300476Y-126702380D01*
X194538571Y-125702380D01*
X195443333Y-126702380D02*
X194871904Y-126702380D01*
X195157619Y-126702380D02*
X195157619Y-125702380D01*
X195062380Y-125845238D01*
X194967142Y-125940476D01*
X194871904Y-125988095D01*
%TO.C,U1*%
X169816976Y-108898214D02*
X169816976Y-109708050D01*
X169864613Y-109803325D01*
X169912251Y-109850963D01*
X170007525Y-109898600D01*
X170198075Y-109898600D01*
X170293350Y-109850963D01*
X170340987Y-109803325D01*
X170388625Y-109708050D01*
X170388625Y-108898214D01*
X171389011Y-109898600D02*
X170817362Y-109898600D01*
X171103186Y-109898600D02*
X171103186Y-108898214D01*
X171007911Y-109041126D01*
X170912637Y-109136401D01*
X170817362Y-109184039D01*
D10*
%TO.C,D8*%
X196716428Y-111883285D02*
X196716428Y-111133285D01*
X196895000Y-111133285D01*
X197002142Y-111169000D01*
X197073571Y-111240428D01*
X197109285Y-111311857D01*
X197145000Y-111454714D01*
X197145000Y-111561857D01*
X197109285Y-111704714D01*
X197073571Y-111776142D01*
X197002142Y-111847571D01*
X196895000Y-111883285D01*
X196716428Y-111883285D01*
X197573571Y-111454714D02*
X197502142Y-111419000D01*
X197466428Y-111383285D01*
X197430714Y-111311857D01*
X197430714Y-111276142D01*
X197466428Y-111204714D01*
X197502142Y-111169000D01*
X197573571Y-111133285D01*
X197716428Y-111133285D01*
X197787857Y-111169000D01*
X197823571Y-111204714D01*
X197859285Y-111276142D01*
X197859285Y-111311857D01*
X197823571Y-111383285D01*
X197787857Y-111419000D01*
X197716428Y-111454714D01*
X197573571Y-111454714D01*
X197502142Y-111490428D01*
X197466428Y-111526142D01*
X197430714Y-111597571D01*
X197430714Y-111740428D01*
X197466428Y-111811857D01*
X197502142Y-111847571D01*
X197573571Y-111883285D01*
X197716428Y-111883285D01*
X197787857Y-111847571D01*
X197823571Y-111811857D01*
X197859285Y-111740428D01*
X197859285Y-111597571D01*
X197823571Y-111526142D01*
X197787857Y-111490428D01*
X197716428Y-111454714D01*
%TO.C,D6*%
X190716428Y-81703285D02*
X190716428Y-80953285D01*
X190895000Y-80953285D01*
X191002142Y-80989000D01*
X191073571Y-81060428D01*
X191109285Y-81131857D01*
X191145000Y-81274714D01*
X191145000Y-81381857D01*
X191109285Y-81524714D01*
X191073571Y-81596142D01*
X191002142Y-81667571D01*
X190895000Y-81703285D01*
X190716428Y-81703285D01*
X191787857Y-80953285D02*
X191645000Y-80953285D01*
X191573571Y-80989000D01*
X191537857Y-81024714D01*
X191466428Y-81131857D01*
X191430714Y-81274714D01*
X191430714Y-81560428D01*
X191466428Y-81631857D01*
X191502142Y-81667571D01*
X191573571Y-81703285D01*
X191716428Y-81703285D01*
X191787857Y-81667571D01*
X191823571Y-81631857D01*
X191859285Y-81560428D01*
X191859285Y-81381857D01*
X191823571Y-81310428D01*
X191787857Y-81274714D01*
X191716428Y-81239000D01*
X191573571Y-81239000D01*
X191502142Y-81274714D01*
X191466428Y-81310428D01*
X191430714Y-81381857D01*
%TO.C,D14*%
X175530306Y-64095000D02*
X178469694Y-64095000D01*
X178469666Y-64095016D02*
G75*
G03*
X175530306Y-64095000I-1469666J2500016D01*
G01*
X179500000Y-61595000D02*
G75*
G03*
X179500000Y-61595000I-2500000J0D01*
G01*
%TO.C,D7*%
X189770000Y-75612810D02*
X189770000Y-77945190D01*
X189769445Y-77944476D02*
G75*
G03*
X189770000Y-75612810I1500555J1165476D01*
G01*
X192770000Y-76779000D02*
G75*
G03*
X192770000Y-76779000I-1500000J0D01*
G01*
%TO.C,D2*%
X189770000Y-113337810D02*
X189770000Y-115670190D01*
X189769445Y-115669476D02*
G75*
G03*
X189770000Y-113337810I1500555J1165476D01*
G01*
X192770000Y-114504000D02*
G75*
G03*
X192770000Y-114504000I-1500000J0D01*
G01*
%TO.C,R5*%
X176500000Y-98100000D02*
X178430000Y-98100000D01*
X186660000Y-98100000D02*
X184730000Y-98100000D01*
X178430000Y-99350000D02*
X184730000Y-99350000D01*
X184730000Y-99350000D02*
X184730000Y-96850000D01*
X178430000Y-96850000D02*
X178430000Y-99350000D01*
X184730000Y-96850000D02*
X178430000Y-96850000D01*
%TO.C,U3*%
X131135000Y-108175000D02*
X131135000Y-88855000D01*
X137485000Y-108175000D02*
X131135000Y-108175000D01*
X131135000Y-88855000D02*
X132135000Y-87855000D01*
X132135000Y-87855000D02*
X137485000Y-87855000D01*
X137485000Y-87855000D02*
X137485000Y-108175000D01*
%TO.C,RV6*%
X208100000Y-114500000D02*
X217900000Y-114500000D01*
X217900000Y-102500000D02*
X208100000Y-102500000D01*
X208100000Y-102500000D02*
X208100000Y-114500000D01*
X217900000Y-114500000D02*
X217900000Y-102500000D01*
X216000000Y-109000000D02*
G75*
G03*
X216000000Y-109000000I-3000000J0D01*
G01*
X213100000Y-109000000D02*
G75*
G03*
X213100000Y-109000000I-100000J0D01*
G01*
%TO.C,RV4*%
X181400000Y-129900000D02*
X181400000Y-117900000D01*
X181400000Y-117900000D02*
X171600000Y-117900000D01*
X171600000Y-129900000D02*
X181400000Y-129900000D01*
X171600000Y-117900000D02*
X171600000Y-129900000D01*
X179500000Y-124400000D02*
G75*
G03*
X179500000Y-124400000I-3000000J0D01*
G01*
X176600000Y-124400000D02*
G75*
G03*
X176600000Y-124400000I-100000J0D01*
G01*
%TO.C,RV1*%
X111900000Y-64300000D02*
X102100000Y-64300000D01*
X102100000Y-64300000D02*
X102100000Y-76300000D01*
X102100000Y-76300000D02*
X111900000Y-76300000D01*
X111900000Y-76300000D02*
X111900000Y-64300000D01*
X110000000Y-70800000D02*
G75*
G03*
X110000000Y-70800000I-3000000J0D01*
G01*
X107100000Y-70800000D02*
G75*
G03*
X107100000Y-70800000I-100000J0D01*
G01*
%TO.C,D4*%
X189770000Y-98247810D02*
X189770000Y-100580190D01*
X189769445Y-100579476D02*
G75*
G03*
X189770000Y-98247810I1500555J1165476D01*
G01*
X192770000Y-99414000D02*
G75*
G03*
X192770000Y-99414000I-1500000J0D01*
G01*
%TO.C,RV3*%
X123500000Y-129900000D02*
X123500000Y-117900000D01*
X113700000Y-117900000D02*
X113700000Y-129900000D01*
X113700000Y-129900000D02*
X123500000Y-129900000D01*
X123500000Y-117900000D02*
X113700000Y-117900000D01*
X121600000Y-124400000D02*
G75*
G03*
X121600000Y-124400000I-3000000J0D01*
G01*
X118700000Y-124400000D02*
G75*
G03*
X118700000Y-124400000I-100000J0D01*
G01*
%TO.C,R3*%
X176600000Y-102600000D02*
X178530000Y-102600000D01*
X178530000Y-103850000D02*
X184830000Y-103850000D01*
X186760000Y-102600000D02*
X184830000Y-102600000D01*
X184830000Y-101350000D02*
X178530000Y-101350000D01*
X178530000Y-101350000D02*
X178530000Y-103850000D01*
X184830000Y-103850000D02*
X184830000Y-101350000D01*
%TO.C,U2*%
X131135000Y-84050000D02*
X131135000Y-64730000D01*
X132135000Y-63730000D02*
X137485000Y-63730000D01*
X137485000Y-84050000D02*
X131135000Y-84050000D01*
X131135000Y-64730000D02*
X132135000Y-63730000D01*
X137485000Y-63730000D02*
X137485000Y-84050000D01*
%TO.C,C2*%
X144175154Y-92617500D02*
X143775154Y-92617500D01*
X143975154Y-92817500D02*
X143975154Y-92417500D01*
X144472600Y-91750000D02*
G75*
G03*
X144472600Y-91750000I-2000000J0D01*
G01*
%TO.C,SW2*%
X137700000Y-58640000D02*
X138000000Y-58640000D01*
X138000000Y-58640000D02*
X138000000Y-51850000D01*
X130500000Y-51850000D02*
X138000000Y-51850000D01*
X136000000Y-50050000D02*
X136000000Y-51850000D01*
X130500000Y-58640000D02*
X130500000Y-51850000D01*
X132500000Y-50050000D02*
X136000000Y-50050000D01*
X132500000Y-50050000D02*
X132500000Y-51850000D01*
X130500000Y-58640000D02*
X130800000Y-58640000D01*
X130800000Y-58640000D02*
X130800000Y-55300000D01*
X137700000Y-58640000D02*
X137700000Y-55300000D01*
X130800000Y-55300000D02*
X137700000Y-55300000D01*
%TO.C,D11*%
X195770000Y-90702810D02*
X195770000Y-93035190D01*
X195769445Y-93034476D02*
G75*
G03*
X195770000Y-90702810I1500555J1165476D01*
G01*
X198770000Y-91869000D02*
G75*
G03*
X198770000Y-91869000I-1500000J0D01*
G01*
%TO.C,D9*%
X195770000Y-105792810D02*
X195770000Y-108125190D01*
X195769445Y-108124476D02*
G75*
G03*
X195770000Y-105792810I1500555J1165476D01*
G01*
X198770000Y-106959000D02*
G75*
G03*
X198770000Y-106959000I-1500000J0D01*
G01*
%TO.C,C1*%
X143975154Y-68567500D02*
X143975154Y-68167500D01*
X144175154Y-68367500D02*
X143775154Y-68367500D01*
X144472600Y-67500000D02*
G75*
G03*
X144472600Y-67500000I-2000000J0D01*
G01*
%TO.C,R9*%
X186660000Y-93600000D02*
X184730000Y-93600000D01*
X184730000Y-94850000D02*
X184730000Y-92350000D01*
X176500000Y-93600000D02*
X178430000Y-93600000D01*
X178430000Y-94850000D02*
X184730000Y-94850000D01*
X178430000Y-92350000D02*
X178430000Y-94850000D01*
X184730000Y-92350000D02*
X178430000Y-92350000D01*
%TO.C,D13*%
X195770000Y-75612810D02*
X195770000Y-77945190D01*
X195769445Y-77944476D02*
G75*
G03*
X195770000Y-75612810I1500555J1165476D01*
G01*
X198770000Y-76779000D02*
G75*
G03*
X198770000Y-76779000I-1500000J0D01*
G01*
%TO.C,D12*%
X195770000Y-83157810D02*
X195770000Y-85490190D01*
X195769445Y-85489476D02*
G75*
G03*
X195770000Y-83157810I1500555J1165476D01*
G01*
X198770000Y-84324000D02*
G75*
G03*
X198770000Y-84324000I-1500000J0D01*
G01*
%TO.C,D10*%
X195770000Y-98247810D02*
X195770000Y-100580190D01*
X195769445Y-100579476D02*
G75*
G03*
X195770000Y-98247810I1500555J1165476D01*
G01*
X198770000Y-99414000D02*
G75*
G03*
X198770000Y-99414000I-1500000J0D01*
G01*
%TO.C,R1*%
X196650000Y-68550000D02*
X202950000Y-68550000D01*
X196650000Y-66050000D02*
X196650000Y-68550000D01*
X194720000Y-67300000D02*
X196650000Y-67300000D01*
X202950000Y-66050000D02*
X196650000Y-66050000D01*
X204880000Y-67300000D02*
X202950000Y-67300000D01*
X202950000Y-68550000D02*
X202950000Y-66050000D01*
%TO.C,D1*%
X137458000Y-122930306D02*
X137458000Y-125869694D01*
X137457984Y-125869666D02*
G75*
G03*
X137458000Y-122930306I2500016J1469666D01*
G01*
X142458000Y-124400000D02*
G75*
G03*
X142458000Y-124400000I-2500000J0D01*
G01*
%TO.C,RV7*%
X217900000Y-88872000D02*
X217900000Y-76872000D01*
X208100000Y-76872000D02*
X208100000Y-88872000D01*
X208100000Y-88872000D02*
X217900000Y-88872000D01*
X217900000Y-76872000D02*
X208100000Y-76872000D01*
X213100000Y-83372000D02*
G75*
G03*
X213100000Y-83372000I-100000J0D01*
G01*
X216000000Y-83372000D02*
G75*
G03*
X216000000Y-83372000I-3000000J0D01*
G01*
%TO.C,RV2*%
X102100000Y-92300000D02*
X102100000Y-104300000D01*
X111900000Y-92300000D02*
X102100000Y-92300000D01*
X111900000Y-104300000D02*
X111900000Y-92300000D01*
X102100000Y-104300000D02*
X111900000Y-104300000D01*
X107100000Y-98800000D02*
G75*
G03*
X107100000Y-98800000I-100000J0D01*
G01*
X110000000Y-98800000D02*
G75*
G03*
X110000000Y-98800000I-3000000J0D01*
G01*
%TO.C,D3*%
X189770000Y-105792810D02*
X189770000Y-108125190D01*
X189769445Y-108124476D02*
G75*
G03*
X189770000Y-105792810I1500555J1165476D01*
G01*
X192770000Y-106959000D02*
G75*
G03*
X192770000Y-106959000I-1500000J0D01*
G01*
%TO.C,D5*%
X189770000Y-90702810D02*
X189770000Y-93035190D01*
X189769445Y-93034476D02*
G75*
G03*
X189770000Y-90702810I1500555J1165476D01*
G01*
X192770000Y-91869000D02*
G75*
G03*
X192770000Y-91869000I-1500000J0D01*
G01*
%TO.C,R8*%
X176500000Y-89100000D02*
X178430000Y-89100000D01*
X184730000Y-90350000D02*
X184730000Y-87850000D01*
X186660000Y-89100000D02*
X184730000Y-89100000D01*
X178430000Y-90350000D02*
X184730000Y-90350000D01*
X184730000Y-87850000D02*
X178430000Y-87850000D01*
X178430000Y-87850000D02*
X178430000Y-90350000D01*
%TO.C,R2*%
X176600000Y-107100000D02*
X178530000Y-107100000D01*
X178530000Y-108350000D02*
X184830000Y-108350000D01*
X184830000Y-108350000D02*
X184830000Y-105850000D01*
X178530000Y-105850000D02*
X178530000Y-108350000D01*
X184830000Y-105850000D02*
X178530000Y-105850000D01*
X186760000Y-107100000D02*
X184830000Y-107100000D01*
%TO.C,RV5*%
X149219000Y-129900000D02*
X159019000Y-129900000D01*
X159019000Y-117900000D02*
X149219000Y-117900000D01*
X149219000Y-117900000D02*
X149219000Y-129900000D01*
X159019000Y-129900000D02*
X159019000Y-117900000D01*
X154219000Y-124400000D02*
G75*
G03*
X154219000Y-124400000I-100000J0D01*
G01*
X157119000Y-124400000D02*
G75*
G03*
X157119000Y-124400000I-3000000J0D01*
G01*
%TO.C,C3*%
X204850000Y-62600000D02*
X204850000Y-60100000D01*
X204850000Y-60100000D02*
X194850000Y-60100000D01*
X194850000Y-62600000D02*
X204850000Y-62600000D01*
X194850000Y-60100000D02*
X194850000Y-62600000D01*
%TO.C,R7*%
X178430000Y-83350000D02*
X178430000Y-85850000D01*
X178430000Y-85850000D02*
X184730000Y-85850000D01*
X184730000Y-83350000D02*
X178430000Y-83350000D01*
X176500000Y-84600000D02*
X178430000Y-84600000D01*
X184730000Y-85850000D02*
X184730000Y-83350000D01*
X186660000Y-84600000D02*
X184730000Y-84600000D01*
%TO.C,R4*%
X184750000Y-74350000D02*
X178450000Y-74350000D01*
X178450000Y-76850000D02*
X184750000Y-76850000D01*
X178450000Y-74350000D02*
X178450000Y-76850000D01*
X184750000Y-76850000D02*
X184750000Y-74350000D01*
X186680000Y-75600000D02*
X184750000Y-75600000D01*
X176520000Y-75600000D02*
X178450000Y-75600000D01*
%TO.C,BZ1*%
X192150000Y-61500000D02*
G75*
G03*
X192150000Y-61500000I-5650000J0D01*
G01*
X187500000Y-61500000D02*
G75*
G03*
X187500000Y-61500000I-1000000J0D01*
G01*
%TO.C,R6*%
X178430000Y-78850000D02*
X178430000Y-81350000D01*
X186660000Y-80100000D02*
X184730000Y-80100000D01*
X176500000Y-80100000D02*
X178430000Y-80100000D01*
X178430000Y-81350000D02*
X184730000Y-81350000D01*
X184730000Y-78850000D02*
X178430000Y-78850000D01*
X184730000Y-81350000D02*
X184730000Y-78850000D01*
%TO.C,SW1*%
X191110000Y-124500000D02*
X191110000Y-118500000D01*
X194110000Y-118500000D02*
X197110000Y-118500000D01*
X197110000Y-118500000D02*
X197110000Y-124500000D01*
X197110000Y-124500000D02*
X191110000Y-124500000D01*
X191110000Y-118500000D02*
X194110000Y-118500000D01*
X196125564Y-121500000D02*
G75*
G03*
X196125564Y-121500000I-2015564J0D01*
G01*
D13*
%TO.C,U1*%
X173700000Y-53750000D02*
X173700000Y-108150000D01*
X145800000Y-53750000D02*
X173700000Y-53750000D01*
X145800000Y-108150000D02*
X145800000Y-53750000D01*
X173700000Y-108150000D02*
X145800000Y-108150000D01*
D14*
X174490000Y-100900000D02*
G75*
G03*
X174490000Y-100900000I-140000J0D01*
G01*
X174490000Y-100900000D02*
G75*
G03*
X174490000Y-100900000I-140000J0D01*
G01*
D10*
%TO.C,D8*%
X195770000Y-113337810D02*
X195770000Y-115670190D01*
X195769445Y-115669476D02*
G75*
G03*
X195770000Y-113337810I1500555J1165476D01*
G01*
X198770000Y-114504000D02*
G75*
G03*
X198770000Y-114504000I-1500000J0D01*
G01*
%TO.C,D6*%
X189770000Y-83157810D02*
X189770000Y-85490190D01*
X189769445Y-85489476D02*
G75*
G03*
X189770000Y-83157810I1500555J1165476D01*
G01*
X192770000Y-84324000D02*
G75*
G03*
X192770000Y-84324000I-1500000J0D01*
G01*
%TD*%
M02*
