%TF.GenerationSoftware,KiCad,Pcbnew,(6.0.4)*%
%TF.CreationDate,2022-10-21T11:56:49+02:00*%
%TF.ProjectId,Spikeling_V2.2c,5370696b-656c-4696-9e67-5f56322e3263,rev?*%
%TF.SameCoordinates,Original*%
%TF.FileFunction,Other,User*%
%FSLAX46Y46*%
G04 Gerber Fmt 4.6, Leading zero omitted, Abs format (unit mm)*
G04 Created by KiCad (PCBNEW (6.0.4)) date 2022-10-21 11:56:49*
%MOMM*%
%LPD*%
G01*
G04 APERTURE LIST*
%ADD10C,0.050000*%
%ADD11C,0.120000*%
G04 APERTURE END LIST*
D10*
%TO.C,D14*%
X180250000Y-64850000D02*
X180250000Y-58350000D01*
X173750000Y-64850000D02*
X180250000Y-64850000D01*
X180250000Y-58350000D02*
X173750000Y-58350000D01*
X173750000Y-58350000D02*
X173750000Y-64850000D01*
%TO.C, *%
X123050000Y-55000000D02*
G75*
G03*
X123050000Y-55000000I-3050000J0D01*
G01*
%TO.C,D7*%
X193700000Y-79029000D02*
X193700000Y-74529000D01*
X188850000Y-79029000D02*
X193700000Y-79029000D01*
X188850000Y-74529000D02*
X188850000Y-79029000D01*
X193700000Y-74529000D02*
X188850000Y-74529000D01*
%TO.C,D2*%
X193700000Y-112254000D02*
X188850000Y-112254000D01*
X188850000Y-116754000D02*
X193700000Y-116754000D01*
X188850000Y-112254000D02*
X188850000Y-116754000D01*
X193700000Y-116754000D02*
X193700000Y-112254000D01*
%TO.C,R5*%
X175450000Y-96600000D02*
X175450000Y-99600000D01*
X187710000Y-99600000D02*
X187710000Y-96600000D01*
X175450000Y-99600000D02*
X187710000Y-99600000D01*
X187710000Y-96600000D02*
X175450000Y-96600000D01*
%TO.C,U3*%
X139200000Y-108425000D02*
X139200000Y-87575000D01*
X129400000Y-108425000D02*
X139200000Y-108425000D01*
X139200000Y-87575000D02*
X129400000Y-87575000D01*
X129400000Y-87575000D02*
X129400000Y-108425000D01*
%TO.C,RV6*%
X206350000Y-100350000D02*
X206350000Y-114750000D01*
X219650000Y-114750000D02*
X219650000Y-100350000D01*
X219650000Y-100350000D02*
X206350000Y-100350000D01*
X206350000Y-114750000D02*
X219650000Y-114750000D01*
%TO.C,RV4*%
X169850000Y-115750000D02*
X169850000Y-130150000D01*
X183150000Y-130150000D02*
X183150000Y-115750000D01*
X169850000Y-130150000D02*
X183150000Y-130150000D01*
X183150000Y-115750000D02*
X169850000Y-115750000D01*
%TO.C,J2*%
X96882500Y-57900000D02*
X99882500Y-57900000D01*
X99882500Y-57900000D02*
X99882500Y-54300000D01*
X99882500Y-54300000D02*
X96882500Y-54300000D01*
X96882500Y-54300000D02*
X96882500Y-57900000D01*
D11*
X99882500Y-62100000D02*
X112082500Y-62100000D01*
X112082500Y-62100000D02*
X112082500Y-50100000D01*
X112082500Y-50100000D02*
X99882500Y-50100000D01*
X99882500Y-50100000D02*
X99882500Y-62100000D01*
%TO.C,J1*%
X220100000Y-58000000D02*
X207900000Y-58000000D01*
X207900000Y-58000000D02*
X207900000Y-70000000D01*
X207900000Y-70000000D02*
X220100000Y-70000000D01*
X220100000Y-70000000D02*
X220100000Y-58000000D01*
D10*
X223100000Y-62200000D02*
X220100000Y-62200000D01*
X220100000Y-62200000D02*
X220100000Y-65800000D01*
X220100000Y-65800000D02*
X223100000Y-65800000D01*
X223100000Y-65800000D02*
X223100000Y-62200000D01*
%TO.C,RV1*%
X113650000Y-76550000D02*
X113650000Y-62150000D01*
X100350000Y-76550000D02*
X113650000Y-76550000D01*
X100350000Y-62150000D02*
X100350000Y-76550000D01*
X113650000Y-62150000D02*
X100350000Y-62150000D01*
%TO.C,D4*%
X193700000Y-101664000D02*
X193700000Y-97164000D01*
X188850000Y-101664000D02*
X193700000Y-101664000D01*
X193700000Y-97164000D02*
X188850000Y-97164000D01*
X188850000Y-97164000D02*
X188850000Y-101664000D01*
%TO.C,RV3*%
X125250000Y-115750000D02*
X111950000Y-115750000D01*
X111950000Y-115750000D02*
X111950000Y-130150000D01*
X111950000Y-130150000D02*
X125250000Y-130150000D01*
X125250000Y-130150000D02*
X125250000Y-115750000D01*
%TO.C,R3*%
X175550000Y-104100000D02*
X187810000Y-104100000D01*
X187810000Y-104100000D02*
X187810000Y-101100000D01*
X175550000Y-101100000D02*
X175550000Y-104100000D01*
X187810000Y-101100000D02*
X175550000Y-101100000D01*
%TO.C, *%
X207050000Y-55000000D02*
G75*
G03*
X207050000Y-55000000I-3050000J0D01*
G01*
%TO.C,U2*%
X129400000Y-84300000D02*
X139200000Y-84300000D01*
X139200000Y-63450000D02*
X129400000Y-63450000D01*
X129400000Y-63450000D02*
X129400000Y-84300000D01*
X139200000Y-84300000D02*
X139200000Y-63450000D01*
%TO.C,C2*%
X144722600Y-91750000D02*
G75*
G03*
X144722600Y-91750000I-2250000J0D01*
G01*
D11*
%TO.C,J5*%
X220000000Y-130117500D02*
X208000000Y-130117500D01*
X208000000Y-130117500D02*
X208000000Y-117917500D01*
X208000000Y-117917500D02*
X220000000Y-117917500D01*
X220000000Y-117917500D02*
X220000000Y-130117500D01*
D10*
X215800000Y-133117500D02*
X212200000Y-133117500D01*
X212200000Y-133117500D02*
X212200000Y-130117500D01*
X212200000Y-130117500D02*
X215800000Y-130117500D01*
X215800000Y-130117500D02*
X215800000Y-133117500D01*
%TO.C,SW2*%
X139050000Y-58890000D02*
X129500000Y-58890000D01*
X139050000Y-51640000D02*
X139050000Y-58890000D01*
X129500000Y-51640000D02*
X139050000Y-51640000D01*
X129500000Y-58890000D02*
X129500000Y-51640000D01*
%TO.C,D11*%
X199700000Y-89619000D02*
X194850000Y-89619000D01*
X199700000Y-94119000D02*
X199700000Y-89619000D01*
X194850000Y-89619000D02*
X194850000Y-94119000D01*
X194850000Y-94119000D02*
X199700000Y-94119000D01*
%TO.C,D9*%
X194850000Y-109209000D02*
X199700000Y-109209000D01*
X199700000Y-109209000D02*
X199700000Y-104709000D01*
X199700000Y-104709000D02*
X194850000Y-104709000D01*
X194850000Y-104709000D02*
X194850000Y-109209000D01*
%TO.C,C1*%
X144722600Y-67500000D02*
G75*
G03*
X144722600Y-67500000I-2250000J0D01*
G01*
%TO.C,R9*%
X175450000Y-92100000D02*
X175450000Y-95100000D01*
X187710000Y-92100000D02*
X175450000Y-92100000D01*
X175450000Y-95100000D02*
X187710000Y-95100000D01*
X187710000Y-95100000D02*
X187710000Y-92100000D01*
%TO.C,D13*%
X199700000Y-79029000D02*
X199700000Y-74529000D01*
X194850000Y-79029000D02*
X199700000Y-79029000D01*
X199700000Y-74529000D02*
X194850000Y-74529000D01*
X194850000Y-74529000D02*
X194850000Y-79029000D01*
%TO.C,D12*%
X199700000Y-82074000D02*
X194850000Y-82074000D01*
X194850000Y-86574000D02*
X199700000Y-86574000D01*
X194850000Y-82074000D02*
X194850000Y-86574000D01*
X199700000Y-86574000D02*
X199700000Y-82074000D01*
%TO.C,D10*%
X194850000Y-97164000D02*
X194850000Y-101664000D01*
X199700000Y-101664000D02*
X199700000Y-97164000D01*
X194850000Y-101664000D02*
X199700000Y-101664000D01*
X199700000Y-97164000D02*
X194850000Y-97164000D01*
%TO.C,R1*%
X205930000Y-65800000D02*
X193670000Y-65800000D01*
X205930000Y-68800000D02*
X205930000Y-65800000D01*
X193670000Y-65800000D02*
X193670000Y-68800000D01*
X193670000Y-68800000D02*
X205930000Y-68800000D01*
%TO.C,D1*%
X136738000Y-121150000D02*
X136738000Y-127650000D01*
X143188000Y-121150000D02*
X136738000Y-121150000D01*
X143188000Y-127650000D02*
X143188000Y-121150000D01*
X136738000Y-127650000D02*
X143188000Y-127650000D01*
%TO.C,RV7*%
X206350000Y-89122000D02*
X219650000Y-89122000D01*
X219650000Y-89122000D02*
X219650000Y-74722000D01*
X206350000Y-74722000D02*
X206350000Y-89122000D01*
X219650000Y-74722000D02*
X206350000Y-74722000D01*
%TO.C,RV2*%
X100350000Y-104550000D02*
X113650000Y-104550000D01*
X113650000Y-104550000D02*
X113650000Y-90150000D01*
X100350000Y-90150000D02*
X100350000Y-104550000D01*
X113650000Y-90150000D02*
X100350000Y-90150000D01*
D11*
%TO.C,e*%
X99882500Y-90000000D02*
X112082500Y-90000000D01*
X112082500Y-90000000D02*
X112082500Y-78000000D01*
X112082500Y-78000000D02*
X99882500Y-78000000D01*
X99882500Y-78000000D02*
X99882500Y-90000000D01*
D10*
X96882500Y-85800000D02*
X99882500Y-85800000D01*
X99882500Y-85800000D02*
X99882500Y-82200000D01*
X99882500Y-82200000D02*
X96882500Y-82200000D01*
X96882500Y-82200000D02*
X96882500Y-85800000D01*
%TO.C,D3*%
X188850000Y-109209000D02*
X193700000Y-109209000D01*
X193700000Y-104709000D02*
X188850000Y-104709000D01*
X193700000Y-109209000D02*
X193700000Y-104709000D01*
X188850000Y-104709000D02*
X188850000Y-109209000D01*
%TO.C, *%
X207050000Y-112000000D02*
G75*
G03*
X207050000Y-112000000I-3050000J0D01*
G01*
%TO.C,D5*%
X188850000Y-94119000D02*
X193700000Y-94119000D01*
X193700000Y-89619000D02*
X188850000Y-89619000D01*
X193700000Y-94119000D02*
X193700000Y-89619000D01*
X188850000Y-89619000D02*
X188850000Y-94119000D01*
D11*
%TO.C,J4*%
X112000000Y-130117500D02*
X100000000Y-130117500D01*
X100000000Y-130117500D02*
X100000000Y-117917500D01*
X100000000Y-117917500D02*
X112000000Y-117917500D01*
X112000000Y-117917500D02*
X112000000Y-130117500D01*
D10*
X107800000Y-133117500D02*
X104200000Y-133117500D01*
X104200000Y-133117500D02*
X104200000Y-130117500D01*
X104200000Y-130117500D02*
X107800000Y-130117500D01*
X107800000Y-130117500D02*
X107800000Y-133117500D01*
%TO.C,R8*%
X175450000Y-90600000D02*
X187710000Y-90600000D01*
X187710000Y-90600000D02*
X187710000Y-87600000D01*
X175450000Y-87600000D02*
X175450000Y-90600000D01*
X187710000Y-87600000D02*
X175450000Y-87600000D01*
%TO.C,R2*%
X175550000Y-105600000D02*
X175550000Y-108600000D01*
X187810000Y-105600000D02*
X175550000Y-105600000D01*
X187810000Y-108600000D02*
X187810000Y-105600000D01*
X175550000Y-108600000D02*
X187810000Y-108600000D01*
%TO.C,RV5*%
X147469000Y-130150000D02*
X160769000Y-130150000D01*
X147469000Y-115750000D02*
X147469000Y-130150000D01*
X160769000Y-115750000D02*
X147469000Y-115750000D01*
X160769000Y-130150000D02*
X160769000Y-115750000D01*
%TO.C,C3*%
X194600000Y-59850000D02*
X194600000Y-62850000D01*
X194600000Y-62850000D02*
X205100000Y-62850000D01*
X205100000Y-59850000D02*
X194600000Y-59850000D01*
X205100000Y-62850000D02*
X205100000Y-59850000D01*
%TO.C,R7*%
X187710000Y-83100000D02*
X175450000Y-83100000D01*
X175450000Y-86100000D02*
X187710000Y-86100000D01*
X187710000Y-86100000D02*
X187710000Y-83100000D01*
X175450000Y-83100000D02*
X175450000Y-86100000D01*
%TO.C,R4*%
X175470000Y-74100000D02*
X175470000Y-77100000D01*
X187730000Y-77100000D02*
X187730000Y-74100000D01*
X175470000Y-77100000D02*
X187730000Y-77100000D01*
X187730000Y-74100000D02*
X175470000Y-74100000D01*
%TO.C,BZ1*%
X192350000Y-61500000D02*
G75*
G03*
X192350000Y-61500000I-5850000J0D01*
G01*
%TO.C, *%
X123050000Y-112000000D02*
G75*
G03*
X123050000Y-112000000I-3050000J0D01*
G01*
%TO.C,R6*%
X187710000Y-81600000D02*
X187710000Y-78600000D01*
X175450000Y-81600000D02*
X187710000Y-81600000D01*
X187710000Y-78600000D02*
X175450000Y-78600000D01*
X175450000Y-78600000D02*
X175450000Y-81600000D01*
%TO.C,SW1*%
X189360000Y-125000000D02*
X189360000Y-125250000D01*
X189610000Y-117750000D02*
X198610000Y-117750000D01*
X189360000Y-117750000D02*
X189610000Y-117750000D01*
X198860000Y-117750000D02*
X198860000Y-118000000D01*
X198860000Y-125250000D02*
X198860000Y-125000000D01*
X198610000Y-117750000D02*
X198860000Y-117750000D01*
X189360000Y-118000000D02*
X189360000Y-117750000D01*
X189360000Y-125000000D02*
X189360000Y-118000000D01*
X198610000Y-125250000D02*
X189610000Y-125250000D01*
X198860000Y-118000000D02*
X198860000Y-125000000D01*
X198610000Y-125250000D02*
X198860000Y-125250000D01*
X189360000Y-125250000D02*
X189610000Y-125250000D01*
%TO.C,U1*%
X173950000Y-53500000D02*
X173950000Y-108400000D01*
X145550000Y-53500000D02*
X173950000Y-53500000D01*
X173950000Y-108400000D02*
X145550000Y-108400000D01*
X145550000Y-108400000D02*
X145550000Y-53500000D01*
%TO.C,D8*%
X199700000Y-112254000D02*
X194850000Y-112254000D01*
X199700000Y-116754000D02*
X199700000Y-112254000D01*
X194850000Y-112254000D02*
X194850000Y-116754000D01*
X194850000Y-116754000D02*
X199700000Y-116754000D01*
%TO.C,D6*%
X193700000Y-86574000D02*
X193700000Y-82074000D01*
X193700000Y-82074000D02*
X188850000Y-82074000D01*
X188850000Y-86574000D02*
X193700000Y-86574000D01*
X188850000Y-82074000D02*
X188850000Y-86574000D01*
%TD*%
M02*
